<svg viewBox="0 0 512 512" width="512" height="512" version="1.1" xmlns="http://www.w3.org/2000/svg" desc="Created with imagetracer.js version 1.2.6" ><path fill="currentColor" stroke="currentColor" stroke-currentColor="1" opacity="0.7019607843137254" d="M 53.5 66 L 52.5 68 L 53.5 66 Z " /><path fill="currentColor" stroke="currentColor" stroke-currentColor="1" opacity="0.7019607843137254" d="M 458.5 66 L 459.5 68 L 458.5 66 Z " /><path fill="currentColor" stroke="currentColor" stroke-currentColor="1" opacity="0.7019607843137254" d="M 50.5 68 L 47.5 72 L 50.5 68 Z " /><path fill="currentColor" stroke="currentColor" stroke-currentColor="1" opacity="0.7019607843137254" d="M 461.5 68 L 464.5 72 L 461.5 68 Z " /><path fill="currentColor" stroke="currentColor" stroke-currentColor="1" opacity="0.7019607843137254" d="M 51.5 102 L 52.5 104 L 51.5 102 Z " /><path fill="currentColor" stroke="currentColor" stroke-currentColor="1" opacity="0.7019607843137254" d="M 460.5 102 L 459.5 104 L 460.5 102 Z " /><path fill="currentColor" stroke="currentColor" stroke-currentColor="1" opacity="0.7019607843137254" d="M 60.5 106 L 452 106.5 L 60.5 107 L 60.5 106 Z " /><path fill="currentColor" stroke="currentColor" stroke-currentColor="1" opacity="0.7019607843137254" d="M 114.5 182 L 110.5 187 L 114.5 182 Z " /><path fill="currentColor" stroke="currentColor" stroke-currentColor="1" opacity="0.7019607843137254" d="M 397.5 182 L 401.5 187 L 397.5 182 Z " /><path fill="currentColor" stroke="currentColor" stroke-currentColor="1" opacity="0.7019607843137254" d="M 110.5 211 L 112.5 214 L 110.5 211 Z " /><path fill="currentColor" stroke="currentColor" stroke-currentColor="1" opacity="0.7019607843137254" d="M 401.5 211 L 400.5 213 L 401.5 211 Z " /><path fill="currentColor" stroke="currentColor" stroke-currentColor="1" opacity="0.7019607843137254" d="M 398.5 214 L 396.5 217 L 398.5 214 Z " /><path fill="currentColor" stroke="currentColor" stroke-currentColor="1" opacity="0.7019607843137254" d="M 114.5 215 L 115.5 217 L 114.5 215 Z " /><path fill="currentColor" stroke="currentColor" stroke-currentColor="1" opacity="0.7019607843137254" d="M 126.5 220 L 386 220.5 L 126.5 221 L 126.5 220 Z " /><path fill="currentColor" stroke="currentColor" stroke-currentColor="1" opacity="0.7019607843137254" d="M 62.5 291 L 450 291.5 L 62.5 292 L 62.5 291 Z " /><path fill="currentColor" stroke="currentColor" stroke-currentColor="1" opacity="0.7019607843137254" d="M 51.5 295 L 50.5 297 L 51.5 295 Z " /><path fill="currentColor" stroke="currentColor" stroke-currentColor="1" opacity="0.7019607843137254" d="M 460.5 295 L 461.5 297 L 460.5 295 Z " /><path fill="currentColor" stroke="currentColor" stroke-currentColor="1" opacity="0.7019607843137254" d="M 48.5 298 L 46.5 301 L 48.5 298 Z " /><path fill="currentColor" stroke="currentColor" stroke-currentColor="1" opacity="0.7019607843137254" d="M 464.5 299 L 465.5 301 L 464.5 299 Z " /><path fill="currentColor" stroke="currentColor" stroke-currentColor="1" opacity="0.7019607843137254" d="M 465.5 325 L 461.5 330 L 465.5 325 Z " /><path fill="currentColor" stroke="currentColor" stroke-currentColor="1" opacity="0.7019607843137254" d="M 47.5 326 L 50.5 330 L 47.5 326 Z " /><path fill="currentColor" stroke="currentColor" stroke-currentColor="1" opacity="0.7019607843137254" d="M 124.5 405 L 388 405.5 L 124.5 406 L 124.5 405 Z " /><path fill="currentColor" stroke="currentColor" stroke-currentColor="1" opacity="0.7019607843137254" d="M 116.5 408 L 115.5 410 L 116.5 408 Z " /><path fill="currentColor" stroke="currentColor" stroke-currentColor="1" opacity="0.7019607843137254" d="M 395.5 408 L 396.5 410 L 395.5 408 Z " /><path fill="currentColor" stroke="currentColor" stroke-currentColor="1" opacity="0.7019607843137254" d="M 111.5 440 L 114.5 444 L 111.5 440 Z " /><path fill="currentColor" stroke="currentColor" stroke-currentColor="1" opacity="0.7019607843137254" d="M 400.5 440 L 397.5 444 L 400.5 440 Z " /><path fill="currentColor" stroke="currentColor" stroke-currentColor="1" opacity="0.7019607843137254" d="M 116.5 444 L 117.5 446 L 116.5 444 Z " /><path fill="currentColor" stroke="currentColor" stroke-currentColor="1" opacity="0.7019607843137254" d="M 395.5 444 L 394.5 446 L 393 445.5 L 395.5 444 Z " /><path fill="currentColor" stroke="currentColor" stroke-currentColor="1" opacity="0.7019607843137254" d="M 123.5 447 L 126 447.5 L 123.5 448 L 123.5 447 Z " /><path fill="currentColor" stroke="currentColor" stroke-currentColor="1" opacity="0.7019607843137254" d="M 386.5 447 L 389 447.5 L 386.5 448 L 386.5 447 Z " /><path fill="currentColor" stroke="currentColor" stroke-currentColor="1" opacity="1" d="M 61.5 64 L 450.5 64 Q 461.3 65.7 466 73.5 L 469 81.5 L 469 89.5 Q 467.2 97.7 461.5 102 L 453.5 106 L 58.5 106 Q 51.1 103.9 47 98.5 L 43 89.5 L 43 81.5 Q 44.8 72.3 51.5 68 L 61.5 64 Z " /><path fill="currentColor" stroke="currentColor" stroke-currentColor="1" opacity="1" d="M 124.5 178 L 387.5 178 Q 397.5 180 402 187.5 L 405 195.5 L 405 203.5 L 400 214 L 388.5 220 L 123.5 220 L 113 215 L 107 203.5 L 107 194.5 Q 109.4 185.4 116.5 181 L 124.5 178 Z " /><path fill="currentColor" stroke="currentColor" stroke-currentColor="1" opacity="1" d="M 59.5 292 L 452.5 292 L 464 298.5 L 469 308.5 L 469 316.5 Q 467 326.5 459.5 331 L 451.5 334 L 60.5 334 Q 50.5 332 46 324.5 Q 41.6 319.4 43 308.5 L 49 297 L 59.5 292 Z " /><path fill="currentColor" stroke="currentColor" stroke-currentColor="1" opacity="1" d="M 122.5 406 L 389.5 406 Q 396.9 408.1 401 413.5 L 405 422.5 L 405 430.5 Q 403.3 439.8 396.5 444 L 385.5 448 L 126.5 448 L 118.5 446 L 110 438.5 L 107 430.5 L 107 422.5 Q 108.7 414.2 114.5 410 L 122.5 406 Z " /><path fill="currentColor" stroke="currentColor" stroke-currentColor="1" opacity="0" d="M 0 0 L 512 0 L 512 512 L 0 512 L 0 0 Z M 60 64 L 51 68 Q 45 72 43 80 Q 41 92 46 98 Q 51 105 61 107 L 452 107 L 460 104 Q 466 100 469 92 Q 471 78 465 72 Q 461 66 453 64 L 60 64 Z M 123 178 L 115 182 Q 109 186 107 194 Q 105 206 110 212 Q 115 219 127 221 L 386 221 L 397 217 Q 402 213 405 206 Q 407 193 402 187 Q 398 181 390 178 L 123 178 Z M 63 291 L 52 295 Q 46 299 43 307 Q 41 321 47 327 Q 51 332 59 334 L 454 334 L 462 330 Q 467 326 469 319 Q 471 306 466 301 Q 461 293 450 291 L 63 291 Z M 125 405 L 117 408 Q 110 412 107 421 Q 105 435 111 441 Q 115 446 124 448 L 389 448 L 398 444 Q 403 440 405 433 Q 407 420 402 415 Q 397 407 388 405 L 125 405 Z " /></svg>