<svg viewBox="0 0 512 512" width="512" height="512" version="1.1" xmlns="http://www.w3.org/2000/svg" desc="Created with imagetracer.js version 1.2.6" ><path fill="currentColor" stroke="currentColor" stroke-currentColor="1" opacity="0.3137254901960784" d="M 61.5 42 L 451 42.5 L 61.5 43 L 61.5 42 Z " /><path fill="currentColor" stroke="currentColor" stroke-currentColor="1" opacity="0.3137254901960784" d="M 51.5 46 L 50.5 48 L 51.5 46 Z " /><path fill="currentColor" stroke="currentColor" stroke-currentColor="1" opacity="0.3137254901960784" d="M 460.5 46 L 461.5 48 L 460.5 46 Z " /><path fill="currentColor" stroke="currentColor" stroke-currentColor="1" opacity="0.3137254901960784" d="M 47.5 50 L 46.5 52 L 47.5 50 Z " /><path fill="currentColor" stroke="currentColor" stroke-currentColor="1" opacity="0.3137254901960784" d="M 464.5 50 L 465.5 52 L 464.5 50 Z " /><path fill="currentColor" stroke="currentColor" stroke-currentColor="1" opacity="0.3137254901960784" d="M 42.5 61 L 43 66.5 L 42 66.5 L 42.5 61 Z " /><path fill="currentColor" stroke="currentColor" stroke-currentColor="1" opacity="0.3137254901960784" d="M 469.5 61 L 470 66.5 L 469 66.5 L 469.5 61 Z " /><path fill="currentColor" stroke="currentColor" stroke-currentColor="1" opacity="0.3137254901960784" d="M 46.5 76 L 47.5 78 L 46.5 76 Z " /><path fill="currentColor" stroke="currentColor" stroke-currentColor="1" opacity="0.3137254901960784" d="M 465.5 76 L 464.5 78 L 465.5 76 Z " /><path fill="currentColor" stroke="currentColor" stroke-currentColor="1" opacity="0.3137254901960784" d="M 50.5 80 L 51.5 82 L 50.5 80 Z " /><path fill="currentColor" stroke="currentColor" stroke-currentColor="1" opacity="0.3137254901960784" d="M 461.5 80 L 460.5 82 L 461.5 80 Z " /><path fill="currentColor" stroke="currentColor" stroke-currentColor="1" opacity="0.3137254901960784" d="M 61.5 85 L 451 85.5 L 61.5 86 L 61.5 85 Z " /><path fill="currentColor" stroke="currentColor" stroke-currentColor="1" opacity="0.3137254901960784" d="M 61.5 170 L 323 170.5 L 61.5 171 L 61.5 170 Z " /><path fill="currentColor" stroke="currentColor" stroke-currentColor="1" opacity="0.3137254901960784" d="M 51.5 174 L 50.5 176 L 51.5 174 Z " /><path fill="currentColor" stroke="currentColor" stroke-currentColor="1" opacity="0.3137254901960784" d="M 332.5 174 L 333.5 176 L 332.5 174 Z " /><path fill="currentColor" stroke="currentColor" stroke-currentColor="1" opacity="0.3137254901960784" d="M 47.5 178 L 46.5 180 L 47.5 178 Z " /><path fill="currentColor" stroke="currentColor" stroke-currentColor="1" opacity="0.3137254901960784" d="M 336.5 178 L 337.5 180 L 336.5 178 Z " /><path fill="currentColor" stroke="currentColor" stroke-currentColor="1" opacity="0.3137254901960784" d="M 42.5 189 L 43 194.5 L 42 194.5 L 42.5 189 Z " /><path fill="currentColor" stroke="currentColor" stroke-currentColor="1" opacity="0.3137254901960784" d="M 341.5 189 L 342 194.5 L 341 194.5 L 341.5 189 Z " /><path fill="currentColor" stroke="currentColor" stroke-currentColor="1" opacity="0.3137254901960784" d="M 46.5 204 L 47.5 206 L 46.5 204 Z " /><path fill="currentColor" stroke="currentColor" stroke-currentColor="1" opacity="0.3137254901960784" d="M 337.5 204 L 336.5 206 L 337.5 204 Z " /><path fill="currentColor" stroke="currentColor" stroke-currentColor="1" opacity="0.3137254901960784" d="M 50.5 208 L 51.5 210 L 50.5 208 Z " /><path fill="currentColor" stroke="currentColor" stroke-currentColor="1" opacity="0.3137254901960784" d="M 333.5 208 L 332.5 210 L 333.5 208 Z " /><path fill="currentColor" stroke="currentColor" stroke-currentColor="1" opacity="0.3137254901960784" d="M 61.5 213 L 323 213.5 L 61.5 214 L 61.5 213 Z " /><path fill="currentColor" stroke="currentColor" stroke-currentColor="1" opacity="0.3137254901960784" d="M 61.5 298 L 451 298.5 L 61.5 299 L 61.5 298 Z " /><path fill="currentColor" stroke="currentColor" stroke-currentColor="1" opacity="0.3137254901960784" d="M 51.5 302 L 50.5 304 L 51.5 302 Z " /><path fill="currentColor" stroke="currentColor" stroke-currentColor="1" opacity="0.3137254901960784" d="M 460.5 302 L 461.5 304 L 460.5 302 Z " /><path fill="currentColor" stroke="currentColor" stroke-currentColor="1" opacity="0.3137254901960784" d="M 47.5 306 L 46.5 308 L 47.5 306 Z " /><path fill="currentColor" stroke="currentColor" stroke-currentColor="1" opacity="0.3137254901960784" d="M 464.5 306 L 465.5 308 L 464.5 306 Z " /><path fill="currentColor" stroke="currentColor" stroke-currentColor="1" opacity="0.3137254901960784" d="M 42.5 317 L 43 322.5 L 42 322.5 L 42.5 317 Z " /><path fill="currentColor" stroke="currentColor" stroke-currentColor="1" opacity="0.3137254901960784" d="M 469.5 317 L 470 322.5 L 469 322.5 L 469.5 317 Z " /><path fill="currentColor" stroke="currentColor" stroke-currentColor="1" opacity="0.3137254901960784" d="M 46.5 332 L 47.5 334 L 46.5 332 Z " /><path fill="currentColor" stroke="currentColor" stroke-currentColor="1" opacity="0.3137254901960784" d="M 465.5 332 L 464.5 334 L 465.5 332 Z " /><path fill="currentColor" stroke="currentColor" stroke-currentColor="1" opacity="0.3137254901960784" d="M 50.5 336 L 51.5 338 L 50.5 336 Z " /><path fill="currentColor" stroke="currentColor" stroke-currentColor="1" opacity="0.3137254901960784" d="M 461.5 336 L 460.5 338 L 461.5 336 Z " /><path fill="currentColor" stroke="currentColor" stroke-currentColor="1" opacity="0.3137254901960784" d="M 61.5 341 L 451 341.5 L 61.5 342 L 61.5 341 Z " /><path fill="currentColor" stroke="currentColor" stroke-currentColor="1" opacity="0.3137254901960784" d="M 61.5 426 L 323 426.5 L 61.5 427 L 61.5 426 Z " /><path fill="currentColor" stroke="currentColor" stroke-currentColor="1" opacity="0.3137254901960784" d="M 51.5 430 L 50.5 432 L 51.5 430 Z " /><path fill="currentColor" stroke="currentColor" stroke-currentColor="1" opacity="0.3137254901960784" d="M 332.5 430 L 333.5 432 L 332.5 430 Z " /><path fill="currentColor" stroke="currentColor" stroke-currentColor="1" opacity="0.3137254901960784" d="M 47.5 434 L 46.5 436 L 47.5 434 Z " /><path fill="currentColor" stroke="currentColor" stroke-currentColor="1" opacity="0.3137254901960784" d="M 336.5 434 L 337.5 436 L 336.5 434 Z " /><path fill="currentColor" stroke="currentColor" stroke-currentColor="1" opacity="0.3137254901960784" d="M 42.5 445 L 43 450.5 L 42 450.5 L 42.5 445 Z " /><path fill="currentColor" stroke="currentColor" stroke-currentColor="1" opacity="0.3137254901960784" d="M 341.5 445 L 342 450.5 L 341 450.5 L 341.5 445 Z " /><path fill="currentColor" stroke="currentColor" stroke-currentColor="1" opacity="0.3137254901960784" d="M 46.5 460 L 47.5 462 L 46.5 460 Z " /><path fill="currentColor" stroke="currentColor" stroke-currentColor="1" opacity="0.3137254901960784" d="M 337.5 460 L 336.5 462 L 337.5 460 Z " /><path fill="currentColor" stroke="currentColor" stroke-currentColor="1" opacity="0.3137254901960784" d="M 50.5 464 L 51.5 466 L 50.5 464 Z " /><path fill="currentColor" stroke="currentColor" stroke-currentColor="1" opacity="0.3137254901960784" d="M 333.5 464 L 332.5 466 L 333.5 464 Z " /><path fill="currentColor" stroke="currentColor" stroke-currentColor="1" opacity="0.3137254901960784" d="M 61.5 469 L 323 469.5 L 61.5 470 L 61.5 469 Z " /><path fill="currentColor" stroke="currentColor" stroke-currentColor="1" opacity="0" d="M 0 0 L 512 0 L 512 512 L 0 512 L 0 0 Z M 62 42 L 52 46 Q 44 51 42 62 Q 42 71 46 77 Q 51 84 62 86 L 451 86 L 461 82 Q 468 77 470 67 Q 470 57 466 52 Q 461 44 451 42 L 62 42 Z M 62 170 L 52 174 Q 44 179 42 190 Q 42 199 46 205 Q 51 212 62 214 L 323 214 L 333 210 Q 340 205 342 195 Q 342 185 338 180 Q 333 172 323 170 L 62 170 Z M 62 298 L 52 302 Q 44 307 42 318 Q 42 327 46 333 Q 51 340 62 342 L 451 342 L 461 338 Q 468 333 470 323 Q 470 313 466 308 Q 461 300 451 298 L 62 298 Z M 62 426 L 52 430 Q 44 435 42 446 Q 42 455 46 461 Q 51 468 62 470 L 323 470 L 333 466 Q 340 461 342 451 Q 342 441 338 436 Q 333 428 323 426 L 62 426 Z " /><path fill="currentColor" stroke="currentColor" stroke-currentColor="1" opacity="0.7843137254901961" d="M 49.5 48 L 48.5 50 L 49.5 48 Z " /><path fill="currentColor" stroke="currentColor" stroke-currentColor="1" opacity="0.7843137254901961" d="M 462.5 48 L 463.5 50 L 462.5 48 Z " /><path fill="currentColor" stroke="currentColor" stroke-currentColor="1" opacity="0.7843137254901961" d="M 48.5 78 L 49.5 80 L 48.5 78 Z " /><path fill="currentColor" stroke="currentColor" stroke-currentColor="1" opacity="0.7843137254901961" d="M 463.5 78 L 462.5 80 L 463.5 78 Z " /><path fill="currentColor" stroke="currentColor" stroke-currentColor="1" opacity="0.7843137254901961" d="M 49.5 176 L 48.5 178 L 49.5 176 Z " /><path fill="currentColor" stroke="currentColor" stroke-currentColor="1" opacity="0.7843137254901961" d="M 334.5 176 L 335.5 178 L 334.5 176 Z " /><path fill="currentColor" stroke="currentColor" stroke-currentColor="1" opacity="0.7843137254901961" d="M 48.5 206 L 49.5 208 L 48.5 206 Z " /><path fill="currentColor" stroke="currentColor" stroke-currentColor="1" opacity="0.7843137254901961" d="M 335.5 206 L 334.5 208 L 335.5 206 Z " /><path fill="currentColor" stroke="currentColor" stroke-currentColor="1" opacity="0.7843137254901961" d="M 49.5 304 L 48.5 306 L 49.5 304 Z " /><path fill="currentColor" stroke="currentColor" stroke-currentColor="1" opacity="0.7843137254901961" d="M 462.5 304 L 463.5 306 L 462.5 304 Z " /><path fill="currentColor" stroke="currentColor" stroke-currentColor="1" opacity="0.7843137254901961" d="M 48.5 334 L 49.5 336 L 48.5 334 Z " /><path fill="currentColor" stroke="currentColor" stroke-currentColor="1" opacity="0.7843137254901961" d="M 463.5 334 L 462.5 336 L 463.5 334 Z " /><path fill="currentColor" stroke="currentColor" stroke-currentColor="1" opacity="0.7843137254901961" d="M 49.5 432 L 48.5 434 L 49.5 432 Z " /><path fill="currentColor" stroke="currentColor" stroke-currentColor="1" opacity="0.7843137254901961" d="M 334.5 432 L 335.5 434 L 334.5 432 Z " /><path fill="currentColor" stroke="currentColor" stroke-currentColor="1" opacity="0.7843137254901961" d="M 48.5 462 L 49.5 464 L 48.5 462 Z " /><path fill="currentColor" stroke="currentColor" stroke-currentColor="1" opacity="0.7843137254901961" d="M 335.5 462 L 334.5 464 L 335.5 462 Z " /><path fill="currentColor" stroke="currentColor" stroke-currentColor="1" opacity="1" d="M 60.5 43 L 451.5 43 Q 461.5 45 466 52.5 L 469 60.5 L 469 67.5 Q 467.1 76.6 460.5 81 L 451.5 85 L 60.5 85 Q 50.5 83 46 75.5 L 43 67.5 L 43 60.5 Q 45 50.5 52.5 46 L 60.5 43 Z " /><path fill="currentColor" stroke="currentColor" stroke-currentColor="1" opacity="1" d="M 60.5 171 L 323.5 171 Q 333.5 173 338 180.5 L 341 188.5 L 341 195.5 Q 339.1 204.6 332.5 209 L 323.5 213 L 60.5 213 Q 50.5 211 46 203.5 L 43 195.5 L 43 188.5 Q 45 178.5 52.5 174 L 60.5 171 Z " /><path fill="currentColor" stroke="currentColor" stroke-currentColor="1" opacity="1" d="M 60.5 299 L 451.5 299 Q 461.5 301 466 308.5 L 469 316.5 L 469 323.5 Q 467.1 332.6 460.5 337 L 451.5 341 L 60.5 341 Q 50.5 339 46 331.5 L 43 323.5 L 43 316.5 Q 45 306.5 52.5 302 L 60.5 299 Z " /><path fill="currentColor" stroke="currentColor" stroke-currentColor="1" opacity="1" d="M 60.5 427 L 323.5 427 Q 333.5 429 338 436.5 L 341 444.5 L 341 451.5 Q 339.1 460.6 332.5 465 L 323.5 469 L 60.5 469 Q 50.5 467 46 459.5 L 43 451.5 L 43 444.5 Q 45 434.5 52.5 430 L 60.5 427 Z " /></svg>