<svg viewBox="0 0 512 512" width="512" height="512" version="1.1" xmlns="http://www.w3.org/2000/svg" desc="Created with imagetracer.js version 1.2.6" ><path fill="currentColor" stroke="currentColor" stroke-width="1" opacity="0.3137254901960784" d="M 61.5 42 L 451 42.5 L 61.5 43 L 61.5 42 Z " /><path fill="currentColor" stroke="currentColor" stroke-width="1" opacity="0.3137254901960784" d="M 51.5 46 L 50.5 48 L 51.5 46 Z " /><path fill="currentColor" stroke="currentColor" stroke-width="1" opacity="0.3137254901960784" d="M 460.5 46 L 461.5 48 L 460.5 46 Z " /><path fill="currentColor" stroke="currentColor" stroke-width="1" opacity="0.3137254901960784" d="M 47.5 50 L 46.5 52 L 47.5 50 Z " /><path fill="currentColor" stroke="currentColor" stroke-width="1" opacity="0.3137254901960784" d="M 464.5 50 L 465.5 52 L 464.5 50 Z " /><path fill="currentColor" stroke="currentColor" stroke-width="1" opacity="0.3137254901960784" d="M 42.5 61 L 43 66.5 L 42 66.5 L 42.5 61 Z " /><path fill="currentColor" stroke="currentColor" stroke-width="1" opacity="0.3137254901960784" d="M 469.5 61 L 470 66.5 L 469 66.5 L 469.5 61 Z " /><path fill="currentColor" stroke="currentColor" stroke-width="1" opacity="0.3137254901960784" d="M 46.5 76 L 47.5 78 L 46.5 76 Z " /><path fill="currentColor" stroke="currentColor" stroke-width="1" opacity="0.3137254901960784" d="M 465.5 76 L 464.5 78 L 465.5 76 Z " /><path fill="currentColor" stroke="currentColor" stroke-width="1" opacity="0.3137254901960784" d="M 50.5 80 L 51.5 82 L 50.5 80 Z " /><path fill="currentColor" stroke="currentColor" stroke-width="1" opacity="0.3137254901960784" d="M 461.5 80 L 460.5 82 L 461.5 80 Z " /><path fill="currentColor" stroke="currentColor" stroke-width="1" opacity="0.3137254901960784" d="M 61.5 85 L 451 85.5 L 61.5 86 L 61.5 85 Z " /><path fill="currentColor" stroke="currentColor" stroke-width="1" opacity="0.3137254901960784" d="M 189.5 170 L 451 170.5 L 189.5 171 L 189.5 170 Z " /><path fill="currentColor" stroke="currentColor" stroke-width="1" opacity="0.3137254901960784" d="M 179.5 174 L 178.5 176 L 179.5 174 Z " /><path fill="currentColor" stroke="currentColor" stroke-width="1" opacity="0.3137254901960784" d="M 460.5 174 L 461.5 176 L 460.5 174 Z " /><path fill="currentColor" stroke="currentColor" stroke-width="1" opacity="0.3137254901960784" d="M 175.5 178 L 174.5 180 L 175.5 178 Z " /><path fill="currentColor" stroke="currentColor" stroke-width="1" opacity="0.3137254901960784" d="M 464.5 178 L 465.5 180 L 464.5 178 Z " /><path fill="currentColor" stroke="currentColor" stroke-width="1" opacity="0.3137254901960784" d="M 170.5 189 L 171 194.5 L 170 194.5 L 170.5 189 Z " /><path fill="currentColor" stroke="currentColor" stroke-width="1" opacity="0.3137254901960784" d="M 469.5 189 L 470 194.5 L 469 194.5 L 469.5 189 Z " /><path fill="currentColor" stroke="currentColor" stroke-width="1" opacity="0.3137254901960784" d="M 174.5 204 L 175.5 206 L 174.5 204 Z " /><path fill="currentColor" stroke="currentColor" stroke-width="1" opacity="0.3137254901960784" d="M 465.5 204 L 464.5 206 L 465.5 204 Z " /><path fill="currentColor" stroke="currentColor" stroke-width="1" opacity="0.3137254901960784" d="M 178.5 208 L 179.5 210 L 178.5 208 Z " /><path fill="currentColor" stroke="currentColor" stroke-width="1" opacity="0.3137254901960784" d="M 461.5 208 L 460.5 210 L 461.5 208 Z " /><path fill="currentColor" stroke="currentColor" stroke-width="1" opacity="0.3137254901960784" d="M 189.5 213 L 451 213.5 L 189.5 214 L 189.5 213 Z " /><path fill="currentColor" stroke="currentColor" stroke-width="1" opacity="0.3137254901960784" d="M 61.5 298 L 451 298.5 L 61.5 299 L 61.5 298 Z " /><path fill="currentColor" stroke="currentColor" stroke-width="1" opacity="0.3137254901960784" d="M 51.5 302 L 50.5 304 L 51.5 302 Z " /><path fill="currentColor" stroke="currentColor" stroke-width="1" opacity="0.3137254901960784" d="M 460.5 302 L 461.5 304 L 460.5 302 Z " /><path fill="currentColor" stroke="currentColor" stroke-width="1" opacity="0.3137254901960784" d="M 47.5 306 L 46.5 308 L 47.5 306 Z " /><path fill="currentColor" stroke="currentColor" stroke-width="1" opacity="0.3137254901960784" d="M 464.5 306 L 465.5 308 L 464.5 306 Z " /><path fill="currentColor" stroke="currentColor" stroke-width="1" opacity="0.3137254901960784" d="M 42.5 317 L 43 322.5 L 42 322.5 L 42.5 317 Z " /><path fill="currentColor" stroke="currentColor" stroke-width="1" opacity="0.3137254901960784" d="M 469.5 317 L 470 322.5 L 469 322.5 L 469.5 317 Z " /><path fill="currentColor" stroke="currentColor" stroke-width="1" opacity="0.3137254901960784" d="M 46.5 332 L 47.5 334 L 46.5 332 Z " /><path fill="currentColor" stroke="currentColor" stroke-width="1" opacity="0.3137254901960784" d="M 465.5 332 L 464.5 334 L 465.5 332 Z " /><path fill="currentColor" stroke="currentColor" stroke-width="1" opacity="0.3137254901960784" d="M 50.5 336 L 51.5 338 L 50.5 336 Z " /><path fill="currentColor" stroke="currentColor" stroke-width="1" opacity="0.3137254901960784" d="M 461.5 336 L 460.5 338 L 461.5 336 Z " /><path fill="currentColor" stroke="currentColor" stroke-width="1" opacity="0.3137254901960784" d="M 61.5 341 L 451 341.5 L 61.5 342 L 61.5 341 Z " /><path fill="currentColor" stroke="currentColor" stroke-width="1" opacity="0.3137254901960784" d="M 189.5 426 L 451 426.5 L 189.5 427 L 189.5 426 Z " /><path fill="currentColor" stroke="currentColor" stroke-width="1" opacity="0.3137254901960784" d="M 179.5 430 L 178.5 432 L 179.5 430 Z " /><path fill="currentColor" stroke="currentColor" stroke-width="1" opacity="0.3137254901960784" d="M 460.5 430 L 461.5 432 L 460.5 430 Z " /><path fill="currentColor" stroke="currentColor" stroke-width="1" opacity="0.3137254901960784" d="M 175.5 434 L 174.5 436 L 175.5 434 Z " /><path fill="currentColor" stroke="currentColor" stroke-width="1" opacity="0.3137254901960784" d="M 464.5 434 L 465.5 436 L 464.5 434 Z " /><path fill="currentColor" stroke="currentColor" stroke-width="1" opacity="0.3137254901960784" d="M 170.5 445 L 171 450.5 L 170 450.5 L 170.5 445 Z " /><path fill="currentColor" stroke="currentColor" stroke-width="1" opacity="0.3137254901960784" d="M 469.5 445 L 470 450.5 L 469 450.5 L 469.5 445 Z " /><path fill="currentColor" stroke="currentColor" stroke-width="1" opacity="0.3137254901960784" d="M 174.5 460 L 175.5 462 L 174.5 460 Z " /><path fill="currentColor" stroke="currentColor" stroke-width="1" opacity="0.3137254901960784" d="M 465.5 460 L 464.5 462 L 465.5 460 Z " /><path fill="currentColor" stroke="currentColor" stroke-width="1" opacity="0.3137254901960784" d="M 178.5 464 L 179.5 466 L 178.5 464 Z " /><path fill="currentColor" stroke="currentColor" stroke-width="1" opacity="0.3137254901960784" d="M 461.5 464 L 460.5 466 L 461.5 464 Z " /><path fill="currentColor" stroke="currentColor" stroke-width="1" opacity="0.3137254901960784" d="M 189.5 469 L 451 469.5 L 189.5 470 L 189.5 469 Z " /><path fill="currentColor" stroke="currentColor" stroke-width="1" opacity="0" d="M 0 0 L 512 0 L 512 512 L 0 512 L 0 0 Z M 62 42 L 52 46 Q 44 51 42 62 Q 42 71 46 77 Q 51 84 62 86 L 451 86 L 461 82 Q 468 77 470 67 Q 470 57 466 52 Q 461 44 451 42 L 62 42 Z M 190 170 L 180 174 Q 172 179 170 190 Q 170 199 174 205 Q 179 212 190 214 L 451 214 L 461 210 Q 468 205 470 195 Q 470 185 466 180 Q 461 172 451 170 L 190 170 Z M 62 298 L 52 302 Q 44 307 42 318 Q 42 327 46 333 Q 51 340 62 342 L 451 342 L 461 338 Q 468 333 470 323 Q 470 313 466 308 Q 461 300 451 298 L 62 298 Z M 190 426 L 180 430 Q 172 435 170 446 Q 170 455 174 461 Q 179 468 190 470 L 451 470 L 461 466 Q 468 461 470 451 Q 470 441 466 436 Q 461 428 451 426 L 190 426 Z " /><path fill="currentColor" stroke="currentColor" stroke-width="1" opacity="0.7843137254901961" d="M 49.5 48 L 48.5 50 L 49.5 48 Z " /><path fill="currentColor" stroke="currentColor" stroke-width="1" opacity="0.7843137254901961" d="M 462.5 48 L 463.5 50 L 462.5 48 Z " /><path fill="currentColor" stroke="currentColor" stroke-width="1" opacity="0.7843137254901961" d="M 48.5 78 L 49.5 80 L 48.5 78 Z " /><path fill="currentColor" stroke="currentColor" stroke-width="1" opacity="0.7843137254901961" d="M 463.5 78 L 462.5 80 L 463.5 78 Z " /><path fill="currentColor" stroke="currentColor" stroke-width="1" opacity="0.7843137254901961" d="M 177.5 176 L 176.5 178 L 177.5 176 Z " /><path fill="currentColor" stroke="currentColor" stroke-width="1" opacity="0.7843137254901961" d="M 462.5 176 L 463.5 178 L 462.5 176 Z " /><path fill="currentColor" stroke="currentColor" stroke-width="1" opacity="0.7843137254901961" d="M 176.5 206 L 177.5 208 L 176.5 206 Z " /><path fill="currentColor" stroke="currentColor" stroke-width="1" opacity="0.7843137254901961" d="M 463.5 206 L 462.5 208 L 463.5 206 Z " /><path fill="currentColor" stroke="currentColor" stroke-width="1" opacity="0.7843137254901961" d="M 49.5 304 L 48.5 306 L 49.5 304 Z " /><path fill="currentColor" stroke="currentColor" stroke-width="1" opacity="0.7843137254901961" d="M 462.5 304 L 463.5 306 L 462.5 304 Z " /><path fill="currentColor" stroke="currentColor" stroke-width="1" opacity="0.7843137254901961" d="M 48.5 334 L 49.5 336 L 48.5 334 Z " /><path fill="currentColor" stroke="currentColor" stroke-width="1" opacity="0.7843137254901961" d="M 463.5 334 L 462.5 336 L 463.5 334 Z " /><path fill="currentColor" stroke="currentColor" stroke-width="1" opacity="0.7843137254901961" d="M 177.5 432 L 176.5 434 L 177.5 432 Z " /><path fill="currentColor" stroke="currentColor" stroke-width="1" opacity="0.7843137254901961" d="M 462.5 432 L 463.5 434 L 462.5 432 Z " /><path fill="currentColor" stroke="currentColor" stroke-width="1" opacity="0.7843137254901961" d="M 176.5 462 L 177.5 464 L 176.5 462 Z " /><path fill="currentColor" stroke="currentColor" stroke-width="1" opacity="0.7843137254901961" d="M 463.5 462 L 462.5 464 L 463.5 462 Z " /><path fill="currentColor" stroke="currentColor" stroke-width="1" opacity="1" d="M 60.5 43 L 451.5 43 Q 461.5 45 466 52.5 L 469 60.5 L 469 67.5 Q 467.1 76.6 460.5 81 L 451.5 85 L 60.5 85 Q 50.5 83 46 75.5 L 43 67.5 L 43 60.5 Q 45 50.5 52.5 46 L 60.5 43 Z " /><path fill="currentColor" stroke="currentColor" stroke-width="1" opacity="1" d="M 188.5 171 L 451.5 171 Q 461.5 173 466 180.5 L 469 188.5 L 469 195.5 Q 467.1 204.6 460.5 209 L 451.5 213 L 188.5 213 Q 178.5 211 174 203.5 L 171 195.5 L 171 188.5 Q 173 178.5 180.5 174 L 188.5 171 Z " /><path fill="currentColor" stroke="currentColor" stroke-width="1" opacity="1" d="M 60.5 299 L 451.5 299 Q 461.5 301 466 308.5 L 469 316.5 L 469 323.5 Q 467.1 332.6 460.5 337 L 451.5 341 L 60.5 341 Q 50.5 339 46 331.5 L 43 323.5 L 43 316.5 Q 45 306.5 52.5 302 L 60.5 299 Z " /><path fill="currentColor" stroke="currentColor" stroke-width="1" opacity="1" d="M 188.5 427 L 451.5 427 Q 461.5 429 466 436.5 L 469 444.5 L 469 451.5 Q 467.1 460.6 460.5 465 L 451.5 469 L 188.5 469 Q 178.5 467 174 459.5 L 171 451.5 L 171 444.5 Q 173 434.5 180.5 430 L 188.5 427 Z " /></svg>