<svg viewBox="0 0 512 512" width="512" height="512" version="1.1" xmlns="http://www.w3.org/2000/svg" desc="Created with imagetracer.js version 1.2.6" ><path fill="currentColor" stroke="rgb(51,51,51)" stroke-width="1" opacity="0.6392156862745098" d="M 289.5 35 L 291 35.5 L 291 74.5 L 293.5 75 L 293.5 76 L 290 75.5 L 290 36.5 L 287.5 38 L 210.5 86 L 212.5 83 L 289.5 35 Z " /><path fill="currentColor" stroke="rgb(51,51,51)" stroke-width="1" opacity="0.6392156862745098" d="M 295.5 76 L 299 76.5 L 295.5 77 L 295.5 76 Z " /><path fill="currentColor" stroke="rgb(51,51,51)" stroke-width="1" opacity="0.6392156862745098" d="M 300.5 77 L 303 77.5 L 300.5 78 L 300.5 77 Z " /><path fill="currentColor" stroke="rgb(51,51,51)" stroke-width="1" opacity="0.6392156862745098" d="M 304.5 78 L 311 79.5 L 308.5 80 L 304.5 79 L 304.5 78 Z " /><path fill="currentColor" stroke="rgb(51,51,51)" stroke-width="1" opacity="0.6392156862745098" d="M 312.5 80 L 318 81.5 L 315.5 82 L 312.5 81 L 312.5 80 Z " /><path fill="currentColor" stroke="rgb(51,51,51)" stroke-width="1" opacity="0.6392156862745098" d="M 325.5 84 L 332 86.5 L 330.5 87 L 325.5 85 L 325.5 84 Z " /><path fill="currentColor" stroke="rgb(51,51,51)" stroke-width="1" opacity="0.6392156862745098" d="M 212.5 86 L 243 105.5 L 241.5 105 L 213.5 88 L 212.5 86 Z " /><path fill="currentColor" stroke="rgb(51,51,51)" stroke-width="1" opacity="0.6392156862745098" d="M 333.5 87 L 357 98.5 L 355.5 98 L 333.5 88 L 333.5 87 Z " /><path fill="currentColor" stroke="rgb(51,51,51)" stroke-width="1" opacity="0.6392156862745098" d="M 358.5 99 L 377 111.5 L 374.5 110 L 359.5 101 L 358.5 99 Z " /><path fill="currentColor" stroke="rgb(51,51,51)" stroke-width="1" opacity="0.6392156862745098" d="M 290 101 L 292 101.5 L 291 102.5 L 291 135 L 288.5 135 L 276 126.5 L 277.5 127 L 290 134 L 290 101 Z " /><path fill="currentColor" stroke="rgb(51,51,51)" stroke-width="1" opacity="0.6392156862745098" d="M 294.5 102 L 297 102.5 L 294.5 103 L 294.5 102 Z " /><path fill="currentColor" stroke="rgb(51,51,51)" stroke-width="1" opacity="0.6392156862745098" d="M 298.5 103 L 301 103.5 L 298.5 104 L 298.5 103 Z " /><path fill="currentColor" stroke="rgb(51,51,51)" stroke-width="1" opacity="0.6392156862745098" d="M 302.5 104 L 305 104.5 L 302.5 105 L 302.5 104 Z " /><path fill="currentColor" stroke="rgb(51,51,51)" stroke-width="1" opacity="0.6392156862745098" d="M 244.5 106 L 251 110.5 L 249.5 110 Q 244.9 108.8 244.5 106 Z " /><path fill="currentColor" stroke="rgb(51,51,51)" stroke-width="1" opacity="0.6392156862745098" d="M 309.5 106 L 317 108.5 L 315.5 109 L 309.5 107 L 309.5 106 Z " /><path fill="currentColor" stroke="rgb(51,51,51)" stroke-width="1" opacity="0.6392156862745098" d="M 321.5 110 L 325 111.5 L 323.5 112 L 321.5 110 Z " /><path fill="currentColor" stroke="rgb(51,51,51)" stroke-width="1" opacity="0.6392156862745098" d="M 252.5 111 L 259 115.5 L 257.5 115 Q 252.9 113.8 252.5 111 Z " /><path fill="currentColor" stroke="rgb(51,51,51)" stroke-width="1" opacity="0.6392156862745098" d="M 326.5 112 L 334 115.5 L 332.5 116 L 326.5 113 L 326.5 112 Z " /><path fill="currentColor" stroke="rgb(51,51,51)" stroke-width="1" opacity="0.6392156862745098" d="M 378.5 112 L 386 118.5 L 381.5 115 L 378.5 112 Z " /><path fill="currentColor" stroke="rgb(51,51,51)" stroke-width="1" opacity="0.6392156862745098" d="M 260.5 116 L 267 120.5 L 265.5 120 Q 260.9 118.8 260.5 116 Z " /><path fill="currentColor" stroke="rgb(51,51,51)" stroke-width="1" opacity="0.6392156862745098" d="M 341.5 119 Q 358.4 127.1 371 139.5 L 367.5 137 L 342.5 121 L 341.5 119 Z " /><path fill="currentColor" stroke="rgb(51,51,51)" stroke-width="1" opacity="0.6392156862745098" d="M 387.5 119 L 409 139.5 L 428 164.5 L 426 163.5 Q 412.4 141.6 393.5 125 L 387.5 119 Z " /><path fill="currentColor" stroke="rgb(51,51,51)" stroke-width="1" opacity="0.6392156862745098" d="M 268.5 121 L 275 125.5 L 273.5 125 Q 268.9 123.8 268.5 121 Z " /><path fill="currentColor" stroke="rgb(51,51,51)" stroke-width="1" opacity="0.6392156862745098" d="M 372.5 140 Q 391.4 155.6 405 176.5 L 402 174.5 L 392 160.5 L 372.5 140 Z " /><path fill="currentColor" stroke="rgb(51,51,51)" stroke-width="1" opacity="0.6392156862745098" d="M 428.5 166 L 433 172.5 L 431 171.5 L 428.5 166 Z " /><path fill="currentColor" stroke="rgb(51,51,51)" stroke-width="1" opacity="0.6392156862745098" d="M 433.5 174 L 444 194.5 L 443 194.5 L 433.5 174 Z " /><path fill="currentColor" stroke="rgb(51,51,51)" stroke-width="1" opacity="0.6392156862745098" d="M 405.5 178 L 417 197.5 L 416 197.5 L 405.5 178 Z " /><path fill="currentColor" stroke="rgb(51,51,51)" stroke-width="1" opacity="0.6392156862745098" d="M 445.5 198 L 447 201.5 L 446 201.5 L 445.5 198 Z " /><path fill="currentColor" stroke="rgb(51,51,51)" stroke-width="1" opacity="0.6392156862745098" d="M 419.5 203 L 425 216.5 L 424 216.5 L 419.5 203 Z " /><path fill="currentColor" stroke="rgb(51,51,51)" stroke-width="1" opacity="0.6392156862745098" d="M 448.5 206 L 453 219.5 L 452 219.5 L 448.5 206 Z " /><path fill="currentColor" stroke="rgb(51,51,51)" stroke-width="1" opacity="0.6392156862745098" d="M 453.5 221 L 454 223.5 L 453 223.5 L 453.5 221 Z " /><path fill="currentColor" stroke="rgb(51,51,51)" stroke-width="1" opacity="0.6392156862745098" d="M 427.5 224 L 429 229.5 L 428 229.5 L 427.5 224 Z " /><path fill="currentColor" stroke="rgb(51,51,51)" stroke-width="1" opacity="0.6392156862745098" d="M 454.5 225 L 456 231.5 L 455 231.5 L 454.5 225 Z " /><path fill="currentColor" stroke="rgb(51,51,51)" stroke-width="1" opacity="0.6392156862745098" d="M 429.5 231 L 430 233.5 L 429 233.5 L 429.5 231 Z " /><path fill="currentColor" stroke="rgb(51,51,51)" stroke-width="1" opacity="0.6392156862745098" d="M 456.5 233 L 457 236.5 L 456 236.5 L 456.5 233 Z " /><path fill="currentColor" stroke="rgb(51,51,51)" stroke-width="1" opacity="0.6392156862745098" d="M 430.5 235 L 431 237.5 L 430 237.5 L 430.5 235 Z " /><path fill="currentColor" stroke="rgb(51,51,51)" stroke-width="1" opacity="0.6392156862745098" d="M 457.5 238 L 458 241.5 L 457 241.5 L 457.5 238 Z " /><path fill="currentColor" stroke="rgb(51,51,51)" stroke-width="1" opacity="0.6392156862745098" d="M 431.5 239 L 432 242.5 L 431 242.5 L 431.5 239 Z " /><path fill="currentColor" stroke="rgb(51,51,51)" stroke-width="1" opacity="0.6392156862745098" d="M 432.5 244 L 433 248.5 L 432 248.5 L 432.5 244 Z " /><path fill="currentColor" stroke="rgb(51,51,51)" stroke-width="1" opacity="0.6392156862745098" d="M 458.5 244 L 459 248.5 L 458 248.5 L 458.5 244 Z " /><path fill="currentColor" stroke="rgb(51,51,51)" stroke-width="1" opacity="0.6392156862745098" d="M 433.5 250 L 434 255.5 L 433 255.5 L 433.5 250 Z " /><path fill="currentColor" stroke="rgb(51,51,51)" stroke-width="1" opacity="0.6392156862745098" d="M 459.5 250 L 460 256.5 L 459 256.5 L 459.5 250 Z " /><path fill="currentColor" stroke="rgb(51,51,51)" stroke-width="1" opacity="0.6392156862745098" d="M 434.5 258 L 435 267.5 L 434 267.5 L 434.5 258 Z " /><path fill="currentColor" stroke="rgb(51,51,51)" stroke-width="1" opacity="0.6392156862745098" d="M 460.5 260 L 461 294.5 L 460 294.5 L 460.5 260 Z " /><path fill="currentColor" stroke="rgb(51,51,51)" stroke-width="1" opacity="0.6392156862745098" d="M 61.5 264 L 67 264.5 L 61.5 265 L 61.5 264 Z " /><path fill="currentColor" stroke="rgb(51,51,51)" stroke-width="1" opacity="0.6392156862745098" d="M 58.5 265 L 60 265.5 L 54 269.5 L 52.5 272 L 53 270.5 L 56.5 266 L 58.5 265 Z " /><path fill="currentColor" stroke="rgb(51,51,51)" stroke-width="1" opacity="0.6392156862745098" d="M 68.5 265 L 75 269.5 L 76 271.5 L 74 270.5 L 71.5 267 Q 67.8 266.7 68.5 265 Z " /><path fill="currentColor" stroke="rgb(51,51,51)" stroke-width="1" opacity="0.6392156862745098" d="M 51.5 273 L 52 293.5 L 51 293.5 L 51.5 273 Z " /><path fill="currentColor" stroke="rgb(51,51,51)" stroke-width="1" opacity="0.6392156862745098" d="M 76.5 273 L 77 277.5 L 76 277.5 L 76.5 273 Z " /><path fill="currentColor" stroke="rgb(51,51,51)" stroke-width="1" opacity="0.6392156862745098" d="M 434.5 286 L 435 295.5 L 434 295.5 L 434.5 286 Z " /><path fill="currentColor" stroke="rgb(51,51,51)" stroke-width="1" opacity="0.6392156862745098" d="M 77.5 287 L 78 296.5 L 77 296.5 L 77.5 287 Z " /><path fill="currentColor" stroke="rgb(51,51,51)" stroke-width="1" opacity="0.6392156862745098" d="M 459.5 297 L 460 303.5 L 459 303.5 L 459.5 297 Z " /><path fill="currentColor" stroke="rgb(51,51,51)" stroke-width="1" opacity="0.6392156862745098" d="M 52.5 298 L 53 303.5 L 52 303.5 L 52.5 298 Z " /><path fill="currentColor" stroke="rgb(51,51,51)" stroke-width="1" opacity="0.6392156862745098" d="M 78.5 298 L 79 304.5 L 78 304.5 L 78.5 298 Z " /><path fill="currentColor" stroke="rgb(51,51,51)" stroke-width="1" opacity="0.6392156862745098" d="M 433.5 298 L 434 303.5 L 433 303.5 L 433.5 298 Z " /><path fill="currentColor" stroke="rgb(51,51,51)" stroke-width="1" opacity="0.6392156862745098" d="M 53.5 306 L 54 310.5 L 53 310.5 L 53.5 306 Z " /><path fill="currentColor" stroke="rgb(51,51,51)" stroke-width="1" opacity="0.6392156862745098" d="M 79.5 306 L 80 309.5 L 79 309.5 L 79.5 306 Z " /><path fill="currentColor" stroke="rgb(51,51,51)" stroke-width="1" opacity="0.6392156862745098" d="M 432.5 306 L 433 309.5 L 432 309.5 L 432.5 306 Z " /><path fill="currentColor" stroke="rgb(51,51,51)" stroke-width="1" opacity="0.6392156862745098" d="M 458.5 306 L 459 310.5 L 458 310.5 L 458.5 306 Z " /><path fill="currentColor" stroke="rgb(51,51,51)" stroke-width="1" opacity="0.6392156862745098" d="M 431.5 311 L 432 314.5 L 431 314.5 L 431.5 311 Z " /><path fill="currentColor" stroke="rgb(51,51,51)" stroke-width="1" opacity="0.6392156862745098" d="M 54.5 312 L 55 316.5 L 54 316.5 L 54.5 312 Z " /><path fill="currentColor" stroke="rgb(51,51,51)" stroke-width="1" opacity="0.6392156862745098" d="M 80.5 312 L 81 314.5 L 80 314.5 L 80.5 312 Z " /><path fill="currentColor" stroke="rgb(51,51,51)" stroke-width="1" opacity="0.6392156862745098" d="M 457.5 312 L 458 316.5 L 457 316.5 L 457.5 312 Z " /><path fill="currentColor" stroke="rgb(51,51,51)" stroke-width="1" opacity="0.6392156862745098" d="M 81.5 316 L 84 326.5 L 83 326.5 L 81.5 316 Z " /><path fill="currentColor" stroke="rgb(51,51,51)" stroke-width="1" opacity="0.6392156862745098" d="M 430.5 316 L 431 319.5 L 430 319.5 L 430.5 316 Z " /><path fill="currentColor" stroke="rgb(51,51,51)" stroke-width="1" opacity="0.6392156862745098" d="M 55.5 318 L 56 321.5 L 55 321.5 L 55.5 318 Z " /><path fill="currentColor" stroke="rgb(51,51,51)" stroke-width="1" opacity="0.6392156862745098" d="M 456.5 318 L 457 320.5 L 456 320.5 L 456.5 318 Z " /><path fill="currentColor" stroke="rgb(51,51,51)" stroke-width="1" opacity="0.6392156862745098" d="M 429.5 321 L 430 323.5 L 429 323.5 L 429.5 321 Z " /><path fill="currentColor" stroke="rgb(51,51,51)" stroke-width="1" opacity="0.6392156862745098" d="M 455.5 322 L 456 325.5 L 455 325.5 L 455.5 322 Z " /><path fill="currentColor" stroke="rgb(51,51,51)" stroke-width="1" opacity="0.6392156862745098" d="M 56.5 323 L 57 325.5 L 56 325.5 L 56.5 323 Z " /><path fill="currentColor" stroke="rgb(51,51,51)" stroke-width="1" opacity="0.6392156862745098" d="M 57.5 327 L 58 329.5 L 57 329.5 L 57.5 327 Z " /><path fill="currentColor" stroke="rgb(51,51,51)" stroke-width="1" opacity="0.6392156862745098" d="M 454.5 327 L 455 329.5 L 454 329.5 L 454.5 327 Z " /><path fill="currentColor" stroke="rgb(51,51,51)" stroke-width="1" opacity="0.6392156862745098" d="M 84.5 328 L 89 341.5 L 88 341.5 L 84 330.5 L 84.5 328 Z " /><path fill="currentColor" stroke="rgb(51,51,51)" stroke-width="1" opacity="0.6392156862745098" d="M 427.5 328 L 428 330.5 L 423.5 342 L 423 340.5 L 427.5 328 Z " /><path fill="currentColor" stroke="rgb(51,51,51)" stroke-width="1" opacity="0.6392156862745098" d="M 453.5 331 L 454 333.5 L 452.5 337 L 452 334.5 L 453.5 331 Z " /><path fill="currentColor" stroke="rgb(51,51,51)" stroke-width="1" opacity="0.6392156862745098" d="M 59.5 334 L 60 336.5 L 59 336.5 L 59.5 334 Z " /><path fill="currentColor" stroke="rgb(51,51,51)" stroke-width="1" opacity="0.6392156862745098" d="M 61.5 341 L 64 348.5 L 63 348.5 L 61.5 341 Z " /><path fill="currentColor" stroke="rgb(51,51,51)" stroke-width="1" opacity="0.6392156862745098" d="M 450.5 341 L 451 343.5 L 449.5 346 L 449 344.5 L 450.5 341 Z " /><path fill="currentColor" stroke="rgb(51,51,51)" stroke-width="1" opacity="0.6392156862745098" d="M 89.5 343 L 91 346.5 L 90 346.5 L 89.5 343 Z " /><path fill="currentColor" stroke="rgb(51,51,51)" stroke-width="1" opacity="0.6392156862745098" d="M 422.5 343 L 423 344.5 L 421.5 347 L 421 345.5 L 422.5 343 Z " /><path fill="currentColor" stroke="rgb(51,51,51)" stroke-width="1" opacity="0.6392156862745098" d="M 91.5 348 L 104 371.5 L 102 370.5 L 91 349.5 L 91.5 348 Z " /><path fill="currentColor" stroke="rgb(51,51,51)" stroke-width="1" opacity="0.6392156862745098" d="M 420.5 348 L 421 349.5 L 411.5 367 L 412 365.5 L 420.5 348 Z " /><path fill="currentColor" stroke="rgb(51,51,51)" stroke-width="1" opacity="0.6392156862745098" d="M 64.5 350 L 66 353.5 L 65 353.5 L 64.5 350 Z " /><path fill="currentColor" stroke="rgb(51,51,51)" stroke-width="1" opacity="0.6392156862745098" d="M 447.5 350 L 448 351.5 L 446.5 354 L 446 352.5 L 447.5 350 Z " /><path fill="currentColor" stroke="rgb(51,51,51)" stroke-width="1" opacity="0.6392156862745098" d="M 66.5 355 L 81 383.5 L 79 382.5 L 68 361.5 L 66.5 355 Z " /><path fill="currentColor" stroke="rgb(51,51,51)" stroke-width="1" opacity="0.6392156862745098" d="M 445.5 355 L 446 356.5 Q 428.9 396.9 399.5 425 L 397 426.5 Q 397.8 428.8 395.5 428 L 384.5 438 L 387.5 434 L 402 421.5 Q 429.8 394.3 445.5 355 Z " /><path fill="currentColor" stroke="rgb(51,51,51)" stroke-width="1" opacity="0.6392156862745098" d="M 410.5 368 L 410 369.5 L 408.5 372 L 409 370.5 L 410.5 368 Z " /><path fill="currentColor" stroke="rgb(51,51,51)" stroke-width="1" opacity="0.6392156862745098" d="M 104.5 373 L 121 394.5 L 116 390.5 L 105 375.5 L 104.5 373 Z " /><path fill="currentColor" stroke="rgb(51,51,51)" stroke-width="1" opacity="0.6392156862745098" d="M 407.5 373 L 407 374.5 Q 393.6 396.6 374.5 413 L 349.5 431 L 350.5 429 Q 373.4 415.9 390 396.5 L 407.5 373 Z " /><path fill="currentColor" stroke="rgb(51,51,51)" stroke-width="1" opacity="0.6392156862745098" d="M 81.5 385 L 95 403.5 L 91 400.5 L 81.5 385 Z " /><path fill="currentColor" stroke="rgb(51,51,51)" stroke-width="1" opacity="0.6392156862745098" d="M 121.5 396 Q 136.3 412.7 155 425.5 L 152.5 424 Q 133.9 412.1 121.5 396 Z " /><path fill="currentColor" stroke="rgb(51,51,51)" stroke-width="1" opacity="0.6392156862745098" d="M 95.5 405 L 111 422.5 L 107 419.5 L 95.5 405 Z " /><path fill="currentColor" stroke="rgb(51,51,51)" stroke-width="1" opacity="0.6392156862745098" d="M 112.5 423 Q 127.9 439.6 148 451.5 L 146.5 451 L 133.5 443 L 112 424.5 L 112.5 423 Z " /><path fill="currentColor" stroke="rgb(51,51,51)" stroke-width="1" opacity="0.6392156862745098" d="M 156.5 426 L 170 434.5 L 168.5 434 L 157.5 428 L 156.5 426 Z " /><path fill="currentColor" stroke="rgb(51,51,51)" stroke-width="1" opacity="0.6392156862745098" d="M 347.5 431 L 346.5 433 L 340.5 436 L 341.5 434 L 347.5 431 Z " /><path fill="currentColor" stroke="rgb(51,51,51)" stroke-width="1" opacity="0.6392156862745098" d="M 338.5 436 L 337.5 438 L 334.5 439 L 334.5 438 L 338.5 436 Z " /><path fill="currentColor" stroke="rgb(51,51,51)" stroke-width="1" opacity="0.6392156862745098" d="M 175.5 437 L 178 438.5 L 176.5 439 L 175.5 437 Z " /><path fill="currentColor" stroke="rgb(51,51,51)" stroke-width="1" opacity="0.6392156862745098" d="M 382.5 438 L 379.5 442 L 359.5 455 L 360.5 453 Q 373.1 447.1 382.5 438 Z " /><path fill="currentColor" stroke="rgb(51,51,51)" stroke-width="1" opacity="0.6392156862745098" d="M 179.5 439 L 187 442.5 L 185.5 443 L 179.5 440 L 179.5 439 Z " /><path fill="currentColor" stroke="rgb(51,51,51)" stroke-width="1" opacity="0.6392156862745098" d="M 329.5 440 L 331 440.5 L 325.5 443 L 325.5 442 L 329.5 440 Z " /><path fill="currentColor" stroke="rgb(51,51,51)" stroke-width="1" opacity="0.6392156862745098" d="M 188.5 443 L 195 445.5 L 193.5 446 L 188.5 444 L 188.5 443 Z " /><path fill="currentColor" stroke="rgb(51,51,51)" stroke-width="1" opacity="0.6392156862745098" d="M 322.5 443 L 324 443.5 L 320.5 445 L 320.5 444 L 322.5 443 Z " /><path fill="currentColor" stroke="rgb(51,51,51)" stroke-width="1" opacity="0.6392156862745098" d="M 317.5 445 L 319 445.5 L 308.5 449 L 308.5 448 L 317.5 445 Z " /><path fill="currentColor" stroke="rgb(51,51,51)" stroke-width="1" opacity="0.6392156862745098" d="M 196.5 446 L 204 448.5 L 201.5 449 L 196.5 447 L 196.5 446 Z " /><path fill="currentColor" stroke="rgb(51,51,51)" stroke-width="1" opacity="0.6392156862745098" d="M 205.5 449 L 211 450.5 L 208.5 451 L 205.5 450 L 205.5 449 Z " /><path fill="currentColor" stroke="rgb(51,51,51)" stroke-width="1" opacity="0.6392156862745098" d="M 304.5 449 L 307 449.5 L 301.5 451 L 301.5 450 L 304.5 449 Z " /><path fill="currentColor" stroke="rgb(51,51,51)" stroke-width="1" opacity="0.6392156862745098" d="M 212.5 451 L 215 451.5 L 212.5 452 L 212.5 451 Z " /><path fill="currentColor" stroke="rgb(51,51,51)" stroke-width="1" opacity="0.6392156862745098" d="M 297.5 451 L 300 451.5 L 297.5 452 L 297.5 451 Z " /><path fill="currentColor" stroke="rgb(51,51,51)" stroke-width="1" opacity="0.6392156862745098" d="M 149.5 452 L 173 464.5 L 171.5 465 L 153.5 456 L 149.5 452 Z " /><path fill="currentColor" stroke="rgb(51,51,51)" stroke-width="1" opacity="0.6392156862745098" d="M 216.5 452 L 220 452.5 L 216.5 453 L 216.5 452 Z " /><path fill="currentColor" stroke="rgb(51,51,51)" stroke-width="1" opacity="0.6392156862745098" d="M 292.5 452 L 295 452.5 L 292.5 453 L 292.5 452 Z " /><path fill="currentColor" stroke="rgb(51,51,51)" stroke-width="1" opacity="0.6392156862745098" d="M 221.5 453 L 226 453.5 L 221.5 454 L 221.5 453 Z " /><path fill="currentColor" stroke="rgb(51,51,51)" stroke-width="1" opacity="0.6392156862745098" d="M 286.5 453 L 291 453.5 L 286.5 454 L 286.5 453 Z " /><path fill="currentColor" stroke="rgb(51,51,51)" stroke-width="1" opacity="0.6392156862745098" d="M 227.5 454 L 233 454.5 L 227.5 455 L 227.5 454 Z " /><path fill="currentColor" stroke="rgb(51,51,51)" stroke-width="1" opacity="0.6392156862745098" d="M 279.5 454 L 285 454.5 L 279.5 455 L 279.5 454 Z " /><path fill="currentColor" stroke="rgb(51,51,51)" stroke-width="1" opacity="0.6392156862745098" d="M 234.5 455 L 243 455.5 L 234.5 456 L 234.5 455 Z " /><path fill="currentColor" stroke="rgb(51,51,51)" stroke-width="1" opacity="0.6392156862745098" d="M 269.5 455 L 278 455.5 L 269.5 456 L 269.5 455 Z " /><path fill="currentColor" stroke="rgb(51,51,51)" stroke-width="1" opacity="0.6392156862745098" d="M 357.5 455 L 356.5 457 L 348.5 461 L 349.5 459 L 357.5 455 Z " /><path fill="currentColor" stroke="rgb(51,51,51)" stroke-width="1" opacity="0.6392156862745098" d="M 245.5 456 L 267 456.5 L 245.5 457 L 245.5 456 Z " /><path fill="currentColor" stroke="rgb(51,51,51)" stroke-width="1" opacity="0.6392156862745098" d="M 343.5 462 L 345 462.5 L 337.5 466 L 337.5 465 L 343.5 462 Z " /><path fill="currentColor" stroke="rgb(51,51,51)" stroke-width="1" opacity="0.6392156862745098" d="M 176.5 466 L 180 467.5 L 178.5 468 L 176.5 466 Z " /><path fill="currentColor" stroke="rgb(51,51,51)" stroke-width="1" opacity="0.6392156862745098" d="M 334.5 466 L 336 466.5 L 332.5 468 L 332.5 467 L 334.5 466 Z " /><path fill="currentColor" stroke="rgb(51,51,51)" stroke-width="1" opacity="0.6392156862745098" d="M 181.5 468 L 185 469.5 L 183.5 470 L 181.5 468 Z " /><path fill="currentColor" stroke="rgb(51,51,51)" stroke-width="1" opacity="0.6392156862745098" d="M 329.5 468 L 331 468.5 L 327.5 470 L 327.5 469 L 329.5 468 Z " /><path fill="currentColor" stroke="rgb(51,51,51)" stroke-width="1" opacity="0.6392156862745098" d="M 195.5 473 L 205 475.5 L 202.5 476 L 195.5 474 L 195.5 473 Z " /><path fill="currentColor" stroke="rgb(51,51,51)" stroke-width="1" opacity="0.6392156862745098" d="M 314.5 473 L 317 473.5 L 314.5 474 L 314.5 473 Z " /><path fill="currentColor" stroke="rgb(51,51,51)" stroke-width="1" opacity="0.6392156862745098" d="M 307.5 475 L 310 475.5 L 307.5 476 L 307.5 475 Z " /><path fill="currentColor" stroke="rgb(51,51,51)" stroke-width="1" opacity="0.6392156862745098" d="M 206.5 476 L 214 477.5 L 210.5 478 L 206.5 477 L 206.5 476 Z " /><path fill="currentColor" stroke="rgb(51,51,51)" stroke-width="1" opacity="0.6392156862745098" d="M 303.5 476 L 306 476.5 L 303.5 477 L 303.5 476 Z " /><path fill="currentColor" stroke="rgb(51,51,51)" stroke-width="1" opacity="0.6392156862745098" d="M 298.5 477 L 302 477.5 L 298.5 478 L 298.5 477 Z " /><path fill="currentColor" stroke="rgb(51,51,51)" stroke-width="1" opacity="0.6392156862745098" d="M 215.5 478 L 219 478.5 L 215.5 479 L 215.5 478 Z " /><path fill="currentColor" stroke="rgb(51,51,51)" stroke-width="1" opacity="0.6392156862745098" d="M 293.5 478 L 297 478.5 L 293.5 479 L 293.5 478 Z " /><path fill="currentColor" stroke="rgb(51,51,51)" stroke-width="1" opacity="0.6392156862745098" d="M 220.5 479 L 225 479.5 L 220.5 480 L 220.5 479 Z " /><path fill="currentColor" stroke="rgb(51,51,51)" stroke-width="1" opacity="0.6392156862745098" d="M 287.5 479 L 292 479.5 L 287.5 480 L 287.5 479 Z " /><path fill="currentColor" stroke="rgb(51,51,51)" stroke-width="1" opacity="0.6392156862745098" d="M 226.5 480 L 233 480.5 L 226.5 481 L 226.5 480 Z " /><path fill="currentColor" stroke="rgb(51,51,51)" stroke-width="1" opacity="0.6392156862745098" d="M 279.5 480 L 286 480.5 L 279.5 481 L 279.5 480 Z " /><path fill="currentColor" stroke="rgb(51,51,51)" stroke-width="1" opacity="0.6392156862745098" d="M 235.5 481 L 245 481.5 L 235.5 482 L 235.5 481 Z " /><path fill="currentColor" stroke="rgb(51,51,51)" stroke-width="1" opacity="0.6392156862745098" d="M 267.5 481 L 277 481.5 L 267.5 482 L 267.5 481 Z " /><path fill="currentColor" stroke="rgb(51,51,51)" stroke-width="1" opacity="0.6392156862745098" d="M 254.5 482 L 258 482.5 L 254.5 483 L 254.5 482 Z " /><path fill="rgb(0,0,0)" stroke="rgb(0,0,0)" stroke-width="1" opacity="0" d="M 0 0 L 512 0 L 512 512 L 0 512 L 0 0 Z M 290 35 L 210 86 L 289 135 L 291 135 L 291 102 L 306 105 L 335 116 Q 355 126 372 140 Q 401 165 419 203 L 427 224 L 431 239 L 433 256 L 434 257 L 434 268 L 435 269 L 435 286 L 434 287 L 433 306 L 429 325 L 423 343 Q 411 374 390 397 Q 366 424 332 440 L 301 451 L 279 455 L 270 455 L 269 456 L 234 455 L 233 454 L 216 452 L 196 446 Q 161 434 137 411 Q 108 385 91 348 L 80 312 L 79 299 L 78 298 L 78 288 L 77 287 L 77 274 L 75 270 Q 72 265 67 264 Q 60 263 57 266 L 51 274 L 51 294 L 52 295 L 53 311 L 62 347 Q 79 392 111 423 Q 113 422 112 425 Q 139 452 179 468 L 199 475 L 221 480 L 235 481 L 236 482 L 252 482 L 254 482 L 258 483 L 260 483 L 261 482 L 286 481 L 302 478 L 339 466 Q 372 452 396 428 Q 398 429 397 427 L 400 425 Q 427 399 444 362 L 454 334 L 458 317 L 460 296 L 461 295 L 461 261 L 460 260 L 460 251 L 456 229 L 450 209 Q 435 168 409 140 Q 386 114 356 97 Q 329 82 294 75 L 291 75 L 291 36 L 290 35 Z " /><path fill="currentColor" stroke="rgb(51,51,51)" stroke-width="1" opacity="0.996078431372549" d="M 212.5 84 L 211.5 86 L 212.5 84 Z " /><path fill="currentColor" stroke="rgb(51,51,51)" stroke-width="1" opacity="0.996078431372549" d="M 377.5 112 L 378.5 114 L 377.5 112 Z " /><path fill="currentColor" stroke="rgb(51,51,51)" stroke-width="1" opacity="0.996078431372549" d="M 381.5 115 L 383.5 118 L 381.5 115 Z " /><path fill="currentColor" stroke="rgb(51,51,51)" stroke-width="1" opacity="0.996078431372549" d="M 386.5 119 L 389.5 123 L 386.5 119 Z " /><path fill="currentColor" stroke="rgb(51,51,51)" stroke-width="1" opacity="0.996078431372549" d="M 393.5 125 L 407.5 140 L 393.5 125 Z " /><path fill="currentColor" stroke="rgb(51,51,51)" stroke-width="1" opacity="0.996078431372549" d="M 354.5 126 L 355.5 128 L 354.5 126 Z " /><path fill="currentColor" stroke="rgb(51,51,51)" stroke-width="1" opacity="0.996078431372549" d="M 369.5 137 L 371.5 140 L 369.5 137 Z " /><path fill="currentColor" stroke="rgb(51,51,51)" stroke-width="1" opacity="0.996078431372549" d="M 376.5 143 L 390.5 158 L 376.5 143 Z " /><path fill="currentColor" stroke="rgb(51,51,51)" stroke-width="1" opacity="0.996078431372549" d="M 411.5 144 L 413.5 147 L 411.5 144 Z " /><path fill="currentColor" stroke="rgb(51,51,51)" stroke-width="1" opacity="0.996078431372549" d="M 416.5 150 L 417.5 152 L 416.5 150 Z " /><path fill="currentColor" stroke="rgb(51,51,51)" stroke-width="1" opacity="0.996078431372549" d="M 419.5 154 L 420.5 156 L 419.5 154 Z " /><path fill="currentColor" stroke="rgb(51,51,51)" stroke-width="1" opacity="0.996078431372549" d="M 422.5 158 L 423.5 160 L 422.5 158 Z " /><path fill="currentColor" stroke="rgb(51,51,51)" stroke-width="1" opacity="0.996078431372549" d="M 424.5 161 L 425.5 163 L 424.5 161 Z " /><path fill="currentColor" stroke="rgb(51,51,51)" stroke-width="1" opacity="0.996078431372549" d="M 394.5 162 L 395.5 164 L 394.5 162 Z " /><path fill="currentColor" stroke="rgb(51,51,51)" stroke-width="1" opacity="0.996078431372549" d="M 426.5 164 L 427.5 166 L 426.5 164 Z " /><path fill="currentColor" stroke="rgb(51,51,51)" stroke-width="1" opacity="0.996078431372549" d="M 398.5 167 L 399.5 169 L 398.5 167 Z " /><path fill="currentColor" stroke="rgb(51,51,51)" stroke-width="1" opacity="0.996078431372549" d="M 403.5 174 L 404.5 176 L 403.5 174 Z " /><path fill="currentColor" stroke="rgb(51,51,51)" stroke-width="1" opacity="0.996078431372549" d="M 405.5 177 L 406.5 179 L 405.5 177 Z " /><path fill="currentColor" stroke="rgb(51,51,51)" stroke-width="1" opacity="0.996078431372549" d="M 407.5 180 L 408.5 182 L 407.5 180 Z " /><path fill="currentColor" stroke="rgb(51,51,51)" stroke-width="1" opacity="0.996078431372549" d="M 56.5 267 L 54.5 270 L 56.5 267 Z " /><path fill="currentColor" stroke="rgb(51,51,51)" stroke-width="1" opacity="0.996078431372549" d="M 71.5 267 L 73.5 270 L 71.5 267 Z " /><path fill="currentColor" stroke="rgb(51,51,51)" stroke-width="1" opacity="0.996078431372549" d="M 435.5 269 L 436 276.5 L 435 276.5 L 435.5 269 Z " /><path fill="currentColor" stroke="rgb(51,51,51)" stroke-width="1" opacity="0.996078431372549" d="M 76.5 278 L 77 285.5 L 76 285.5 L 76.5 278 Z " /><path fill="currentColor" stroke="rgb(51,51,51)" stroke-width="1" opacity="0.996078431372549" d="M 435.5 278 L 436 284.5 L 435 284.5 L 435.5 278 Z " /><path fill="currentColor" stroke="rgb(51,51,51)" stroke-width="1" opacity="0.996078431372549" d="M 52.5 295 L 53 297.5 L 52 297.5 L 52.5 295 Z " /><path fill="currentColor" stroke="rgb(51,51,51)" stroke-width="1" opacity="0.996078431372549" d="M 102.5 371 L 103.5 373 L 102.5 371 Z " /><path fill="currentColor" stroke="rgb(51,51,51)" stroke-width="1" opacity="0.996078431372549" d="M 409.5 371 L 408.5 373 L 409.5 371 Z " /><path fill="currentColor" stroke="rgb(51,51,51)" stroke-width="1" opacity="0.996078431372549" d="M 108.5 380 L 109.5 382 L 108.5 380 Z " /><path fill="currentColor" stroke="rgb(51,51,51)" stroke-width="1" opacity="0.996078431372549" d="M 403.5 380 L 402.5 382 L 403.5 380 Z " /><path fill="currentColor" stroke="rgb(51,51,51)" stroke-width="1" opacity="0.996078431372549" d="M 110.5 383 L 111.5 385 L 110.5 383 Z " /><path fill="currentColor" stroke="rgb(51,51,51)" stroke-width="1" opacity="0.996078431372549" d="M 401.5 383 L 400.5 385 L 401.5 383 Z " /><path fill="currentColor" stroke="rgb(51,51,51)" stroke-width="1" opacity="0.996078431372549" d="M 81.5 384 L 82.5 386 L 81.5 384 Z " /><path fill="currentColor" stroke="rgb(51,51,51)" stroke-width="1" opacity="0.996078431372549" d="M 430.5 384 L 429.5 386 L 430.5 384 Z " /><path fill="currentColor" stroke="rgb(51,51,51)" stroke-width="1" opacity="0.996078431372549" d="M 113.5 387 L 115.5 390 L 113.5 387 Z " /><path fill="currentColor" stroke="rgb(51,51,51)" stroke-width="1" opacity="0.996078431372549" d="M 398.5 387 L 396.5 390 L 398.5 387 Z " /><path fill="currentColor" stroke="rgb(51,51,51)" stroke-width="1" opacity="0.996078431372549" d="M 117.5 392 L 120.5 396 L 117.5 392 Z " /><path fill="currentColor" stroke="rgb(51,51,51)" stroke-width="1" opacity="0.996078431372549" d="M 394.5 392 L 391.5 396 L 394.5 392 Z " /><path fill="currentColor" stroke="rgb(51,51,51)" stroke-width="1" opacity="0.996078431372549" d="M 87.5 393 L 88.5 395 L 87.5 393 Z " /><path fill="currentColor" stroke="rgb(51,51,51)" stroke-width="1" opacity="0.996078431372549" d="M 424.5 393 L 423.5 395 L 424.5 393 Z " /><path fill="currentColor" stroke="rgb(51,51,51)" stroke-width="1" opacity="0.996078431372549" d="M 89.5 396 L 90.5 398 L 89.5 396 Z " /><path fill="currentColor" stroke="rgb(51,51,51)" stroke-width="1" opacity="0.996078431372549" d="M 422.5 396 L 421.5 398 L 422.5 396 Z " /><path fill="currentColor" stroke="rgb(51,51,51)" stroke-width="1" opacity="0.996078431372549" d="M 92.5 400 L 93.5 402 L 92.5 400 Z " /><path fill="currentColor" stroke="rgb(51,51,51)" stroke-width="1" opacity="0.996078431372549" d="M 419.5 400 L 418.5 402 L 419.5 400 Z " /><path fill="currentColor" stroke="rgb(51,51,51)" stroke-width="1" opacity="0.996078431372549" d="M 125.5 401 L 131.5 408 L 125.5 401 Z " /><path fill="currentColor" stroke="rgb(51,51,51)" stroke-width="1" opacity="0.996078431372549" d="M 386.5 401 L 380.5 408 L 386.5 401 Z " /><path fill="currentColor" stroke="rgb(51,51,51)" stroke-width="1" opacity="0.996078431372549" d="M 95.5 404 L 97.5 407 L 95.5 404 Z " /><path fill="currentColor" stroke="rgb(51,51,51)" stroke-width="1" opacity="0.996078431372549" d="M 416.5 404 L 414.5 407 L 416.5 404 Z " /><path fill="currentColor" stroke="rgb(51,51,51)" stroke-width="1" opacity="0.996078431372549" d="M 100.5 410 L 103.5 414 L 100.5 410 Z " /><path fill="currentColor" stroke="rgb(51,51,51)" stroke-width="1" opacity="0.996078431372549" d="M 411.5 410 L 408.5 414 L 411.5 410 Z " /><path fill="currentColor" stroke="rgb(51,51,51)" stroke-width="1" opacity="0.996078431372549" d="M 137.5 412 L 140.5 416 L 137.5 412 Z " /><path fill="currentColor" stroke="rgb(51,51,51)" stroke-width="1" opacity="0.996078431372549" d="M 373.5 413 L 371.5 416 L 373.5 413 Z " /><path fill="currentColor" stroke="rgb(51,51,51)" stroke-width="1" opacity="0.996078431372549" d="M 144.5 418 L 145.5 420 L 144.5 418 Z " /><path fill="currentColor" stroke="rgb(51,51,51)" stroke-width="1" opacity="0.996078431372549" d="M 367.5 418 L 366.5 420 L 367.5 418 Z " /><path fill="currentColor" stroke="rgb(51,51,51)" stroke-width="1" opacity="0.996078431372549" d="M 110.5 421 L 111.5 423 L 110.5 421 Z " /><path fill="currentColor" stroke="rgb(51,51,51)" stroke-width="1" opacity="0.996078431372549" d="M 148.5 421 L 149.5 423 L 148.5 421 Z " /><path fill="currentColor" stroke="rgb(51,51,51)" stroke-width="1" opacity="0.996078431372549" d="M 363.5 421 L 362.5 423 L 363.5 421 Z " /><path fill="currentColor" stroke="rgb(51,51,51)" stroke-width="1" opacity="0.996078431372549" d="M 401.5 421 L 400.5 423 L 401.5 421 Z " /><path fill="currentColor" stroke="rgb(51,51,51)" stroke-width="1" opacity="0.996078431372549" d="M 120.5 430 L 122.5 433 L 120.5 430 Z " /><path fill="currentColor" stroke="rgb(51,51,51)" stroke-width="1" opacity="0.996078431372549" d="M 391.5 430 L 388.5 434 L 391.5 430 Z " /><path fill="currentColor" stroke="rgb(51,51,51)" stroke-width="1" opacity="0.996078431372549" d="M 127.5 436 L 128.5 438 L 127.5 436 Z " /><path fill="currentColor" stroke="rgb(51,51,51)" stroke-width="1" opacity="0.996078431372549" d="M 384.5 436 L 383.5 438 L 384.5 436 Z " /><path fill="currentColor" stroke="rgb(51,51,51)" stroke-width="1" opacity="0.996078431372549" d="M 131.5 439 L 133.5 442 L 131.5 439 Z " /><path fill="currentColor" stroke="rgb(51,51,51)" stroke-width="1" opacity="0.996078431372549" d="M 380.5 439 L 379.5 441 L 380.5 439 Z " /><path fill="currentColor" stroke="rgb(51,51,51)" stroke-width="1" opacity="0.996078431372549" d="M 135.5 442 L 136.5 444 L 135.5 442 Z " /><path fill="currentColor" stroke="rgb(51,51,51)" stroke-width="1" opacity="0.996078431372549" d="M 376.5 442 L 375.5 444 L 376.5 442 Z " /><path fill="currentColor" stroke="rgb(51,51,51)" stroke-width="1" opacity="0.996078431372549" d="M 245.5 481 L 250 481.5 L 245.5 482 L 245.5 481 Z " /><path fill="currentColor" stroke="rgb(51,51,51)" stroke-width="1" opacity="0.996078431372549" d="M 262.5 481 L 267 481.5 L 262.5 482 L 262.5 481 Z " /><path fill="currentColor" stroke="rgb(51,51,51)" stroke-width="1" opacity="1" d="M 288.5 37 L 290 37.5 L 290 75.5 L 293.5 76 Q 330.7 83.3 358.5 100 Q 388.7 117.8 411 143.5 Q 439.2 175.3 453 221.5 L 457 238.5 L 457 243.5 L 459 250.5 L 459 258.5 L 460 259.5 L 460 294.5 L 459 295.5 L 459 303.5 L 455 325.5 L 444 358.5 Q 425 401 392.5 430 Q 364.4 455.4 325.5 470 L 291.5 479 L 285.5 479 L 277.5 481 L 250.5 482 L 249.5 481 L 227.5 480 L 206.5 476 Q 186.5 471 169.5 463 Q 130.9 444.6 104 414.5 Q 78.6 386.9 64 348.5 L 58 329.5 L 54 310.5 L 53 295.5 L 52 294.5 L 52 273.5 L 57.5 267 Q 60.2 264.2 66.5 265 L 75 271.5 L 76 273.5 L 76 285.5 L 77 286.5 L 77 297.5 L 78 298.5 L 79 311.5 L 89 345.5 Q 104.4 382.6 131.5 408 Q 155.7 431.3 189.5 445 L 207.5 451 L 232.5 456 L 268.5 457 L 269.5 456 L 278.5 456 L 279.5 455 L 296.5 453 L 327.5 443 Q 362.5 427.5 387 401.5 Q 411.3 376.3 425 340.5 L 434 305.5 L 435 285.5 L 436 284.5 L 436 269.5 L 435 268.5 L 435 256.5 L 434 255.5 L 432 238.5 L 422 206.5 Q 405.4 168.6 376.5 143 Q 356.7 124.8 330.5 113 L 312.5 106 L 290 101 L 289.5 134 L 212 85.5 L 288.5 37 Z " /></svg>
