<svg viewBox="0 0 512 512" width="512" height="512" version="1.1" xmlns="http://www.w3.org/2000/svg" desc="Created with imagetracer.js version 1.2.6" ><path fill="currentColor" stroke="currentColor" stroke-width="1" opacity="0" d="M 0 0 L 102 0.5 Q 76.9 4.4 65 21.5 L 58 34.5 L 54 52.5 L 54 460.5 L 55 461.5 L 56 472.5 L 60 482.5 Q 65.7 492.9 74.5 500 L 90.5 509 L 104 511.5 L 0 512 L 0 0 Z " /><path fill="currentColor" stroke="currentColor" stroke-width="1" opacity="0" d="M 294.5 0 L 512 0 L 512 512 L 254 511.5 L 311.5 510 L 312.5 509 L 322.5 509 L 323.5 508 L 338.5 507 L 357.5 503 Q 398.9 491.9 423 463.5 Q 438.7 444.7 448 419.5 L 456 389.5 L 457 371.5 L 458 370.5 L 458 358.5 L 457 357.5 L 457 346.5 L 456 345.5 L 455 333.5 L 446 302.5 Q 436.3 275.3 417.5 257 L 401 244 L 416 222.5 L 428 197.5 L 435 171.5 L 436 154.5 L 437 153.5 L 437 135.5 L 436 134.5 L 436 123.5 L 435 122.5 L 433 105.5 L 425 80.5 Q 415.1 57.9 398.5 42 Q 381.1 25.4 357.5 15 L 323.5 4 L 306.5 2 L 305.5 1 L 294.5 1 L 294.5 0 Z " /><path fill="currentColor" stroke="currentColor" stroke-width="1" opacity="0" d="M 166.5 92 L 257.5 92 L 258.5 93 L 286.5 94 L 296.5 96 L 306.5 100 L 321 112.5 L 328 126.5 L 330 137.5 L 330 151.5 L 326 170.5 Q 321.1 182.1 311.5 189 L 294.5 197 L 279.5 200 L 269.5 200 L 268.5 201 L 165 201 L 165 93.5 L 166.5 92 Z " /><path fill="currentColor" stroke="currentColor" stroke-width="1" opacity="0" d="M 165 311 L 261.5 311 L 262.5 312 L 296.5 313 L 306.5 315 L 318.5 320 L 334 333.5 L 342 349.5 L 344 359.5 L 344 369.5 L 342 380.5 L 335 396.5 L 324.5 408 L 310.5 415 L 284.5 420 L 165 420 L 165 311 Z " /><path fill="currentColor" stroke="currentColor" stroke-width="1" opacity="0.7450980392156863" d="M 102.5 0 L 151 0.5 L 102.5 1 L 102.5 0 Z " /><path fill="currentColor" stroke="currentColor" stroke-width="1" opacity="0.7450980392156863" d="M 237.5 0 L 294 0.5 L 237.5 1 L 237.5 0 Z " /><path fill="currentColor" stroke="currentColor" stroke-width="1" opacity="0.7450980392156863" d="M 96.5 1 L 99 1.5 L 96.5 2 L 96.5 1 Z " /><path fill="currentColor" stroke="currentColor" stroke-width="1" opacity="0.7450980392156863" d="M 301.5 1 L 306 1.5 L 301.5 2 L 301.5 1 Z " /><path fill="currentColor" stroke="currentColor" stroke-width="1" opacity="0.7450980392156863" d="M 310.5 2 L 313 2.5 L 310.5 3 L 310.5 2 Z " /><path fill="currentColor" stroke="currentColor" stroke-width="1" opacity="0.7450980392156863" d="M 316.5 3 L 319 3.5 L 316.5 4 L 316.5 3 Z " /><path fill="currentColor" stroke="currentColor" stroke-width="1" opacity="0.7450980392156863" d="M 75.5 11 L 73.5 14 L 75.5 11 Z " /><path fill="currentColor" stroke="currentColor" stroke-width="1" opacity="0.7450980392156863" d="M 68.5 18 L 65.5 22 L 68.5 18 Z " /><path fill="currentColor" stroke="currentColor" stroke-width="1" opacity="0.7450980392156863" d="M 371.5 22 L 372.5 24 L 371.5 22 Z " /><path fill="currentColor" stroke="currentColor" stroke-width="1" opacity="0.7450980392156863" d="M 64.5 23 L 63.5 25 L 64.5 23 Z " /><path fill="currentColor" stroke="currentColor" stroke-width="1" opacity="0.7450980392156863" d="M 376.5 25 L 377.5 27 L 376.5 25 Z " /><path fill="currentColor" stroke="currentColor" stroke-width="1" opacity="0.7450980392156863" d="M 379.5 27 L 380.5 29 L 379.5 27 Z " /><path fill="currentColor" stroke="currentColor" stroke-width="1" opacity="0.7450980392156863" d="M 61.5 28 L 61 29.5 L 60.5 31 L 60 29.5 L 61.5 28 Z " /><path fill="currentColor" stroke="currentColor" stroke-width="1" opacity="0.7450980392156863" d="M 382.5 29 L 383.5 31 L 382.5 29 Z " /><path fill="currentColor" stroke="currentColor" stroke-width="1" opacity="0.7450980392156863" d="M 386.5 32 L 387.5 34 L 386.5 32 Z " /><path fill="currentColor" stroke="currentColor" stroke-width="1" opacity="0.7450980392156863" d="M 390.5 35 L 392.5 38 L 390.5 35 Z " /><path fill="currentColor" stroke="currentColor" stroke-width="1" opacity="0.7450980392156863" d="M 398.5 42 L 401.5 46 L 398.5 42 Z " /><path fill="currentColor" stroke="currentColor" stroke-width="1" opacity="0.7450980392156863" d="M 55.5 44 L 56 46.5 L 55 46.5 L 55.5 44 Z " /><path fill="currentColor" stroke="currentColor" stroke-width="1" opacity="0.7450980392156863" d="M 405.5 50 L 408.5 54 L 405.5 50 Z " /><path fill="currentColor" stroke="currentColor" stroke-width="1" opacity="0.7450980392156863" d="M 54.5 52 L 55 460.5 L 54 460.5 L 54.5 52 Z " /><path fill="currentColor" stroke="currentColor" stroke-width="1" opacity="0.7450980392156863" d="M 410.5 56 L 411.5 58 L 410.5 56 Z " /><path fill="currentColor" stroke="currentColor" stroke-width="1" opacity="0.7450980392156863" d="M 412.5 59 L 413.5 61 L 412.5 59 Z " /><path fill="currentColor" stroke="currentColor" stroke-width="1" opacity="0.7450980392156863" d="M 414.5 62 L 415.5 64 L 414.5 62 Z " /><path fill="currentColor" stroke="currentColor" stroke-width="1" opacity="0.7450980392156863" d="M 167.5 91 L 170 91.5 L 167.5 92 L 167.5 91 Z " /><path fill="currentColor" stroke="currentColor" stroke-width="1" opacity="0.7450980392156863" d="M 198.5 91 L 240 91.5 L 198.5 92 L 198.5 91 Z " /><path fill="currentColor" stroke="currentColor" stroke-width="1" opacity="0.7450980392156863" d="M 165.5 92 L 165 93.5 L 164.5 200 L 164 93.5 L 165.5 92 Z " /><path fill="currentColor" stroke="currentColor" stroke-width="1" opacity="0.7450980392156863" d="M 258.5 92 L 269 92.5 L 258.5 93 L 258.5 92 Z " /><path fill="currentColor" stroke="currentColor" stroke-width="1" opacity="0.7450980392156863" d="M 277.5 93 L 283 93.5 L 277.5 94 L 277.5 93 Z " /><path fill="currentColor" stroke="currentColor" stroke-width="1" opacity="0.7450980392156863" d="M 287.5 94 L 290 94.5 L 287.5 95 L 287.5 94 Z " /><path fill="currentColor" stroke="currentColor" stroke-width="1" opacity="0.7450980392156863" d="M 310.5 102 L 311.5 104 L 310.5 102 Z " /><path fill="currentColor" stroke="currentColor" stroke-width="1" opacity="0.7450980392156863" d="M 313.5 104 L 319.5 111 L 313.5 104 Z " /><path fill="currentColor" stroke="currentColor" stroke-width="1" opacity="0.7450980392156863" d="M 321.5 113 L 322.5 115 L 321.5 113 Z " /><path fill="currentColor" stroke="currentColor" stroke-width="1" opacity="0.7450980392156863" d="M 434.5 116 L 435 118.5 L 434 118.5 L 434.5 116 Z " /><path fill="currentColor" stroke="currentColor" stroke-width="1" opacity="0.7450980392156863" d="M 435.5 123 L 436 127.5 L 435 127.5 L 435.5 123 Z " /><path fill="currentColor" stroke="currentColor" stroke-width="1" opacity="0.7450980392156863" d="M 328.5 128 L 329 130.5 L 328 130.5 L 328.5 128 Z " /><path fill="currentColor" stroke="currentColor" stroke-width="1" opacity="0.7450980392156863" d="M 329.5 133 L 330 136.5 L 329 136.5 L 329.5 133 Z " /><path fill="currentColor" stroke="currentColor" stroke-width="1" opacity="0.7450980392156863" d="M 436.5 135 L 437 153.5 L 436 153.5 L 436.5 135 Z " /><path fill="currentColor" stroke="currentColor" stroke-width="1" opacity="0.7450980392156863" d="M 329.5 152 L 330 155.5 L 329 155.5 L 329.5 152 Z " /><path fill="currentColor" stroke="currentColor" stroke-width="1" opacity="0.7450980392156863" d="M 328.5 159 L 329 161.5 L 328 161.5 L 328.5 159 Z " /><path fill="currentColor" stroke="currentColor" stroke-width="1" opacity="0.7450980392156863" d="M 435.5 161 L 436 164.5 L 435 164.5 L 435.5 161 Z " /><path fill="currentColor" stroke="currentColor" stroke-width="1" opacity="0.7450980392156863" d="M 434.5 169 L 435 171.5 L 434 171.5 L 434.5 169 Z " /><path fill="currentColor" stroke="currentColor" stroke-width="1" opacity="0.7450980392156863" d="M 322.5 177 L 321.5 179 L 322.5 177 Z " /><path fill="currentColor" stroke="currentColor" stroke-width="1" opacity="0.7450980392156863" d="M 432.5 179 L 433 181.5 L 432 181.5 L 432.5 179 Z " /><path fill="currentColor" stroke="currentColor" stroke-width="1" opacity="0.7450980392156863" d="M 320.5 180 L 312.5 189 L 320.5 180 Z " /><path fill="currentColor" stroke="currentColor" stroke-width="1" opacity="0.7450980392156863" d="M 310.5 189 L 309.5 191 L 310.5 189 Z " /><path fill="currentColor" stroke="currentColor" stroke-width="1" opacity="0.7450980392156863" d="M 286.5 198 L 289 198.5 L 286.5 199 L 286.5 198 Z " /><path fill="currentColor" stroke="currentColor" stroke-width="1" opacity="0.7450980392156863" d="M 280.5 199 L 283 199.5 L 280.5 200 L 280.5 199 Z " /><path fill="currentColor" stroke="currentColor" stroke-width="1" opacity="0.7450980392156863" d="M 269.5 200 L 275 200.5 L 269.5 201 L 269.5 200 Z " /><path fill="currentColor" stroke="currentColor" stroke-width="1" opacity="0.7450980392156863" d="M 419.5 215 L 418.5 217 L 419.5 215 Z " /><path fill="currentColor" stroke="currentColor" stroke-width="1" opacity="0.7450980392156863" d="M 415.5 222 L 414.5 224 L 415.5 222 Z " /><path fill="currentColor" stroke="currentColor" stroke-width="1" opacity="0.7450980392156863" d="M 413.5 225 L 412.5 227 L 413.5 225 Z " /><path fill="currentColor" stroke="currentColor" stroke-width="1" opacity="0.7450980392156863" d="M 409.5 231 L 408.5 233 L 409.5 231 Z " /><path fill="currentColor" stroke="currentColor" stroke-width="1" opacity="0.7450980392156863" d="M 406.5 235 L 405.5 237 L 406.5 235 Z " /><path fill="currentColor" stroke="currentColor" stroke-width="1" opacity="0.7450980392156863" d="M 403.5 239 L 401.5 242 L 403.5 239 Z " /><path fill="currentColor" stroke="currentColor" stroke-width="1" opacity="0.7450980392156863" d="M 402.5 244 L 404.5 247 L 402.5 244 Z " /><path fill="currentColor" stroke="currentColor" stroke-width="1" opacity="0.7450980392156863" d="M 407.5 248 L 410.5 252 L 407.5 248 Z " /><path fill="currentColor" stroke="currentColor" stroke-width="1" opacity="0.7450980392156863" d="M 417.5 257 L 419.5 260 L 417.5 257 Z " /><path fill="currentColor" stroke="currentColor" stroke-width="1" opacity="0.7450980392156863" d="M 422.5 263 L 425.5 267 L 422.5 263 Z " /><path fill="currentColor" stroke="currentColor" stroke-width="1" opacity="0.7450980392156863" d="M 427.5 269 L 429.5 272 L 427.5 269 Z " /><path fill="currentColor" stroke="currentColor" stroke-width="1" opacity="0.7450980392156863" d="M 430.5 273 L 431.5 275 L 430.5 273 Z " /><path fill="currentColor" stroke="currentColor" stroke-width="1" opacity="0.7450980392156863" d="M 432.5 276 L 433.5 278 L 432.5 276 Z " /><path fill="currentColor" stroke="currentColor" stroke-width="1" opacity="0.7450980392156863" d="M 435.5 281 L 436.5 283 L 435.5 281 Z " /><path fill="currentColor" stroke="currentColor" stroke-width="1" opacity="0.7450980392156863" d="M 165.5 310 L 203 310.5 L 165 311 L 164.5 420 L 164 311.5 L 165.5 310 Z " /><path fill="currentColor" stroke="currentColor" stroke-width="1" opacity="0.7450980392156863" d="M 262.5 311 L 276 311.5 L 262.5 312 L 262.5 311 Z " /><path fill="currentColor" stroke="currentColor" stroke-width="1" opacity="0.7450980392156863" d="M 285.5 312 L 291 312.5 L 285.5 313 L 285.5 312 Z " /><path fill="currentColor" stroke="currentColor" stroke-width="1" opacity="0.7450980392156863" d="M 297.5 313 L 300 313.5 L 297.5 314 L 297.5 313 Z " /><path fill="currentColor" stroke="currentColor" stroke-width="1" opacity="0.7450980392156863" d="M 319.5 320 L 320.5 322 L 319.5 320 Z " /><path fill="currentColor" stroke="currentColor" stroke-width="1" opacity="0.7450980392156863" d="M 322.5 322 L 323.5 324 L 322.5 322 Z " /><path fill="currentColor" stroke="currentColor" stroke-width="1" opacity="0.7450980392156863" d="M 452.5 324 L 453 326.5 L 452 326.5 L 452.5 324 Z " /><path fill="currentColor" stroke="currentColor" stroke-width="1" opacity="0.7450980392156863" d="M 326.5 325 L 332.5 332 L 326.5 325 Z " /><path fill="currentColor" stroke="currentColor" stroke-width="1" opacity="0.7450980392156863" d="M 454.5 333 L 455 335.5 L 454 335.5 L 454.5 333 Z " /><path fill="currentColor" stroke="currentColor" stroke-width="1" opacity="0.7450980392156863" d="M 334.5 334 L 335.5 336 L 334.5 334 Z " /><path fill="currentColor" stroke="currentColor" stroke-width="1" opacity="0.7450980392156863" d="M 455.5 339 L 456 341.5 L 455 341.5 L 455.5 339 Z " /><path fill="currentColor" stroke="currentColor" stroke-width="1" opacity="0.7450980392156863" d="M 456.5 346 L 457 350.5 L 456 350.5 L 456.5 346 Z " /><path fill="currentColor" stroke="currentColor" stroke-width="1" opacity="0.7450980392156863" d="M 343.5 355 L 344 358.5 L 343 358.5 L 343.5 355 Z " /><path fill="currentColor" stroke="currentColor" stroke-width="1" opacity="0.7450980392156863" d="M 457.5 358 L 458 370.5 L 457 370.5 L 457.5 358 Z " /><path fill="currentColor" stroke="currentColor" stroke-width="1" opacity="0.7450980392156863" d="M 343.5 370 L 344 373.5 L 343 373.5 L 343.5 370 Z " /><path fill="currentColor" stroke="currentColor" stroke-width="1" opacity="0.7450980392156863" d="M 456.5 379 L 457 382.5 L 456 382.5 L 456.5 379 Z " /><path fill="currentColor" stroke="currentColor" stroke-width="1" opacity="0.7450980392156863" d="M 455.5 387 L 456 389.5 L 455 389.5 L 455.5 387 Z " /><path fill="currentColor" stroke="currentColor" stroke-width="1" opacity="0.7450980392156863" d="M 337.5 391 L 338 392.5 L 336 393.5 L 337.5 391 Z " /><path fill="currentColor" stroke="currentColor" stroke-width="1" opacity="0.7450980392156863" d="M 454.5 393 L 455 395.5 L 454 395.5 L 454.5 393 Z " /><path fill="currentColor" stroke="currentColor" stroke-width="1" opacity="0.7450980392156863" d="M 334.5 397 L 333.5 399 L 334.5 397 Z " /><path fill="currentColor" stroke="currentColor" stroke-width="1" opacity="0.7450980392156863" d="M 331.5 401 L 326.5 407 L 331.5 401 Z " /><path fill="currentColor" stroke="currentColor" stroke-width="1" opacity="0.7450980392156863" d="M 323.5 408 L 322.5 410 L 323.5 408 Z " /><path fill="currentColor" stroke="currentColor" stroke-width="1" opacity="0.7450980392156863" d="M 298.5 417 L 301 417.5 L 298.5 418 L 298.5 417 Z " /><path fill="currentColor" stroke="currentColor" stroke-width="1" opacity="0.7450980392156863" d="M 285.5 419 L 289 419.5 L 285.5 420 L 285.5 419 Z " /><path fill="currentColor" stroke="currentColor" stroke-width="1" opacity="0.7450980392156863" d="M 170.5 420 L 267 420.5 L 170.5 421 L 170.5 420 Z " /><path fill="currentColor" stroke="currentColor" stroke-width="1" opacity="0.7450980392156863" d="M 437.5 441 L 436.5 443 L 437.5 441 Z " /><path fill="currentColor" stroke="currentColor" stroke-width="1" opacity="0.7450980392156863" d="M 431.5 451 L 430.5 453 L 431.5 451 Z " /><path fill="currentColor" stroke="currentColor" stroke-width="1" opacity="0.7450980392156863" d="M 426.5 458 L 424.5 461 L 426.5 458 Z " /><path fill="currentColor" stroke="currentColor" stroke-width="1" opacity="0.7450980392156863" d="M 422.5 463 L 411.5 475 L 422.5 463 Z " /><path fill="currentColor" stroke="currentColor" stroke-width="1" opacity="0.7450980392156863" d="M 55.5 466 L 56 468.5 L 55 468.5 L 55.5 466 Z " /><path fill="currentColor" stroke="currentColor" stroke-width="1" opacity="0.7450980392156863" d="M 407.5 477 L 405.5 480 L 407.5 477 Z " /><path fill="currentColor" stroke="currentColor" stroke-width="1" opacity="0.7450980392156863" d="M 402.5 481 L 401.5 483 L 402.5 481 Z " /><path fill="currentColor" stroke="currentColor" stroke-width="1" opacity="0.7450980392156863" d="M 399.5 483 L 398.5 485 L 399.5 483 Z " /><path fill="currentColor" stroke="currentColor" stroke-width="1" opacity="0.7450980392156863" d="M 396.5 485 L 395.5 487 L 396.5 485 Z " /><path fill="currentColor" stroke="currentColor" stroke-width="1" opacity="0.7450980392156863" d="M 63.5 487 L 64.5 489 L 63.5 487 Z " /><path fill="currentColor" stroke="currentColor" stroke-width="1" opacity="0.7450980392156863" d="M 389.5 489 L 388.5 491 L 389.5 489 Z " /><path fill="currentColor" stroke="currentColor" stroke-width="1" opacity="0.7450980392156863" d="M 66.5 491 L 74.5 500 L 66.5 491 Z " /><path fill="currentColor" stroke="currentColor" stroke-width="1" opacity="0.7450980392156863" d="M 76.5 500 L 77.5 502 L 76.5 500 Z " /><path fill="currentColor" stroke="currentColor" stroke-width="1" opacity="0.7450980392156863" d="M 342.5 505 L 345 505.5 L 342.5 506 L 342.5 505 Z " /><path fill="currentColor" stroke="currentColor" stroke-width="1" opacity="0.7450980392156863" d="M 335.5 506 L 339 506.5 L 335.5 507 L 335.5 506 Z " /><path fill="currentColor" stroke="currentColor" stroke-width="1" opacity="0.7450980392156863" d="M 328.5 507 L 331 507.5 L 328.5 508 L 328.5 507 Z " /><path fill="currentColor" stroke="currentColor" stroke-width="1" opacity="0.7450980392156863" d="M 318.5 508 L 323 508.5 L 318.5 509 L 318.5 508 Z " /><path fill="currentColor" stroke="currentColor" stroke-width="1" opacity="0.7450980392156863" d="M 305.5 509 L 312 509.5 L 305.5 510 L 305.5 509 Z " /><path fill="currentColor" stroke="currentColor" stroke-width="1" opacity="0.7450980392156863" d="M 97.5 510 L 100 510.5 L 97.5 511 L 97.5 510 Z " /><path fill="currentColor" stroke="currentColor" stroke-width="1" opacity="0.7450980392156863" d="M 278.5 510 L 295 510.5 L 278.5 511 L 278.5 510 Z " /><path fill="currentColor" stroke="currentColor" stroke-width="1" opacity="0.7450980392156863" d="M 104.5 511 L 254 511.5 L 104.5 512 L 104.5 511 Z " /><path fill="currentColor" stroke="currentColor" stroke-width="1" opacity="1" d="M 151.5 0 L 300.5 1 L 301.5 2 L 309.5 2 L 310.5 3 L 321.5 4 Q 374.5 15.5 405 49.5 Q 421.7 68.3 430 95.5 L 434 112.5 L 435 127.5 L 436 128.5 L 436 160.5 L 432 183.5 L 426 201.5 L 416 221.5 L 401 241.5 L 401 243.5 L 422 262.5 L 437 283.5 L 450 315.5 L 456 342.5 L 456 350.5 L 457 351.5 L 457 378.5 L 452 405.5 L 443 430.5 Q 430.7 458.7 408.5 477 Q 393.8 489.3 374.5 497 L 351.5 504 L 328.5 507 L 327.5 508 L 305.5 509 L 304.5 510 L 278.5 510 L 277.5 511 L 100.5 511 Q 76.9 506.1 65 489.5 Q 57.4 480.1 55 465.5 L 55 47.5 Q 59 26 72.5 14 Q 82.6 4.1 99.5 1 L 150.5 1 L 151.5 0 Z M 168 91 L 164 94 L 164 200 L 166 201 L 275 201 L 276 200 L 283 200 L 293 198 Q 304 195 313 189 L 323 178 L 328 166 L 330 156 Q 333 125 320 111 Q 311 99 295 95 L 284 94 L 283 93 L 241 92 L 240 91 L 199 91 L 198 92 L 171 92 L 168 91 Z M 166 310 L 164 312 L 164 420 L 171 421 L 267 421 L 268 420 L 289 420 L 315 414 L 327 407 Q 340 395 344 374 Q 346 360 343 352 L 333 332 Q 321 317 300 313 L 277 312 L 276 311 L 166 310 Z " /></svg>