<svg viewBox="0 0 512 512" width="512" height="512" version="1.1" xmlns="http://www.w3.org/2000/svg" desc="Created with imagetracer.js version 1.2.6" ><path fill="currentColor" stroke="currentColor" stroke-width="1" opacity="0.7843137254901961" d="M 251.5 2 L 255 2.5 L 251.5 3 L 251.5 2 Z " /><path fill="currentColor" stroke="currentColor" stroke-width="1" opacity="0.7843137254901961" d="M 257.5 2 L 261 2.5 L 257.5 3 L 257.5 2 Z " /><path fill="currentColor" stroke="currentColor" stroke-width="1" opacity="0.7843137254901961" d="M 240.5 7 L 235.5 13 L 240.5 7 Z " /><path fill="currentColor" stroke="currentColor" stroke-width="1" opacity="0.7843137254901961" d="M 271.5 7 L 276.5 13 L 271.5 7 Z " /><path fill="currentColor" stroke="currentColor" stroke-width="1" opacity="0.7843137254901961" d="M 175.5 281 L 337 281.5 L 175.5 282 L 175.5 281 Z " /><path fill="currentColor" stroke="currentColor" stroke-width="1" opacity="0.7843137254901961" d="M 433.5 378 L 434 380.5 L 433 380.5 L 433.5 378 Z " /><path fill="currentColor" stroke="currentColor" stroke-width="1" opacity="0.7843137254901961" d="M 78.5 379 L 79 387.5 L 78 387.5 L 78.5 379 Z " /><path fill="currentColor" stroke="currentColor" stroke-width="1" opacity="0.7843137254901961" d="M 433.5 386 L 434 388.5 L 433 388.5 L 433.5 386 Z " /><path fill="currentColor" stroke="currentColor" stroke-width="1" opacity="0.7843137254901961" d="M 81.5 395 L 82.5 397 L 81.5 395 Z " /><path fill="currentColor" stroke="currentColor" stroke-width="1" opacity="0.7843137254901961" d="M 430.5 396 L 429.5 398 L 430.5 396 Z " /><path fill="currentColor" stroke="currentColor" stroke-width="1" opacity="0.7843137254901961" d="M 124.5 397 L 118.5 404 L 124.5 397 Z " /><path fill="currentColor" stroke="currentColor" stroke-width="1" opacity="0.7843137254901961" d="M 387.5 397 L 388.5 399 L 387.5 397 Z " /><path fill="currentColor" stroke="currentColor" stroke-width="1" opacity="0.7843137254901961" d="M 83.5 398 L 87.5 403 L 83.5 398 Z " /><path fill="currentColor" stroke="currentColor" stroke-width="1" opacity="0.7843137254901961" d="M 423.5 403 L 422.5 405 L 423.5 403 Z " /><path fill="currentColor" stroke="currentColor" stroke-width="1" opacity="0.7843137254901961" d="M 394.5 404 L 395.5 406 L 394.5 404 Z " /><path fill="currentColor" stroke="currentColor" stroke-width="1" opacity="0.7843137254901961" d="M 405.5 408 L 409 408.5 L 405.5 409 L 405.5 408 Z " /><path fill="currentColor" stroke="currentColor" stroke-width="1" opacity="0.7843137254901961" d="M 23.5 459 L 489 459.5 L 23.5 460 L 23.5 459 Z " /><path fill="currentColor" stroke="currentColor" stroke-width="1" opacity="0.7843137254901961" d="M 13.5 463 L 12.5 465 L 13.5 463 Z " /><path fill="currentColor" stroke="currentColor" stroke-width="1" opacity="0.7843137254901961" d="M 498.5 463 L 499.5 465 L 498.5 463 Z " /><path fill="currentColor" stroke="currentColor" stroke-width="1" opacity="0.7843137254901961" d="M 504.5 469 L 505.5 471 L 504.5 469 Z " /><path fill="currentColor" stroke="currentColor" stroke-width="1" opacity="0.7843137254901961" d="M 5.5 472 L 5 473.5 L 4.5 475 L 4 473.5 L 5.5 472 Z " /><path fill="currentColor" stroke="currentColor" stroke-width="1" opacity="0.7843137254901961" d="M 506.5 472 L 508 474.5 L 507 474.5 L 506.5 472 Z " /><path fill="currentColor" stroke="currentColor" stroke-width="1" opacity="0.7843137254901961" d="M 2.5 479 L 3 481.5 L 2 481.5 L 2.5 479 Z " /><path fill="currentColor" stroke="currentColor" stroke-width="1" opacity="0.7843137254901961" d="M 509.5 479 L 510 482.5 L 509 482.5 L 509.5 479 Z " /><path fill="currentColor" stroke="currentColor" stroke-width="1" opacity="0.7843137254901961" d="M 2.5 487 L 3 489.5 L 2 489.5 L 2.5 487 Z " /><path fill="currentColor" stroke="currentColor" stroke-width="1" opacity="0.7843137254901961" d="M 509.5 487 L 510 489.5 L 509 489.5 L 509.5 487 Z " /><path fill="currentColor" stroke="currentColor" stroke-width="1" opacity="0.7843137254901961" d="M 5.5 497 L 6.5 499 L 5.5 497 Z " /><path fill="currentColor" stroke="currentColor" stroke-width="1" opacity="0.7843137254901961" d="M 506.5 497 L 505.5 499 L 506.5 497 Z " /><path fill="currentColor" stroke="currentColor" stroke-width="1" opacity="0.7843137254901961" d="M 8.5 501 L 10.5 504 L 8.5 501 Z " /><path fill="currentColor" stroke="currentColor" stroke-width="1" opacity="0.7843137254901961" d="M 503.5 501 L 501.5 504 L 503.5 501 Z " /><path fill="currentColor" stroke="currentColor" stroke-width="1" opacity="0.7843137254901961" d="M 13.5 505 L 14.5 507 L 13.5 505 Z " /><path fill="currentColor" stroke="currentColor" stroke-width="1" opacity="0.7843137254901961" d="M 498.5 505 L 497.5 507 L 498.5 505 Z " /><path fill="currentColor" stroke="currentColor" stroke-width="1" opacity="0.7843137254901961" d="M 22.5 509 L 25 509.5 L 22.5 510 L 22.5 509 Z " /><path fill="currentColor" stroke="currentColor" stroke-width="1" opacity="0.7843137254901961" d="M 487.5 509 L 490 509.5 L 487.5 510 L 487.5 509 Z " /><path fill="currentColor" stroke="currentColor" stroke-width="1" opacity="0" d="M 0 0 L 512 0 L 512 512 L 0 512 L 0 0 Z M 252 2 L 241 7 Q 233 13 230 23 L 78 380 L 78 388 L 83 399 Q 88 405 98 408 Q 112 410 119 404 Q 126 399 129 390 L 153 334 L 154 332 L 359 332 L 387 398 L 396 406 L 406 409 Q 420 408 427 402 L 431 397 L 434 389 L 434 379 L 431 370 L 277 13 Q 272 6 265 3 L 252 2 Z M 24 459 L 9 466 L 4 474 L 2 480 L 2 490 L 8 502 Q 13 508 23 510 L 490 510 L 502 504 Q 508 499 510 490 L 510 480 L 506 471 Q 500 462 489 459 L 24 459 Z " /><path fill="currentColor" stroke="currentColor" stroke-width="1" opacity="0" d="M 255 93 Q 258 91.8 257 95.5 L 337 280.5 L 175.5 281 L 176 279.5 L 255 93 Z " /><path fill="currentColor" stroke="currentColor" stroke-width="1" opacity="1" d="M 255.5 2 L 262.5 3 L 269.5 6 L 277 13.5 L 430 368.5 Q 433.8 375.2 434 385.5 L 431 395.5 L 424.5 403 L 412.5 408 L 402.5 408 Q 393.4 406.1 389 399.5 L 360 332 L 153.5 332 L 152 333.5 L 129 388.5 Q 125.5 398.5 117.5 404 L 107.5 408 L 99.5 408 Q 88.4 405.6 83 397.5 Q 76.8 391.2 79 376.5 L 230 23.5 Q 233.8 12.3 242.5 6 L 255.5 2 Z M 255 92 L 175 280 L 176 282 L 337 282 L 336 277 L 257 94 Q 258 91 255 92 Z " /><path fill="currentColor" stroke="currentColor" stroke-width="1" opacity="1" d="M 21.5 460 L 490.5 460 Q 499 462.5 504 468.5 L 509 477.5 L 510 486.5 L 507 496.5 L 499.5 505 L 494.5 508 L 486.5 510 L 25.5 510 L 15.5 507 L 7 499.5 Q 1.9 493.6 2 482.5 L 7 469.5 L 11.5 465 L 21.5 460 Z " /></svg>