<svg viewBox="0 0 512 512" width="512" height="512" version="1.1" xmlns="http://www.w3.org/2000/svg" desc="Created with imagetracer.js version 1.2.6" ><path fill="rgb(0,0,0)" stroke="rgb(0,0,0)" stroke-width="1" opacity="0" d="M 0 0 L 512 0 L 512 512 L 0 512 L 0 0 Z M 221 35 L 221 75 Q 193 79 171 90 Q 141 103 119 124 Q 87 152 68 194 L 59 218 L 54 239 L 53 250 L 52 251 L 52 260 L 51 261 L 51 295 L 52 296 L 53 311 L 58 334 L 64 352 Q 80 392 108 421 Q 135 449 174 466 L 211 478 L 227 481 L 235 481 L 236 482 L 252 482 L 254 482 L 258 483 L 260 483 L 261 482 L 277 482 L 278 481 L 285 481 L 302 478 L 334 468 Q 372 452 400 425 Q 399 422 402 423 Q 427 398 443 364 L 455 330 L 460 304 L 460 295 L 461 294 L 461 274 L 459 270 Q 456 265 451 264 Q 444 263 441 266 L 435 274 L 435 287 L 434 288 L 434 298 L 433 299 L 432 312 L 423 343 Q 411 373 391 396 Q 367 422 334 439 L 301 451 L 279 455 L 271 455 L 270 456 L 243 456 L 242 455 L 227 454 L 212 451 L 193 445 Q 161 433 138 412 Q 108 386 91 348 L 82 321 L 78 298 L 78 287 L 77 286 L 77 269 L 78 268 L 79 250 L 87 218 Q 99 185 120 161 Q 141 135 172 119 Q 192 108 219 102 L 221 103 L 221 135 L 229 132 L 302 86 L 221 35 Z " /><path fill="currentColor" stroke="rgb(51,51,51)" stroke-width="1" opacity="0.6431372549019608" d="M 221 35 L 302 85.5 L 299.5 84 L 222.5 36 L 222 76 L 218 75.5 L 221 75 L 221 35 Z " /><path fill="currentColor" stroke="rgb(51,51,51)" stroke-width="1" opacity="0.6431372549019608" d="M 213.5 76 L 217 76.5 L 213.5 77 L 213.5 76 Z " /><path fill="currentColor" stroke="rgb(51,51,51)" stroke-width="1" opacity="0.6431372549019608" d="M 209.5 77 L 212 77.5 L 209.5 78 L 209.5 77 Z " /><path fill="currentColor" stroke="rgb(51,51,51)" stroke-width="1" opacity="0.6431372549019608" d="M 204.5 78 L 208 78.5 L 201.5 80 L 201.5 79 L 204.5 78 Z " /><path fill="currentColor" stroke="rgb(51,51,51)" stroke-width="1" opacity="0.6431372549019608" d="M 197.5 80 L 200 80.5 L 194.5 82 L 194.5 81 L 197.5 80 Z " /><path fill="currentColor" stroke="rgb(51,51,51)" stroke-width="1" opacity="0.6431372549019608" d="M 185.5 84 L 187 84.5 L 180.5 87 L 180.5 86 L 185.5 84 Z " /><path fill="currentColor" stroke="rgb(51,51,51)" stroke-width="1" opacity="0.6431372549019608" d="M 299.5 86 L 298.5 88 L 269.5 106 L 270.5 104 L 299.5 86 Z " /><path fill="currentColor" stroke="rgb(51,51,51)" stroke-width="1" opacity="0.6431372549019608" d="M 177.5 87 L 179 87.5 L 173.5 90 L 173.5 89 L 177.5 87 Z " /><path fill="currentColor" stroke="rgb(51,51,51)" stroke-width="1" opacity="0.6431372549019608" d="M 170.5 90 L 172 90.5 L 155.5 99 L 156.5 97 L 170.5 90 Z " /><path fill="currentColor" stroke="rgb(51,51,51)" stroke-width="1" opacity="0.6431372549019608" d="M 153.5 99 L 152.5 101 L 135.5 112 L 137.5 109 L 153.5 99 Z " /><path fill="currentColor" stroke="rgb(51,51,51)" stroke-width="1" opacity="0.6431372549019608" d="M 220.5 101 L 222 101.5 L 222 133.5 L 223.5 134 L 235.5 126 L 234.5 128 L 223.5 135 L 221 135 L 221 102.5 L 220.5 101 Z " /><path fill="currentColor" stroke="rgb(51,51,51)" stroke-width="1" opacity="0.6431372549019608" d="M 215.5 102 L 218 102.5 L 215.5 103 L 215.5 102 Z " /><path fill="currentColor" stroke="rgb(51,51,51)" stroke-width="1" opacity="0.6431372549019608" d="M 211.5 103 L 214 103.5 L 211.5 104 L 211.5 103 Z " /><path fill="currentColor" stroke="rgb(51,51,51)" stroke-width="1" opacity="0.6431372549019608" d="M 207.5 104 L 210 104.5 L 207.5 105 L 207.5 104 Z " /><path fill="currentColor" stroke="rgb(51,51,51)" stroke-width="1" opacity="0.6431372549019608" d="M 200.5 106 L 203 106.5 L 195.5 109 L 195.5 108 L 200.5 106 Z " /><path fill="currentColor" stroke="rgb(51,51,51)" stroke-width="1" opacity="0.6431372549019608" d="M 267.5 106 L 266.5 108 L 261.5 111 L 262.5 109 L 267.5 106 Z " /><path fill="currentColor" stroke="rgb(51,51,51)" stroke-width="1" opacity="0.6431372549019608" d="M 189.5 110 L 191 110.5 L 187.5 112 L 187.5 111 L 189.5 110 Z " /><path fill="currentColor" stroke="rgb(51,51,51)" stroke-width="1" opacity="0.6431372549019608" d="M 259.5 111 L 258.5 113 L 253.5 116 L 254.5 114 L 259.5 111 Z " /><path fill="currentColor" stroke="rgb(51,51,51)" stroke-width="1" opacity="0.6431372549019608" d="M 133.5 112 L 131.5 115 L 126.5 119 L 130.5 114 L 133.5 112 Z " /><path fill="currentColor" stroke="rgb(51,51,51)" stroke-width="1" opacity="0.6431372549019608" d="M 184.5 112 L 186 112.5 L 178.5 116 L 178.5 115 L 184.5 112 Z " /><path fill="currentColor" stroke="rgb(51,51,51)" stroke-width="1" opacity="0.6431372549019608" d="M 251.5 116 L 250.5 118 L 245.5 121 L 246.5 119 L 251.5 116 Z " /><path fill="currentColor" stroke="rgb(51,51,51)" stroke-width="1" opacity="0.6431372549019608" d="M 124.5 119 L 118.5 126 L 104 139.5 L 84.5 165 L 85 163.5 Q 99 141 118.5 124 L 124.5 119 Z " /><path fill="currentColor" stroke="rgb(51,51,51)" stroke-width="1" opacity="0.6431372549019608" d="M 170.5 119 L 169.5 121 Q 153.6 128.6 141.5 140 L 145.5 135 L 170.5 119 Z " /><path fill="currentColor" stroke="rgb(51,51,51)" stroke-width="1" opacity="0.6431372549019608" d="M 243.5 121 L 242.5 123 L 237.5 126 L 238.5 124 L 243.5 121 Z " /><path fill="currentColor" stroke="rgb(51,51,51)" stroke-width="1" opacity="0.6431372549019608" d="M 139.5 140 L 120 160.5 L 107.5 177 L 109 174.5 Q 121.3 154.3 139.5 140 Z " /><path fill="currentColor" stroke="rgb(51,51,51)" stroke-width="1" opacity="0.6431372549019608" d="M 83.5 166 L 83 167.5 L 79.5 173 L 80 171.5 L 83.5 166 Z " /><path fill="currentColor" stroke="rgb(51,51,51)" stroke-width="1" opacity="0.6431372549019608" d="M 78.5 174 L 78 175.5 L 68.5 195 L 68 193.5 L 78.5 174 Z " /><path fill="currentColor" stroke="rgb(51,51,51)" stroke-width="1" opacity="0.6431372549019608" d="M 106.5 178 L 106 179.5 L 98.5 192 L 99 190.5 L 106.5 178 Z " /><path fill="currentColor" stroke="rgb(51,51,51)" stroke-width="1" opacity="0.6431372549019608" d="M 97.5 193 L 97 194.5 L 94.5 200 L 94 198.5 L 97.5 193 Z " /><path fill="currentColor" stroke="rgb(51,51,51)" stroke-width="1" opacity="0.6431372549019608" d="M 66.5 198 L 67 199.5 L 65.5 202 L 65 200.5 L 66.5 198 Z " /><path fill="currentColor" stroke="rgb(51,51,51)" stroke-width="1" opacity="0.6431372549019608" d="M 92.5 203 L 93 204.5 L 90.5 209 L 90 207.5 L 92.5 203 Z " /><path fill="currentColor" stroke="rgb(51,51,51)" stroke-width="1" opacity="0.6431372549019608" d="M 63.5 206 L 64 207.5 L 59.5 220 L 59 217.5 L 63.5 206 Z " /><path fill="currentColor" stroke="rgb(51,51,51)" stroke-width="1" opacity="0.6431372549019608" d="M 89.5 210 L 90 211.5 L 87.5 217 L 87 215.5 L 89.5 210 Z " /><path fill="currentColor" stroke="rgb(51,51,51)" stroke-width="1" opacity="0.6431372549019608" d="M 58.5 221 L 59 223.5 L 58 223.5 L 58.5 221 Z " /><path fill="currentColor" stroke="rgb(51,51,51)" stroke-width="1" opacity="0.6431372549019608" d="M 84.5 224 L 85 226.5 L 83.5 230 L 83 227.5 L 84.5 224 Z " /><path fill="currentColor" stroke="rgb(51,51,51)" stroke-width="1" opacity="0.6431372549019608" d="M 57.5 225 L 58 227.5 L 57 227.5 L 57.5 225 Z " /><path fill="currentColor" stroke="rgb(51,51,51)" stroke-width="1" opacity="0.6431372549019608" d="M 56.5 229 L 57 231.5 L 56 231.5 L 56.5 229 Z " /><path fill="currentColor" stroke="rgb(51,51,51)" stroke-width="1" opacity="0.6431372549019608" d="M 82.5 231 L 83 233.5 L 82 233.5 L 82.5 231 Z " /><path fill="currentColor" stroke="rgb(51,51,51)" stroke-width="1" opacity="0.6431372549019608" d="M 55.5 233 L 56 236.5 L 55 236.5 L 55.5 233 Z " /><path fill="currentColor" stroke="rgb(51,51,51)" stroke-width="1" opacity="0.6431372549019608" d="M 81.5 235 L 82 237.5 L 81 237.5 L 81.5 235 Z " /><path fill="currentColor" stroke="rgb(51,51,51)" stroke-width="1" opacity="0.6431372549019608" d="M 54.5 238 L 55 241.5 L 54 241.5 L 54.5 238 Z " /><path fill="currentColor" stroke="rgb(51,51,51)" stroke-width="1" opacity="0.6431372549019608" d="M 80.5 239 L 81 242.5 L 80 242.5 L 80.5 239 Z " /><path fill="currentColor" stroke="rgb(51,51,51)" stroke-width="1" opacity="0.6431372549019608" d="M 53.5 244 L 54 248.5 L 53 248.5 L 53.5 244 Z " /><path fill="currentColor" stroke="rgb(51,51,51)" stroke-width="1" opacity="0.6431372549019608" d="M 79.5 244 L 80 248.5 L 79 248.5 L 79.5 244 Z " /><path fill="currentColor" stroke="rgb(51,51,51)" stroke-width="1" opacity="0.6431372549019608" d="M 52.5 250 L 53 256.5 L 52 256.5 L 52.5 250 Z " /><path fill="currentColor" stroke="rgb(51,51,51)" stroke-width="1" opacity="0.6431372549019608" d="M 78.5 250 L 79 255.5 L 78 255.5 L 78.5 250 Z " /><path fill="currentColor" stroke="rgb(51,51,51)" stroke-width="1" opacity="0.6431372549019608" d="M 77.5 258 L 78 267.5 L 77 267.5 L 77.5 258 Z " /><path fill="currentColor" stroke="rgb(51,51,51)" stroke-width="1" opacity="0.6431372549019608" d="M 51.5 260 L 52 294.5 L 51 294.5 L 51.5 260 Z " /><path fill="currentColor" stroke="rgb(51,51,51)" stroke-width="1" opacity="0.6431372549019608" d="M 445.5 264 L 451 264.5 L 445.5 265 L 445.5 264 Z " /><path fill="currentColor" stroke="rgb(51,51,51)" stroke-width="1" opacity="0.6431372549019608" d="M 442.5 265 L 444 265.5 L 438 269.5 L 436.5 272 L 437 270.5 L 440.5 266 L 442.5 265 Z " /><path fill="currentColor" stroke="rgb(51,51,51)" stroke-width="1" opacity="0.6431372549019608" d="M 452.5 265 L 459 269.5 L 460 271.5 L 458 270.5 L 455.5 267 Q 451.8 266.7 452.5 265 Z " /><path fill="currentColor" stroke="rgb(51,51,51)" stroke-width="1" opacity="0.6431372549019608" d="M 435.5 273 L 436 277.5 L 435 277.5 L 435.5 273 Z " /><path fill="currentColor" stroke="rgb(51,51,51)" stroke-width="1" opacity="0.6431372549019608" d="M 460.5 273 L 461 293.5 L 460 293.5 L 460.5 273 Z " /><path fill="currentColor" stroke="rgb(51,51,51)" stroke-width="1" opacity="0.6431372549019608" d="M 77.5 286 L 78 296.5 L 77 296.5 L 77.5 286 Z " /><path fill="currentColor" stroke="rgb(51,51,51)" stroke-width="1" opacity="0.6431372549019608" d="M 434.5 287 L 435 296.5 L 434 296.5 L 434.5 287 Z " /><path fill="currentColor" stroke="rgb(51,51,51)" stroke-width="1" opacity="0.6431372549019608" d="M 52.5 297 L 53 303.5 L 52 303.5 L 52.5 297 Z " /><path fill="currentColor" stroke="rgb(51,51,51)" stroke-width="1" opacity="0.6431372549019608" d="M 459.5 297 L 460 303.5 L 459 303.5 L 459.5 297 Z " /><path fill="currentColor" stroke="rgb(51,51,51)" stroke-width="1" opacity="0.6431372549019608" d="M 78.5 298 L 79 303.5 L 78 303.5 L 78.5 298 Z " /><path fill="currentColor" stroke="rgb(51,51,51)" stroke-width="1" opacity="0.6431372549019608" d="M 433.5 298 L 434 304.5 L 433 304.5 L 433.5 298 Z " /><path fill="currentColor" stroke="rgb(51,51,51)" stroke-width="1" opacity="0.6431372549019608" d="M 53.5 306 L 54 310.5 L 53 310.5 L 53.5 306 Z " /><path fill="currentColor" stroke="rgb(51,51,51)" stroke-width="1" opacity="0.6431372549019608" d="M 79.5 306 L 80 309.5 L 79 309.5 L 79.5 306 Z " /><path fill="currentColor" stroke="rgb(51,51,51)" stroke-width="1" opacity="0.6431372549019608" d="M 432.5 306 L 433 309.5 L 432 309.5 L 432.5 306 Z " /><path fill="currentColor" stroke="rgb(51,51,51)" stroke-width="1" opacity="0.6431372549019608" d="M 458.5 306 L 459 310.5 L 458 310.5 L 458.5 306 Z " /><path fill="currentColor" stroke="rgb(51,51,51)" stroke-width="1" opacity="0.6431372549019608" d="M 80.5 311 L 81 314.5 L 80 314.5 L 80.5 311 Z " /><path fill="currentColor" stroke="rgb(51,51,51)" stroke-width="1" opacity="0.6431372549019608" d="M 54.5 312 L 55 316.5 L 54 316.5 L 54.5 312 Z " /><path fill="currentColor" stroke="rgb(51,51,51)" stroke-width="1" opacity="0.6431372549019608" d="M 431.5 312 L 432 314.5 L 431 314.5 L 431.5 312 Z " /><path fill="currentColor" stroke="rgb(51,51,51)" stroke-width="1" opacity="0.6431372549019608" d="M 457.5 312 L 458 316.5 L 457 316.5 L 457.5 312 Z " /><path fill="currentColor" stroke="rgb(51,51,51)" stroke-width="1" opacity="0.6431372549019608" d="M 81.5 316 L 82 319.5 L 81 319.5 L 81.5 316 Z " /><path fill="currentColor" stroke="rgb(51,51,51)" stroke-width="1" opacity="0.6431372549019608" d="M 430.5 316 L 431 319.5 L 430 319.5 L 430.5 316 Z " /><path fill="currentColor" stroke="rgb(51,51,51)" stroke-width="1" opacity="0.6431372549019608" d="M 55.5 318 L 56 320.5 L 55 320.5 L 55.5 318 Z " /><path fill="currentColor" stroke="rgb(51,51,51)" stroke-width="1" opacity="0.6431372549019608" d="M 456.5 318 L 457 321.5 L 455.5 326 L 455 322.5 L 456.5 318 Z " /><path fill="currentColor" stroke="rgb(51,51,51)" stroke-width="1" opacity="0.6431372549019608" d="M 82.5 321 L 83 323.5 L 82 323.5 L 82.5 321 Z " /><path fill="currentColor" stroke="rgb(51,51,51)" stroke-width="1" opacity="0.6431372549019608" d="M 429.5 321 L 430 323.5 L 428.5 327 L 428 324.5 L 429.5 321 Z " /><path fill="currentColor" stroke="rgb(51,51,51)" stroke-width="1" opacity="0.6431372549019608" d="M 56.5 322 L 57 325.5 L 56 325.5 L 56.5 322 Z " /><path fill="currentColor" stroke="rgb(51,51,51)" stroke-width="1" opacity="0.6431372549019608" d="M 57.5 327 L 58 329.5 L 57 329.5 L 57.5 327 Z " /><path fill="currentColor" stroke="rgb(51,51,51)" stroke-width="1" opacity="0.6431372549019608" d="M 454.5 327 L 455 329.5 L 454 329.5 L 454.5 327 Z " /><path fill="currentColor" stroke="rgb(51,51,51)" stroke-width="1" opacity="0.6431372549019608" d="M 84.5 328 L 89 341.5 L 88 341.5 L 84 330.5 L 84.5 328 Z " /><path fill="currentColor" stroke="rgb(51,51,51)" stroke-width="1" opacity="0.6431372549019608" d="M 427.5 328 L 428 330.5 L 423.5 342 L 423 340.5 L 427.5 328 Z " /><path fill="currentColor" stroke="rgb(51,51,51)" stroke-width="1" opacity="0.6431372549019608" d="M 58.5 331 L 60 336.5 L 59 336.5 L 58.5 331 Z " /><path fill="currentColor" stroke="rgb(51,51,51)" stroke-width="1" opacity="0.6431372549019608" d="M 452.5 334 L 453 336.5 L 452 336.5 L 452.5 334 Z " /><path fill="currentColor" stroke="rgb(51,51,51)" stroke-width="1" opacity="0.6431372549019608" d="M 89.5 343 L 91 346.5 L 90 346.5 L 89.5 343 Z " /><path fill="currentColor" stroke="rgb(51,51,51)" stroke-width="1" opacity="0.6431372549019608" d="M 422.5 343 L 423 344.5 L 421.5 347 L 421 345.5 L 422.5 343 Z " /><path fill="currentColor" stroke="rgb(51,51,51)" stroke-width="1" opacity="0.6431372549019608" d="M 91.5 348 L 101 366.5 L 99 365.5 L 91 349.5 L 91.5 348 Z " /><path fill="currentColor" stroke="rgb(51,51,51)" stroke-width="1" opacity="0.6431372549019608" d="M 420.5 348 L 421 349.5 L 411.5 367 L 412 365.5 L 420.5 348 Z " /><path fill="currentColor" stroke="rgb(51,51,51)" stroke-width="1" opacity="0.6431372549019608" d="M 64.5 350 L 66 353.5 L 65 353.5 L 64.5 350 Z " /><path fill="currentColor" stroke="rgb(51,51,51)" stroke-width="1" opacity="0.6431372549019608" d="M 447.5 350 L 448 351.5 L 446.5 354 L 446 352.5 L 447.5 350 Z " /><path fill="currentColor" stroke="rgb(51,51,51)" stroke-width="1" opacity="0.6431372549019608" d="M 66.5 355 L 69 360.5 L 68 360.5 L 66.5 355 Z " /><path fill="currentColor" stroke="rgb(51,51,51)" stroke-width="1" opacity="0.6431372549019608" d="M 445.5 355 L 446 356.5 L 443.5 361 L 443 359.5 L 445.5 355 Z " /><path fill="currentColor" stroke="rgb(51,51,51)" stroke-width="1" opacity="0.6431372549019608" d="M 69.5 362 L 81 383.5 L 79 382.5 L 69 363.5 L 69.5 362 Z " /><path fill="currentColor" stroke="rgb(51,51,51)" stroke-width="1" opacity="0.6431372549019608" d="M 442.5 362 L 443 363.5 L 431.5 384 L 432 382.5 L 442.5 362 Z " /><path fill="currentColor" stroke="rgb(51,51,51)" stroke-width="1" opacity="0.6431372549019608" d="M 101.5 368 L 104 371.5 L 102 370.5 L 101.5 368 Z " /><path fill="currentColor" stroke="rgb(51,51,51)" stroke-width="1" opacity="0.6431372549019608" d="M 410.5 368 L 410 369.5 L 408.5 372 L 409 370.5 L 410.5 368 Z " /><path fill="currentColor" stroke="rgb(51,51,51)" stroke-width="1" opacity="0.6431372549019608" d="M 104.5 373 Q 118.4 395.1 137.5 412 L 163 430.5 L 161.5 430 Q 138 416.5 121 396.5 L 107 378.5 L 104.5 373 Z " /><path fill="currentColor" stroke="rgb(51,51,51)" stroke-width="1" opacity="0.6431372549019608" d="M 407.5 373 L 407 374.5 Q 400.8 386.3 391.5 395 L 395 390.5 L 407.5 373 Z " /><path fill="currentColor" stroke="rgb(51,51,51)" stroke-width="1" opacity="0.6431372549019608" d="M 81.5 385 L 92 400.5 L 111 421.5 L 111 423 L 112.5 423 L 128 437.5 L 124.5 435 L 108 420.5 Q 91.2 404.6 81.5 385 Z " /><path fill="currentColor" stroke="rgb(51,51,51)" stroke-width="1" opacity="0.6431372549019608" d="M 430.5 385 L 430 386.5 L 417.5 404 L 420 400.5 L 430.5 385 Z " /><path fill="currentColor" stroke="rgb(51,51,51)" stroke-width="1" opacity="0.6431372549019608" d="M 390.5 396 L 375.5 412 L 357.5 426 L 359.5 423 Q 377.1 411.6 390.5 396 Z " /><path fill="currentColor" stroke="rgb(51,51,51)" stroke-width="1" opacity="0.6431372549019608" d="M 416.5 405 L 414 408.5 L 401.5 423 L 402 421.5 L 416.5 405 Z " /><path fill="currentColor" stroke="rgb(51,51,51)" stroke-width="1" opacity="0.6431372549019608" d="M 399.5 423 L 400 424.5 Q 384.5 440.5 364.5 452 L 365.5 450 Q 385.1 439.1 399.5 423 Z " /><path fill="currentColor" stroke="rgb(51,51,51)" stroke-width="1" opacity="0.6431372549019608" d="M 355.5 426 L 354.5 428 L 349.5 431 L 350.5 429 L 355.5 426 Z " /><path fill="currentColor" stroke="rgb(51,51,51)" stroke-width="1" opacity="0.6431372549019608" d="M 164.5 431 L 170 434.5 L 168.5 434 Q 164.5 433.5 164.5 431 Z " /><path fill="currentColor" stroke="rgb(51,51,51)" stroke-width="1" opacity="0.6431372549019608" d="M 347.5 431 L 346.5 433 L 342.5 435 L 343.5 433 L 347.5 431 Z " /><path fill="currentColor" stroke="rgb(51,51,51)" stroke-width="1" opacity="0.6431372549019608" d="M 173.5 436 L 178 438.5 L 176.5 439 L 173.5 436 Z " /><path fill="currentColor" stroke="rgb(51,51,51)" stroke-width="1" opacity="0.6431372549019608" d="M 336.5 437 L 335.5 439 L 325.5 443 L 325.5 442 L 336.5 437 Z " /><path fill="currentColor" stroke="rgb(51,51,51)" stroke-width="1" opacity="0.6431372549019608" d="M 129.5 438 L 153 454.5 L 151.5 454 Q 137.4 447.8 129.5 438 Z " /><path fill="currentColor" stroke="rgb(51,51,51)" stroke-width="1" opacity="0.6431372549019608" d="M 181.5 440 L 187 442.5 L 185.5 443 L 181.5 441 L 181.5 440 Z " /><path fill="currentColor" stroke="rgb(51,51,51)" stroke-width="1" opacity="0.6431372549019608" d="M 188.5 443 L 192 444.5 L 190.5 445 L 188.5 443 Z " /><path fill="currentColor" stroke="rgb(51,51,51)" stroke-width="1" opacity="0.6431372549019608" d="M 322.5 443 L 324 443.5 L 320.5 445 L 320.5 444 L 322.5 443 Z " /><path fill="currentColor" stroke="rgb(51,51,51)" stroke-width="1" opacity="0.6431372549019608" d="M 193.5 445 L 204 448.5 L 201.5 449 L 193.5 446 L 193.5 445 Z " /><path fill="currentColor" stroke="rgb(51,51,51)" stroke-width="1" opacity="0.6431372549019608" d="M 314.5 446 L 316 446.5 L 308.5 449 L 308.5 448 L 314.5 446 Z " /><path fill="currentColor" stroke="rgb(51,51,51)" stroke-width="1" opacity="0.6431372549019608" d="M 205.5 449 L 211 450.5 L 208.5 451 L 205.5 450 L 205.5 449 Z " /><path fill="currentColor" stroke="rgb(51,51,51)" stroke-width="1" opacity="0.6431372549019608" d="M 304.5 449 L 307 449.5 L 301.5 451 L 301.5 450 L 304.5 449 Z " /><path fill="currentColor" stroke="rgb(51,51,51)" stroke-width="1" opacity="0.6431372549019608" d="M 212.5 451 L 215 451.5 L 212.5 452 L 212.5 451 Z " /><path fill="currentColor" stroke="rgb(51,51,51)" stroke-width="1" opacity="0.6431372549019608" d="M 297.5 451 L 300 451.5 L 297.5 452 L 297.5 451 Z " /><path fill="currentColor" stroke="rgb(51,51,51)" stroke-width="1" opacity="0.6431372549019608" d="M 216.5 452 L 220 452.5 L 216.5 453 L 216.5 452 Z " /><path fill="currentColor" stroke="rgb(51,51,51)" stroke-width="1" opacity="0.6431372549019608" d="M 292.5 452 L 296 452.5 L 292.5 453 L 292.5 452 Z " /><path fill="currentColor" stroke="rgb(51,51,51)" stroke-width="1" opacity="0.6431372549019608" d="M 362.5 452 L 361.5 454 L 339.5 465 L 339.5 464 L 362.5 452 Z " /><path fill="currentColor" stroke="rgb(51,51,51)" stroke-width="1" opacity="0.6431372549019608" d="M 221.5 453 L 226 453.5 L 221.5 454 L 221.5 453 Z " /><path fill="currentColor" stroke="rgb(51,51,51)" stroke-width="1" opacity="0.6431372549019608" d="M 286.5 453 L 291 453.5 L 286.5 454 L 286.5 453 Z " /><path fill="currentColor" stroke="rgb(51,51,51)" stroke-width="1" opacity="0.6431372549019608" d="M 227.5 454 L 233 454.5 L 227.5 455 L 227.5 454 Z " /><path fill="currentColor" stroke="rgb(51,51,51)" stroke-width="1" opacity="0.6431372549019608" d="M 279.5 454 L 285 454.5 L 279.5 455 L 279.5 454 Z " /><path fill="currentColor" stroke="rgb(51,51,51)" stroke-width="1" opacity="0.6431372549019608" d="M 154.5 455 L 166 461.5 L 164.5 461 L 155.5 457 L 154.5 455 Z " /><path fill="currentColor" stroke="rgb(51,51,51)" stroke-width="1" opacity="0.6431372549019608" d="M 234.5 455 L 242 455.5 L 234.5 456 L 234.5 455 Z " /><path fill="currentColor" stroke="rgb(51,51,51)" stroke-width="1" opacity="0.6431372549019608" d="M 270.5 455 L 278 455.5 L 270.5 456 L 270.5 455 Z " /><path fill="currentColor" stroke="rgb(51,51,51)" stroke-width="1" opacity="0.6431372549019608" d="M 245.5 456 L 267 456.5 L 245.5 457 L 245.5 456 Z " /><path fill="currentColor" stroke="rgb(51,51,51)" stroke-width="1" opacity="0.6431372549019608" d="M 167.5 462 L 175 465.5 L 173.5 466 L 167.5 463 L 167.5 462 Z " /><path fill="currentColor" stroke="rgb(51,51,51)" stroke-width="1" opacity="0.6431372549019608" d="M 176.5 466 L 180 467.5 L 178.5 468 L 176.5 466 Z " /><path fill="currentColor" stroke="rgb(51,51,51)" stroke-width="1" opacity="0.6431372549019608" d="M 334.5 466 L 336 466.5 L 332.5 468 L 332.5 467 L 334.5 466 Z " /><path fill="currentColor" stroke="rgb(51,51,51)" stroke-width="1" opacity="0.6431372549019608" d="M 181.5 468 L 185 469.5 L 183.5 470 L 181.5 468 Z " /><path fill="currentColor" stroke="rgb(51,51,51)" stroke-width="1" opacity="0.6431372549019608" d="M 329.5 468 L 331 468.5 L 327.5 470 L 327.5 469 L 329.5 468 Z " /><path fill="currentColor" stroke="rgb(51,51,51)" stroke-width="1" opacity="0.6431372549019608" d="M 195.5 473 L 198 473.5 L 195.5 474 L 195.5 473 Z " /><path fill="currentColor" stroke="rgb(51,51,51)" stroke-width="1" opacity="0.6431372549019608" d="M 314.5 473 L 317 473.5 L 307.5 476 L 307.5 475 L 314.5 473 Z " /><path fill="currentColor" stroke="rgb(51,51,51)" stroke-width="1" opacity="0.6431372549019608" d="M 202.5 475 L 205 475.5 L 202.5 476 L 202.5 475 Z " /><path fill="currentColor" stroke="rgb(51,51,51)" stroke-width="1" opacity="0.6431372549019608" d="M 206.5 476 L 209 476.5 L 206.5 477 L 206.5 476 Z " /><path fill="currentColor" stroke="rgb(51,51,51)" stroke-width="1" opacity="0.6431372549019608" d="M 302.5 476 L 306 476.5 L 298.5 478 L 298.5 477 L 302.5 476 Z " /><path fill="currentColor" stroke="rgb(51,51,51)" stroke-width="1" opacity="0.6431372549019608" d="M 210.5 477 L 214 477.5 L 210.5 478 L 210.5 477 Z " /><path fill="currentColor" stroke="rgb(51,51,51)" stroke-width="1" opacity="0.6431372549019608" d="M 215.5 478 L 219 478.5 L 215.5 479 L 215.5 478 Z " /><path fill="currentColor" stroke="rgb(51,51,51)" stroke-width="1" opacity="0.6431372549019608" d="M 293.5 478 L 297 478.5 L 293.5 479 L 293.5 478 Z " /><path fill="currentColor" stroke="rgb(51,51,51)" stroke-width="1" opacity="0.6431372549019608" d="M 220.5 479 L 225 479.5 L 220.5 480 L 220.5 479 Z " /><path fill="currentColor" stroke="rgb(51,51,51)" stroke-width="1" opacity="0.6431372549019608" d="M 287.5 479 L 292 479.5 L 287.5 480 L 287.5 479 Z " /><path fill="currentColor" stroke="rgb(51,51,51)" stroke-width="1" opacity="0.6431372549019608" d="M 226.5 480 L 233 480.5 L 226.5 481 L 226.5 480 Z " /><path fill="currentColor" stroke="rgb(51,51,51)" stroke-width="1" opacity="0.6431372549019608" d="M 279.5 480 L 285 480.5 L 279.5 481 L 279.5 480 Z " /><path fill="currentColor" stroke="rgb(51,51,51)" stroke-width="1" opacity="0.6431372549019608" d="M 235.5 481 L 245 481.5 L 235.5 482 L 235.5 481 Z " /><path fill="currentColor" stroke="rgb(51,51,51)" stroke-width="1" opacity="0.6431372549019608" d="M 267.5 481 L 277 481.5 L 267.5 482 L 267.5 481 Z " /><path fill="currentColor" stroke="rgb(51,51,51)" stroke-width="1" opacity="0.6431372549019608" d="M 254.5 482 L 258 482.5 L 254.5 483 L 254.5 482 Z " /><path fill="currentColor" stroke="rgb(51,51,51)" stroke-width="1" opacity="0.996078431372549" d="M 222.5 36 L 301 85.5 L 222 134 L 222 101.5 L 220.5 101 L 197.5 107 L 166.5 121 Q 138.4 137.4 118 161.5 Q 99.4 183.4 88 212.5 L 79 244.5 L 78 257.5 L 77 258.5 L 77 275.5 L 76 277.5 L 77 278.5 L 77 296.5 L 81 319.5 L 91 349.5 Q 108.1 387.4 137.5 413 Q 162 434.5 195.5 447 L 216.5 453 L 233.5 455 L 234.5 456 L 266.5 457 L 267.5 456 L 284.5 455 L 303.5 451 L 333.5 440 Q 367.4 423.4 391 396.5 Q 412.5 372.5 425 339.5 L 434 304.5 L 436 272.5 L 440.5 267 Q 443.8 263.8 451.5 265 L 458 269.5 L 460 272.5 L 460 296.5 L 454 330.5 L 443 361.5 Q 426.7 397.2 400.5 423 Q 370.3 453.3 326.5 470 L 306.5 476 L 286.5 480 L 267.5 481 L 266.5 482 L 245.5 482 L 244.5 481 L 233.5 481 L 232.5 480 L 225.5 480 L 209.5 477 L 175.5 466 Q 154.2 456.8 136.5 444 L 111 423 L 111 421.5 L 92 400.5 L 81 384.5 L 64 349.5 L 58 330.5 L 53 305.5 L 53 297.5 L 52 296.5 L 52 257.5 L 53 256.5 L 53 249.5 L 56 232.5 L 67 197.5 Q 85.4 154.9 117.5 126 Q 141.1 104.1 172.5 90 L 193.5 82 L 212.5 77 L 222 76 L 222.5 36 Z " /></svg>