<svg viewBox="0 0 512 512" width="512" height="512" version="1.1" xmlns="http://www.w3.org/2000/svg" desc="Created with imagetracer.js version 1.2.6" ><path fill="currentColor" stroke="currentColor" stroke-width="1" opacity="0.788235294117647" d="M 256.5 25 L 410 25.5 L 256.5 26 L 256.5 25 Z " /><path fill="currentColor" stroke="currentColor" stroke-width="1" opacity="0.788235294117647" d="M 421.5 28 L 422.5 30 L 421.5 28 Z " /><path fill="currentColor" stroke="currentColor" stroke-width="1" opacity="0.788235294117647" d="M 242.5 29 L 241.5 31 L 242.5 29 Z " /><path fill="currentColor" stroke="currentColor" stroke-width="1" opacity="0.788235294117647" d="M 424.5 30 L 425.5 32 L 424.5 30 Z " /><path fill="currentColor" stroke="currentColor" stroke-width="1" opacity="0.788235294117647" d="M 238.5 32 L 237.5 34 L 238.5 32 Z " /><path fill="currentColor" stroke="currentColor" stroke-width="1" opacity="0.788235294117647" d="M 428.5 34 L 430.5 37 L 428.5 34 Z " /><path fill="currentColor" stroke="currentColor" stroke-width="1" opacity="0.788235294117647" d="M 235.5 36 L 234.5 38 L 235.5 36 Z " /><path fill="currentColor" stroke="currentColor" stroke-width="1" opacity="0.788235294117647" d="M 230.5 48 L 231 53.5 L 230 53.5 L 230.5 48 Z " /><path fill="currentColor" stroke="currentColor" stroke-width="1" opacity="0.788235294117647" d="M 233.5 63 L 234.5 65 L 233.5 63 Z " /><path fill="currentColor" stroke="currentColor" stroke-width="1" opacity="0.788235294117647" d="M 431.5 64 L 430.5 66 L 431.5 64 Z " /><path fill="currentColor" stroke="currentColor" stroke-width="1" opacity="0.788235294117647" d="M 235.5 66 L 240.5 72 L 235.5 66 Z " /><path fill="currentColor" stroke="currentColor" stroke-width="1" opacity="0.788235294117647" d="M 428.5 68 L 427.5 70 L 428.5 68 Z " /><path fill="currentColor" stroke="currentColor" stroke-width="1" opacity="0.788235294117647" d="M 242.5 72 L 243.5 74 L 242.5 72 Z " /><path fill="currentColor" stroke="currentColor" stroke-width="1" opacity="0.788235294117647" d="M 252.5 76 L 295.5 76 L 296 78.5 L 295 78.5 L 294.5 77 L 252.5 77 L 252.5 76 Z " /><path fill="currentColor" stroke="currentColor" stroke-width="1" opacity="0.788235294117647" d="M 351.5 76 L 414 76.5 L 351.5 77 L 351.5 76 Z " /><path fill="currentColor" stroke="currentColor" stroke-width="1" opacity="0.788235294117647" d="M 216.5 433 L 217 435 L 260 435.5 L 216 436 L 216.5 433 Z " /><path fill="currentColor" stroke="currentColor" stroke-width="1" opacity="0.788235294117647" d="M 98.5 435 L 161 435.5 L 98.5 436 L 98.5 435 Z " /><path fill="currentColor" stroke="currentColor" stroke-width="1" opacity="0.788235294117647" d="M 268.5 438 L 269.5 440 L 268.5 438 Z " /><path fill="currentColor" stroke="currentColor" stroke-width="1" opacity="0.788235294117647" d="M 271.5 440 L 276.5 446 L 271.5 440 Z " /><path fill="currentColor" stroke="currentColor" stroke-width="1" opacity="0.788235294117647" d="M 85.5 441 L 83.5 444 L 85.5 441 Z " /><path fill="currentColor" stroke="currentColor" stroke-width="1" opacity="0.788235294117647" d="M 81.5 446 L 80.5 448 L 81.5 446 Z " /><path fill="currentColor" stroke="currentColor" stroke-width="1" opacity="0.788235294117647" d="M 277.5 447 L 278.5 449 L 277.5 447 Z " /><path fill="currentColor" stroke="currentColor" stroke-width="1" opacity="0.788235294117647" d="M 77.5 454 L 78 456.5 L 77 456.5 L 77.5 454 Z " /><path fill="currentColor" stroke="currentColor" stroke-width="1" opacity="0.788235294117647" d="M 281.5 458 L 282 463.5 L 281 463.5 L 281.5 458 Z " /><path fill="currentColor" stroke="currentColor" stroke-width="1" opacity="0.788235294117647" d="M 277.5 474 L 276.5 476 L 277.5 474 Z " /><path fill="currentColor" stroke="currentColor" stroke-width="1" opacity="0.788235294117647" d="M 81.5 475 L 83.5 478 L 81.5 475 Z " /><path fill="currentColor" stroke="currentColor" stroke-width="1" opacity="0.788235294117647" d="M 274.5 478 L 273.5 480 L 274.5 478 Z " /><path fill="currentColor" stroke="currentColor" stroke-width="1" opacity="0.788235294117647" d="M 85.5 479 L 87.5 482 L 85.5 479 Z " /><path fill="currentColor" stroke="currentColor" stroke-width="1" opacity="0.788235294117647" d="M 270.5 481 L 269.5 483 L 270.5 481 Z " /><path fill="currentColor" stroke="currentColor" stroke-width="1" opacity="0.788235294117647" d="M 89.5 482 L 90.5 484 L 89.5 482 Z " /><path fill="currentColor" stroke="currentColor" stroke-width="1" opacity="0.788235294117647" d="M 102.5 486 L 256 486.5 L 102.5 487 L 102.5 486 Z " /><path fill="currentColor" stroke="currentColor" stroke-width="1" opacity="0" d="M 0 0 L 512 0 L 512 512 L 0 512 L 0 0 Z M 257 25 L 247 27 L 239 32 Q 232 38 230 49 Q 230 60 235 67 Q 241 75 253 77 L 295 77 L 162 435 L 99 435 L 86 441 Q 80 446 77 455 Q 75 469 81 476 L 91 484 L 103 487 L 256 487 L 266 485 L 274 480 Q 280 474 282 464 Q 282 452 277 446 Q 271 437 260 435 L 217 435 L 350 77 L 414 77 L 428 70 Q 433 65 435 57 Q 437 43 431 37 L 422 28 L 410 25 L 257 25 Z " /><path fill="currentColor" stroke="currentColor" stroke-width="1" opacity="1" d="M 251.5 26 L 414.5 26 Q 423.1 27.9 428 33.5 Q 435.6 39.9 435 54.5 Q 432.8 66.3 424.5 72 L 415.5 76 L 351.5 76 L 349 78.5 L 216 436 L 262.5 436 Q 271.8 439.2 277 446.5 Q 282.7 452.8 281 466.5 Q 278.2 475.7 271.5 481 L 260.5 486 L 97.5 486 L 91.5 484 L 84 479 L 78 468.5 L 77 457.5 Q 79.2 445.7 87.5 440 L 96.5 436 L 160.5 436 L 163 433.5 L 296 76 L 249.5 76 Q 240.2 72.8 235 65.5 Q 229.3 59.2 231 45.5 Q 233.8 36.3 240.5 31 L 251.5 26 Z " /></svg>