<svg viewBox="0 0 512 512" width="512" height="512" version="1.1" xmlns="http://www.w3.org/2000/svg" desc="Created with imagetracer.js version 1.2.6" ><path fill="currentColor" stroke="currentColor" stroke-width="1" opacity="0" d="M 0 0 L 511.5 0 L 512 0.5 L 512 120 L 437 120 L 437 91 L 465.5 91 L 467 89.5 L 467 60.5 L 466.5 60 L 376 60 L 376 89.5 L 377.5 91 L 406 91 L 406 120 L 0.5 120 L 0 119.5 L 0 0 Z " /><path fill="currentColor" stroke="currentColor" stroke-width="1" opacity="0" d="M 30 151 L 406 151 L 406 361 L 30 361 L 30 151 Z M 75 181 L 75 211 L 105 211 L 105 301 L 75 301 L 75 331 L 76 331 L 166 331 L 166 301 L 137 301 L 136 301 L 136 181 L 75 181 Z M 196 181 L 196 211 L 241 211 L 241 241 L 196 241 L 196 331 L 271 331 L 271 301 L 226 301 L 226 271 L 271 271 L 271 181 L 196 181 Z M 301 181 L 301 211 L 346 211 L 346 241 L 316 241 L 316 271 L 346 271 L 346 301 L 301 301 L 301 331 L 377 331 L 377 181 L 301 181 Z " /><path fill="currentColor" stroke="currentColor" stroke-width="1" opacity="0" d="M 437 151 L 481.5 151 L 482 151.5 L 482 361 L 437.5 361 L 437 360.5 L 437 151 Z " /><path fill="currentColor" stroke="currentColor" stroke-width="1" opacity="0" d="M 0 392 L 405.5 392 L 406 392.5 L 406 421 L 377.5 421 L 376 422.5 L 376 451.5 L 376.5 452 L 467 452 L 467 422.5 L 465.5 421 L 437 421 L 437 392 L 512 392 L 512 512 L 0.5 512 L 0 511.5 L 0 392 Z " /><path fill="currentColor" stroke="currentColor" stroke-width="1" opacity="0.6274509803921569" d="M 376 60 L 467 60.5 L 377 61 L 377 90 L 407 90 L 407 121 L 0 120.5 L 406 120 L 406 91 L 377.5 91 L 376 89.5 L 376 60 Z " /><path fill="currentColor" stroke="currentColor" stroke-width="1" opacity="0.6274509803921569" d="M 436 90 L 466 90.5 L 437 91 L 437 120 L 511.5 120 L 511.5 121 L 437.5 121 L 436 119.5 L 436 90 Z " /><path fill="currentColor" stroke="currentColor" stroke-width="1" opacity="0.6274509803921569" d="M 30.5 150 L 407 150 L 407 362 L 30 361.5 L 406 361 L 406 151 L 30.5 151 L 30.5 150 Z " /><path fill="currentColor" stroke="currentColor" stroke-width="1" opacity="0.6274509803921569" d="M 437.5 150 L 482 150.5 L 437 151 L 437 360.5 L 437.5 361 L 481.5 361 L 481.5 362 L 437.5 362 L 436 360.5 L 436 151.5 L 437.5 150 Z " /><path fill="currentColor" stroke="currentColor" stroke-width="1" opacity="0.6274509803921569" d="M 75.5 181 L 76 210.5 L 75 210.5 L 75.5 181 Z " /><path fill="currentColor" stroke="currentColor" stroke-width="1" opacity="0.6274509803921569" d="M 135.5 181 L 136 300.5 L 135 300.5 L 135.5 181 Z " /><path fill="currentColor" stroke="currentColor" stroke-width="1" opacity="0.6274509803921569" d="M 376.5 181 L 377 330.5 L 376 330.5 L 376.5 181 Z " /><path fill="currentColor" stroke="currentColor" stroke-width="1" opacity="0.6274509803921569" d="M 105.5 211 L 106 300.5 L 105 300.5 L 105.5 211 Z " /><path fill="currentColor" stroke="currentColor" stroke-width="1" opacity="0.6274509803921569" d="M 346.5 211 L 347 240.5 L 346 240.5 L 346.5 211 Z " /><path fill="currentColor" stroke="currentColor" stroke-width="1" opacity="0.6274509803921569" d="M 316.5 241 L 317 270.5 L 316 270.5 L 316.5 241 Z " /><path fill="currentColor" stroke="currentColor" stroke-width="1" opacity="0.6274509803921569" d="M 346.5 271 L 347 300.5 L 346 300.5 L 346.5 271 Z " /><path fill="currentColor" stroke="currentColor" stroke-width="1" opacity="0.6274509803921569" d="M 75.5 301 L 76 330.5 L 75 330.5 L 75.5 301 Z " /><path fill="currentColor" stroke="currentColor" stroke-width="1" opacity="0.6274509803921569" d="M 165.5 301 L 166 330.5 L 165 330.5 L 165.5 301 Z " /><path fill="currentColor" stroke="currentColor" stroke-width="1" opacity="0.6274509803921569" d="M 0.5 391 L 406.5 391 L 407 391.5 L 407 422 L 377 422 L 377 451 L 467 451.5 L 376 452 L 376 422.5 L 377.5 421 L 406 421 L 406 392 L 0.5 392 L 0.5 391 Z " /><path fill="currentColor" stroke="currentColor" stroke-width="1" opacity="0.6274509803921569" d="M 437.5 391 L 512 391.5 L 437 392 L 437 421 L 465.5 421 L 465.5 422 L 436 422 L 436 392.5 L 437.5 391 Z " /><path fill="currentColor" stroke="currentColor" stroke-width="1" opacity="1" d="M 377 61 L 466.5 61 L 467 61.5 L 467 90 L 436 90 L 436 119.5 L 437.5 121 L 512 121 L 512 390.5 L 511.5 391 L 437.5 391 L 436 392.5 L 436 422 L 467 422 L 467 451 L 377.5 451 L 377 450.5 L 377 422 L 407 422 L 407 391 L 0 391 L 0 121 L 406.5 121 L 407 120.5 L 407 90 L 377 90 L 377 61 Z M 30 150 L 30 362 L 407 362 L 407 150 L 30 150 Z M 438 150 L 436 152 L 436 361 L 438 362 L 482 362 L 482 151 L 482 150 L 438 150 Z " /><path fill="currentColor" stroke="currentColor" stroke-width="1" opacity="1" d="M 76 181 L 135 181 L 135 300.5 L 135.5 301 L 165 301 L 165 331 L 76 331 L 76 301 L 106 301 L 106 211 L 76 211 L 76 181 Z " /><path fill="currentColor" stroke="currentColor" stroke-width="1" opacity="1" d="M 196 181 L 271 181 L 271 271 L 226 271 L 226 301 L 271 301 L 271 331 L 196 331 L 196 241 L 241 241 L 241 211 L 196 211 L 196 181 Z " /><path fill="currentColor" stroke="currentColor" stroke-width="1" opacity="1" d="M 301 181 L 376 181 L 376 331 L 301 331 L 301 302.5 L 302.5 301 L 347 301 L 347 271 L 317 271 L 317 241 L 347 241 L 347 211 L 302.5 211 L 301 209.5 L 301 181 Z " /></svg>