<svg viewBox="0 0 512 512" width="512" height="512" version="1.1" xmlns="http://www.w3.org/2000/svg" desc="Created with imagetracer.js version 1.2.6" ><path fill="currentColor" stroke="currentColor" stroke-width="1" opacity="0.9333333333333333" d="M 41.5 14 L 247.5 14 Q 254.9 16.1 259 21.5 L 263 28.5 Q 261.5 34 264 35.5 L 264 67.5 L 262 76.5 L 256.5 84 L 246.5 89 L 41.5 89 Q 34.1 86.9 30 81.5 L 26 74.5 L 25 69.5 L 25 32.5 Q 27.1 22.1 34.5 17 L 41.5 14 Z M 44 26 L 42 27 L 37 34 L 37 70 L 39 74 L 44 77 L 246 77 L 248 76 L 250 74 L 252 68 L 252 35 L 250 30 L 246 26 L 44 26 Z " /><path fill="currentColor" stroke="currentColor" stroke-width="1" opacity="0.9333333333333333" d="M 345.5 14 L 410.5 14 Q 418.9 16.1 423 22.5 L 427 33.5 L 427 69.5 Q 425.3 79.8 418.5 85 L 410.5 89 L 346.5 89 Q 338.2 87.3 334 81.5 L 331 76.5 L 329 67.5 L 329 34.5 L 332 24.5 L 337.5 18 L 345.5 14 Z M 348 26 L 346 27 L 341 35 L 341 69 L 343 74 L 348 77 L 409 77 L 411 76 L 415 69 L 415 34 L 414 31 L 409 26 L 348 26 Z " /><path fill="currentColor" stroke="currentColor" stroke-width="1" opacity="0.9333333333333333" d="M 81.5 45 L 126.5 45 L 132 48.5 L 133 52.5 L 129.5 57 L 78.5 57 L 76 54.5 L 75 51.5 L 78.5 46 L 81.5 45 Z " /><path fill="currentColor" stroke="currentColor" stroke-width="1" opacity="0.9333333333333333" d="M 44.5 120 L 244.5 120 Q 254.9 122.1 260 129.5 L 263 135.5 Q 261.7 140.3 264 141.5 L 264 174.5 L 262 183.5 L 253.5 193 L 245.5 196 L 42.5 196 L 31 190 Q 26.6 185.1 25 176.5 L 25 139.5 Q 26.7 128.7 34.5 124 L 44.5 120 Z M 46 132 L 43 133 L 37 141 L 37 176 L 39 181 L 45 184 L 245 184 L 249 182 L 252 175 L 252 142 L 251 138 L 244 132 L 46 132 Z " /><path fill="currentColor" stroke="currentColor" stroke-width="1" opacity="0.9333333333333333" d="M 348.5 120 L 407.5 120 Q 418.3 121.7 423 129.5 L 427 140.5 L 427 176.5 Q 425.4 185.1 421 190 L 409.5 196 L 347.5 196 Q 336.8 193.7 332 185.5 L 329 174.5 L 329 141.5 Q 331.3 140.3 330 135.5 L 333 129.5 L 338.5 124 L 348.5 120 Z M 350 132 L 347 133 L 342 138 L 341 142 L 341 175 L 344 182 L 349 184 L 408 184 L 412 182 L 415 176 L 415 141 L 414 138 L 407 132 L 350 132 Z " /><path fill="currentColor" stroke="currentColor" stroke-width="1" opacity="0.9333333333333333" d="M 79.5 152 L 128.5 152 L 132 155.5 L 133 159.5 L 130.5 163 L 128.5 164 L 79.5 164 L 76 161.5 L 75 157.5 L 79.5 152 Z " /><path fill="currentColor" stroke="currentColor" stroke-width="1" opacity="0.9333333333333333" d="M 42.5 227 L 245.5 227 Q 255.5 229 260 236.5 L 262 239.5 L 264 248.5 L 264 281.5 Q 261.7 282.8 263 287.5 L 260 293.5 L 254.5 299 L 244.5 303 L 44.5 303 Q 33.7 301.3 29 293.5 L 25 283.5 L 25 246.5 Q 26.6 237.9 31 233 L 42.5 227 Z M 45 239 L 41 241 L 37 248 L 37 283 L 38 286 L 46 291 L 244 291 L 247 290 L 251 286 L 252 282 L 252 249 L 249 241 L 245 239 L 45 239 Z " /><path fill="currentColor" stroke="currentColor" stroke-width="1" opacity="0.9333333333333333" d="M 350.5 227 L 405.5 227 Q 417.4 229.6 423 238.5 L 427 250.5 L 427 279.5 L 424 289.5 L 416.5 298 L 408.5 302 L 401 303 L 401 314 L 404.5 314 Q 406.3 311.3 412.5 313 Q 420.8 314.7 425 320.5 L 428.5 327 L 431.5 325 Q 436.2 326.2 437.5 324 Q 438.7 326.2 443.5 325 L 449.5 328 L 454 332.5 Q 458 336.8 458 344 Q 462.5 342 471.5 343 Q 480.1 345.4 484 352.5 L 487 361.5 L 487 458.5 Q 484.7 459.7 486 464.5 L 482 473.5 L 466 494 L 458.5 498 L 385.5 498 Q 368.5 494 360 481.5 L 355 471.5 L 349 446.5 L 341 426.5 L 331 411.5 L 303 383.5 L 299 374.5 L 299 364.5 L 305 353 L 314.5 346 L 322.5 344 L 329.5 346 L 359.5 376 L 360 303 Q 341.3 304 334 292.5 L 331 287.5 L 329 277.5 L 329 251.5 L 333 238.5 L 340.5 231 L 350.5 227 Z M 352 239 L 349 240 Q 342 243 341 252 L 341 279 L 343 285 Q 348 292 360 291 L 360 274 L 364 265 Q 368 259 377 257 Q 387 256 392 260 Q 397 264 400 272 L 401 291 L 409 289 Q 414 286 415 279 L 415 251 L 413 246 Q 411 240 405 239 L 352 239 Z M 378 269 L 376 270 L 372 275 L 372 392 L 369 396 L 364 396 L 323 356 L 316 360 L 311 367 L 312 376 L 339 403 L 353 424 L 360 442 L 367 470 L 372 478 Q 377 484 387 486 L 457 486 L 470 470 L 475 459 L 475 362 L 473 358 L 470 355 L 462 356 L 458 361 L 457 367 L 454 369 L 449 368 L 446 365 L 446 343 L 445 341 L 442 337 L 438 336 L 433 338 L 429 344 L 429 362 L 428 364 Q 427 366 421 365 L 417 361 L 417 331 L 416 329 L 412 325 L 405 326 L 401 331 L 401 360 L 400 363 Q 398 367 392 365 L 389 363 L 389 277 L 388 274 Q 386 268 378 269 Z " /><path fill="currentColor" stroke="currentColor" stroke-width="1" opacity="0.9333333333333333" d="M 79.5 259 L 128.5 259 L 132 261.5 L 133 265.5 L 128.5 271 L 80.5 271 L 76 267.5 L 75 264.5 L 77.5 260 L 79.5 259 Z " /><path fill="currentColor" stroke="currentColor" stroke-width="1" opacity="0" d="M 0 0 L 512 0 L 512 512 L 0 512 L 0 0 Z M 42 14 L 35 17 Q 27 22 25 33 L 25 70 L 26 75 L 30 82 Q 34 87 42 89 L 247 89 L 257 84 L 262 77 L 264 68 L 264 36 Q 262 34 263 29 L 259 22 Q 255 16 248 14 L 42 14 Z M 346 14 L 338 18 L 332 25 L 329 35 L 329 68 L 331 77 L 334 82 Q 338 87 347 89 L 411 89 L 419 85 Q 425 80 427 70 L 427 34 L 423 23 Q 419 16 411 14 L 346 14 Z M 45 120 L 35 124 Q 27 129 25 140 L 25 177 Q 27 185 31 190 L 43 196 L 246 196 L 254 193 L 262 184 L 264 175 L 264 142 Q 262 140 263 136 L 260 130 Q 255 122 245 120 L 45 120 Z M 349 120 L 339 124 L 333 130 L 330 136 Q 331 140 329 142 L 329 175 L 332 186 Q 337 194 348 196 L 410 196 L 421 190 Q 425 185 427 177 L 427 141 L 423 130 Q 418 122 408 120 L 349 120 Z M 43 227 L 31 233 Q 27 238 25 247 L 25 284 L 29 294 Q 34 301 45 303 L 245 303 L 255 299 L 260 294 L 263 288 Q 262 283 264 282 L 264 249 L 262 240 L 260 237 Q 255 229 246 227 L 43 227 Z M 351 227 L 341 231 L 333 239 L 329 252 L 329 278 L 331 288 L 334 293 Q 341 304 360 303 L 360 376 L 330 346 L 323 344 L 315 346 L 305 353 L 299 365 L 299 375 L 303 384 L 331 412 L 341 427 L 349 447 L 355 472 L 360 482 Q 369 494 386 498 L 459 498 L 466 494 L 482 474 L 486 465 Q 485 460 487 459 L 487 362 L 484 353 Q 480 345 472 343 Q 462 342 458 344 Q 458 337 454 333 L 450 328 L 444 325 Q 439 326 438 324 Q 436 326 432 325 L 429 327 L 425 321 Q 421 315 413 313 Q 406 311 405 314 L 401 314 L 401 303 L 409 302 L 417 298 L 424 290 L 427 280 L 427 251 L 423 239 Q 417 230 406 227 L 351 227 Z " /><path fill="currentColor" stroke="currentColor" stroke-width="1" opacity="0" d="M 43.5 26 L 245.5 26 L 250 29.5 L 252 34.5 L 252 67.5 L 250 73.5 L 247.5 76 L 245.5 77 L 43.5 77 L 39 73.5 L 37 69.5 L 37 33.5 L 41.5 27 L 43.5 26 Z M 82 45 L 79 46 L 75 52 L 76 55 L 79 57 L 130 57 L 133 53 L 132 49 L 127 45 L 82 45 Z " /><path fill="currentColor" stroke="currentColor" stroke-width="1" opacity="0" d="M 347.5 26 L 408.5 26 L 414 30.5 L 415 33.5 L 415 68.5 L 410.5 76 L 408.5 77 L 347.5 77 L 343 73.5 L 341 68.5 L 341 34.5 L 345.5 27 L 347.5 26 Z " /><path fill="currentColor" stroke="currentColor" stroke-width="1" opacity="0" d="M 45.5 132 L 243.5 132 L 251 137.5 L 252 141.5 L 252 174.5 L 249 182 L 244.5 184 L 44.5 184 L 39 180.5 L 37 175.5 L 37 140.5 L 42.5 133 L 45.5 132 Z M 80 152 L 75 158 L 76 162 L 80 164 L 129 164 L 131 163 L 133 160 L 132 156 L 129 152 L 80 152 Z " /><path fill="currentColor" stroke="currentColor" stroke-width="1" opacity="0" d="M 349.5 132 L 406.5 132 L 414 137.5 L 415 140.5 L 415 175.5 L 411.5 182 L 407.5 184 L 348.5 184 L 344 182 L 341 174.5 L 341 141.5 L 342 137.5 L 346.5 133 L 349.5 132 Z " /><path fill="currentColor" stroke="currentColor" stroke-width="1" opacity="0" d="M 44.5 239 L 244.5 239 L 249 241 L 252 248.5 L 252 281.5 L 251 285.5 L 246.5 290 L 243.5 291 L 45.5 291 L 38 285.5 L 37 282.5 L 37 247.5 L 40.5 241 L 44.5 239 Z M 80 259 L 78 260 L 75 265 L 76 268 L 81 271 L 129 271 L 133 266 L 132 262 L 129 259 L 80 259 Z " /><path fill="currentColor" stroke="currentColor" stroke-width="1" opacity="0" d="M 351.5 239 L 404.5 239 Q 410.6 240.4 413 245.5 L 415 250.5 L 415 278.5 Q 413.9 285.9 408.5 289 L 401 291 L 400 271.5 Q 397.4 264.1 391.5 260 Q 386.7 255.8 376.5 257 Q 368.2 258.7 364 264.5 L 360 273.5 L 360 291 Q 347.5 292.3 343 284.5 L 341 278.5 L 341 251.5 Q 342.4 243.4 348.5 240 L 351.5 239 Z " /><path fill="currentColor" stroke="currentColor" stroke-width="1" opacity="0" d="M 377.5 269 Q 386.1 267.9 388 273.5 L 389 276.5 L 389 362.5 L 391.5 365 Q 398.5 366.5 400 362.5 L 401 359.5 L 401 330.5 L 404.5 326 L 411.5 325 L 416 328.5 L 417 330.5 L 417 360.5 L 420.5 365 Q 426.5 366.5 428 363.5 L 429 361.5 L 429 343.5 L 432.5 338 L 437.5 336 L 441.5 337 L 445 340.5 L 446 342.5 L 446 364.5 L 448.5 368 L 453.5 369 L 457 366.5 L 458 360.5 L 461.5 356 L 469.5 355 L 473 357.5 L 475 361.5 L 475 458.5 L 470 469.5 L 456.5 486 L 386.5 486 Q 377.1 483.9 372 477.5 L 367 469.5 L 360 441.5 L 353 423.5 L 339 402.5 L 312 375.5 L 311 366.5 L 315.5 360 L 322.5 356 L 363.5 396 L 368.5 396 L 372 391.5 L 372 274.5 L 375.5 270 L 377.5 269 Z " /></svg>