<?xml version="1.0" encoding="UTF-8"?>
<svg viewBox="0 0 512 512" version="1.1" xmlns="http://www.w3.org/2000/svg" width="512" height="512">
<path d="M0 0 C0.81146484 -0.01095703 1.62292969 -0.02191406 2.45898438 -0.03320312 C9.25072852 0.04902138 13.39593625 1.88141788 18.546875 6.421875 C24.45942438 13.23538429 26.77745505 18.81011436 26.6887207 27.84277344 C26.18735557 33.27057481 24.03616525 38.28972326 22.04296875 43.32617188 C21.16992576 45.8385956 20.52558273 47.90114314 20.4375 50.5625 C21.65496139 52.76114269 22.97634604 54.20793127 24.83740234 55.88793945 C28.99496568 60.23898109 28.85972494 65.69259992 28.84758854 71.40472984 C28.64231224 78.96375253 26.30808272 85.79109215 23.80859375 92.8515625 C23.3330479 94.25225437 22.85987397 95.6537535 22.38893127 97.05599976 C21.1597778 100.70038607 19.90608924 104.33575771 18.64440918 107.96899414 C16.61697639 113.81487127 14.61954073 119.67081964 12.6384449 125.53254318 C11.94545926 127.56673249 11.2366219 129.59487623 10.52598572 131.62295532 C10.1054744 132.85549042 9.68496307 134.08802551 9.25170898 135.35791016 C8.68878395 136.97882065 8.68878395 136.97882065 8.11448669 138.63247681 C7.39479841 141.74731403 7.46452552 143.53993051 8.4375 146.5625 C10.02298881 148.30325289 10.02298881 148.30325289 12.0625 149.75 C20.63266279 156.86369506 27.21465486 167.48500862 28.89753652 178.60126662 C29.07585715 181.8190829 29.10465439 185.00200771 29.07241821 188.22457886 C29.08021817 189.44185264 29.08801812 190.65912642 29.09605443 191.91328728 C29.1124292 195.25732016 29.10669927 198.59992848 29.09112334 201.94387174 C29.07973673 205.56364166 29.09730863 209.18329363 29.11102295 212.80303955 C29.13318389 219.88083758 29.12848586 226.95836956 29.11395974 234.03617774 C29.10263744 239.79284913 29.1011495 245.5494463 29.10657883 251.30612564 C29.10772807 252.53821012 29.10772807 252.53821012 29.10890054 253.79518519 C29.11049928 255.46419256 29.11212035 257.13319991 29.1137635 258.80220725 C29.12800053 274.43052524 29.11166139 290.05869628 29.08476166 305.68699016 C29.06243308 319.07346418 29.06629854 332.45972131 29.08935547 345.84619141 C29.11616415 361.41799203 29.12661866 376.98966397 29.11129415 392.56148446 C29.10970153 394.22473723 29.10812968 395.88799002 29.10657883 397.55124283 C29.10542176 398.77853538 29.10542176 398.77853538 29.10424132 400.03062173 C29.09993887 405.77400523 29.10717952 411.51730657 29.11897659 417.26067734 C29.13305697 424.26930097 29.12908651 431.27764493 29.10257287 438.28623687 C29.0895072 441.85673083 29.08415641 445.42675995 29.10081863 448.9972496 C29.23435623 480.28036792 29.23435623 480.28036792 19.4375 493.5625 C18.7775 493.5625 18.1175 493.5625 17.4375 493.5625 C17.17453125 494.15417969 16.9115625 494.74585938 16.640625 495.35546875 C11.78350002 504.26545451 -0.31993872 509.48164624 -9.5625 512.5625 C-11.94439932 512.65968635 -14.32900495 512.69348584 -16.71288395 512.69672108 C-17.44948044 512.69907331 -18.18607694 512.70142554 -18.94499454 512.70384905 C-21.43275044 512.71054784 -23.92045421 512.71008056 -26.40821838 512.70967102 C-28.20209439 512.71296911 -29.99596966 512.71669456 -31.78984398 512.7208125 C-36.73484709 512.73084706 -41.67983806 512.73455164 -46.62484992 512.73720181 C-51.95224184 512.74110059 -57.27962411 512.75067927 -62.60700989 512.75941467 C-75.48096509 512.77919192 -88.3549211 512.78924723 -101.22888771 512.79814246 C-107.28895949 512.8025236 -113.3490304 512.80789089 -119.40910149 512.81313133 C-139.55033086 512.83014544 -159.69155968 512.84463983 -179.83279514 512.85188007 C-185.06146305 512.85379002 -190.29013094 512.85571035 -195.51879883 512.85766602 C-196.81838726 512.85814976 -198.11797569 512.8586335 -199.45694559 512.8591319 C-220.51150308 512.86743296 -241.56600377 512.89277037 -262.62053645 512.92524669 C-284.22877799 512.95830578 -305.83699064 512.97632783 -327.4452576 512.97952431 C-339.5806985 512.98169055 -351.71605658 512.99045586 -363.85147285 513.01598549 C-374.18636108 513.0376768 -384.52114638 513.04575063 -394.85605479 513.03601871 C-400.12916381 513.03146939 -405.4020604 513.03339708 -410.67514038 513.05278015 C-415.50465233 513.07037937 -420.33379639 513.06944031 -425.16331207 513.05388286 C-426.90834613 513.05150186 -428.65340544 513.0558558 -430.39840085 513.06771151 C-439.44929646 513.12538404 -447.39547078 512.9942973 -455.5625 508.5625 C-457.08037109 507.78519531 -457.08037109 507.78519531 -458.62890625 506.9921875 C-470.49396807 499.6020551 -479.00969173 489.16978935 -483.13614243 475.68836743 C-483.62950375 473.22841164 -483.69172097 470.95685879 -483.69672108 468.44705868 C-483.70340784 466.8882101 -483.70340784 466.8882101 -483.71022969 465.29786962 C-483.71004533 464.15752171 -483.70986097 463.0171738 -483.70967102 461.8422699 C-483.71334771 460.62971482 -483.7170244 459.41715974 -483.7208125 458.16786057 C-483.72993219 454.80045208 -483.73454747 451.4330923 -483.73720181 448.06567609 C-483.74110827 444.43427422 -483.75068643 440.80288641 -483.75941467 437.17149353 C-483.7791703 428.40032436 -483.78924454 419.62915404 -483.79814246 410.85796818 C-483.80252719 406.72567027 -483.80789355 402.59337364 -483.81313133 398.46107674 C-483.83014336 384.72098144 -483.84463672 370.98088694 -483.85188007 357.24078274 C-483.85378992 353.67573991 -483.85571026 350.1106971 -483.85766602 346.5456543 C-483.85814976 345.65959852 -483.8586335 344.77354273 -483.8591319 343.86063678 C-483.86742916 329.5125936 -483.89276107 315.16463388 -483.92524669 300.81662714 C-483.95833976 286.079954 -483.9763309 271.34332323 -483.97952431 256.60661274 C-483.98168742 248.33490738 -483.99040676 240.06332369 -484.01598549 231.79165459 C-484.03772329 224.74585075 -484.04572784 217.70019814 -484.03601871 210.65436458 C-484.03148276 207.0620581 -484.03331854 203.47006343 -484.05278015 199.87779999 C-484.07373738 195.97561031 -484.0633982 192.07384692 -484.05024719 188.1716156 C-484.06121644 187.04688274 -484.07218568 185.92214989 -484.08348733 184.76333421 C-483.97193181 171.01552556 -478.5123776 160.99208296 -469.2421875 151.08203125 C-456.71916039 139.06234124 -443.67031276 136.24916131 -426.89550781 136.32199097 C-425.3995497 136.32111808 -423.90359188 136.31936557 -422.40763569 136.31681263 C-418.30970291 136.31235146 -414.21187514 136.32032584 -410.11395574 136.33036876 C-405.69006056 136.33901871 -401.26617115 136.336082 -396.8422699 136.33456421 C-389.1818095 136.33351634 -381.52138321 136.33978274 -373.8609314 136.35103989 C-362.785256 136.36730514 -351.70959706 136.37250394 -340.63391101 136.37501587 C-322.66364617 136.37939136 -304.69339951 136.39269651 -286.72314453 136.41162109 C-269.26839285 136.42998366 -251.81364611 136.44413833 -234.35888672 136.45263672 C-233.2826831 136.45316217 -232.20647949 136.45368761 -231.09766364 136.45422898 C-225.69857902 136.45683909 -220.29949437 136.4593665 -214.9004097 136.46185279 C-170.12109388 136.48258074 -125.34179788 136.51780231 -80.5625 136.5625 C-80.42969611 135.95222977 -80.29689223 135.34195954 -80.16006398 134.71319628 C-79.89512612 133.50621434 -79.89512612 133.50621434 -79.62483597 132.27484894 C-79.45078208 131.47895371 -79.2767282 130.68305848 -79.09739995 129.86304522 C-78.39196572 126.82905102 -77.4759742 123.89387503 -76.50292969 120.93554688 C-76.10201111 119.70976929 -75.70109253 118.4839917 -75.2880249 117.22106934 C-74.85361868 115.90774867 -74.41906483 114.59447682 -73.984375 113.28125 C-73.53045906 111.90004914 -73.07687272 110.51873993 -72.62359619 109.1373291 C-71.67472777 106.24855019 -70.72302378 103.36072737 -69.76904297 100.47363281 C-68.5635892 96.82527544 -67.36349975 93.17518306 -66.16522408 89.5244627 C-63.32163703 80.8624153 -60.45415938 72.208627 -57.5625 63.5625 C-57.23296326 62.57520905 -56.90342651 61.58791809 -56.56390381 60.57070923 C-55.75292147 58.15431682 -54.93087443 55.74218302 -54.1015625 53.33203125 C-53.68084473 52.10331299 -53.26012695 50.87459473 -52.82666016 49.60864258 C-49.95430879 42.68737413 -45.36565348 38.25452312 -38.5625 35.23828125 C-35.55465165 34.22195749 -32.72386393 33.82594699 -29.5625 33.5625 C-29.2221875 31.7371875 -29.2221875 31.7371875 -28.875 29.875 C-26.47923044 19.21213831 -23.25319074 9.31237483 -13.9921875 2.94140625 C-9.32340742 0.08114736 -5.37693056 -0.15877608 0 0 Z M-5.5625 21.5625 C-6.58392691 24.07146977 -7.45267577 26.48504707 -8.25 29.0625 C-8.47494141 29.75214844 -8.69988281 30.44179688 -8.93164062 31.15234375 C-10.1473921 34.7846003 -10.1473921 34.7846003 -10.5625 38.5625 C-8.95993892 39.06762244 -7.35538208 39.56641627 -5.75 40.0625 C-4.85667969 40.3409375 -3.96335937 40.619375 -3.04296875 40.90625 C-0.50676605 41.69038351 -0.50676605 41.69038351 2.4375 41.5625 C3.11486481 39.52435767 3.77893534 37.48179445 4.4375 35.4375 C4.80875 34.30054688 5.18 33.16359375 5.5625 31.9921875 C6.41310127 28.65813429 6.68607686 25.98291761 6.4375 22.5625 C5.4375 20.5625 5.4375 20.5625 3.4375 19.5625 C-0.64044425 19.13771414 -2.09326119 19.24967413 -5.5625 21.5625 Z M-33.15979004 54.80743408 C-34.77027095 56.82246231 -35.44237105 58.50905519 -36.23120117 60.96337891 C-36.52939758 61.87525467 -36.82759399 62.78713043 -37.13482666 63.72663879 C-37.45513855 64.73723862 -37.77545044 65.74783844 -38.10546875 66.7890625 C-38.45760437 67.87342087 -38.80973999 68.95777924 -39.17254639 70.07499695 C-40.1620588 73.12614397 -41.14358171 76.17974164 -42.12253952 79.23428726 C-43.19169284 82.56243933 -44.27182278 85.88701957 -45.35180664 89.21166992 C-45.57747031 89.90645038 -45.80313398 90.60123083 -46.03563595 91.31706524 C-46.5056404 92.76407771 -46.97568143 94.2110783 -47.44575691 95.6580677 C-48.18664393 97.94001997 -48.92635516 100.22235088 -49.6658783 102.50474548 C-55.84105336 121.55264398 -62.13523161 140.5613401 -68.41812134 159.57391357 C-71.87450046 170.03386182 -75.32589257 180.49545613 -78.77734375 190.95703125 C-79.11266806 191.97335632 -79.44799236 192.9896814 -79.79347801 194.0368042 C-85.846466 212.38328205 -91.88899059 230.73317225 -97.91444778 249.08871078 C-98.54757628 251.01704645 -99.18106452 252.94526355 -99.81466675 254.8734436 C-101.70137538 260.61654588 -103.58262532 266.36124634 -105.44946289 272.11083984 C-106.89230914 276.54675417 -108.37942433 280.96495564 -109.89233398 285.37744141 C-110.63532114 287.5875425 -111.37824357 289.79766536 -112.12109375 292.0078125 C-112.64092834 293.48272156 -112.64092834 293.48272156 -113.17126465 294.98742676 C-116.38421744 304.66008401 -116.02216226 313.88922218 -114.86206055 323.91113281 C-114.43461461 327.69439516 -114.16623863 331.48906655 -113.88427734 335.28564453 C-113.68627971 337.70616817 -113.68627971 337.70616817 -112.125 340.0625 C-107.04774312 343.03455281 -101.83575675 344.36309151 -96 344.875 C-90.34325009 342.71515004 -87.29323709 338.18861399 -83.5625 333.5625 C-82.7478125 332.5828125 -81.933125 331.603125 -81.09375 330.59375 C-78.89230954 327.93486737 -76.71152395 325.26388352 -74.5625 322.5625 C-73.84608841 321.74678024 -73.84608841 321.74678024 -73.11520386 320.9145813 C-70.97041569 317.66559334 -69.92780029 314.16758436 -68.77392578 310.48388672 C-68.51164562 309.66911991 -68.24936546 308.8543531 -67.97913742 308.01489639 C-67.40831198 306.2388618 -66.84098589 304.4616996 -66.27672958 302.68356705 C-65.04834199 298.81340306 -63.80269836 294.94885712 -62.55823708 291.08383751 C-61.89898623 289.03576646 -61.24061546 286.98741195 -60.58307457 284.93879128 C-57.01099095 273.81615343 -53.34825627 262.72392047 -49.6796875 251.6328125 C-49.00604884 249.59379844 -48.33251131 247.55475097 -47.65907288 245.51567078 C-46.28802892 241.36469844 -44.91651673 237.2138813 -43.54458618 233.0632019 C-39.92418576 222.10942393 -36.30778944 211.15432353 -32.69140625 200.19921875 C-32.33580564 199.12205912 -31.98020504 198.04489948 -31.61382866 196.93509865 C-24.7262671 176.07071636 -17.84903103 155.20292046 -11.02807617 134.31665039 C-10.2817396 132.03141233 -9.53540174 129.74617469 -8.7890625 127.4609375 C-8.43505875 126.37664963 -8.08105499 125.29236176 -7.71632385 124.17521667 C-5.59493803 117.68761617 -3.44831348 111.20898397 -1.28089905 104.73661804 C0.08684945 100.64913302 1.44519067 96.55855494 2.80239868 92.46755981 C3.42314789 90.60547211 4.04860728 88.74494645 4.67929077 86.88619995 C5.52343762 84.39799771 6.35138463 81.90495817 7.17578125 79.41015625 C7.54740891 78.33690598 7.54740891 78.33690598 7.92654419 77.24197388 C9.31135565 72.98431733 9.69549581 69.88713613 8.4375 65.5625 C4.6023238 61.7273238 -1.46724068 60.77902947 -6.57348633 59.13916016 C-8.72821674 58.44452244 -10.87673578 57.73270599 -13.02539062 57.01953125 C-14.40590474 56.57185057 -15.78675444 56.12520319 -17.16796875 55.6796875 C-18.41731201 55.27347168 -19.66665527 54.86725586 -20.95385742 54.44873047 C-27.30650461 52.74990038 -27.30650461 52.74990038 -33.15979004 54.80743408 Z M-450.5625 160.5625 C-450.5625 161.2225 -450.5625 161.8825 -450.5625 162.5625 C-451.26375 162.7275 -451.965 162.8925 -452.6875 163.0625 C-458.97069928 166.34069093 -461.8081209 172.41128618 -463.91911328 178.91736233 C-465.09118122 183.73605217 -464.97755244 188.53764116 -464.95018005 193.47312927 C-464.95556559 194.64574297 -464.96095113 195.81835666 -464.96649987 197.0265041 C-464.97827969 200.25922573 -464.97673253 203.49161396 -464.96933305 206.72433817 C-464.96458581 210.21931541 -464.9771249 213.71423839 -464.98735046 217.209198 C-465.00451312 224.04737562 -465.0053838 230.88546124 -465.00013756 237.7236548 C-464.99609008 243.28352797 -464.99754627 248.84337404 -465.00288582 254.40324593 C-465.00363424 255.19566796 -465.00438266 255.98809 -465.00515376 256.80452483 C-465.0066853 258.41451272 -465.00822364 260.0245006 -465.00976873 261.63448847 C-465.02348448 276.71945156 -465.01806248 291.80436272 -465.00658352 306.88932461 C-464.99665097 320.67838261 -465.00959381 334.46730642 -465.03351771 348.25634371 C-465.05792169 362.42930641 -465.06751346 376.60220665 -465.06086498 390.77518994 C-465.05737579 398.72651864 -465.05958503 406.67774415 -465.07711601 414.62905693 C-465.09185421 421.39737606 -465.09245234 428.16551934 -465.0750451 434.93383508 C-465.06654614 438.38427565 -465.06435807 441.83440227 -465.07969666 445.28482628 C-465.09289618 449.0318086 -465.08136645 452.77794112 -465.06370544 456.52488708 C-465.07331045 457.60632175 -465.08291546 458.68775642 -465.09281152 459.80196184 C-464.99930393 469.46395019 -462.20963609 478.34297164 -455.5625 485.5625 C-447.17649366 493.10579492 -437.30415679 494.68489767 -426.29474163 494.69113445 C-425.59405073 494.69288749 -424.89335982 494.69464053 -424.17143586 494.69644669 C-421.82990268 494.70108853 -419.48843208 494.69864589 -417.14689636 494.69621277 C-415.44856364 494.69808165 -413.75023134 494.70038267 -412.05189973 494.70307809 C-407.38956799 494.70919287 -402.72725419 494.70906287 -398.06491935 494.70788372 C-393.03480813 494.70767963 -388.00470266 494.71319921 -382.97459412 494.71794128 C-373.12154899 494.72624653 -363.26850984 494.72899606 -353.4154615 494.72955366 C-345.40655937 494.73002886 -337.39765921 494.73208381 -329.38875771 494.73525429 C-306.68170867 494.74406036 -283.97466437 494.74867371 -261.26761361 494.74792381 C-259.43152793 494.74786388 -259.43152793 494.74786388 -257.55834961 494.74780273 C-255.7200221 494.74774141 -255.7200221 494.74774141 -253.84455667 494.74767885 C-233.9801134 494.74727235 -214.11568909 494.75684308 -194.2512513 494.7709411 C-173.85425623 494.78530286 -153.45727039 494.7922114 -133.06027013 494.79134732 C-121.6090266 494.7910153 -110.15780293 494.793765 -98.70656395 494.80452538 C-88.95735628 494.81362771 -79.20817749 494.81580779 -69.45896741 494.80901595 C-64.48563029 494.80574947 -59.51234858 494.80569874 -54.53901672 494.8143692 C-49.9836144 494.82222933 -45.42831149 494.82080771 -40.87291161 494.81208507 C-39.22759671 494.81054902 -37.5822744 494.8123702 -35.93696823 494.81794515 C-22.83641642 494.85938441 -12.25321107 493.942464 -0.9375 486.9375 C6.52676115 479.47323885 9.64787554 470.68159286 9.714311 460.32294917 C9.7112138 459.23054526 9.7081166 458.13814134 9.70492554 457.01263428 C9.71172221 455.25755865 9.71172221 455.25755865 9.71865618 453.46702695 C9.72911471 450.22759474 9.73062801 446.98830239 9.72826743 443.74885869 C9.72785877 440.25179157 9.73890315 436.7547574 9.74838257 433.25770569 C9.76498331 426.40911043 9.77049171 419.5605496 9.77160732 412.71193591 C9.77255831 407.14341423 9.77667111 401.57490389 9.78300858 396.0063858 C9.80061903 380.21061491 9.80984784 364.41487118 9.80834763 348.61909041 C9.80826772 347.76784233 9.8081878 346.91659425 9.80810547 346.03955078 C9.80798283 344.76111529 9.80798283 344.76111529 9.80785771 343.45685282 C9.80704503 329.64820925 9.82617869 315.83967482 9.8543822 302.03106281 C9.88312817 287.84464112 9.89692153 273.65827262 9.89519465 259.47182107 C9.8945313 251.51038011 9.89999915 243.54905354 9.92155075 235.58763885 C9.93978519 228.80827664 9.94409144 222.02908066 9.9305319 215.24970451 C9.92401337 211.79320275 9.92384411 208.33701969 9.9412384 204.88054848 C9.95668395 201.12684863 9.94738569 197.37398231 9.93197632 193.62030029 C9.94740701 191.99507875 9.94740701 191.99507875 9.96314943 190.33702445 C9.8704673 180.09956954 6.69616264 172.55968004 0.4375 164.5625 C-4.65753809 167.11001905 -6.62355603 177.44828773 -8.44884491 182.71263242 C-16.45273133 206.91905822 -15.14129897 232.27636671 -14.8714518 257.46005311 C-14.79642404 264.73299314 -14.79575511 272.0054695 -14.79886544 279.27872796 C-14.80289969 292.24930221 -14.75709576 305.21915314 -14.67529297 318.18945312 C-14.59629122 330.74183743 -14.53166428 343.29410185 -14.49267578 355.84667969 C-14.49024848 356.62455492 -14.48782118 357.40243016 -14.48532033 358.20387737 C-14.45935626 366.70006505 -14.43901465 375.19625234 -14.42532349 383.69246864 C-14.42410976 384.43887645 -14.42289603 385.18528426 -14.42164552 385.95431048 C-14.41686987 388.937491 -14.41215416 391.92067134 -14.40815616 394.90385301 C-14.39635108 403.60727929 -14.36724075 412.31022852 -14.30617148 421.01345576 C-14.26396474 427.09269513 -14.24031928 433.1718503 -14.2231884 439.2512188 C-14.21253779 441.74136428 -14.19490597 444.2314911 -14.16980171 446.72153282 C-14.13631221 450.11765558 -14.12735531 453.51300488 -14.12426758 456.90927124 C-14.10832172 457.89474422 -14.09237587 458.8802172 -14.07594681 459.89555299 C-14.10288751 465.9811665 -14.70265373 469.74797924 -18.5625 474.5625 C-25.15819669 480.35202264 -34.52458496 479.12001759 -42.73890686 479.07043457 C-44.39899776 479.07504615 -46.05908458 479.0814008 -47.71916288 479.08934355 C-52.27111803 479.10602449 -56.82273724 479.09779614 -61.37469351 479.08539867 C-66.28750282 479.07634554 -71.20025452 479.09031918 -76.11305237 479.10131836 C-85.73304767 479.11910493 -95.35291814 479.11526308 -104.97291834 479.1036678 C-112.79066099 479.09463483 -120.60836866 479.09340889 -128.42611504 479.09776306 C-130.09500039 479.09868246 -130.09500039 479.09868246 -131.79760061 479.09962043 C-134.05778223 479.10089933 -136.31796384 479.10219618 -138.57814544 479.1035108 C-159.77154484 479.11491686 -180.96487503 479.10180218 -202.15826308 479.08030933 C-220.34585913 479.06243588 -238.53335306 479.06554447 -256.72094727 479.08398438 C-277.83998036 479.10538635 -298.95895281 479.11382082 -320.07799524 479.10153532 C-322.32956373 479.10026112 -324.58113222 479.09900363 -326.83270073 479.09776306 C-327.94052817 479.09714596 -329.04835561 479.09652886 -330.18975358 479.09589306 C-337.99923409 479.09243832 -345.80867615 479.09827111 -353.61815071 479.10768127 C-363.13360019 479.11889503 -372.64891767 479.11587417 -382.16435201 479.0945583 C-387.01991261 479.08403992 -391.87525306 479.07993956 -396.73081207 479.09315491 C-401.17511247 479.1050681 -405.61898849 479.09853401 -410.06325036 479.0772447 C-411.67146542 479.07277412 -413.27971628 479.07505516 -414.88790835 479.08474785 C-424.29198823 479.13708211 -430.8440066 479.15346656 -437.875 472.3125 C-442.05672968 465.49782941 -441.85143707 458.00540986 -441.82319641 450.25892639 C-441.82702196 449.13954774 -441.83084751 448.02016909 -441.83478898 446.86686987 C-441.84508555 443.12612357 -441.84113313 439.38553172 -441.8371582 435.64477539 C-441.8415065 432.95871982 -441.84662578 430.27267548 -441.85264587 427.58662415 C-441.86537449 421.05413246 -441.8671889 414.52168192 -441.86484561 407.98917992 C-441.86306037 402.67813492 -441.86481649 397.36710239 -441.86907005 392.05605888 C-441.86966524 391.29929233 -441.87026043 390.54252578 -441.87087366 389.7628269 C-441.87208544 388.22531275 -441.87329958 386.68779861 -441.87451603 385.15028446 C-441.88538431 370.7420776 -441.88323234 356.33389417 -441.87713119 341.92568599 C-441.87196164 328.75346424 -441.88321973 315.58131643 -441.90222941 302.4091093 C-441.92161488 288.87238703 -441.92986263 275.33569973 -441.92610615 261.79896349 C-441.92419532 254.20369465 -441.9266703 246.60848877 -441.94082069 239.01323128 C-441.95274444 232.54791543 -441.95412821 226.08270129 -441.94203053 219.61738402 C-441.936149 216.32102823 -441.93665529 213.02489639 -441.94703293 209.72854614 C-441.95748637 206.14987778 -441.94941028 202.57170774 -441.9367218 198.99305725 C-441.94409609 197.95860995 -441.95147037 196.92416265 -441.95906812 195.85836846 C-441.90747522 188.93232336 -441.30015686 181.99701497 -436.84375 176.40625 C-436.2559375 175.9628125 -435.668125 175.519375 -435.0625 175.0625 C-434.4746875 174.5984375 -433.886875 174.134375 -433.28125 173.65625 C-429.85557832 171.47627711 -426.87787066 171.43409584 -422.93030262 171.4238348 C-421.16048644 171.41562313 -421.16048644 171.41562313 -419.35491639 171.40724558 C-418.05240534 171.40626747 -416.74989429 171.40528936 -415.40791321 171.40428162 C-414.01526487 171.39971716 -412.6226179 171.39471731 -411.22997254 171.38931805 C-407.39442321 171.37571426 -403.55888276 171.36831211 -399.7233156 171.36189139 C-395.59039476 171.35389728 -391.45749247 171.3401961 -387.32458496 171.32717896 C-380.16115714 171.30540216 -372.99772747 171.28726207 -365.83428383 171.27157402 C-355.4770759 171.24888635 -345.11988849 171.22074199 -334.76269796 171.19125474 C-317.95989037 171.14356531 -301.15707441 171.10030478 -284.35424805 171.05981445 C-268.02937162 171.0204664 -251.70450264 170.97904184 -235.37963867 170.93481445 C-234.37380933 170.93209018 -233.36797999 170.92936591 -232.33167098 170.92655908 C-227.28585077 170.91287972 -222.24003068 170.89915942 -217.19421065 170.88541877 C-175.31698928 170.77143276 -133.43975185 170.66462811 -91.5625 170.5625 C-90.8924166 168.43857494 -90.22653203 166.31332476 -89.5625 164.1875 C-89.19125 163.00414062 -88.82 161.82078125 -88.4375 160.6015625 C-87.47027394 157.76926561 -87.47027394 157.76926561 -87.5625 155.5625 C-131.7083914 155.49381574 -175.85427713 155.44096199 -220.00021144 155.40930401 C-225.21343857 155.40555194 -230.4266656 155.40166897 -235.63989258 155.39770508 C-236.6777411 155.39691815 -237.71558963 155.39613122 -238.78488811 155.39532044 C-255.58397552 155.38227072 -272.3830321 155.35861926 -289.18210123 155.33104161 C-306.42275161 155.30297535 -323.66338586 155.28632115 -340.90405816 155.28023452 C-351.54028753 155.27612061 -362.17642974 155.2631326 -372.81263229 155.2387506 C-380.10878858 155.22287836 -387.40489989 155.21810302 -394.70107219 155.22199587 C-398.90897338 155.22391509 -403.11672236 155.22099735 -407.32459641 155.20488358 C-411.18215074 155.19021966 -415.0394514 155.18958944 -418.89701774 155.19980332 C-420.28751894 155.20106456 -421.67803636 155.19731411 -423.06850592 155.18785045 C-432.85946141 155.12512408 -441.79327398 155.91364731 -450.5625 160.5625 Z M-422.5625 189.5625 C-422.5625 278.9925 -422.5625 368.4225 -422.5625 460.5625 C-293.8625 460.5625 -165.1625 460.5625 -32.5625 460.5625 C-32.5625 395.2225 -32.5625 329.8825 -32.5625 262.5625 C-34.35806813 265.2558522 -35.21532811 267.18284006 -36.19482422 270.21069336 C-36.50209442 271.15275131 -36.80936462 272.09480927 -37.12594604 273.06541443 C-37.61661057 274.59344444 -37.61661057 274.59344444 -38.1171875 276.15234375 C-38.46000763 277.20724503 -38.80282776 278.2621463 -39.15603638 279.34901428 C-40.25419771 282.73128693 -41.3459977 286.1155732 -42.4375 289.5 C-43.52328329 292.85181834 -44.61035265 296.20321763 -45.69754028 299.55458069 C-46.37321139 301.63904314 -47.04782351 303.72384929 -47.72116089 305.80906677 C-49.68096056 311.8741108 -51.68119938 317.92360839 -53.72415161 323.9611969 C-54.4300699 326.15158392 -55.04017986 328.32256047 -55.5625 330.5625 C-56.2225 330.5625 -56.8825 330.5625 -57.5625 330.5625 C-58.57601664 332.22098177 -59.57370795 333.88915961 -60.5625 335.5625 C-61.89583333 336.89583333 -63.22916667 338.22916667 -64.5625 339.5625 C-65.57775861 340.88425177 -66.57646324 342.21880759 -67.5625 343.5625 C-69.71801882 346.48514582 -71.90375617 349.07528803 -74.5625 351.5625 C-78.35912901 355.04424394 -78.35912901 355.04424394 -80.5625 359.5625 C-83.25 360.625 -83.25 360.625 -86.5625 361.5625 C-87.9546875 362.0884375 -87.9546875 362.0884375 -89.375 362.625 C-92.10652509 363.42838973 -94.45023639 363.83254016 -97.26171875 364.12109375 C-98.06826904 364.20544678 -98.87481934 364.2897998 -99.70581055 364.37670898 C-100.31851807 364.43802002 -100.93122559 364.49933105 -101.5625 364.5625 C-101.72331055 365.0972998 -101.88412109 365.63209961 -102.04980469 366.18310547 C-102.78821871 368.60638856 -103.54999952 371.02169319 -104.3125 373.4375 C-104.56515625 374.27925781 -104.8178125 375.12101563 -105.078125 375.98828125 C-105.3359375 376.79394531 -105.59375 377.59960938 -105.859375 378.4296875 C-106.20500488 379.54512939 -106.20500488 379.54512939 -106.55761719 380.68310547 C-107.84175181 383.08477415 -109.05273201 383.61147156 -111.5625 384.5625 C-114.31498889 385.07321571 -116.81119572 385.09810227 -119.5625 384.5625 C-122.8895651 381.90084792 -123.47253482 380.20350188 -124.0625 376 C-123.84844946 371.1233702 -122.06005972 366.72274963 -120.33984375 362.19921875 C-119.26858025 359.49160756 -119.26858025 359.49160756 -120.5625 356.5625 C-122.06838598 355.18473415 -122.06838598 355.18473415 -123.875 353.875 C-130.08857201 348.74593234 -132.07391208 342.33175836 -132.87548828 334.50732422 C-133.15552289 330.81798783 -133.42598349 327.12819785 -133.6875 323.4375 C-133.78675781 322.1690625 -133.88601563 320.900625 -133.98828125 319.59375 C-134.07722656 318.34335937 -134.16617187 317.09296875 -134.2578125 315.8046875 C-134.34047363 314.6791748 -134.42313477 313.55366211 -134.50830078 312.39404297 C-134.67666472 300.4917741 -131.60474379 290.55354336 -127.83984375 279.39453125 C-127.25405821 277.62963029 -126.66932669 275.86437919 -126.08558655 274.09880066 C-124.54887359 269.46033178 -122.99798488 264.82672683 -121.44396973 260.19403076 C-119.89221566 255.55993887 -118.35390056 250.92139455 -116.81445312 246.28320312 C-112.53598922 233.40387036 -108.23689013 220.53148336 -103.90673828 207.66943359 C-103.5249794 206.53261642 -103.14322052 205.39579926 -102.74989319 204.22453308 C-102.06838735 202.19620609 -101.38437073 200.16872009 -100.69725037 198.14228821 C-100.26425377 196.85308723 -100.26425377 196.85308723 -99.82250977 195.5378418 C-99.57606216 194.80897263 -99.32961456 194.08010345 -99.07569885 193.32914734 C-98.46951293 191.54901224 -98.46951293 191.54901224 -98.5625 189.5625 C-205.4825 189.5625 -312.4025 189.5625 -422.5625 189.5625 Z " fill="currentColor" transform="translate(483.5625,-0.5625)"/>
<path d="M0 0 C6.86199694 5.48439907 11.35908653 13.03631423 13.6875 21.4609375 C14.77973093 32.06573781 12.94481332 40.41164134 7.9375 49.7109375 C0.95943119 58.23968827 -6.55487461 62.30941242 -17.3125 64.4609375 C-23.9125 64.4609375 -30.5125 64.4609375 -37.3125 64.4609375 C-37.3125 80.6309375 -37.3125 96.8009375 -37.3125 113.4609375 C-31.8675 113.9559375 -31.8675 113.9559375 -26.3125 114.4609375 C-23.25209827 115.24309849 -20.39836459 116.04731833 -17.4375 117.0859375 C-16.27988159 117.48570801 -16.27988159 117.48570801 -15.09887695 117.89355469 C-3.7778865 121.93936678 5.69064283 127.84454877 15.0078125 135.32421875 C17.68206542 137.51872756 17.68206542 137.51872756 20.6875 139.4609375 C21.01322998 139.00992676 21.33895996 138.55891602 21.67456055 138.09423828 C22.13644775 137.45470215 22.59833496 136.81516602 23.07421875 136.15625 C23.59411377 135.43606689 24.11400879 134.71588379 24.6496582 133.97387695 C25.81230205 132.36473312 26.97622902 130.75651568 28.14135742 129.14916992 C31.17918815 124.95457499 34.19589009 120.74813911 37.1640625 116.50390625 C37.72391846 115.71032715 38.28377441 114.91674805 38.8605957 114.09912109 C39.92196924 112.59344063 40.97572489 111.08234912 42.02026367 109.56494141 C46.06785905 103.85309292 50.86731042 97.73433403 57.6875 95.4609375 C63.84863109 94.69489989 68.62344618 95.09273531 73.76171875 98.70703125 C76.8056611 101.47930329 79.13647027 104.75724223 81.625 108.0234375 C88.04387997 115.60938656 97.13471681 118.83052654 106.6875 120.4609375 C108.90497293 120.54960892 111.12452427 120.59228997 113.34375 120.6015625 C114.61347656 120.62089844 115.88320313 120.64023437 117.19140625 120.66015625 C119.85531603 120.69400848 122.51947016 120.71223952 125.18359375 120.71484375 C127.08818359 120.75158203 127.08818359 120.75158203 129.03125 120.7890625 C130.76665039 120.80308105 130.76665039 120.80308105 132.53710938 120.81738281 C136.5931589 121.64594346 138.07980511 123.32292431 140.6875 126.4609375 C142.11412219 129.31418187 141.99783868 131.29548299 141.6875 134.4609375 C139.88756226 137.16084412 138.603727 139.002824 135.6875 140.4609375 C131.42796427 140.86496302 127.14946356 140.97800434 122.875 141.1484375 C121.70517578 141.20837891 120.53535156 141.26832031 119.33007812 141.33007812 C100.84886141 142.07504158 84.05090235 137.65285507 70.03515625 125.08203125 C64.05540435 119.19674621 64.05540435 119.19674621 62.6875 116.4609375 C62.06875 117.4509375 61.45 118.4409375 60.8125 119.4609375 C60.11125 120.4509375 59.41 121.4409375 58.6875 122.4609375 C58.0275 122.4609375 57.3675 122.4609375 56.6875 122.4609375 C56.3575 123.7809375 56.0275 125.1009375 55.6875 126.4609375 C55.0275 126.4609375 54.3675 126.4609375 53.6875 126.4609375 C53.6875 127.4509375 53.6875 128.4409375 53.6875 129.4609375 C53.0275 129.4609375 52.3675 129.4609375 51.6875 129.4609375 C51.3575 130.7809375 51.0275 132.1009375 50.6875 133.4609375 C50.0275 133.4609375 49.3675 133.4609375 48.6875 133.4609375 C48.6875 134.4509375 48.6875 135.4409375 48.6875 136.4609375 C48.0275 136.4609375 47.3675 136.4609375 46.6875 136.4609375 C46.3575 137.7809375 46.0275 139.1009375 45.6875 140.4609375 C45.0275 140.4609375 44.3675 140.4609375 43.6875 140.4609375 C43.6875 141.4509375 43.6875 142.4409375 43.6875 143.4609375 C43.0275 143.4609375 42.3675 143.4609375 41.6875 143.4609375 C41.3575 144.7809375 41.0275 146.1009375 40.6875 147.4609375 C40.0275 147.4609375 39.3675 147.4609375 38.6875 147.4609375 C38.6875 148.4509375 38.6875 149.4409375 38.6875 150.4609375 C38.0275 150.4609375 37.3675 150.4609375 36.6875 150.4609375 C36.5225 151.1828125 36.3575 151.9046875 36.1875 152.6484375 C33.94847782 156.84660409 31.10389063 158.76659896 26.6875 160.4609375 C21.25222944 161.286188 16.51602197 161.32141843 11.5 158.9609375 C9.92317127 157.55931196 8.35561113 156.14644322 6.82421875 154.6953125 C-5.78957091 142.98086068 -20.60104166 136.95808256 -37.3125 133.4609375 C-37.2810791 134.32875854 -37.2810791 134.32875854 -37.24902344 135.21411133 C-36.41164857 161.84846203 -36.41164857 161.84846203 -46.00390625 172.3046875 C-55.09671875 180.35344011 -63.78686994 183.88871441 -75.8671875 183.7265625 C-86.3129375 182.92122123 -93.34696785 178.0562646 -100.3125 170.4609375 C-106.15497344 163.24541275 -108.99478122 154.3028131 -108.66015625 145.03515625 C-107.20849621 134.28634767 -101.55043611 125.54133673 -93.23828125 118.77734375 C-81.90767472 111.03208128 -71.36471423 112.4609375 -57.3125 112.4609375 C-57.3125 96.2909375 -57.3125 80.1209375 -57.3125 63.4609375 C-60.9425 63.1309375 -64.5725 62.8009375 -68.3125 62.4609375 C-76.90387793 60.54628756 -84.1464902 57.16786429 -90.02734375 50.5234375 C-91.75236142 47.75502009 -91.49311874 45.51520124 -90.953125 42.36328125 C-89.89834049 39.23108578 -88.12006681 38.05614592 -85.3125 36.4609375 C-82.00958482 35.34302775 -80.63363946 35.33761658 -77.33203125 36.60546875 C-76.27371094 37.15589844 -75.21539062 37.70632813 -74.125 38.2734375 C-68.51844907 41.02562822 -63.45880193 42.56717122 -57.3125 43.4609375 C-57.35890625 42.24019531 -57.4053125 41.01945312 -57.453125 39.76171875 C-57.81267726 26.54447007 -57.36731315 15.25220785 -48.1875 4.9609375 C-34.99032625 -8.90878881 -15.92499162 -10.59872753 0 0 Z M-34 18.3359375 C-36.97825822 22.36061078 -37.4433705 25.09210308 -37.41015625 30.0078125 C-37.40693359 30.85214844 -37.40371094 31.69648438 -37.40039062 32.56640625 C-37.39201172 33.43910156 -37.38363281 34.31179688 -37.375 35.2109375 C-37.37048828 36.09910156 -37.36597656 36.98726563 -37.36132812 37.90234375 C-37.349574 40.08861079 -37.33314249 42.27473929 -37.3125 44.4609375 C-34.12531557 44.5782295 -30.93869432 44.64854516 -27.75 44.7109375 C-26.40711914 44.76121094 -26.40711914 44.76121094 -25.03710938 44.8125 C-18.87320447 44.90281362 -15.35584978 44.05573623 -10.3125 40.4609375 C-6.25477639 35.99744153 -6.02625102 31.70335014 -6.09375 25.8984375 C-6.54825391 20.83396531 -9.61484491 17.69638571 -13.3125 14.4609375 C-16.3635635 13.44391633 -18.55449061 13.29511667 -21.75 13.2734375 C-22.69746094 13.25925781 -23.64492187 13.24507813 -24.62109375 13.23046875 C-29.1418198 13.61758462 -30.90874587 15.02901447 -34 18.3359375 Z M-87.3125 140.2109375 C-89.00170562 145.70085578 -89.06887317 150.35105445 -87.125 155.7734375 C-84.47297205 159.7057548 -81.81555441 161.95991936 -77.3125 163.4609375 C-72.28736927 163.98853298 -68.43199488 164.03086216 -63.875 161.7109375 C-60.55435456 158.79524882 -58.71104018 156.65655804 -57.3125 152.4609375 C-57.23143314 150.90672021 -57.20493102 149.34926723 -57.21484375 147.79296875 C-57.21967773 146.45395508 -57.21967773 146.45395508 -57.22460938 145.08789062 C-57.23298828 144.15912109 -57.24136719 143.23035156 -57.25 142.2734375 C-57.25451172 141.33306641 -57.25902344 140.39269531 -57.26367188 139.42382812 C-57.27545374 137.10280038 -57.29190442 134.78190106 -57.3125 132.4609375 C-60.47866599 132.31393694 -63.64393982 132.22631644 -66.8125 132.1484375 C-67.699375 132.10654297 -68.58625 132.06464844 -69.5 132.02148438 C-77.15555945 131.88075718 -82.71220566 133.88553278 -87.3125 140.2109375 Z " fill="currentColor" transform="translate(192.3125,244.5390625)"/>
<path d="M0 0 C2.9375 2.0625 2.9375 2.0625 5 5 C5.47700084 11.07820257 4.44500066 15.83159689 2.48046875 21.55078125 C2.22123123 22.33140427 1.96199371 23.11202728 1.69490051 23.91630554 C1.14834351 25.55267767 0.59590239 27.18709526 0.0378418 28.81958008 C-0.81437631 31.31800071 -1.64373513 33.82320121 -2.47070312 36.33007812 C-3.00647572 37.92492887 -3.54354015 39.51934634 -4.08203125 41.11328125 C-4.32903275 41.86015701 -4.57603424 42.60703278 -4.83052063 43.37654114 C-7.07633263 49.87661375 -7.07633263 49.87661375 -10 52 C-13.62279127 53.21449765 -17.29494608 53.70249634 -20.88671875 52.22265625 C-24.05981569 49.94079235 -24.97905603 48.09582664 -25.80322266 44.32495117 C-26.24609625 39.71136654 -25.18339023 36.05512491 -23.6484375 31.73828125 C-23.39252838 30.98459763 -23.13661926 30.230914 -22.87295532 29.45439148 C-22.33117439 27.87262033 -21.78110096 26.29366736 -21.22314453 24.7175293 C-20.37621223 22.31593746 -19.5635307 19.90462386 -18.75390625 17.49023438 C-18.22075719 15.94722167 -17.68566564 14.40487849 -17.1484375 12.86328125 C-16.90862152 12.14860184 -16.66880554 11.43392242 -16.42172241 10.69758606 C-13.42676291 2.38746985 -9.06367077 -2.15070154 0 0 Z " fill="currentColor" transform="translate(468,80)"/>
</svg>
