<?xml version="1.0" encoding="UTF-8"?>
<svg viewBox="0 0 512 512" version="1.1" xmlns="http://www.w3.org/2000/svg" width="512" height="512">
<path d="M0 0 C2.37861425 1.88879591 4.66942946 3.83787255 6.94921875 5.84375 C8.2021875 6.81441406 8.2021875 6.81441406 9.48046875 7.8046875 C21.88383751 18.04924208 28.63465154 33.77054095 32.94921875 48.84375 C33.12807617 49.44582275 33.30693359 50.04789551 33.49121094 50.66821289 C37.8387482 71.3190149 32.96189669 91.86274599 22.94921875 109.84375 C22.42457031 110.80023438 21.89992188 111.75671875 21.359375 112.7421875 C20.89402344 113.43570313 20.42867188 114.12921875 19.94921875 114.84375 C19.28921875 114.84375 18.62921875 114.84375 17.94921875 114.84375 C17.85640625 115.6790625 17.85640625 115.6790625 17.76171875 116.53125 C15.87542851 121.89992221 10.19455723 125.32102233 5.94921875 128.84375 C5.34464844 129.47667969 4.74007813 130.10960937 4.1171875 130.76171875 C-3.31477675 137.89908261 -13.39892081 142.12639155 -22.78173828 146.05371094 C-26.20684907 147.50089807 -29.3467231 148.93901136 -32.3984375 151.078125 C-35.05078125 152.84375 -35.05078125 152.84375 -38.05078125 152.84375 C-38.05078125 153.50375 -38.05078125 154.16375 -38.05078125 154.84375 C-39.37078125 155.17375 -40.69078125 155.50375 -42.05078125 155.84375 C-42.05078125 156.50375 -42.05078125 157.16375 -42.05078125 157.84375 C-42.79328125 158.276875 -43.53578125 158.71 -44.30078125 159.15625 C-47.36207569 161.03477159 -48.89732204 162.99562653 -51.05078125 165.84375 C-51.71078125 166.483125 -52.37078125 167.1225 -53.05078125 167.78125 C-55.23927244 169.90759438 -55.23927244 169.90759438 -57.17578125 173.09375 C-57.79453125 174.00125 -58.41328125 174.90875 -59.05078125 175.84375 C-59.71078125 175.84375 -60.37078125 175.84375 -61.05078125 175.84375 C-61.05078125 176.83375 -61.05078125 177.82375 -61.05078125 178.84375 C-61.71078125 178.84375 -62.37078125 178.84375 -63.05078125 178.84375 C-64.12603319 181.49603812 -65.14534276 184.12743454 -66.05078125 186.84375 C-66.71078125 186.84375 -67.37078125 186.84375 -68.05078125 186.84375 C-68.13328125 187.359375 -68.21578125 187.875 -68.30078125 188.40625 C-69.3721835 191.88830732 -71.1860173 194.71575885 -73.05078125 197.84375 C-73.71078125 197.84375 -74.37078125 197.84375 -75.05078125 197.84375 C-76.12603319 200.49603812 -77.14534276 203.12743454 -78.05078125 205.84375 C-78.71078125 205.84375 -79.37078125 205.84375 -80.05078125 205.84375 C-80.17453125 206.400625 -80.29828125 206.9575 -80.42578125 207.53125 C-81.1105498 210.06489364 -82.04211888 212.42296032 -83.05078125 214.84375 C-82.5196875 215.20726562 -81.98859375 215.57078125 -81.44140625 215.9453125 C-76.05441182 219.7791224 -71.73261665 223.20729455 -70.453125 230.03125 C-70.32035156 230.959375 -70.18757813 231.8875 -70.05078125 232.84375 C-69.19959717 232.82280273 -68.34841309 232.80185547 -67.47143555 232.78027344 C-64.26021459 232.71138838 -61.04937482 232.66160949 -57.83764648 232.62402344 C-56.45763625 232.6041233 -55.07770788 232.5769926 -53.69799805 232.54199219 C-42.53378403 232.26623245 -32.64285364 233.19535875 -23.73828125 240.53125 C-22.97902344 241.13324219 -22.21976562 241.73523438 -21.4375 242.35546875 C-14.59563055 249.48848158 -11.43851884 257.55522971 -8.51509857 266.85357094 C-7.25858292 270.84714385 -5.9538693 274.82514715 -4.65820312 278.80615234 C-4.37665249 279.67569833 -4.09510185 280.54524431 -3.80501938 281.44114017 C-0.46533864 291.72237921 3.08541654 301.93017176 6.61549377 312.14719009 C8.9707829 318.98356195 11.29671579 325.82997308 13.62381744 332.67598152 C15.61617249 338.53214957 17.62160404 344.38321038 19.65478516 350.2253418 C21.66423052 356.0013834 23.63842883 361.78844707 25.59011078 367.5842495 C26.32573779 369.74932578 27.07328815 371.91039675 27.83414459 374.06673622 C31.7408011 385.16100403 34.57671608 395.4430283 34.65136719 407.27807617 C34.66082556 408.67209766 34.66082556 408.67209766 34.67047501 410.0942812 C34.49037516 416.42340055 32.91679453 421.26921604 29.94921875 426.84375 C29.28921875 426.84375 28.62921875 426.84375 27.94921875 426.84375 C27.84222656 427.44445312 27.73523438 428.04515625 27.625 428.6640625 C26.11371853 433.53860042 21.22225841 436.11894142 16.9921875 438.52734375 C9.47622287 442.39190263 3.78621006 443.99636272 -4.66590405 443.97517776 C-5.80971617 443.97825672 -5.80971617 443.97825672 -6.97663561 443.98139787 C-9.54060752 443.98706779 -12.10452572 443.98561062 -14.66850281 443.98419189 C-16.52185195 443.98677553 -18.37520054 443.98978869 -20.22854835 443.9931953 C-25.32865647 444.00126868 -30.42875051 444.00305506 -35.52886426 444.00379276 C-41.02663703 444.00564272 -46.52440248 444.01318976 -52.02217102 444.01992798 C-64.04695528 444.03351412 -76.0717362 444.03953643 -88.09652686 444.04393864 C-95.6035804 444.04670052 -103.11063265 444.05093777 -110.61768532 444.05544281 C-131.39894237 444.06763573 -152.18019861 444.07797045 -172.96145916 444.0813179 C-174.3051297 444.08153953 -175.64880025 444.08176132 -176.99247079 444.08198325 C-178.3393713 444.08220389 -179.6862718 444.08242438 -181.03317231 444.0826447 C-183.73524964 444.08308725 -186.43732697 444.08353437 -189.1394043 444.08398438 C-189.80936149 444.08409377 -190.47931868 444.08420316 -191.1695776 444.08431586 C-212.89209419 444.08794635 -234.6145774 444.10386643 -256.33708121 444.12717474 C-279.30752645 444.15177699 -302.27795798 444.1654842 -325.24841815 444.16668582 C-337.76834458 444.16760286 -350.28822731 444.17336245 -362.80814171 444.19150543 C-373.46869038 444.20689942 -384.12918184 444.212031 -394.78973951 444.20376733 C-400.22889693 444.19985839 -405.6679391 444.20080243 -411.10708237 444.21482468 C-416.08819525 444.22754869 -421.06910613 444.22637916 -426.05021868 444.21423396 C-427.85037175 444.21227438 -429.65053905 444.21536745 -431.45067211 444.22407833 C-446.91754741 444.29417283 -458.09661673 442.31203457 -469.80078125 431.59375 C-476.98463594 423.88059385 -479.1439331 415.48153404 -479.12837219 405.22042847 C-478.41637611 389.15496635 -471.90686591 373.68664278 -466.66877747 358.652668 C-465.09768025 354.12100411 -463.56457908 349.5765259 -462.02832031 345.03295898 C-459.86197219 338.63557894 -457.68388798 332.24244302 -455.49033928 325.85433865 C-452.22546696 316.341939 -449.04035106 306.8073326 -445.94005775 297.24006653 C-445.28324516 295.21384963 -444.6241336 293.18839636 -443.9641571 291.16320801 C-443.7534662 290.5165707 -443.54277529 289.8699334 -443.32569981 289.20370102 C-443.11871936 288.56848652 -442.91173891 287.93327202 -442.69848633 287.27880859 C-441.51267031 283.63823024 -440.32988259 279.99687687 -439.15927124 276.35137939 C-428.841277 244.30138563 -428.841277 244.30138563 -412.86328125 236.03125 C-407.76262208 233.54919695 -403.74884859 232.71994937 -398.06500244 232.68553162 C-396.83945145 232.6757428 -395.61390045 232.66595398 -394.35121155 232.65586853 C-392.99618569 232.64996478 -391.64115943 232.64415431 -390.28613281 232.63842773 C-388.85698668 232.62884589 -387.42784337 232.61883563 -385.998703 232.60842896 C-382.12098239 232.58140697 -378.24324965 232.56038277 -374.3654871 232.54042697 C-370.31221877 232.51855072 -366.25898774 232.49117005 -362.20574951 232.46437073 C-354.53126302 232.41446601 -346.85675581 232.36951894 -339.1822288 232.32634836 C-330.44467188 232.27695701 -321.70715239 232.22204592 -312.96963167 232.16666877 C-294.99671629 232.05288282 -277.02376557 231.9460364 -259.05078125 231.84375 C-259.95441406 231.32425781 -260.85804688 230.80476562 -261.7890625 230.26953125 C-262.98083702 229.5657274 -264.17222301 228.86126535 -265.36328125 228.15625 C-266.25563477 227.64674805 -266.25563477 227.64674805 -267.16601562 227.12695312 C-270.9622468 224.85769762 -273.17371299 222.86188295 -275.05078125 218.84375 C-276.2575708 210.98130481 -271.26927079 204.37318094 -267.23828125 198.09375 C-266.2937207 196.57201172 -266.2937207 196.57201172 -265.33007812 195.01953125 C-259.45999281 185.64464159 -254.10510047 178.61508969 -243.55078125 174.46875 C-230.94547608 172.21780265 -222.17687744 176.3829971 -211.61328125 183.03125 C-209.84611586 184.1327111 -208.07669668 185.23056727 -206.3046875 186.32421875 C-205.14948608 187.04967896 -205.14948608 187.04967896 -203.97094727 187.78979492 C-202.12363903 189.00413994 -202.12363903 189.00413994 -200.05078125 188.84375 C-198.14819648 185.81864021 -196.39944927 182.74615955 -194.6796875 179.61523438 C-190.98690545 173.15601663 -186.23052033 168.36995449 -179.05078125 165.84375 C-170.46072222 164.71085816 -164.36206515 166.31463608 -157.05078125 170.84375 C-156.66249146 169.55682251 -156.66249146 169.55682251 -156.26635742 168.24389648 C-155.00705891 164.72145214 -153.44196275 161.69590479 -151.6015625 158.44140625 C-151.26585739 157.84178574 -150.93015228 157.24216522 -150.58427429 156.62437439 C-149.16550773 154.09052408 -147.73508791 151.56332286 -146.30493164 149.03588867 C-135.62256808 130.2800744 -135.62256808 130.2800744 -129.05078125 109.84375 C-128.87442139 109.02447021 -128.69806152 108.20519043 -128.51635742 107.36108398 C-127.88427043 102.58579434 -128.00777701 97.91081852 -128.09375 93.1015625 C-128.11616347 90.96094703 -128.13761607 88.82032132 -128.15820312 86.6796875 C-128.19503207 83.33825364 -128.23776893 79.99735563 -128.29760742 76.65625 C-128.57493193 60.38008697 -128.23096067 45.24672446 -120.36328125 30.53125 C-120.02296875 29.87447266 -119.68265625 29.21769531 -119.33203125 28.54101562 C-115.99399278 22.33226407 -111.83863035 17.01158712 -107.05078125 11.84375 C-106.39207031 11.11671875 -105.73335938 10.3896875 -105.0546875 9.640625 C-77.90911475 -18.97965693 -31.87823841 -22.53109808 0 0 Z M-82.05078125 18.84375 C-82.05078125 19.50375 -82.05078125 20.16375 -82.05078125 20.84375 C-83.10265625 21.1221875 -83.10265625 21.1221875 -84.17578125 21.40625 C-88.09213153 23.36442514 -90.58466765 26.25051231 -93.05078125 29.84375 C-93.05078125 30.50375 -93.05078125 31.16375 -93.05078125 31.84375 C-93.71078125 31.84375 -94.37078125 31.84375 -95.05078125 31.84375 C-103.10322716 47.15442799 -107.46922389 60.88601191 -105.29980469 78.4309082 C-103.87010566 92.28357044 -104.53656369 106.3749733 -108.05078125 119.84375 C-108.35628906 121.02324219 -108.66179687 122.20273438 -108.9765625 123.41796875 C-114.23663197 141.11092969 -124.6726075 157.17995177 -133.91015625 173.03515625 C-134.4721875 174.02386719 -135.03421875 175.01257813 -135.61328125 176.03125 C-136.10957031 176.89105469 -136.60585938 177.75085938 -137.1171875 178.63671875 C-138.38241126 180.95025501 -138.38241126 180.95025501 -137.05078125 183.84375 C-134.79925265 185.48759142 -134.79925265 185.48759142 -131.984375 187.0234375 C-130.94087891 187.62285156 -129.89738281 188.22226563 -128.82226562 188.83984375 C-127.72205078 189.45988281 -126.62183594 190.07992187 -125.48828125 190.71875 C-123.3405127 191.94420352 -121.19336468 193.1707453 -119.046875 194.3984375 C-118.02062012 194.98206055 -116.99436523 195.56568359 -115.93701172 196.16699219 C-113.38195748 197.65135292 -110.88528803 199.19410616 -108.3984375 200.7890625 C-105.42134354 203.0181161 -105.42134354 203.0181161 -103.05078125 202.84375 C-101.37692954 200.33297243 -99.82650535 197.81844296 -98.30078125 195.21875 C-97.31024291 193.5680197 -96.31797419 191.91832683 -95.32421875 190.26953125 C-94.79538086 189.38990723 -94.26654297 188.5102832 -93.72167969 187.60400391 C-76.17790873 158.62243253 -57.75518108 135.66653444 -25.80078125 122.28125 C-10.89120267 115.99055064 -0.17405408 106.50612123 6.94921875 91.84375 C13.77684666 74.5677824 13.62249203 57.99957014 6.734375 40.8125 C-0.43588001 26.3472899 -12.63552839 16.35184113 -27.62890625 10.87890625 C-45.83654059 5.37088901 -66.1642262 8.08096676 -82.05078125 18.84375 Z M-174.6328125 189.95703125 C-176.32329469 192.20635053 -177.51976669 194.49542239 -178.73828125 197.03125 C-179.17527344 197.93230469 -179.61226563 198.83335937 -180.0625 199.76171875 C-180.38863281 200.44878906 -180.71476562 201.13585937 -181.05078125 201.84375 C-167.86800981 209.79902192 -154.65317677 217.69387463 -141.36328125 225.46875 C-140.45544388 225.99988403 -140.45544388 225.99988403 -139.52926636 226.54174805 C-137.11661938 227.95314915 -134.70392413 229.36446766 -132.29112244 230.77560425 C-126.32816059 234.26418316 -120.37485126 237.76903451 -114.42578125 241.28125 C-113.51352783 241.8189502 -112.60127441 242.35665039 -111.66137695 242.91064453 C-110.82823975 243.40290527 -109.99510254 243.89516602 -109.13671875 244.40234375 C-108.41532715 244.82829834 -107.69393555 245.25425293 -106.95068359 245.69311523 C-105.28973602 246.69903221 -103.66646264 247.76662908 -102.05078125 248.84375 C-101.06078125 248.84375 -100.07078125 248.84375 -99.05078125 248.84375 C-97.11738696 246.15752838 -97.11738696 246.15752838 -95.36328125 242.84375 C-94.74066406 241.73 -94.11804688 240.61625 -93.4765625 239.46875 C-92.77080078 238.169375 -92.77080078 238.169375 -92.05078125 236.84375 C-95.06632717 233.5608492 -98.15828037 231.41622051 -102.01171875 229.19140625 C-102.87900352 228.68694221 -102.87900352 228.68694221 -103.7638092 228.17228699 C-105.64790846 227.07793388 -107.5368192 225.99218381 -109.42578125 224.90625 C-110.74266996 224.14294414 -112.05915382 223.37893942 -113.37524414 222.61425781 C-116.02342938 221.07601269 -118.67305275 219.54029334 -121.32373047 218.00634766 C-126.39713074 215.06683362 -131.44391763 212.08274447 -136.48828125 209.09375 C-137.35420898 208.58239502 -138.22013672 208.07104004 -139.11230469 207.54418945 C-143.80273025 204.77364951 -148.48350164 201.98775923 -153.15625 199.1875 C-154.16308838 198.58647461 -155.16992676 197.98544922 -156.20727539 197.36621094 C-158.13997228 196.2122197 -160.07028169 195.05421742 -161.99780273 193.89160156 C-162.86348877 193.3756543 -163.7291748 192.85970703 -164.62109375 192.328125 C-165.38180176 191.87147461 -166.14250977 191.41482422 -166.92626953 190.94433594 C-170.78025241 188.72391323 -170.78025241 188.72391323 -174.6328125 189.95703125 Z M-242.05078125 199.84375 C-243.54511582 201.94871418 -243.54511582 201.94871418 -244.73828125 204.28125 C-245.15464844 205.04308594 -245.57101563 205.80492187 -246 206.58984375 C-246.97832315 208.68832872 -247.52659314 210.5999656 -248.05078125 212.84375 C-247.54554932 213.12871338 -247.04031738 213.41367676 -246.51977539 213.70727539 C-234.88671207 220.28135421 -223.36498077 227.01690254 -211.92285156 233.91772461 C-203.77075926 238.82798746 -195.57800175 243.66437132 -187.36328125 248.46875 C-186.74983856 248.8275827 -186.13639587 249.18641541 -185.50436401 249.55612183 C-183.07139628 250.97924202 -180.63842667 252.40235898 -178.20533752 253.82527161 C-170.01619875 258.61630945 -161.85260927 263.45055192 -153.68798828 268.28320312 C-149.14359026 270.97231553 -144.59705399 273.6578087 -140.05078125 276.34375 C-138.2174382 277.42706689 -136.38410486 278.51040021 -134.55078125 279.59375 C-133.64328125 280.13 -132.73578125 280.66625 -131.80078125 281.21875 C-123.55078125 286.09375 -123.55078125 286.09375 -120.79760742 287.72070312 C-118.97494434 288.79767976 -117.15219128 289.87450414 -115.3293457 290.95117188 C-110.58198627 293.75548336 -105.83649134 296.56288427 -101.09375 299.375 C-100.11341797 299.95572266 -99.13308594 300.53644531 -98.12304688 301.13476562 C-96.26308439 302.23663914 -94.40366747 303.33943433 -92.54492188 304.44335938 C-87.09624123 307.66960621 -81.60356987 310.80011143 -76.05078125 313.84375 C-74.86797651 311.81005002 -73.70494898 309.76862318 -72.55078125 307.71875 C-71.90109375 306.58179688 -71.25140625 305.44484375 -70.58203125 304.2734375 C-68.96309406 300.64734859 -68.33263882 298.74072875 -69.05078125 294.84375 C-72.29323073 290.73583468 -76.24021352 288.37442745 -80.80078125 285.96875 C-87.89040272 282.10274417 -94.8276326 278.0206889 -101.73828125 273.84375 C-111.03423535 268.23641796 -120.36704194 262.69900331 -129.73828125 257.21875 C-130.35359711 256.85885986 -130.96891296 256.49896973 -131.60287476 256.12817383 C-132.83626664 255.40679681 -134.06965998 254.68542228 -135.30305481 253.96405029 C-135.90429672 253.61239807 -136.50553864 253.26074585 -137.125 252.8984375 C-137.71999802 252.55049133 -138.31499603 252.20254517 -138.92802429 251.84405518 C-145.18845752 248.18135992 -151.43032555 244.48755626 -157.67138672 240.79199219 C-162.76559438 237.77809772 -167.86708278 234.77698976 -172.9765625 231.7890625 C-173.57807632 231.43727432 -174.17959015 231.08548615 -174.79933167 230.72303772 C-175.40720016 230.36753342 -176.01506866 230.01202911 -176.64135742 229.64575195 C-189.35030739 222.21274267 -202.01219639 214.70866499 -214.625 207.11328125 C-215.52959961 206.57002197 -216.43419922 206.0267627 -217.36621094 205.46704102 C-219.19105712 204.3636032 -221.00922999 203.24906921 -222.82128906 202.12475586 C-223.70010742 201.58343018 -224.57892578 201.04210449 -225.484375 200.484375 C-226.64731079 199.75976074 -226.64731079 199.75976074 -227.83374023 199.02050781 C-233.02574493 196.26470309 -237.53024169 195.71432352 -242.05078125 199.84375 Z M-408.05078125 259.84375 C-409.44107654 261.57080105 -409.44107654 261.57080105 -410.21324158 263.48649597 C-410.68240903 264.53533746 -410.68240903 264.53533746 -411.16105461 265.60536766 C-412.72844278 269.54861702 -414.12531285 273.52944053 -415.45141602 277.55981445 C-415.7659523 278.49962662 -416.08048859 279.43943878 -416.40455627 280.4077301 C-417.4396328 283.50557618 -418.46605339 286.60621271 -419.4921875 289.70703125 C-420.22196739 291.89876195 -420.95219546 294.09034347 -421.68284607 296.28178406 C-423.21716984 300.88788238 -424.74746415 305.49529272 -426.2746582 310.10375977 C-428.19595649 315.90111032 -430.12492223 321.69587066 -432.05648232 327.48980904 C-435.74771773 338.56335428 -439.41666395 349.64393042 -443.05459023 360.73510933 C-444.95204998 366.51738156 -446.86776825 372.2929286 -448.80564594 378.06177616 C-449.89431963 381.3162546 -450.96483136 384.57647277 -452.02973747 387.83879662 C-452.51190529 389.30348865 -453.00161879 390.76572312 -453.49966621 392.22509193 C-457.21527416 402.96402885 -457.21527416 402.96402885 -455.05078125 413.84375 C-452.55186035 417.89372525 -450.54039628 419.44017389 -446.05078125 420.84375 C-443.48247236 421.03017268 -441.02487279 421.1160121 -438.45851326 421.10101891 C-437.31841807 421.10627802 -437.31841807 421.10627802 -436.15529066 421.11164337 C-433.59972128 421.12097254 -431.04437901 421.11603017 -428.48880005 421.11117554 C-426.64156116 421.11491103 -424.79432386 421.11951214 -422.94708908 421.12490618 C-417.86397699 421.13716399 -412.78093058 421.13687245 -407.69780707 421.13451743 C-402.21849024 421.13410997 -396.73919467 421.1451416 -391.2598877 421.15463257 C-380.5225718 421.17125845 -369.78527785 421.17674282 -359.04795016 421.17785732 C-350.3224388 421.17880698 -341.5969347 421.18291316 -332.87142563 421.18925858 C-312.16994072 421.20400737 -291.46846064 421.21630786 -270.76696968 421.21526146 C-270.10485489 421.2152303 -269.44274011 421.21519914 -268.76056123 421.21516704 C-265.40463703 421.21500083 -262.04871282 421.21480274 -258.69278862 421.21459763 C-258.02628173 421.21455774 -257.35977484 421.21451785 -256.67307077 421.21447675 C-255.32523155 421.21439587 -253.97739232 421.21431228 -252.6295531 421.21422596 C-231.65649076 421.21300029 -210.68349306 421.22801638 -189.71044922 421.25537109 C-166.15123465 421.28608619 -142.59205105 421.30327861 -119.03281295 421.30144465 C-106.55712503 421.30077997 -94.08151002 421.30630634 -81.60583878 421.32780075 C-70.9850796 421.34598176 -60.36442641 421.3503852 -49.74365844 421.3367819 C-44.32306903 421.33023689 -38.90268312 421.33019038 -33.48211288 421.3474884 C-28.52145404 421.36315623 -23.56116111 421.36042003 -18.60051154 421.34292014 C-16.80444982 421.33983636 -15.00836122 421.3435342 -13.21233119 421.35464029 C-10.77268684 421.36872901 -8.33433175 421.35820154 -5.89473152 421.34152794 C-5.1958031 421.3514643 -4.49687467 421.36140066 -3.7767666 421.37163812 C1.59592568 421.29389264 4.60480407 419.78003009 8.94921875 416.84375 C12.01127672 413.06721183 12.55168433 409.63320737 12.94921875 404.84375 C12.32815988 401.34507308 12.32815988 401.34507308 11.09399414 397.6784668 C10.87049569 396.96012759 10.64699724 396.24178839 10.41672611 395.50168133 C9.61243042 392.94286687 8.78238727 390.39330628 7.94921875 387.84375 C7.627682 386.84972294 7.30614525 385.85569588 6.97486496 384.83154678 C4.45054369 377.03596661 1.87952839 369.2561086 -0.70511746 361.48036408 C-1.37355924 359.4691095 -2.04131328 357.45762779 -2.70887566 355.44608116 C-4.80559104 349.1287605 -6.90462697 342.81221835 -9.00715786 336.49683076 C-11.42114735 329.24585636 -13.82720368 321.99231215 -16.22660214 314.73649675 C-18.09384206 309.09151967 -19.96800778 303.44887221 -21.84742779 297.80793875 C-22.96518291 294.45258483 -24.08004461 291.0963374 -25.1876545 287.7376194 C-26.41922148 284.00376933 -27.66513753 280.27479636 -28.91235352 276.54614258 C-29.27349747 275.44428116 -29.63464142 274.34241974 -30.00672913 273.20716858 C-32.13263886 266.89842354 -34.02412511 261.35288469 -39.2824707 256.99365234 C-42.97546627 255.45965383 -46.41019618 255.41368947 -50.34375 255.4453125 C-51.13098953 255.44244232 -51.91822906 255.43957214 -52.72932434 255.43661499 C-54.38588179 255.4345806 -56.0424636 255.44006664 -57.69897461 255.45263672 C-60.2406124 255.46876479 -62.78067562 255.45273482 -65.32226562 255.43359375 C-66.93359727 255.43557503 -68.54492793 255.43941632 -70.15625 255.4453125 C-70.91769821 255.43923981 -71.67914642 255.43316711 -72.46366882 255.4269104 C-74.82377052 255.42358103 -74.82377052 255.42358103 -78.05078125 255.84375 C-80.32813135 258.65884993 -80.32813135 258.65884993 -80.05078125 261.84375 C-78.4097323 263.16574508 -78.4097323 263.16574508 -76.2109375 264.26171875 C-75.39890869 264.70733154 -74.58687988 265.15294434 -73.75024414 265.61206055 C-72.88004639 266.08039307 -72.00984863 266.54872559 -71.11328125 267.03125 C-59.61808072 273.46750038 -51.3570393 278.92497584 -47.05078125 291.84375 C-45.63333315 307.11036316 -52.82113926 317.21358755 -60.796875 329.54296875 C-62.29005063 331.84606963 -62.29005063 331.84606963 -62.05078125 334.84375 C-62.64890625 335.1325 -63.24703125 335.42125 -63.86328125 335.71875 C-66.24405917 336.89117026 -66.24405917 336.89117026 -69.05078125 338.84375 C-76.27535526 339.74097031 -80.21264289 337.53881979 -86.17578125 333.65625 C-87.95110171 332.54572122 -89.72717026 331.43638765 -91.50390625 330.328125 C-92.41720703 329.75126953 -93.33050781 329.17441406 -94.27148438 328.58007812 C-98.77177171 325.76858449 -103.34909516 323.09089598 -107.92578125 320.40625 C-109.7775794 319.31420158 -111.62914068 318.22175141 -113.48046875 317.12890625 C-114.40053711 316.58637207 -115.32060547 316.04383789 -116.26855469 315.48486328 C-120.86432205 312.77402191 -125.45742509 310.05867427 -130.05078125 307.34375 C-131.88410162 306.26039473 -133.71743496 305.1770614 -135.55078125 304.09375 C-146.55078125 297.59375 -146.55078125 297.59375 -149.29907227 295.96972656 C-151.13806336 294.88307226 -152.9770935 293.79648404 -154.81616211 292.70996094 C-159.3132494 290.05297062 -163.80972121 287.39495217 -168.3046875 284.734375 C-176.45323152 279.91293377 -184.60657221 275.10009363 -192.77734375 270.31640625 C-193.43739914 269.92989899 -194.09745453 269.54339172 -194.7775116 269.14517212 C-198.04886748 267.22984082 -201.32092299 265.31571892 -204.59399414 263.40332031 C-205.79184313 262.70249737 -206.98967904 262.00165209 -208.1875 261.30078125 C-209.24670654 260.68178955 -210.30591309 260.06279785 -211.3972168 259.42504883 C-213.31356288 258.28306948 -215.19463776 257.08117899 -217.05078125 255.84375 C-219.53582481 255.64652487 -221.9090649 255.56543632 -224.39448547 255.57632446 C-225.52516607 255.56952779 -225.52516607 255.56952779 -226.6786887 255.56259382 C-229.21204241 255.54990346 -231.74518242 255.55157316 -234.27856445 255.55322266 C-236.0919116 255.54724024 -237.90525619 255.54043536 -239.71859741 255.53286743 C-244.65049709 255.51516967 -249.5823274 255.51051043 -254.51425576 255.50923586 C-258.6295518 255.50733856 -262.74483162 255.49998286 -266.86012143 255.49289167 C-276.56943499 255.47659528 -286.27871145 255.47172381 -295.98803711 255.47314453 C-306.00654298 255.47434587 -316.02483338 255.45324837 -326.04328471 255.4216572 C-334.64125499 255.3955105 -343.23915484 255.38477658 -351.83716458 255.38605535 C-356.97380368 255.38656552 -362.11025143 255.38085245 -367.24685097 255.35969925 C-372.07893714 255.34034427 -376.91064893 255.34017364 -381.74274826 255.35473251 C-383.51566171 255.35682521 -385.28859842 255.3520923 -387.06147194 255.3400116 C-389.48346391 255.3245776 -391.90416204 255.33385409 -394.3261261 255.34927368 C-395.02642813 255.33898656 -395.72673015 255.32869943 -396.44825345 255.31810057 C-401.41530244 255.38789918 -404.24977863 256.69564503 -408.05078125 259.84375 Z " fill="currentColor" transform="translate(478.05078125,41.15625)"/>
<path d="M0 0 C1.13089312 -0.00829899 2.26178624 -0.01659798 3.42694885 -0.02514845 C5.29870285 -0.02357218 5.29870285 -0.02357218 7.20827007 -0.02196407 C8.54302233 -0.02784611 9.87777104 -0.03458475 11.21251506 -0.04210895 C14.88827409 -0.06021331 18.56396142 -0.0657066 22.23975956 -0.06909573 C26.20102863 -0.07484618 30.16225146 -0.09197102 34.12349224 -0.10744381 C43.69297374 -0.14221962 53.2624515 -0.15778446 62.8319824 -0.17156711 C67.33651074 -0.1785254 71.84103447 -0.18768274 76.34555912 -0.1966753 C91.31575638 -0.22588017 106.28594912 -0.2506747 121.25617218 -0.26129913 C122.69375915 -0.26233517 122.69375915 -0.26233517 124.16038827 -0.26339215 C125.12109436 -0.26408416 126.08180046 -0.26477618 127.07161885 -0.26548916 C129.01842964 -0.26690116 130.96524043 -0.26832197 132.9120512 -0.26975155 C133.87774002 -0.27045672 134.84342884 -0.27116189 135.83838096 -0.27188843 C151.48971157 -0.28414162 167.14080012 -0.32694189 182.79203025 -0.38269175 C198.85415751 -0.43944164 214.9161623 -0.46994708 230.97839087 -0.47431129 C239.99954654 -0.47739577 249.02036588 -0.4919413 258.04142475 -0.53559208 C265.72244409 -0.5726538 273.40303607 -0.58589585 281.08413199 -0.56788719 C285.00411588 -0.55942107 288.9232267 -0.5623383 292.84309673 -0.59570599 C296.43176579 -0.62598438 300.01891343 -0.62396495 303.60758957 -0.59621798 C305.52079044 -0.58980931 307.4340107 -0.6179201 309.34699756 -0.64724451 C317.42830328 -0.53957998 317.42830328 -0.53957998 320.70146978 1.73393166 C323.53331928 4.83068111 324.92587885 7.21222032 325.08758831 11.45314884 C324.3622362 16.9839587 324.3622362 16.9839587 322.58758831 19.26564884 C318.92699053 21.86088855 316.42860302 22.6418482 311.96310902 22.6515522 C310.83581729 22.66122554 309.70852556 22.67089888 308.54707348 22.68086535 C307.31352718 22.67621954 306.07998087 22.67157374 304.80905437 22.66678715 C303.49481735 22.67358382 302.18058033 22.68038049 300.82651794 22.68738312 C297.17996536 22.70573833 293.53361909 22.7053363 289.88703084 22.70179999 C285.9537187 22.70118799 282.02047286 22.71774389 278.08719158 22.73197269 C270.3818654 22.75689419 262.67660806 22.76513728 254.97124495 22.76680983 C248.70854184 22.76823514 242.44586147 22.77439854 236.18316555 22.78391171 C218.42947025 22.81033135 200.67582937 22.82416974 182.92211427 22.82192028 C181.96496777 22.82180041 181.00782128 22.82168055 180.02167034 22.82155704 C179.06335607 22.8214344 178.10504179 22.82131176 177.11768769 22.8211854 C161.58357772 22.8199658 146.04968584 22.84867964 130.51563896 22.89097214 C114.56756629 22.9340495 98.61960001 22.9547835 82.67146766 22.95219082 C73.71687128 22.95119445 64.76250356 22.95945513 55.80795956 22.99172497 C48.18449122 23.01902182 40.5613552 23.02558118 32.93785919 23.0051967 C29.04821274 22.99539144 25.15920407 22.99526294 21.26961803 23.02125645 C17.05262428 23.04914818 12.83711134 23.03054984 8.62008953 23.00736332 C7.39100467 23.02279401 6.16191981 23.0382247 4.89558995 23.05412298 C-1.53873593 22.97573898 -5.54179655 22.49698168 -10.22336876 17.8877663 C-12.36472292 14.96648575 -12.60020777 12.83377431 -12.41241169 9.26564884 C-9.95428117 2.90797095 -6.84634822 0.02120658 0 0 Z " fill="currentColor" transform="translate(75.4124116897583,416.7343511581421)"/>
<path d="M0 0 C0.84362522 -0.00367669 1.68725044 -0.00735338 2.55644006 -0.01114148 C5.39376786 -0.02218718 8.23105905 -0.02602364 11.06840515 -0.02983093 C13.09849667 -0.03609484 15.12858704 -0.04274157 17.15867615 -0.04974365 C22.68144851 -0.06715828 28.20421222 -0.07770636 33.72700524 -0.08594918 C37.17592727 -0.09109762 40.62484659 -0.09717338 44.07376671 -0.10346031 C54.86034115 -0.1225124 65.64690874 -0.13674435 76.43349677 -0.14507228 C88.89310853 -0.15485029 101.3525429 -0.18118454 113.81209213 -0.22157317 C123.43764598 -0.25170684 133.0631489 -0.26653849 142.68874902 -0.26985329 C148.44019605 -0.27220661 154.19145358 -0.28120395 159.94285011 -0.30631447 C165.35273471 -0.32955249 170.76230443 -0.33384555 176.17222595 -0.32355309 C178.15800205 -0.3230566 180.14379342 -0.32941007 182.12952232 -0.34310913 C184.84047087 -0.36076528 187.55028169 -0.35375299 190.26123047 -0.34057617 C191.04713336 -0.35154542 191.83303625 -0.36251466 192.64275438 -0.37381631 C197.85008327 -0.31270303 200.84346916 0.79852672 204.8210907 4.14717102 C207.03546891 7.88393426 208.01243724 9.95125512 207.3210907 14.27217102 C205.41613218 17.92334151 203.16014899 21.25751054 199.16902828 22.77553272 C195.66243057 23.33056707 192.16959882 23.28792488 188.62908936 23.28088379 C187.7961548 23.28314935 186.96322025 23.2854149 186.10504526 23.28774911 C183.30994025 23.29408666 180.51488375 23.29325991 177.71977234 23.29243469 C175.71746762 23.29542631 173.71516348 23.29882884 171.71286011 23.3026123 C166.27078297 23.31145556 160.82872155 23.31379054 155.38663793 23.31442809 C150.8462121 23.31537698 146.30578995 23.31905498 141.76536554 23.32260019 C131.05550446 23.33074574 120.34565179 23.3331843 109.63578796 23.33247375 C98.58064302 23.3318727 87.52554683 23.34242978 76.47041422 23.35821742 C66.98413203 23.37128285 57.4978658 23.37665808 48.01157469 23.37601835 C42.3435151 23.37576309 36.67549884 23.37862931 31.0074482 23.3891964 C25.67805483 23.39886077 20.34874637 23.39896797 15.01935005 23.39167976 C13.06218848 23.3906319 11.10502167 23.39300871 9.14786911 23.39904022 C6.47850408 23.40673454 3.80943416 23.40213235 1.14007568 23.39440918 C0.36361492 23.39955274 -0.41284585 23.40469631 -1.21283573 23.40999573 C-6.48954986 23.3762031 -10.10439319 22.58780721 -14.4289093 19.58467102 C-17.02878483 15.96341583 -17.75967325 12.57735758 -17.1789093 8.14717102 C-13.00521661 0.69809698 -8.07214524 -0.00187763 0 0 Z " fill="currentColor" transform="translate(101.17890930175781,367.8528289794922)"/>
<path d="M0 0 C1.34267086 -0.00650107 2.68533137 -0.01556772 4.02796936 -0.0269928 C7.65830391 -0.0499891 11.28758152 -0.0354081 14.91788149 -0.01252341 C18.72321268 0.00644756 22.52847545 -0.00477396 26.33383179 -0.01142883 C32.72093423 -0.0177604 39.10761496 0.00045641 45.49462891 0.03320312 C52.87429887 0.07072683 60.25317136 0.06890252 67.63288367 0.04616195 C74.74127078 0.02520336 81.84936369 0.03249011 88.9577446 0.0524807 C91.97923584 0.06045804 95.00047763 0.05848594 98.02196121 0.04845619 C101.57967043 0.03789393 105.13645139 0.05206152 108.6940136 0.08519936 C110.61929473 0.09730119 112.54468116 0.08489402 114.46995544 0.07174683 C123.87897146 0.19898202 123.87897146 0.19898202 126.93710327 3.18473816 C127.5216629 4.03473892 128.10622253 4.88473969 128.70849609 5.76049805 C129.16224609 6.37924805 129.61599609 6.99799805 130.08349609 7.63549805 C131.07608468 11.01029926 130.59732243 13.38295798 129.70849609 16.76049805 C127.51858012 19.34347586 125.74017921 21.24465649 122.70849609 22.76049805 C120.92304377 22.86445115 119.1337237 22.90436494 117.34527588 22.91439819 C116.20687256 22.92299866 115.06846924 22.93159912 113.89556885 22.94046021 C112.01294342 22.94685013 112.01294342 22.94685013 110.09228516 22.95336914 C108.77514526 22.96154663 107.45800537 22.96972412 106.10095215 22.97814941 C101.72536264 23.00437667 97.34976353 23.01967887 92.97412109 23.03393555 C91.46795394 23.03929515 89.96178684 23.04467266 88.45561981 23.0500679 C82.18992568 23.07169868 75.92423414 23.09043497 69.65851212 23.10169029 C60.67898977 23.11792639 51.69990037 23.15109309 42.72054124 23.20809114 C36.40708353 23.2468001 30.09374156 23.26632415 23.78016829 23.27161086 C20.00937928 23.2752634 16.23905194 23.28727312 12.46839142 23.31971359 C8.91909814 23.34981131 5.37054544 23.35610069 1.82115173 23.34432983 C-0.09812353 23.34400425 -2.01735319 23.36845951 -3.9364624 23.39370728 C-13.35056728 23.32559191 -13.35056728 23.32559191 -17.04986572 20.34902954 C-19.74095823 17.24149071 -20.51789486 15.53255097 -20.79150391 11.51049805 C-20.89978516 10.38901367 -20.89978516 10.38901367 -21.01025391 9.24487305 C-18.20860196 -0.4390978 -8.35854905 -0.09186442 0 0 Z " fill="currentColor" transform="translate(119.29150390625,319.239501953125)"/>
<path d="M0 0 C4.84158823 1.07772284 8.51751475 4.4765118 12.31640625 7.515625 C12.90808594 7.94359375 13.49976563 8.3715625 14.109375 8.8125 C21.66812716 14.48642193 25.28369255 23.28520352 26.7890625 32.3671875 C27.99502968 43.09613688 26.08401564 51.92431669 21.31640625 61.515625 C20.86265625 62.629375 20.40890625 63.743125 19.94140625 64.890625 C17.79999112 68.34983405 16.1809877 69.27604227 12.31640625 70.515625 C7.87888312 70.80275885 5.06437432 70.02487986 1.37890625 67.515625 C-1.36847777 63.51943006 -2.11386856 60.34252607 -1.68359375 55.515625 C-0.86980558 53.05853512 0.11355883 50.85255939 1.30859375 48.55859375 C4.0455608 43.01040086 3.7564574 37.61433049 2.50390625 31.640625 C0.46770042 26.52016622 -3.90026805 23.71294109 -8.1875 20.49609375 C-10.68359375 18.515625 -10.68359375 18.515625 -12.68359375 15.515625 C-13.35476058 8.58023445 -13.35476058 8.58023445 -10.87109375 4.640625 C-7.4043793 1.27295954 -4.90683824 -0.10843841 0 0 Z " fill="currentColor" transform="translate(453.68359375,66.484375)"/>
<path d="M0 0 C3.02508145 1.73602105 5.41790069 3.83580137 7 7 C7.40601504 15.39097744 7.40601504 15.39097744 5 19 C4.34 19 3.68 19 3 19 C3 19.66 3 20.32 3 21 C-4.10272873 23.16693419 -4.10272873 23.16693419 -7.6875 22.5 C-11.45764301 20.05450183 -14.38684429 17.46243332 -15.48828125 13.0390625 C-15.7536102 9.08187078 -15.12521103 6.66544047 -12.625 3.5625 C-8.73548173 -0.2344107 -5.34613705 -0.91251319 0 0 Z " fill="currentColor" transform="translate(426,56)"/>
</svg>
