<svg viewBox="0 0 512 512" width="512" height="512" version="1.1" xmlns="http://www.w3.org/2000/svg" desc="Created with imagetracer.js version 1.2.6" ><path fill="currentColor" stroke="currentColor" stroke-width="1" opacity="0" d="M 0 0 L 512 0 L 512 512 L 0 512 L 0 0 Z M 252 18 L 251 19 L 234 19 L 233 20 L 213 22 L 195 26 L 173 33 Q 131 49 101 76 Q 60 111 37 163 L 24 203 L 20 226 L 20 233 L 19 234 L 19 252 L 18 253 L 19 279 L 20 280 L 22 300 L 26 318 L 33 340 Q 49 381 76 412 Q 110 451 161 474 L 188 484 L 208 489 L 225 491 L 226 492 L 233 492 L 234 493 L 251 493 L 252 494 L 279 493 L 280 492 L 288 492 L 295 490 L 300 490 L 318 486 L 340 479 Q 381 463 412 436 Q 452 401 475 350 L 488 310 L 492 287 L 492 280 L 493 279 L 493 261 L 494 260 L 493 234 L 492 233 L 490 213 L 486 195 L 479 173 Q 463 131 436 101 Q 401 60 350 37 L 322 27 L 300 22 L 289 21 L 288 20 L 280 20 L 279 19 L 252 18 Z " /><path fill="currentColor" stroke="currentColor" stroke-width="1" opacity="0" d="M 237.5 44 L 274.5 44 L 275.5 45 L 290.5 46 L 309.5 50 L 336.5 59 Q 381.5 78 412 111.5 Q 440.3 141.2 456 183.5 L 463 206.5 L 467 228.5 L 467 236.5 L 468 237.5 L 468 274.5 L 467 275.5 L 466 290.5 L 462 309.5 L 449 345.5 Q 430.9 383.9 401.5 411 Q 371.5 440 328.5 456 L 305.5 463 L 283.5 467 L 275.5 467 L 274.5 468 L 237.5 468 L 236.5 467 L 221.5 466 L 202.5 462 L 166.5 449 Q 128.1 430.9 101 401.5 Q 72 371.5 56 328.5 L 49 305.5 L 45 283.5 L 45 275.5 L 44 274.5 L 44 237.5 L 45 236.5 L 46 221.5 L 50 202.5 L 63 166.5 Q 81.5 127.5 111.5 100 Q 135.2 77.7 166.5 63 L 202.5 50 L 221.5 46 L 236.5 45 L 237.5 44 Z M 166 153 L 160 155 Q 154 158 153 166 L 153 347 L 155 353 Q 158 358 166 359 L 347 359 L 353 357 Q 358 354 359 347 L 359 166 L 357 160 Q 354 154 347 153 L 166 153 Z " /><path fill="currentColor" stroke="currentColor" stroke-width="1" opacity="0.792156862745098" d="M 251.5 18 L 261 18.5 L 251.5 19 L 251.5 18 Z " /><path fill="currentColor" stroke="currentColor" stroke-width="1" opacity="0.792156862745098" d="M 233.5 19 L 240 19.5 L 233.5 20 L 233.5 19 Z " /><path fill="currentColor" stroke="currentColor" stroke-width="1" opacity="0.792156862745098" d="M 272.5 19 L 279 19.5 L 272.5 20 L 272.5 19 Z " /><path fill="currentColor" stroke="currentColor" stroke-width="1" opacity="0.792156862745098" d="M 225.5 20 L 229 20.5 L 225.5 21 L 225.5 20 Z " /><path fill="currentColor" stroke="currentColor" stroke-width="1" opacity="0.792156862745098" d="M 284.5 20 L 288 20.5 L 284.5 21 L 284.5 20 Z " /><path fill="currentColor" stroke="currentColor" stroke-width="1" opacity="0.792156862745098" d="M 218.5 21 L 221 21.5 L 218.5 22 L 218.5 21 Z " /><path fill="currentColor" stroke="currentColor" stroke-width="1" opacity="0.792156862745098" d="M 291.5 21 L 294 21.5 L 291.5 22 L 291.5 21 Z " /><path fill="currentColor" stroke="currentColor" stroke-width="1" opacity="0.792156862745098" d="M 212.5 22 L 215 22.5 L 212.5 23 L 212.5 22 Z " /><path fill="currentColor" stroke="currentColor" stroke-width="1" opacity="0.792156862745098" d="M 297.5 22 L 300 22.5 L 297.5 23 L 297.5 22 Z " /><path fill="currentColor" stroke="currentColor" stroke-width="1" opacity="0.792156862745098" d="M 202.5 24 L 205 24.5 L 202.5 25 L 202.5 24 Z " /><path fill="currentColor" stroke="currentColor" stroke-width="1" opacity="0.792156862745098" d="M 359.5 42 L 362 43.5 L 360.5 43 L 359.5 42 Z " /><path fill="currentColor" stroke="currentColor" stroke-width="1" opacity="0.792156862745098" d="M 243.5 43 L 269 43.5 L 243.5 44 L 243.5 43 Z " /><path fill="currentColor" stroke="currentColor" stroke-width="1" opacity="0.792156862745098" d="M 232.5 44 L 237 44.5 L 232.5 45 L 232.5 44 Z " /><path fill="currentColor" stroke="currentColor" stroke-width="1" opacity="0.792156862745098" d="M 275.5 44 L 280 44.5 L 275.5 45 L 275.5 44 Z " /><path fill="currentColor" stroke="currentColor" stroke-width="1" opacity="0.792156862745098" d="M 224.5 45 L 228 45.5 L 224.5 46 L 224.5 45 Z " /><path fill="currentColor" stroke="currentColor" stroke-width="1" opacity="0.792156862745098" d="M 284.5 45 L 288 45.5 L 284.5 46 L 284.5 45 Z " /><path fill="currentColor" stroke="currentColor" stroke-width="1" opacity="0.792156862745098" d="M 218.5 46 L 221 46.5 L 218.5 47 L 218.5 46 Z " /><path fill="currentColor" stroke="currentColor" stroke-width="1" opacity="0.792156862745098" d="M 291.5 46 L 294 46.5 L 291.5 47 L 291.5 46 Z " /><path fill="currentColor" stroke="currentColor" stroke-width="1" opacity="0.792156862745098" d="M 213.5 47 L 216 47.5 L 213.5 48 L 213.5 47 Z " /><path fill="currentColor" stroke="currentColor" stroke-width="1" opacity="0.792156862745098" d="M 296.5 47 L 299 47.5 L 296.5 48 L 296.5 47 Z " /><path fill="currentColor" stroke="currentColor" stroke-width="1" opacity="0.792156862745098" d="M 301.5 48 L 304 48.5 L 301.5 49 L 301.5 48 Z " /><path fill="currentColor" stroke="currentColor" stroke-width="1" opacity="0.792156862745098" d="M 138.5 49 L 137.5 51 L 138.5 49 Z " /><path fill="currentColor" stroke="currentColor" stroke-width="1" opacity="0.792156862745098" d="M 204.5 49 L 207 49.5 L 204.5 50 L 204.5 49 Z " /><path fill="currentColor" stroke="currentColor" stroke-width="1" opacity="0.792156862745098" d="M 373.5 49 L 374.5 51 L 373.5 49 Z " /><path fill="currentColor" stroke="currentColor" stroke-width="1" opacity="0.792156862745098" d="M 133.5 52 L 132.5 54 L 133.5 52 Z " /><path fill="currentColor" stroke="currentColor" stroke-width="1" opacity="0.792156862745098" d="M 378.5 52 L 379.5 54 L 378.5 52 Z " /><path fill="currentColor" stroke="currentColor" stroke-width="1" opacity="0.792156862745098" d="M 383.5 55 L 384.5 57 L 383.5 55 Z " /><path fill="currentColor" stroke="currentColor" stroke-width="1" opacity="0.792156862745098" d="M 125.5 57 L 124.5 59 L 125.5 57 Z " /><path fill="currentColor" stroke="currentColor" stroke-width="1" opacity="0.792156862745098" d="M 386.5 57 L 387.5 59 L 386.5 57 Z " /><path fill="currentColor" stroke="currentColor" stroke-width="1" opacity="0.792156862745098" d="M 122.5 59 L 121.5 61 L 122.5 59 Z " /><path fill="currentColor" stroke="currentColor" stroke-width="1" opacity="0.792156862745098" d="M 389.5 59 L 390.5 61 L 389.5 59 Z " /><path fill="currentColor" stroke="currentColor" stroke-width="1" opacity="0.792156862745098" d="M 118.5 62 L 117.5 64 L 118.5 62 Z " /><path fill="currentColor" stroke="currentColor" stroke-width="1" opacity="0.792156862745098" d="M 393.5 62 L 394.5 64 L 393.5 62 Z " /><path fill="currentColor" stroke="currentColor" stroke-width="1" opacity="0.792156862745098" d="M 115.5 64 L 114.5 66 L 115.5 64 Z " /><path fill="currentColor" stroke="currentColor" stroke-width="1" opacity="0.792156862745098" d="M 396.5 64 L 397.5 66 L 396.5 64 Z " /><path fill="currentColor" stroke="currentColor" stroke-width="1" opacity="0.792156862745098" d="M 111.5 67 L 109.5 70 L 111.5 67 Z " /><path fill="currentColor" stroke="currentColor" stroke-width="1" opacity="0.792156862745098" d="M 400.5 67 L 402.5 70 L 400.5 67 Z " /><path fill="currentColor" stroke="currentColor" stroke-width="1" opacity="0.792156862745098" d="M 153.5 69 L 152.5 71 L 153.5 69 Z " /><path fill="currentColor" stroke="currentColor" stroke-width="1" opacity="0.792156862745098" d="M 358.5 69 L 359.5 71 L 358.5 69 Z " /><path fill="currentColor" stroke="currentColor" stroke-width="1" opacity="0.792156862745098" d="M 106.5 71 L 104.5 74 L 106.5 71 Z " /><path fill="currentColor" stroke="currentColor" stroke-width="1" opacity="0.792156862745098" d="M 405.5 71 L 407.5 74 L 405.5 71 Z " /><path fill="currentColor" stroke="currentColor" stroke-width="1" opacity="0.792156862745098" d="M 148.5 72 L 147.5 74 L 148.5 72 Z " /><path fill="currentColor" stroke="currentColor" stroke-width="1" opacity="0.792156862745098" d="M 143.5 75 L 142.5 77 L 143.5 75 Z " /><path fill="currentColor" stroke="currentColor" stroke-width="1" opacity="0.792156862745098" d="M 368.5 75 L 369.5 77 L 368.5 75 Z " /><path fill="currentColor" stroke="currentColor" stroke-width="1" opacity="0.792156862745098" d="M 100.5 76 L 95.5 82 L 100.5 76 Z " /><path fill="currentColor" stroke="currentColor" stroke-width="1" opacity="0.792156862745098" d="M 411.5 76 L 415.5 81 L 411.5 76 Z " /><path fill="currentColor" stroke="currentColor" stroke-width="1" opacity="0.792156862745098" d="M 140.5 77 L 139.5 79 L 140.5 77 Z " /><path fill="currentColor" stroke="currentColor" stroke-width="1" opacity="0.792156862745098" d="M 137.5 79 L 136.5 81 L 137.5 79 Z " /><path fill="currentColor" stroke="currentColor" stroke-width="1" opacity="0.792156862745098" d="M 134.5 81 L 133.5 83 L 134.5 81 Z " /><path fill="currentColor" stroke="currentColor" stroke-width="1" opacity="0.792156862745098" d="M 377.5 81 L 378.5 83 L 377.5 81 Z " /><path fill="currentColor" stroke="currentColor" stroke-width="1" opacity="0.792156862745098" d="M 131.5 83 L 130.5 85 L 131.5 83 Z " /><path fill="currentColor" stroke="currentColor" stroke-width="1" opacity="0.792156862745098" d="M 380.5 83 L 381.5 85 L 380.5 83 Z " /><path fill="currentColor" stroke="currentColor" stroke-width="1" opacity="0.792156862745098" d="M 127.5 86 L 125.5 89 L 127.5 86 Z " /><path fill="currentColor" stroke="currentColor" stroke-width="1" opacity="0.792156862745098" d="M 384.5 86 L 386.5 89 L 384.5 86 Z " /><path fill="currentColor" stroke="currentColor" stroke-width="1" opacity="0.792156862745098" d="M 122.5 90 L 120.5 93 L 122.5 90 Z " /><path fill="currentColor" stroke="currentColor" stroke-width="1" opacity="0.792156862745098" d="M 389.5 90 L 391.5 93 L 389.5 90 Z " /><path fill="currentColor" stroke="currentColor" stroke-width="1" opacity="0.792156862745098" d="M 116.5 95 L 112.5 100 L 116.5 95 Z " /><path fill="currentColor" stroke="currentColor" stroke-width="1" opacity="0.792156862745098" d="M 395.5 95 L 399.5 100 L 395.5 95 Z " /><path fill="currentColor" stroke="currentColor" stroke-width="1" opacity="0.792156862745098" d="M 430.5 95 L 435.5 101 L 430.5 95 Z " /><path fill="currentColor" stroke="currentColor" stroke-width="1" opacity="0.792156862745098" d="M 80.5 96 L 76.5 101 L 80.5 96 Z " /><path fill="currentColor" stroke="currentColor" stroke-width="1" opacity="0.792156862745098" d="M 73.5 104 L 71.5 107 L 73.5 104 Z " /><path fill="currentColor" stroke="currentColor" stroke-width="1" opacity="0.792156862745098" d="M 438.5 104 L 440.5 107 L 438.5 104 Z " /><path fill="currentColor" stroke="currentColor" stroke-width="1" opacity="0.792156862745098" d="M 69.5 109 L 67.5 112 L 69.5 109 Z " /><path fill="currentColor" stroke="currentColor" stroke-width="1" opacity="0.792156862745098" d="M 442.5 109 L 444.5 112 L 442.5 109 Z " /><path fill="currentColor" stroke="currentColor" stroke-width="1" opacity="0.792156862745098" d="M 99.5 112 L 95.5 117 L 99.5 112 Z " /><path fill="currentColor" stroke="currentColor" stroke-width="1" opacity="0.792156862745098" d="M 412.5 112 L 416.5 117 L 412.5 112 Z " /><path fill="currentColor" stroke="currentColor" stroke-width="1" opacity="0.792156862745098" d="M 65.5 114 L 64.5 116 L 65.5 114 Z " /><path fill="currentColor" stroke="currentColor" stroke-width="1" opacity="0.792156862745098" d="M 446.5 114 L 447.5 116 L 446.5 114 Z " /><path fill="currentColor" stroke="currentColor" stroke-width="1" opacity="0.792156862745098" d="M 63.5 117 L 62.5 119 L 63.5 117 Z " /><path fill="currentColor" stroke="currentColor" stroke-width="1" opacity="0.792156862745098" d="M 448.5 117 L 449.5 119 L 448.5 117 Z " /><path fill="currentColor" stroke="currentColor" stroke-width="1" opacity="0.792156862745098" d="M 92.5 120 L 90.5 123 L 92.5 120 Z " /><path fill="currentColor" stroke="currentColor" stroke-width="1" opacity="0.792156862745098" d="M 419.5 120 L 421.5 123 L 419.5 120 Z " /><path fill="currentColor" stroke="currentColor" stroke-width="1" opacity="0.792156862745098" d="M 60.5 121 L 59.5 123 L 60.5 121 Z " /><path fill="currentColor" stroke="currentColor" stroke-width="1" opacity="0.792156862745098" d="M 451.5 121 L 452.5 123 L 451.5 121 Z " /><path fill="currentColor" stroke="currentColor" stroke-width="1" opacity="0.792156862745098" d="M 58.5 124 L 57.5 126 L 58.5 124 Z " /><path fill="currentColor" stroke="currentColor" stroke-width="1" opacity="0.792156862745098" d="M 453.5 124 L 454.5 126 L 453.5 124 Z " /><path fill="currentColor" stroke="currentColor" stroke-width="1" opacity="0.792156862745098" d="M 88.5 125 L 86.5 128 L 88.5 125 Z " /><path fill="currentColor" stroke="currentColor" stroke-width="1" opacity="0.792156862745098" d="M 423.5 125 L 425.5 128 L 423.5 125 Z " /><path fill="currentColor" stroke="currentColor" stroke-width="1" opacity="0.792156862745098" d="M 56.5 127 L 55.5 129 L 56.5 127 Z " /><path fill="currentColor" stroke="currentColor" stroke-width="1" opacity="0.792156862745098" d="M 84.5 130 L 83.5 132 L 84.5 130 Z " /><path fill="currentColor" stroke="currentColor" stroke-width="1" opacity="0.792156862745098" d="M 427.5 130 L 428.5 132 L 427.5 130 Z " /><path fill="currentColor" stroke="currentColor" stroke-width="1" opacity="0.792156862745098" d="M 53.5 132 L 52.5 134 L 53.5 132 Z " /><path fill="currentColor" stroke="currentColor" stroke-width="1" opacity="0.792156862745098" d="M 458.5 132 L 459.5 134 L 458.5 132 Z " /><path fill="currentColor" stroke="currentColor" stroke-width="1" opacity="0.792156862745098" d="M 82.5 133 L 81.5 135 L 82.5 133 Z " /><path fill="currentColor" stroke="currentColor" stroke-width="1" opacity="0.792156862745098" d="M 429.5 133 L 430.5 135 L 429.5 133 Z " /><path fill="currentColor" stroke="currentColor" stroke-width="1" opacity="0.792156862745098" d="M 50.5 137 L 49.5 139 L 50.5 137 Z " /><path fill="currentColor" stroke="currentColor" stroke-width="1" opacity="0.792156862745098" d="M 461.5 137 L 462.5 139 L 461.5 137 Z " /><path fill="currentColor" stroke="currentColor" stroke-width="1" opacity="0.792156862745098" d="M 78.5 139 L 77.5 141 L 78.5 139 Z " /><path fill="currentColor" stroke="currentColor" stroke-width="1" opacity="0.792156862745098" d="M 433.5 139 L 434.5 141 L 433.5 139 Z " /><path fill="currentColor" stroke="currentColor" stroke-width="1" opacity="0.792156862745098" d="M 76.5 142 L 75.5 144 L 76.5 142 Z " /><path fill="currentColor" stroke="currentColor" stroke-width="1" opacity="0.792156862745098" d="M 435.5 142 L 436.5 144 L 435.5 142 Z " /><path fill="currentColor" stroke="currentColor" stroke-width="1" opacity="0.792156862745098" d="M 74.5 145 L 73.5 147 L 74.5 145 Z " /><path fill="currentColor" stroke="currentColor" stroke-width="1" opacity="0.792156862745098" d="M 70.5 152 L 69.5 154 L 70.5 152 Z " /><path fill="currentColor" stroke="currentColor" stroke-width="1" opacity="0.792156862745098" d="M 441.5 152 L 442.5 154 L 441.5 152 Z " /><path fill="currentColor" stroke="currentColor" stroke-width="1" opacity="0.792156862745098" d="M 165.5 153 L 347 153.5 L 165.5 154 L 165.5 153 Z " /><path fill="currentColor" stroke="currentColor" stroke-width="1" opacity="0.792156862745098" d="M 159.5 155 L 158.5 157 L 159.5 155 Z " /><path fill="currentColor" stroke="currentColor" stroke-width="1" opacity="0.792156862745098" d="M 352.5 155 L 353.5 157 L 352.5 155 Z " /><path fill="currentColor" stroke="currentColor" stroke-width="1" opacity="0.792156862745098" d="M 156.5 158 L 155.5 160 L 156.5 158 Z " /><path fill="currentColor" stroke="currentColor" stroke-width="1" opacity="0.792156862745098" d="M 355.5 158 L 356.5 160 L 355.5 158 Z " /><path fill="currentColor" stroke="currentColor" stroke-width="1" opacity="0.792156862745098" d="M 153.5 165 L 154 346.5 L 153 346.5 L 153.5 165 Z " /><path fill="currentColor" stroke="currentColor" stroke-width="1" opacity="0.792156862745098" d="M 358.5 165 L 359 346.5 L 358 346.5 L 358.5 165 Z " /><path fill="currentColor" stroke="currentColor" stroke-width="1" opacity="0.792156862745098" d="M 24.5 202 L 25 204.5 L 24 204.5 L 24.5 202 Z " /><path fill="currentColor" stroke="currentColor" stroke-width="1" opacity="0.792156862745098" d="M 487.5 202 L 488 204.5 L 487 204.5 L 487.5 202 Z " /><path fill="currentColor" stroke="currentColor" stroke-width="1" opacity="0.792156862745098" d="M 22.5 212 L 23 214.5 L 22 214.5 L 22.5 212 Z " /><path fill="currentColor" stroke="currentColor" stroke-width="1" opacity="0.792156862745098" d="M 489.5 212 L 490 214.5 L 489 214.5 L 489.5 212 Z " /><path fill="currentColor" stroke="currentColor" stroke-width="1" opacity="0.792156862745098" d="M 47.5 213 L 48 215.5 L 47 215.5 L 47.5 213 Z " /><path fill="currentColor" stroke="currentColor" stroke-width="1" opacity="0.792156862745098" d="M 464.5 213 L 465 215.5 L 464 215.5 L 464.5 213 Z " /><path fill="currentColor" stroke="currentColor" stroke-width="1" opacity="0.792156862745098" d="M 21.5 218 L 22 220.5 L 21 220.5 L 21.5 218 Z " /><path fill="currentColor" stroke="currentColor" stroke-width="1" opacity="0.792156862745098" d="M 46.5 218 L 47 220.5 L 46 220.5 L 46.5 218 Z " /><path fill="currentColor" stroke="currentColor" stroke-width="1" opacity="0.792156862745098" d="M 465.5 218 L 466 220.5 L 465 220.5 L 465.5 218 Z " /><path fill="currentColor" stroke="currentColor" stroke-width="1" opacity="0.792156862745098" d="M 490.5 218 L 491 220.5 L 490 220.5 L 490.5 218 Z " /><path fill="currentColor" stroke="currentColor" stroke-width="1" opacity="0.792156862745098" d="M 45.5 224 L 46 227.5 L 45 227.5 L 45.5 224 Z " /><path fill="currentColor" stroke="currentColor" stroke-width="1" opacity="0.792156862745098" d="M 466.5 224 L 467 227.5 L 466 227.5 L 466.5 224 Z " /><path fill="currentColor" stroke="currentColor" stroke-width="1" opacity="0.792156862745098" d="M 20.5 225 L 21 228.5 L 20 228.5 L 20.5 225 Z " /><path fill="currentColor" stroke="currentColor" stroke-width="1" opacity="0.792156862745098" d="M 491.5 225 L 492 228.5 L 491 228.5 L 491.5 225 Z " /><path fill="currentColor" stroke="currentColor" stroke-width="1" opacity="0.792156862745098" d="M 44.5 232 L 45 236.5 L 44 236.5 L 44.5 232 Z " /><path fill="currentColor" stroke="currentColor" stroke-width="1" opacity="0.792156862745098" d="M 467.5 232 L 468 236.5 L 467 236.5 L 467.5 232 Z " /><path fill="currentColor" stroke="currentColor" stroke-width="1" opacity="0.792156862745098" d="M 19.5 233 L 20 239.5 L 19 239.5 L 19.5 233 Z " /><path fill="currentColor" stroke="currentColor" stroke-width="1" opacity="0.792156862745098" d="M 492.5 233 L 493 239.5 L 492 239.5 L 492.5 233 Z " /><path fill="currentColor" stroke="currentColor" stroke-width="1" opacity="0.792156862745098" d="M 43.5 243 L 44 268.5 L 43 268.5 L 43.5 243 Z " /><path fill="currentColor" stroke="currentColor" stroke-width="1" opacity="0.792156862745098" d="M 468.5 244 L 469 267.5 L 468 267.5 L 468.5 244 Z " /><path fill="currentColor" stroke="currentColor" stroke-width="1" opacity="0.792156862745098" d="M 18.5 252 L 19 259.5 L 18 259.5 L 18.5 252 Z " /><path fill="currentColor" stroke="currentColor" stroke-width="1" opacity="0.792156862745098" d="M 493.5 252 L 494 259.5 L 493 259.5 L 493.5 252 Z " /><path fill="currentColor" stroke="currentColor" stroke-width="1" opacity="0.792156862745098" d="M 19.5 272 L 20 278.5 L 19 278.5 L 19.5 272 Z " /><path fill="currentColor" stroke="currentColor" stroke-width="1" opacity="0.792156862745098" d="M 492.5 272 L 493 278.5 L 492 278.5 L 492.5 272 Z " /><path fill="currentColor" stroke="currentColor" stroke-width="1" opacity="0.792156862745098" d="M 44.5 275 L 45 279.5 L 44 279.5 L 44.5 275 Z " /><path fill="currentColor" stroke="currentColor" stroke-width="1" opacity="0.792156862745098" d="M 467.5 275 L 468 279.5 L 467 279.5 L 467.5 275 Z " /><path fill="currentColor" stroke="currentColor" stroke-width="1" opacity="0.792156862745098" d="M 20.5 283 L 21 286.5 L 20 286.5 L 20.5 283 Z " /><path fill="currentColor" stroke="currentColor" stroke-width="1" opacity="0.792156862745098" d="M 491.5 283 L 492 286.5 L 491 286.5 L 491.5 283 Z " /><path fill="currentColor" stroke="currentColor" stroke-width="1" opacity="0.792156862745098" d="M 45.5 284 L 46 287.5 L 45 287.5 L 45.5 284 Z " /><path fill="currentColor" stroke="currentColor" stroke-width="1" opacity="0.792156862745098" d="M 466.5 284 L 467 287.5 L 466 287.5 L 466.5 284 Z " /><path fill="currentColor" stroke="currentColor" stroke-width="1" opacity="0.792156862745098" d="M 21.5 291 L 22 293.5 L 21 293.5 L 21.5 291 Z " /><path fill="currentColor" stroke="currentColor" stroke-width="1" opacity="0.792156862745098" d="M 46.5 291 L 47 293.5 L 46 293.5 L 46.5 291 Z " /><path fill="currentColor" stroke="currentColor" stroke-width="1" opacity="0.792156862745098" d="M 465.5 291 L 466 293.5 L 465 293.5 L 465.5 291 Z " /><path fill="currentColor" stroke="currentColor" stroke-width="1" opacity="0.792156862745098" d="M 490.5 291 L 491 293.5 L 490 293.5 L 490.5 291 Z " /><path fill="currentColor" stroke="currentColor" stroke-width="1" opacity="0.792156862745098" d="M 47.5 296 L 48 298.5 L 47 298.5 L 47.5 296 Z " /><path fill="currentColor" stroke="currentColor" stroke-width="1" opacity="0.792156862745098" d="M 464.5 296 L 465 298.5 L 464 298.5 L 464.5 296 Z " /><path fill="currentColor" stroke="currentColor" stroke-width="1" opacity="0.792156862745098" d="M 22.5 297 L 23 299.5 L 22 299.5 L 22.5 297 Z " /><path fill="currentColor" stroke="currentColor" stroke-width="1" opacity="0.792156862745098" d="M 489.5 297 L 490 299.5 L 489 299.5 L 489.5 297 Z " /><path fill="currentColor" stroke="currentColor" stroke-width="1" opacity="0.792156862745098" d="M 24.5 307 L 25 309.5 L 24 309.5 L 24.5 307 Z " /><path fill="currentColor" stroke="currentColor" stroke-width="1" opacity="0.792156862745098" d="M 487.5 307 L 488 309.5 L 487 309.5 L 487.5 307 Z " /><path fill="currentColor" stroke="currentColor" stroke-width="1" opacity="0.792156862745098" d="M 155.5 352 L 156.5 354 L 155.5 352 Z " /><path fill="currentColor" stroke="currentColor" stroke-width="1" opacity="0.792156862745098" d="M 356.5 352 L 355.5 354 L 356.5 352 Z " /><path fill="currentColor" stroke="currentColor" stroke-width="1" opacity="0.792156862745098" d="M 158.5 355 L 159.5 357 L 158.5 355 Z " /><path fill="currentColor" stroke="currentColor" stroke-width="1" opacity="0.792156862745098" d="M 353.5 355 L 352.5 357 L 353.5 355 Z " /><path fill="currentColor" stroke="currentColor" stroke-width="1" opacity="0.792156862745098" d="M 69.5 358 L 70.5 360 L 69.5 358 Z " /><path fill="currentColor" stroke="currentColor" stroke-width="1" opacity="0.792156862745098" d="M 165.5 358 L 347 358.5 L 165.5 359 L 165.5 358 Z " /><path fill="currentColor" stroke="currentColor" stroke-width="1" opacity="0.792156862745098" d="M 439.5 363 L 438.5 365 L 439.5 363 Z " /><path fill="currentColor" stroke="currentColor" stroke-width="1" opacity="0.792156862745098" d="M 75.5 368 L 76.5 370 L 75.5 368 Z " /><path fill="currentColor" stroke="currentColor" stroke-width="1" opacity="0.792156862745098" d="M 436.5 368 L 435.5 370 L 436.5 368 Z " /><path fill="currentColor" stroke="currentColor" stroke-width="1" opacity="0.792156862745098" d="M 77.5 371 L 78.5 373 L 77.5 371 Z " /><path fill="currentColor" stroke="currentColor" stroke-width="1" opacity="0.792156862745098" d="M 434.5 371 L 433.5 373 L 434.5 371 Z " /><path fill="currentColor" stroke="currentColor" stroke-width="1" opacity="0.792156862745098" d="M 49.5 373 L 50.5 375 L 49.5 373 Z " /><path fill="currentColor" stroke="currentColor" stroke-width="1" opacity="0.792156862745098" d="M 462.5 373 L 461.5 375 L 462.5 373 Z " /><path fill="currentColor" stroke="currentColor" stroke-width="1" opacity="0.792156862745098" d="M 432.5 374 L 431.5 376 L 432.5 374 Z " /><path fill="currentColor" stroke="currentColor" stroke-width="1" opacity="0.792156862745098" d="M 81.5 377 L 82.5 379 L 81.5 377 Z " /><path fill="currentColor" stroke="currentColor" stroke-width="1" opacity="0.792156862745098" d="M 430.5 377 L 429.5 379 L 430.5 377 Z " /><path fill="currentColor" stroke="currentColor" stroke-width="1" opacity="0.792156862745098" d="M 52.5 378 L 53.5 380 L 52.5 378 Z " /><path fill="currentColor" stroke="currentColor" stroke-width="1" opacity="0.792156862745098" d="M 459.5 378 L 458.5 380 L 459.5 378 Z " /><path fill="currentColor" stroke="currentColor" stroke-width="1" opacity="0.792156862745098" d="M 83.5 380 L 84.5 382 L 83.5 380 Z " /><path fill="currentColor" stroke="currentColor" stroke-width="1" opacity="0.792156862745098" d="M 428.5 380 L 427.5 382 L 428.5 380 Z " /><path fill="currentColor" stroke="currentColor" stroke-width="1" opacity="0.792156862745098" d="M 86.5 384 L 88.5 387 L 86.5 384 Z " /><path fill="currentColor" stroke="currentColor" stroke-width="1" opacity="0.792156862745098" d="M 425.5 384 L 423.5 387 L 425.5 384 Z " /><path fill="currentColor" stroke="currentColor" stroke-width="1" opacity="0.792156862745098" d="M 57.5 386 L 58.5 388 L 57.5 386 Z " /><path fill="currentColor" stroke="currentColor" stroke-width="1" opacity="0.792156862745098" d="M 454.5 386 L 453.5 388 L 454.5 386 Z " /><path fill="currentColor" stroke="currentColor" stroke-width="1" opacity="0.792156862745098" d="M 59.5 389 L 60.5 391 L 59.5 389 Z " /><path fill="currentColor" stroke="currentColor" stroke-width="1" opacity="0.792156862745098" d="M 90.5 389 L 92.5 392 L 90.5 389 Z " /><path fill="currentColor" stroke="currentColor" stroke-width="1" opacity="0.792156862745098" d="M 421.5 389 L 419.5 392 L 421.5 389 Z " /><path fill="currentColor" stroke="currentColor" stroke-width="1" opacity="0.792156862745098" d="M 452.5 389 L 451.5 391 L 452.5 389 Z " /><path fill="currentColor" stroke="currentColor" stroke-width="1" opacity="0.792156862745098" d="M 62.5 393 L 63.5 395 L 62.5 393 Z " /><path fill="currentColor" stroke="currentColor" stroke-width="1" opacity="0.792156862745098" d="M 449.5 393 L 448.5 395 L 449.5 393 Z " /><path fill="currentColor" stroke="currentColor" stroke-width="1" opacity="0.792156862745098" d="M 95.5 395 L 100.5 401 L 95.5 395 Z " /><path fill="currentColor" stroke="currentColor" stroke-width="1" opacity="0.792156862745098" d="M 416.5 395 L 412.5 400 L 416.5 395 Z " /><path fill="currentColor" stroke="currentColor" stroke-width="1" opacity="0.792156862745098" d="M 64.5 396 L 65.5 398 L 64.5 396 Z " /><path fill="currentColor" stroke="currentColor" stroke-width="1" opacity="0.792156862745098" d="M 447.5 396 L 446.5 398 L 447.5 396 Z " /><path fill="currentColor" stroke="currentColor" stroke-width="1" opacity="0.792156862745098" d="M 67.5 400 L 69.5 403 L 67.5 400 Z " /><path fill="currentColor" stroke="currentColor" stroke-width="1" opacity="0.792156862745098" d="M 444.5 400 L 442.5 403 L 444.5 400 Z " /><path fill="currentColor" stroke="currentColor" stroke-width="1" opacity="0.792156862745098" d="M 71.5 405 L 73.5 408 L 71.5 405 Z " /><path fill="currentColor" stroke="currentColor" stroke-width="1" opacity="0.792156862745098" d="M 440.5 405 L 438.5 408 L 440.5 405 Z " /><path fill="currentColor" stroke="currentColor" stroke-width="1" opacity="0.792156862745098" d="M 76.5 411 L 81.5 417 L 76.5 411 Z " /><path fill="currentColor" stroke="currentColor" stroke-width="1" opacity="0.792156862745098" d="M 111.5 411 L 116.5 417 L 111.5 411 Z " /><path fill="currentColor" stroke="currentColor" stroke-width="1" opacity="0.792156862745098" d="M 400.5 411 L 395.5 417 L 400.5 411 Z " /><path fill="currentColor" stroke="currentColor" stroke-width="1" opacity="0.792156862745098" d="M 435.5 411 L 430.5 417 L 435.5 411 Z " /><path fill="currentColor" stroke="currentColor" stroke-width="1" opacity="0.792156862745098" d="M 120.5 419 L 122.5 422 L 120.5 419 Z " /><path fill="currentColor" stroke="currentColor" stroke-width="1" opacity="0.792156862745098" d="M 391.5 419 L 389.5 422 L 391.5 419 Z " /><path fill="currentColor" stroke="currentColor" stroke-width="1" opacity="0.792156862745098" d="M 125.5 423 L 127.5 426 L 125.5 423 Z " /><path fill="currentColor" stroke="currentColor" stroke-width="1" opacity="0.792156862745098" d="M 386.5 423 L 384.5 426 L 386.5 423 Z " /><path fill="currentColor" stroke="currentColor" stroke-width="1" opacity="0.792156862745098" d="M 381.5 427 L 380.5 429 L 381.5 427 Z " /><path fill="currentColor" stroke="currentColor" stroke-width="1" opacity="0.792156862745098" d="M 133.5 429 L 134.5 431 L 133.5 429 Z " /><path fill="currentColor" stroke="currentColor" stroke-width="1" opacity="0.792156862745098" d="M 378.5 429 L 377.5 431 L 378.5 429 Z " /><path fill="currentColor" stroke="currentColor" stroke-width="1" opacity="0.792156862745098" d="M 95.5 430 L 100.5 436 L 95.5 430 Z " /><path fill="currentColor" stroke="currentColor" stroke-width="1" opacity="0.792156862745098" d="M 136.5 431 L 137.5 433 L 136.5 431 Z " /><path fill="currentColor" stroke="currentColor" stroke-width="1" opacity="0.792156862745098" d="M 415.5 431 L 411.5 436 L 415.5 431 Z " /><path fill="currentColor" stroke="currentColor" stroke-width="1" opacity="0.792156862745098" d="M 139.5 433 L 140.5 435 L 139.5 433 Z " /><path fill="currentColor" stroke="currentColor" stroke-width="1" opacity="0.792156862745098" d="M 372.5 433 L 371.5 435 L 372.5 433 Z " /><path fill="currentColor" stroke="currentColor" stroke-width="1" opacity="0.792156862745098" d="M 142.5 435 L 143.5 437 L 142.5 435 Z " /><path fill="currentColor" stroke="currentColor" stroke-width="1" opacity="0.792156862745098" d="M 369.5 435 L 368.5 437 L 369.5 435 Z " /><path fill="currentColor" stroke="currentColor" stroke-width="1" opacity="0.792156862745098" d="M 104.5 438 L 106.5 441 L 104.5 438 Z " /><path fill="currentColor" stroke="currentColor" stroke-width="1" opacity="0.792156862745098" d="M 147.5 438 L 148.5 440 L 147.5 438 Z " /><path fill="currentColor" stroke="currentColor" stroke-width="1" opacity="0.792156862745098" d="M 407.5 438 L 405.5 441 L 407.5 438 Z " /><path fill="currentColor" stroke="currentColor" stroke-width="1" opacity="0.792156862745098" d="M 152.5 441 L 153.5 443 L 152.5 441 Z " /><path fill="currentColor" stroke="currentColor" stroke-width="1" opacity="0.792156862745098" d="M 109.5 442 L 111.5 445 L 109.5 442 Z " /><path fill="currentColor" stroke="currentColor" stroke-width="1" opacity="0.792156862745098" d="M 402.5 442 L 400.5 445 L 402.5 442 Z " /><path fill="currentColor" stroke="currentColor" stroke-width="1" opacity="0.792156862745098" d="M 114.5 446 L 115.5 448 L 114.5 446 Z " /><path fill="currentColor" stroke="currentColor" stroke-width="1" opacity="0.792156862745098" d="M 397.5 446 L 396.5 448 L 397.5 446 Z " /><path fill="currentColor" stroke="currentColor" stroke-width="1" opacity="0.792156862745098" d="M 117.5 448 L 118.5 450 L 117.5 448 Z " /><path fill="currentColor" stroke="currentColor" stroke-width="1" opacity="0.792156862745098" d="M 394.5 448 L 393.5 450 L 394.5 448 Z " /><path fill="currentColor" stroke="currentColor" stroke-width="1" opacity="0.792156862745098" d="M 121.5 451 L 122.5 453 L 121.5 451 Z " /><path fill="currentColor" stroke="currentColor" stroke-width="1" opacity="0.792156862745098" d="M 390.5 451 L 389.5 453 L 390.5 451 Z " /><path fill="currentColor" stroke="currentColor" stroke-width="1" opacity="0.792156862745098" d="M 124.5 453 L 125.5 455 L 124.5 453 Z " /><path fill="currentColor" stroke="currentColor" stroke-width="1" opacity="0.792156862745098" d="M 387.5 453 L 386.5 455 L 387.5 453 Z " /><path fill="currentColor" stroke="currentColor" stroke-width="1" opacity="0.792156862745098" d="M 384.5 455 L 383.5 457 L 384.5 455 Z " /><path fill="currentColor" stroke="currentColor" stroke-width="1" opacity="0.792156862745098" d="M 132.5 458 L 133.5 460 L 132.5 458 Z " /><path fill="currentColor" stroke="currentColor" stroke-width="1" opacity="0.792156862745098" d="M 379.5 458 L 378.5 460 L 379.5 458 Z " /><path fill="currentColor" stroke="currentColor" stroke-width="1" opacity="0.792156862745098" d="M 137.5 461 L 138.5 463 L 137.5 461 Z " /><path fill="currentColor" stroke="currentColor" stroke-width="1" opacity="0.792156862745098" d="M 374.5 461 L 373.5 463 L 374.5 461 Z " /><path fill="currentColor" stroke="currentColor" stroke-width="1" opacity="0.792156862745098" d="M 213.5 464 L 216 464.5 L 213.5 465 L 213.5 464 Z " /><path fill="currentColor" stroke="currentColor" stroke-width="1" opacity="0.792156862745098" d="M 296.5 464 L 299 464.5 L 296.5 465 L 296.5 464 Z " /><path fill="currentColor" stroke="currentColor" stroke-width="1" opacity="0.792156862745098" d="M 218.5 465 L 221 465.5 L 218.5 466 L 218.5 465 Z " /><path fill="currentColor" stroke="currentColor" stroke-width="1" opacity="0.792156862745098" d="M 291.5 465 L 294 465.5 L 291.5 466 L 291.5 465 Z " /><path fill="currentColor" stroke="currentColor" stroke-width="1" opacity="0.792156862745098" d="M 224.5 466 L 228 466.5 L 224.5 467 L 224.5 466 Z " /><path fill="currentColor" stroke="currentColor" stroke-width="1" opacity="0.792156862745098" d="M 284.5 466 L 288 466.5 L 284.5 467 L 284.5 466 Z " /><path fill="currentColor" stroke="currentColor" stroke-width="1" opacity="0.792156862745098" d="M 232.5 467 L 237 467.5 L 232.5 468 L 232.5 467 Z " /><path fill="currentColor" stroke="currentColor" stroke-width="1" opacity="0.792156862745098" d="M 275.5 467 L 280 467.5 L 275.5 468 L 275.5 467 Z " /><path fill="currentColor" stroke="currentColor" stroke-width="1" opacity="0.792156862745098" d="M 244.5 468 L 268 468.5 L 244.5 469 L 244.5 468 Z " /><path fill="currentColor" stroke="currentColor" stroke-width="1" opacity="0.792156862745098" d="M 212.5 489 L 215 489.5 L 212.5 490 L 212.5 489 Z " /><path fill="currentColor" stroke="currentColor" stroke-width="1" opacity="0.792156862745098" d="M 297.5 489 L 300 489.5 L 297.5 490 L 297.5 489 Z " /><path fill="currentColor" stroke="currentColor" stroke-width="1" opacity="0.792156862745098" d="M 218.5 490 L 221 490.5 L 218.5 491 L 218.5 490 Z " /><path fill="currentColor" stroke="currentColor" stroke-width="1" opacity="0.792156862745098" d="M 291.5 490 L 294 490.5 L 291.5 491 L 291.5 490 Z " /><path fill="currentColor" stroke="currentColor" stroke-width="1" opacity="0.792156862745098" d="M 225.5 491 L 229 491.5 L 225.5 492 L 225.5 491 Z " /><path fill="currentColor" stroke="currentColor" stroke-width="1" opacity="0.792156862745098" d="M 284.5 491 L 288 491.5 L 284.5 492 L 284.5 491 Z " /><path fill="currentColor" stroke="currentColor" stroke-width="1" opacity="0.792156862745098" d="M 233.5 492 L 240 492.5 L 233.5 493 L 233.5 492 Z " /><path fill="currentColor" stroke="currentColor" stroke-width="1" opacity="0.792156862745098" d="M 272.5 492 L 279 492.5 L 272.5 493 L 272.5 492 Z " /><path fill="currentColor" stroke="currentColor" stroke-width="1" opacity="0.792156862745098" d="M 251.5 493 L 261 493.5 L 251.5 494 L 251.5 493 Z " /><path fill="currentColor" stroke="currentColor" stroke-width="1" opacity="1" d="M 240.5 19 L 283.5 20 L 284.5 21 L 307.5 24 L 335.5 32 Q 392.6 53.4 430 94.5 Q 462.1 128.4 480 176.5 L 487 200.5 L 491 221.5 L 492 239.5 L 493 240.5 L 493 271.5 L 492 272.5 L 491 290.5 L 487 311.5 L 480 335.5 L 474 350.5 Q 452.6 398.1 416.5 431 Q 382.8 462.3 335.5 480 L 307.5 488 L 284.5 491 L 283.5 492 L 240.5 493 L 239.5 492 L 221.5 491 L 200.5 487 L 176.5 480 L 161.5 474 Q 114.5 453 82 417.5 Q 49.9 383.6 32 335.5 L 25 311.5 L 21 290.5 L 20 272.5 L 19 271.5 L 19 240.5 L 20 239.5 L 21 221.5 L 25 200.5 L 30 182.5 L 38 161.5 Q 59 114.5 94.5 82 Q 123.1 55.1 161.5 38 L 176.5 32 L 200.5 25 L 221.5 21 L 239.5 20 L 240.5 19 Z M 244 43 L 243 44 L 225 45 L 205 49 L 175 59 Q 142 73 117 95 Q 82 124 62 168 Q 54 184 49 205 L 45 225 L 44 243 L 43 244 L 43 269 L 44 270 L 45 288 L 54 325 Q 69 366 95 396 Q 124 430 168 450 L 191 459 L 214 465 L 232 467 L 233 468 L 244 468 L 245 469 L 268 469 L 269 468 L 288 467 L 322 459 L 357 444 Q 378 432 396 417 Q 430 388 450 345 L 463 308 L 467 288 L 468 269 L 469 268 L 469 245 L 468 244 L 467 225 L 458 188 Q 443 146 417 117 Q 385 80 338 59 L 319 52 L 294 46 L 281 45 L 280 44 L 270 44 L 269 43 L 244 43 Z " /><path fill="currentColor" stroke="currentColor" stroke-width="1" opacity="1" d="M 162.5 154 L 349.5 154 L 355 157 L 358 162.5 L 358 349.5 L 355 355 L 349.5 358 L 162.5 358 L 157 355 L 154 349.5 L 154 162.5 L 157 157 L 162.5 154 Z " /></svg>