<svg viewBox="0 0 512 512" width="512" height="512" version="1.1" xmlns="http://www.w3.org/2000/svg" desc="Created with imagetracer.js version 1.2.6" ><path fill="currentColor" stroke="currentColor" stroke-width="1" opacity="0" d="M 0 0 L 114 0.5 Q 104.6 2.1 100 8.5 L 94 20.5 L 94 261.5 L 100 293.5 L 106 310.5 L 114 326.5 Q 128.6 352.4 150.5 371 Q 172.2 390.3 202.5 401 L 230.5 408 L 259.5 410 L 260.5 409 L 274.5 409 L 281.5 407 L 287.5 407 L 317.5 398 Q 353.9 382.4 378 354.5 Q 394.1 336.1 405 312.5 L 413 289.5 L 418 261.5 L 418 20.5 Q 415.9 11.1 409.5 6 Q 405.3 1.7 398 0.5 L 512 0 L 512 511.5 L 511.5 512 L 398.5 512 L 398.5 511 L 403.5 510 L 412 503.5 L 418 491.5 L 418 481.5 Q 415.6 471.4 408.5 466 L 398.5 461 L 113.5 461 Q 104.3 463.8 99 470.5 L 94 481.5 L 94 491.5 Q 96.1 500.9 102.5 506 Q 106.7 510.3 114 511.5 L 0 512 L 0 0 Z " /><path fill="currentColor" stroke="currentColor" stroke-width="1" opacity="0" d="M 125.5 0 L 387 0.5 L 381.5 2 L 374 7 L 369 14.5 L 367 20.5 L 367 253.5 L 366 254.5 L 366 263.5 Q 358.1 304.6 332.5 328 Q 317.5 342.5 296.5 351 L 268.5 358 L 243.5 358 L 227.5 355 L 202.5 345 Q 186.8 336.2 175 323.5 Q 161.2 309.3 153 289.5 L 146 263.5 L 146 255.5 L 145 254.5 L 145 20.5 L 143 14.5 L 138 7 L 130.5 2 L 125.5 1 L 125.5 0 Z " /><path fill="currentColor" stroke="currentColor" stroke-width="1" opacity="0.8" d="M 114.5 0 L 118 0.5 L 114.5 1 L 114.5 0 Z " /><path fill="currentColor" stroke="currentColor" stroke-width="1" opacity="0.8" d="M 120.5 0 L 125 0.5 L 120.5 1 L 120.5 0 Z " /><path fill="currentColor" stroke="currentColor" stroke-width="1" opacity="0.8" d="M 387.5 0 L 392 0.5 L 387.5 1 L 387.5 0 Z " /><path fill="currentColor" stroke="currentColor" stroke-width="1" opacity="0.8" d="M 394.5 0 L 398 0.5 L 394.5 1 L 394.5 0 Z " /><path fill="currentColor" stroke="currentColor" stroke-width="1" opacity="0.8" d="M 108.5 2 L 107.5 4 L 108.5 2 Z " /><path fill="currentColor" stroke="currentColor" stroke-width="1" opacity="0.8" d="M 130.5 2 L 131.5 4 L 130.5 2 Z " /><path fill="currentColor" stroke="currentColor" stroke-width="1" opacity="0.8" d="M 381.5 2 L 380.5 4 L 381.5 2 Z " /><path fill="currentColor" stroke="currentColor" stroke-width="1" opacity="0.8" d="M 403.5 2 L 404.5 4 L 403.5 2 Z " /><path fill="currentColor" stroke="currentColor" stroke-width="1" opacity="0.8" d="M 102.5 6 L 100.5 9 L 102.5 6 Z " /><path fill="currentColor" stroke="currentColor" stroke-width="1" opacity="0.8" d="M 409.5 6 L 411.5 9 L 409.5 6 Z " /><path fill="currentColor" stroke="currentColor" stroke-width="1" opacity="0.8" d="M 98.5 11 L 97.5 13 L 98.5 11 Z " /><path fill="currentColor" stroke="currentColor" stroke-width="1" opacity="0.8" d="M 413.5 11 L 414.5 13 L 413.5 11 Z " /><path fill="currentColor" stroke="currentColor" stroke-width="1" opacity="0.8" d="M 141.5 13 L 142.5 15 L 141.5 13 Z " /><path fill="currentColor" stroke="currentColor" stroke-width="1" opacity="0.8" d="M 370.5 13 L 369.5 15 L 370.5 13 Z " /><path fill="currentColor" stroke="currentColor" stroke-width="1" opacity="0.8" d="M 94.5 20 L 95 22.5 L 94 22.5 L 94.5 20 Z " /><path fill="currentColor" stroke="currentColor" stroke-width="1" opacity="0.8" d="M 144.5 20 L 145 23.5 L 144 23.5 L 144.5 20 Z " /><path fill="currentColor" stroke="currentColor" stroke-width="1" opacity="0.8" d="M 367.5 20 L 368 23.5 L 367 23.5 L 367.5 20 Z " /><path fill="currentColor" stroke="currentColor" stroke-width="1" opacity="0.8" d="M 417.5 20 L 418 22.5 L 417 22.5 L 417.5 20 Z " /><path fill="currentColor" stroke="currentColor" stroke-width="1" opacity="0.8" d="M 94.5 252 L 95 261.5 L 94 261.5 L 94.5 252 Z " /><path fill="currentColor" stroke="currentColor" stroke-width="1" opacity="0.8" d="M 417.5 252 L 418 261.5 L 417 261.5 L 417.5 252 Z " /><path fill="currentColor" stroke="currentColor" stroke-width="1" opacity="0.8" d="M 366.5 254 L 367 260.5 L 366 260.5 L 366.5 254 Z " /><path fill="currentColor" stroke="currentColor" stroke-width="1" opacity="0.8" d="M 145.5 255 L 146 260.5 L 145 260.5 L 145.5 255 Z " /><path fill="currentColor" stroke="currentColor" stroke-width="1" opacity="0.8" d="M 146.5 264 L 147 266.5 L 146 266.5 L 146.5 264 Z " /><path fill="currentColor" stroke="currentColor" stroke-width="1" opacity="0.8" d="M 365.5 264 L 366 266.5 L 365 266.5 L 365.5 264 Z " /><path fill="currentColor" stroke="currentColor" stroke-width="1" opacity="0.8" d="M 95.5 267 L 96 269.5 L 95 269.5 L 95.5 267 Z " /><path fill="currentColor" stroke="currentColor" stroke-width="1" opacity="0.8" d="M 416.5 267 L 417 269.5 L 416 269.5 L 416.5 267 Z " /><path fill="currentColor" stroke="currentColor" stroke-width="1" opacity="0.8" d="M 96.5 273 L 97 276.5 L 96 276.5 L 96.5 273 Z " /><path fill="currentColor" stroke="currentColor" stroke-width="1" opacity="0.8" d="M 415.5 273 L 416 275.5 L 415 275.5 L 415.5 273 Z " /><path fill="currentColor" stroke="currentColor" stroke-width="1" opacity="0.8" d="M 352.5 302 L 351.5 304 L 352.5 302 Z " /><path fill="currentColor" stroke="currentColor" stroke-width="1" opacity="0.8" d="M 160.5 304 L 161.5 306 L 160.5 304 Z " /><path fill="currentColor" stroke="currentColor" stroke-width="1" opacity="0.8" d="M 349.5 307 L 348.5 309 L 349.5 307 Z " /><path fill="currentColor" stroke="currentColor" stroke-width="1" opacity="0.8" d="M 164.5 310 L 165.5 312 L 164.5 310 Z " /><path fill="currentColor" stroke="currentColor" stroke-width="1" opacity="0.8" d="M 347.5 310 L 346.5 312 L 347.5 310 Z " /><path fill="currentColor" stroke="currentColor" stroke-width="1" opacity="0.8" d="M 167.5 314 L 168.5 316 L 167.5 314 Z " /><path fill="currentColor" stroke="currentColor" stroke-width="1" opacity="0.8" d="M 344.5 314 L 343.5 316 L 344.5 314 Z " /><path fill="currentColor" stroke="currentColor" stroke-width="1" opacity="0.8" d="M 169.5 317 L 174.5 323 L 169.5 317 Z " /><path fill="currentColor" stroke="currentColor" stroke-width="1" opacity="0.8" d="M 341.5 318 L 336.5 324 L 341.5 318 Z " /><path fill="currentColor" stroke="currentColor" stroke-width="1" opacity="0.8" d="M 114.5 326 L 115.5 328 L 114.5 326 Z " /><path fill="currentColor" stroke="currentColor" stroke-width="1" opacity="0.8" d="M 397.5 326 L 396.5 328 L 397.5 326 Z " /><path fill="currentColor" stroke="currentColor" stroke-width="1" opacity="0.8" d="M 180.5 328 L 185.5 334 L 180.5 328 Z " /><path fill="currentColor" stroke="currentColor" stroke-width="1" opacity="0.8" d="M 331.5 328 L 326.5 334 L 331.5 328 Z " /><path fill="currentColor" stroke="currentColor" stroke-width="1" opacity="0.8" d="M 117.5 331 L 118.5 333 L 117.5 331 Z " /><path fill="currentColor" stroke="currentColor" stroke-width="1" opacity="0.8" d="M 324.5 334 L 322.5 337 L 324.5 334 Z " /><path fill="currentColor" stroke="currentColor" stroke-width="1" opacity="0.8" d="M 188.5 335 L 189.5 337 L 188.5 335 Z " /><path fill="currentColor" stroke="currentColor" stroke-width="1" opacity="0.8" d="M 120.5 336 L 121.5 338 L 120.5 336 Z " /><path fill="currentColor" stroke="currentColor" stroke-width="1" opacity="0.8" d="M 191.5 337 L 193.5 340 L 191.5 337 Z " /><path fill="currentColor" stroke="currentColor" stroke-width="1" opacity="0.8" d="M 320.5 337 L 318.5 340 L 320.5 337 Z " /><path fill="currentColor" stroke="currentColor" stroke-width="1" opacity="0.8" d="M 122.5 339 L 124.5 342 L 122.5 339 Z " /><path fill="currentColor" stroke="currentColor" stroke-width="1" opacity="0.8" d="M 388.5 340 L 387.5 342 L 388.5 340 Z " /><path fill="currentColor" stroke="currentColor" stroke-width="1" opacity="0.8" d="M 314.5 341 L 313.5 343 L 314.5 341 Z " /><path fill="currentColor" stroke="currentColor" stroke-width="1" opacity="0.8" d="M 125.5 343 L 127.5 346 L 125.5 343 Z " /><path fill="currentColor" stroke="currentColor" stroke-width="1" opacity="0.8" d="M 385.5 344 L 384.5 346 L 385.5 344 Z " /><path fill="currentColor" stroke="currentColor" stroke-width="1" opacity="0.8" d="M 128.5 347 L 130.5 350 L 128.5 347 Z " /><path fill="currentColor" stroke="currentColor" stroke-width="1" opacity="0.8" d="M 382.5 348 L 381.5 350 L 382.5 348 Z " /><path fill="currentColor" stroke="currentColor" stroke-width="1" opacity="0.8" d="M 133.5 353 L 138.5 359 L 133.5 353 Z " /><path fill="currentColor" stroke="currentColor" stroke-width="1" opacity="0.8" d="M 377.5 354 L 371.5 361 L 377.5 354 Z " /><path fill="currentColor" stroke="currentColor" stroke-width="1" opacity="0.8" d="M 233.5 356 L 236 356.5 L 233.5 357 L 233.5 356 Z " /><path fill="currentColor" stroke="currentColor" stroke-width="1" opacity="0.8" d="M 275.5 356 L 279 356.5 L 275.5 357 L 275.5 356 Z " /><path fill="currentColor" stroke="currentColor" stroke-width="1" opacity="0.8" d="M 240.5 357 L 243 357.5 L 240.5 358 L 240.5 357 Z " /><path fill="currentColor" stroke="currentColor" stroke-width="1" opacity="0.8" d="M 269.5 357 L 272 357.5 L 269.5 358 L 269.5 357 Z " /><path fill="currentColor" stroke="currentColor" stroke-width="1" opacity="0.8" d="M 250.5 358 L 262 358.5 L 250.5 359 L 250.5 358 Z " /><path fill="currentColor" stroke="currentColor" stroke-width="1" opacity="0.8" d="M 368.5 363 L 362.5 370 L 368.5 363 Z " /><path fill="currentColor" stroke="currentColor" stroke-width="1" opacity="0.8" d="M 144.5 364 L 150.5 371 L 144.5 364 Z " /><path fill="currentColor" stroke="currentColor" stroke-width="1" opacity="0.8" d="M 358.5 372 L 356.5 375 L 358.5 372 Z " /><path fill="currentColor" stroke="currentColor" stroke-width="1" opacity="0.8" d="M 154.5 373 L 155.5 375 L 154.5 373 Z " /><path fill="currentColor" stroke="currentColor" stroke-width="1" opacity="0.8" d="M 354.5 375 L 352.5 378 L 354.5 375 Z " /><path fill="currentColor" stroke="currentColor" stroke-width="1" opacity="0.8" d="M 158.5 376 L 159.5 378 L 158.5 376 Z " /><path fill="currentColor" stroke="currentColor" stroke-width="1" opacity="0.8" d="M 350.5 378 L 348.5 381 L 350.5 378 Z " /><path fill="currentColor" stroke="currentColor" stroke-width="1" opacity="0.8" d="M 162.5 379 L 163.5 381 L 162.5 379 Z " /><path fill="currentColor" stroke="currentColor" stroke-width="1" opacity="0.8" d="M 346.5 381 L 345.5 383 L 346.5 381 Z " /><path fill="currentColor" stroke="currentColor" stroke-width="1" opacity="0.8" d="M 168.5 383 L 169.5 385 L 168.5 383 Z " /><path fill="currentColor" stroke="currentColor" stroke-width="1" opacity="0.8" d="M 173.5 386 L 174.5 388 L 173.5 386 Z " /><path fill="currentColor" stroke="currentColor" stroke-width="1" opacity="0.8" d="M 178.5 389 L 179.5 391 L 178.5 389 Z " /><path fill="currentColor" stroke="currentColor" stroke-width="1" opacity="0.8" d="M 224.5 406 L 227 406.5 L 224.5 407 L 224.5 406 Z " /><path fill="currentColor" stroke="currentColor" stroke-width="1" opacity="0.8" d="M 285.5 406 L 288 406.5 L 285.5 407 L 285.5 406 Z " /><path fill="currentColor" stroke="currentColor" stroke-width="1" opacity="0.8" d="M 230.5 407 L 234 407.5 L 230.5 408 L 230.5 407 Z " /><path fill="currentColor" stroke="currentColor" stroke-width="1" opacity="0.8" d="M 278.5 407 L 281 407.5 L 278.5 408 L 278.5 407 Z " /><path fill="currentColor" stroke="currentColor" stroke-width="1" opacity="0.8" d="M 237.5 408 L 242 408.5 L 237.5 409 L 237.5 408 Z " /><path fill="currentColor" stroke="currentColor" stroke-width="1" opacity="0.8" d="M 270.5 408 L 275 408.5 L 270.5 409 L 270.5 408 Z " /><path fill="currentColor" stroke="currentColor" stroke-width="1" opacity="0.8" d="M 252.5 409 L 260 409.5 L 252.5 410 L 252.5 409 Z " /><path fill="currentColor" stroke="currentColor" stroke-width="1" opacity="0.8" d="M 113.5 461 L 116 461.5 L 113.5 462 L 113.5 461 Z " /><path fill="currentColor" stroke="currentColor" stroke-width="1" opacity="0.8" d="M 396.5 461 L 399 461.5 L 396.5 462 L 396.5 461 Z " /><path fill="currentColor" stroke="currentColor" stroke-width="1" opacity="0.8" d="M 103.5 466 L 99.5 471 L 103.5 466 Z " /><path fill="currentColor" stroke="currentColor" stroke-width="1" opacity="0.8" d="M 408.5 466 L 412.5 471 L 408.5 466 Z " /><path fill="currentColor" stroke="currentColor" stroke-width="1" opacity="0.8" d="M 94.5 481 L 95 483.5 L 94 483.5 L 94.5 481 Z " /><path fill="currentColor" stroke="currentColor" stroke-width="1" opacity="0.8" d="M 417.5 481 L 418 483.5 L 417 483.5 L 417.5 481 Z " /><path fill="currentColor" stroke="currentColor" stroke-width="1" opacity="0.8" d="M 94.5 489 L 95 491.5 L 94 491.5 L 94.5 489 Z " /><path fill="currentColor" stroke="currentColor" stroke-width="1" opacity="0.8" d="M 417.5 489 L 418 491.5 L 417 491.5 L 417.5 489 Z " /><path fill="currentColor" stroke="currentColor" stroke-width="1" opacity="0.8" d="M 97.5 499 L 98.5 501 L 97.5 499 Z " /><path fill="currentColor" stroke="currentColor" stroke-width="1" opacity="0.8" d="M 414.5 499 L 413.5 501 L 414.5 499 Z " /><path fill="currentColor" stroke="currentColor" stroke-width="1" opacity="0.8" d="M 100.5 503 L 102.5 506 L 100.5 503 Z " /><path fill="currentColor" stroke="currentColor" stroke-width="1" opacity="0.8" d="M 411.5 503 L 409.5 506 L 411.5 503 Z " /><path fill="currentColor" stroke="currentColor" stroke-width="1" opacity="0.8" d="M 107.5 508 L 108.5 510 L 107.5 508 Z " /><path fill="currentColor" stroke="currentColor" stroke-width="1" opacity="0.8" d="M 404.5 508 L 403.5 510 L 404.5 508 Z " /><path fill="currentColor" stroke="currentColor" stroke-width="1" opacity="0.8" d="M 114.5 511 L 118 511.5 L 114.5 512 L 114.5 511 Z " /><path fill="currentColor" stroke="currentColor" stroke-width="1" opacity="0.8" d="M 394.5 511 L 398 511.5 L 394.5 512 L 394.5 511 Z " /><path fill="currentColor" stroke="currentColor" stroke-width="1" opacity="1" d="M 118.5 0 L 129.5 2 L 140 10.5 L 143 15.5 L 145 24.5 L 145 260.5 L 151 285.5 L 160 304.5 Q 170.3 321.8 185.5 334 Q 202.2 347.8 225.5 355 L 240.5 358 L 261.5 359 L 262.5 358 L 278.5 357 Q 282.5 354 289.5 354 L 308.5 346 Q 328.3 335.3 342 318.5 Q 352.2 306.2 359 290.5 L 363 279.5 L 367 260.5 L 367 24.5 L 369 15.5 L 377.5 5 L 382.5 2 L 393.5 0 L 402.5 2 L 413 10.5 L 416 15.5 L 418 23.5 L 418 251.5 L 417 252.5 L 417 266.5 L 415 273.5 L 415 279.5 L 404 313.5 Q 390.8 342.3 369.5 363 Q 345.5 387 310.5 400 L 289.5 406 L 278.5 407 L 277.5 408 Q 271.3 406.3 269.5 409 L 242.5 409 L 210.5 403 L 182.5 392 Q 157.4 379.1 139 359.5 Q 119.4 339.1 107 311.5 L 100 291.5 L 95 266.5 L 95 252.5 L 94 251.5 L 94 23.5 L 97 13.5 L 104.5 5 L 109.5 2 L 118.5 0 Z " /><path fill="currentColor" stroke="currentColor" stroke-width="1" opacity="1" d="M 116.5 461 L 395.5 461 Q 408.3 463.3 414 472.5 Q 418 478.5 418 488.5 L 415 498.5 L 407.5 507 L 402.5 510 L 393.5 512 L 118.5 512 L 109.5 510 L 99 501.5 Q 93.9 495.6 94 484.5 L 98 472.5 L 105.5 465 L 116.5 461 Z " /></svg>