<svg width="83" height="83" viewBox="0 0 83 83" fill="none" xmlns="http://www.w3.org/2000/svg">
<path d="M32.1824 25.3092V58.3535H26.2034V31.1056H26.0209L18.3075 36.0349V30.6036L26.4773 25.3092H32.1824ZM51.9452 24.8527C58.4262 24.8984 64.816 28.7323 64.8617 40.8272C64.8617 52.2376 59.7042 58.8099 51.58 58.8099C45.1902 58.8099 40.8087 54.8391 40.0784 49.3622H45.9661C46.5595 51.9637 48.5677 53.6525 51.58 53.6525C56.3724 53.6525 59.0652 49.4078 59.1109 42.3334H58.7457C57.057 45.2088 53.9077 46.8975 50.2564 46.8975C44.3687 46.8975 39.8046 42.4247 39.7589 36.1718C39.7589 29.6907 44.5969 24.8071 51.9452 24.8527ZM51.9908 29.6451C48.2938 29.6451 45.5097 32.5205 45.5554 36.0349C45.5554 39.5949 48.2026 42.379 51.8995 42.379C55.5508 42.379 58.4262 39.4123 58.3806 35.9892C58.3806 32.6118 55.6878 29.6451 51.9908 29.6451Z" fill="#1C1C1C"/>
<circle cx="41.3954" cy="41.3954" r="38.3909" stroke="#E41616" stroke-width="6.00901"/>
</svg>
