<svg width="8" height="8" viewBox="0 0 8 8" fill="none" xmlns="http://www.w3.org/2000/svg">
<path d="M2.42134 1.17627L2.26776 1.63702H1.16461C0.643314 1.63702 0.219482 2.06086 0.219482 2.58215V6.36267C0.219482 6.88397 0.643314 7.3078 1.16461 7.3078H6.83539C7.35669 7.3078 7.78052 6.88397 7.78052 6.36267V2.58215C7.78052 2.06086 7.35669 1.63702 6.83539 1.63702H5.73224L5.57866 1.17627C5.48267 0.886828 5.21242 0.691895 4.90673 0.691895H3.09327C2.78758 0.691895 2.51733 0.886828 2.42134 1.17627ZM4 3.05472C4.376 3.05472 4.73659 3.20408 5.00246 3.46995C5.26833 3.73582 5.41769 4.09642 5.41769 4.47241C5.41769 4.84841 5.26833 5.209 5.00246 5.47487C4.73659 5.74074 4.376 5.89011 4 5.89011C3.624 5.89011 3.26341 5.74074 2.99754 5.47487C2.73167 5.209 2.58231 4.84841 2.58231 4.47241C2.58231 4.09642 2.73167 3.73582 2.99754 3.46995C3.26341 3.20408 3.624 3.05472 4 3.05472Z" fill="white"/>
</svg>
