<svg width="500" height="478" viewBox="0 0 500 478" fill="none" xmlns="http://www.w3.org/2000/svg">
<path d="M250.008 0C258.187 0 265.73 4.63492 269.456 11.9054L336.254 142.956L481.572 166.039C489.661 167.312 496.386 173.037 498.931 180.853C501.475 188.669 499.385 197.211 493.659 203.028L389.601 307.086L412.594 452.405C413.866 460.493 410.503 468.672 403.869 473.489C397.235 478.306 388.419 479.033 381.149 475.307L250.008 408.6L118.867 475.307C111.596 479.033 102.781 478.306 96.1466 473.489C89.5123 468.672 86.1497 460.584 87.4221 452.405L110.324 307.086L6.35637 203.028C0.539995 197.211 -1.45938 188.669 1.08528 180.853C3.62994 173.037 10.2642 167.312 18.4435 166.039L163.762 142.956L230.65 11.9054C234.376 4.63492 241.92 0 250.099 0H250.008ZM250.008 69.7965L197.479 172.674C194.298 178.853 188.391 183.216 181.484 184.306L67.4283 202.483L149.039 284.184C153.947 289.092 156.219 296.09 155.128 302.997L137.134 417.052L240.102 364.705C246.282 361.524 253.643 361.524 259.914 364.705L362.882 417.052L344.887 302.997C343.797 296.09 346.069 289.092 350.977 284.184L432.588 202.483L318.532 184.306C311.625 183.216 305.718 178.853 302.537 172.674L250.008 69.7965Z" fill="#EBEBEB"/>
</svg>
