<svg width="18" height="14" viewBox="0 0 18 14" fill="none" xmlns="http://www.w3.org/2000/svg">
<path d="M0.961914 0.5C7.21523 5.57063 10.7189 8.41648 16.9619 13.5" stroke="#8B8B8B" stroke-linecap="round"/>
<path fill-rule="evenodd" clip-rule="evenodd" d="M3.07742 3.59543C2.13278 4.59863 1.45889 5.75756 1.03619 6.8143L0.961914 7L1.03619 7.1857C2.0755 9.78395 4.63338 13 9.00043 13C10.6763 13 12.0857 12.5264 13.2451 11.7959C12.9631 11.568 12.6864 11.3445 12.4141 11.1246C11.453 11.6639 10.3177 12 9.00043 12C5.30639 12 3.04363 9.35716 2.04129 7C2.44187 6.05796 3.04377 5.07029 3.85789 4.22393C3.6016 4.01752 3.34166 3.8082 3.07742 3.59543ZM6.14779 6.06872C6.05214 6.36189 6.00043 6.6749 6.00043 7C6.00043 8.65685 7.34358 10 9.00043 10C9.55259 10 10.0699 9.85083 10.5143 9.59058C10.2228 9.3553 9.93483 9.12287 9.64924 8.89241C9.44579 8.96215 9.22753 9 9.00043 9C7.89586 9 7.00043 8.10457 7.00043 7C7.00043 6.92112 7.005 6.84332 7.01388 6.76683C6.72671 6.53532 6.4384 6.30293 6.14779 6.06872ZM7.40316 5.79618C7.14499 5.58806 6.88564 5.37903 6.62427 5.1684C7.17288 4.45774 8.0332 4 9.00043 4C10.6573 4 12.0004 5.34315 12.0004 7C12.0004 7.73713 11.7346 8.41216 11.2935 8.93445C11.0313 8.72281 10.7721 8.51358 10.5151 8.30613C10.8175 7.95571 11.0004 7.49922 11.0004 7C11.0004 5.89543 10.105 5 9.00043 5C8.34782 5 7.76822 5.31257 7.40316 5.79618ZM13.2881 10.5451C14.5476 9.57194 15.4297 8.24606 15.9596 7C14.9572 4.64283 12.6945 2 9.00043 2C7.20237 2 5.74341 2.62615 4.60385 3.54072C4.34269 3.33038 4.07783 3.11709 3.80855 2.90026C5.11909 1.78859 6.83795 1 9.00043 1C13.3675 1 15.9254 4.21605 16.9647 6.8143L17.0389 7L16.9647 7.1857C16.4261 8.53207 15.4798 10.0443 14.0853 11.189C13.8149 10.9706 13.5494 10.7561 13.2881 10.5451Z" fill="#8B8B8B"/>
</svg>
