<svg width="14" height="14" viewBox="0 0 14 14" fill="none" xmlns="http://www.w3.org/2000/svg">
<path d="M9.91739 0.527832L8.59395 1.85127L12.1486 5.40596L13.4721 4.08252C14.1557 3.39893 14.1557 2.2915 13.4721 1.60791L12.3947 0.527832C11.7111 -0.155762 10.6037 -0.155762 9.92012 0.527832H9.91739ZM7.97598 2.46924L1.60215 8.8458C1.31778 9.13018 1.10997 9.48291 0.995123 9.86846L0.0271542 13.1579C-0.0412051 13.3903 0.0216855 13.6392 0.191217 13.8087C0.360748 13.9782 0.609576 14.0411 0.839264 13.9755L4.12872 13.0075C4.51426 12.8927 4.867 12.6849 5.15137 12.4005L11.5307 6.02393L7.97598 2.46924Z" fill="#8B8B8B"/>
</svg>
