<svg width="500" height="478" viewBox="0 0 500 478" fill="none" xmlns="http://www.w3.org/2000/svg">
<path d="M269.531 11.9054C265.805 4.63492 258.262 0 250.083 0C241.904 0 234.361 4.63492 230.634 11.9054L163.746 142.956L18.4277 166.039C10.3393 167.312 3.61412 173.037 1.06946 180.853C-1.47521 188.669 0.615057 197.211 6.34055 203.028L110.308 307.086L87.4063 452.405C86.1339 460.493 89.4965 468.672 96.1308 473.489C102.765 478.306 111.49 479.033 118.851 475.307L250.083 408.6L381.224 475.307C388.494 479.033 397.31 478.306 403.944 473.489C410.579 468.672 413.941 460.584 412.669 452.405L389.676 307.086L493.644 203.028C499.46 197.211 501.459 188.669 498.915 180.853C496.37 173.037 489.736 167.312 481.556 166.039L336.329 142.956L269.531 11.9054Z" fill="#FFC507"/>
</svg>
