<svg width="13" height="10" viewBox="0 0 13 10" fill="none" xmlns="http://www.w3.org/2000/svg">
<path d="M1.90378 0.649577C2.07096 0.315214 2.41271 0.104004 2.78654 0.104004H9.4622C9.83603 0.104004 10.1778 0.315213 10.345 0.649576L11.9419 3.84341C12.0104 3.98046 12.0545 4.13367 12.0187 4.28264C12.0067 4.33265 11.9907 4.38175 11.9709 4.42949C11.9213 4.54924 11.8486 4.65804 11.757 4.74968C11.6654 4.84133 11.5566 4.91403 11.4368 4.96363C11.3171 5.01323 11.1887 5.03875 11.0591 5.03875C10.9295 5.03875 10.8012 5.01323 10.6814 4.96363C10.5617 4.91403 10.4529 4.84133 10.3612 4.74968C10.2696 4.65804 10.1969 4.54924 10.1473 4.42949C10.0977 4.30975 10.0722 4.18141 10.0722 4.0518C10.0722 4.18141 10.0466 4.30975 9.99704 4.42949C9.94744 4.54924 9.87475 4.65804 9.7831 4.74968C9.69145 4.84133 9.58265 4.91403 9.46291 4.96363C9.34317 5.01323 9.21483 5.03875 9.08522 5.03875C8.95561 5.03875 8.82727 5.01323 8.70753 4.96363C8.58779 4.91403 8.47899 4.84133 8.38734 4.74968C8.29569 4.65804 8.223 4.54924 8.1734 4.42949C8.1238 4.30975 8.09827 4.18141 8.09827 4.0518C8.09827 4.18141 8.07274 4.30975 8.02314 4.42949C7.97354 4.54924 7.90085 4.65804 7.8092 4.74968C7.71755 4.84133 7.60875 4.91403 7.48901 4.96363C7.36927 5.01323 7.24093 5.03875 7.11132 5.03875C6.98171 5.03875 6.85337 5.01323 6.73363 4.96363C6.61389 4.91403 6.50509 4.84133 6.41344 4.74968C6.32179 4.65804 6.24909 4.54924 6.1995 4.42949C6.1499 4.30975 6.12437 4.18141 6.12437 4.0518C6.12437 4.18141 6.09884 4.30975 6.04924 4.42949C5.99964 4.54924 5.92694 4.65804 5.8353 4.74968C5.74365 4.84133 5.63485 4.91403 5.51511 4.96363C5.39537 5.01323 5.26703 5.03875 5.13742 5.03875C5.00781 5.03875 4.87947 5.01323 4.75973 4.96363C4.63999 4.91403 4.53119 4.84133 4.43954 4.74968C4.34789 4.65804 4.27519 4.54924 4.2256 4.42949C4.176 4.30975 4.15047 4.18141 4.15047 4.0518C4.15047 4.18141 4.12494 4.30975 4.07534 4.42949C4.02574 4.54924 3.95304 4.65804 3.8614 4.74968C3.76975 4.84133 3.66095 4.91403 3.54121 4.96363C3.42147 5.01323 3.29313 5.03875 3.16352 5.03875C3.03391 5.03875 2.90557 5.01323 2.78583 4.96363C2.66609 4.91403 2.55729 4.84133 2.46564 4.74968C2.37399 4.65804 2.30129 4.54924 2.2517 4.42949C2.2021 4.30975 2.17657 4.18141 2.17657 4.0518C2.17657 4.18141 2.15104 4.30975 2.10144 4.42949C2.05184 4.54924 1.97914 4.65804 1.8875 4.74968C1.79585 4.84133 1.68705 4.91403 1.56731 4.96363C1.44756 5.01323 1.31923 5.03875 1.18962 5.03875C1.06001 5.03875 0.931671 5.01323 0.811928 4.96363C0.692186 4.91403 0.583385 4.84133 0.491739 4.74968C0.400092 4.65804 0.327394 4.54924 0.277795 4.42949C0.25802 4.38175 0.242071 4.33265 0.230041 4.28264C0.194206 4.13367 0.238341 3.98046 0.306863 3.84341L1.90378 0.649577Z" fill="var(--main-color)"/>
<path fill-rule="evenodd" clip-rule="evenodd" d="M10.7435 2.96533H1.50269V8.74081C1.50269 9.37876 2.01984 9.89591 2.65778 9.89591H9.58836C10.2263 9.89591 10.7435 9.37875 10.7435 8.74081V2.96533ZM5.9027 5.43764H3.40737V7.51709H5.9027V5.43764Z" fill="var(--main-color)"/>
</svg>
