<svg width="11" height="12" viewBox="0 0 11 12" fill="none" xmlns="http://www.w3.org/2000/svg">
<path fill-rule="evenodd" clip-rule="evenodd" d="M4.08028 0.9178C4.12046 0.676706 4.32905 0.5 4.57347 0.5H5.72635C5.97077 0.5 6.17936 0.676707 6.21954 0.917801L6.43838 2.23079C6.92607 2.40448 7.37014 2.67014 7.7497 3.0069L9.01636 2.53236C9.24525 2.44661 9.50258 2.53891 9.62479 2.75058L10.2012 3.749C10.3234 3.96067 10.2747 4.22967 10.086 4.38502L9.02715 5.2567C9.0724 5.49755 9.09608 5.74601 9.09608 6C9.09608 6.25386 9.07243 6.5022 9.02721 6.74293L10.086 7.61456C10.2747 7.76991 10.3234 8.03891 10.2012 8.25058L9.62479 9.249C9.50258 9.46067 9.24525 9.55297 9.01636 9.46722L7.75003 8.99281C7.3704 9.3297 6.92622 9.59547 6.43838 9.76921L6.21954 11.0822C6.17936 11.3233 5.97077 11.5 5.72635 11.5H4.57347C4.32905 11.5 4.12046 11.3233 4.08028 11.0822L3.8679 9.80791C3.34903 9.64069 2.87645 9.37035 2.4743 9.02106L1.28337 9.46722C1.05449 9.55297 0.797155 9.46067 0.674946 9.249L0.0985092 8.25058C-0.0237006 8.03891 0.0250342 7.76991 0.213737 7.61456L1.18002 6.81909C1.125 6.55469 1.09608 6.28072 1.09608 6C1.09608 5.71915 1.12502 5.44506 1.18009 5.18055L0.213736 4.38502C0.0250341 4.22967 -0.0237006 3.96067 0.0985092 3.749L0.674946 2.75058C0.797155 2.53891 1.05449 2.44661 1.28337 2.53236L2.47464 2.97865C2.87672 2.62949 3.34917 2.35927 3.8679 2.19209L4.08028 0.9178ZM5.09608 8C6.20065 8 7.09608 7.10457 7.09608 6C7.09608 4.89543 6.20065 4 5.09608 4C3.99151 4 3.09608 4.89543 3.09608 6C3.09608 7.10457 3.99151 8 5.09608 8Z" fill="#8B8B8B"/>
</svg>
