<svg width="47" height="47" viewBox="0 0 47 47" fill="none" xmlns="http://www.w3.org/2000/svg">
<path d="M31.6816 23.1648C32.2087 22.6382 33.0632 22.638 33.5903 23.1648C34.1175 23.692 34.1175 24.5478 33.5903 25.075L22.5908 36.0745C22.3376 36.3277 21.9937 36.47 21.6357 36.47C21.2777 36.47 20.9338 36.3276 20.6806 36.0745L14.395 29.7888L14.3027 29.6863C13.8704 29.1562 13.9012 28.3744 14.395 27.8801C14.8892 27.3859 15.6723 27.3539 16.2026 27.7864L16.3051 27.8801L21.6357 33.2107L31.6816 23.1648Z" fill="var(--main-color)"/>
<path d="M37.293 13.9092H9.55119C6.99155 13.9092 4.82909 15.808 4.49803 18.3461L1.75065 39.4096C1.35279 42.4599 3.72766 45.1647 6.80381 45.1647H40.0404C43.1165 45.1647 45.4914 42.4599 45.0935 39.4096L42.3462 18.3461C42.0151 15.808 39.8526 13.9092 37.293 13.9092Z" stroke="var(--main-color)" stroke-width="3"/>
<path d="M15.9478 14.5893V8.30259C15.9478 6.49444 16.9059 4.82169 18.4656 3.90691L20.8436 2.51213C22.4356 1.57842 24.408 1.57842 25.9999 2.51213L28.378 3.90691C29.9377 4.82169 30.8958 6.49444 30.8958 8.30259V14.5893" stroke="var(--main-color)" stroke-width="3"/>
</svg>
