<svg width="17" height="16" viewBox="0 0 17 16" fill="none" xmlns="http://www.w3.org/2000/svg">
<path d="M15.387 15.2374H10.9756C9.81144 15.2595 8.67067 14.9089 7.71989 14.2367C6.76911 13.5645 6.05811 12.606 5.69071 11.5011C5.67322 11.4527 5.66569 11.4014 5.66857 11.3501C5.67144 11.2988 5.68466 11.2486 5.70744 11.2025C5.73022 11.1565 5.76208 11.1155 5.80111 11.0821C5.84013 11.0486 5.88552 11.0234 5.93453 11.008C5.98354 10.9926 6.03517 10.9872 6.08631 10.9923C6.13744 10.9973 6.18703 11.0127 6.23209 11.0374C6.27714 11.0621 6.31673 11.0956 6.34848 11.136C6.38022 11.1765 6.40346 11.2229 6.41681 11.2725C6.7441 12.2175 7.36061 13.0354 8.17888 13.6103C8.99715 14.1852 9.97566 14.4879 10.9756 14.4755H15.0328L14.2385 13.8397C14.195 13.805 14.1598 13.7612 14.1351 13.7114C14.1104 13.6616 14.0969 13.607 14.0955 13.5514C14.0942 13.4958 14.105 13.4406 14.1273 13.3896C14.1495 13.3387 14.1827 13.2932 14.2244 13.2565C14.698 12.8494 15.0784 12.345 15.3395 11.7777C15.6006 11.2104 15.7364 10.5934 15.7375 9.96887C15.717 8.95535 15.3596 7.97752 14.7216 7.18969C14.0837 6.40185 13.2016 5.84888 12.2145 5.61804C12.166 5.60554 12.1205 5.58361 12.0805 5.5535C12.0405 5.52339 12.0068 5.4857 11.9814 5.44258C11.9559 5.39946 11.9392 5.35175 11.9322 5.30218C11.9252 5.25261 11.9281 5.20214 11.9406 5.15367C11.9531 5.10519 11.975 5.05965 12.0051 5.01965C12.0352 4.97965 12.0729 4.94597 12.116 4.92054C12.1592 4.8951 12.2069 4.87841 12.2564 4.87142C12.306 4.86442 12.3565 4.86726 12.405 4.87976C13.5558 5.1527 14.5829 5.80109 15.3244 6.72261C16.0658 7.64413 16.4792 8.7863 16.4994 9.96887C16.4917 11.2935 15.9731 12.5641 15.0518 13.5159L15.7836 14.1018C15.8866 14.1843 15.9616 14.2967 15.998 14.4235C16.0345 14.5503 16.0307 14.6854 15.9872 14.8099C15.9437 14.9345 15.8626 15.0426 15.7551 15.1191C15.6476 15.1957 15.519 15.237 15.387 15.2374Z" fill="var(--main-color)" stroke="var(--main-color)" stroke-width="0.4" stroke-linejoin="round"/>
<path d="M4.61426 12.8692C4.44809 12.8687 4.28366 12.8353 4.13045 12.7709C3.90222 12.6786 3.70727 12.5194 3.57127 12.3142C3.43528 12.109 3.3646 11.8674 3.36855 11.6212L3.37274 10.8593C3.37274 10.8088 3.35268 10.7604 3.31696 10.7246C3.28123 10.6889 3.23279 10.6688 3.18227 10.6688H2.0238C1.61966 10.6688 1.23208 10.5083 0.946311 10.2225C0.660543 9.93676 0.5 9.54918 0.5 9.14504V2.28527C0.5 1.88114 0.660543 1.49355 0.946311 1.20779C1.23208 0.922017 1.61966 0.761475 2.0238 0.761475H11.1666C11.5707 0.761475 11.9583 0.922017 12.2441 1.20779C12.5299 1.49355 12.6904 1.88114 12.6904 2.28527V9.14237C12.6904 9.54651 12.5299 9.9341 12.2441 10.2199C11.9583 10.5056 11.5707 10.6662 11.1666 10.6662H7.39139C7.34097 10.6662 7.29261 10.6862 7.25691 10.7218L5.48359 12.5016C5.3704 12.6176 5.23521 12.7098 5.08595 12.7729C4.93668 12.8361 4.77632 12.8688 4.61426 12.8692ZM2.0238 1.52337C1.82173 1.52337 1.62794 1.60365 1.48506 1.74653C1.34217 1.88941 1.2619 2.08321 1.2619 2.28527V9.14237C1.2619 9.34444 1.34217 9.53823 1.48506 9.68112C1.62794 9.824 1.82173 9.90427 2.0238 9.90427H3.18227C3.30779 9.90427 3.43207 9.92908 3.54796 9.97728C3.66386 10.0255 3.76909 10.0961 3.85759 10.1851C3.9461 10.2741 4.01614 10.3797 4.06369 10.4959C4.11123 10.612 4.13535 10.7365 4.13464 10.862L4.13045 11.6239C4.12998 11.7183 4.1576 11.8108 4.20979 11.8895C4.26199 11.9682 4.33641 12.0296 4.42359 12.0659C4.51077 12.1022 4.60677 12.1117 4.6994 12.0933C4.79203 12.0749 4.87709 12.0294 4.94378 11.9625L6.71672 10.1827C6.8962 10.0048 7.13861 9.9047 7.39139 9.90427H11.1666C11.3687 9.90427 11.5625 9.824 11.7053 9.68112C11.8482 9.53823 11.9285 9.34444 11.9285 9.14237V2.28527C11.9285 2.08321 11.8482 1.88941 11.7053 1.74653C11.5625 1.60365 11.3687 1.52337 11.1666 1.52337H2.0238Z" fill="var(--main-color)" stroke="var(--main-color)" stroke-width="0.4" stroke-linejoin="round"/>
<path d="M6.59588 6.4757C7.01667 6.4757 7.35778 6.13459 7.35778 5.7138C7.35778 5.29302 7.01667 4.9519 6.59588 4.9519C6.1751 4.9519 5.83398 5.29302 5.83398 5.7138C5.83398 6.13459 6.1751 6.4757 6.59588 6.4757Z" fill="var(--main-color)" stroke="var(--main-color)" stroke-width="0.4" stroke-linejoin="round"/>
<path d="M4.31073 6.4757C4.73151 6.4757 5.07263 6.13459 5.07263 5.7138C5.07263 5.29302 4.73151 4.9519 4.31073 4.9519C3.88994 4.9519 3.54883 5.29302 3.54883 5.7138C3.54883 6.13459 3.88994 6.4757 4.31073 6.4757Z" fill="var(--main-color)"  stroke="var(--main-color)" stroke-width="0.4" stroke-linejoin="round"/>
<path d="M8.88104 6.4757C9.30183 6.4757 9.64294 6.13459 9.64294 5.7138C9.64294 5.29302 9.30183 4.9519 8.88104 4.9519C8.46025 4.9519 8.11914 5.29302 8.11914 5.7138C8.11914 6.13459 8.46025 6.4757 8.88104 6.4757Z" fill="var(--main-color)" stroke="var(--main-color)" stroke-width="0.4" stroke-linejoin="round"/>
</svg>
