<svg width="50" height="50" viewBox="0 0 50 50" fill="none" xmlns="http://www.w3.org/2000/svg">
<circle cx="25" cy="25" r="25" fill="var(--main-color)"/>
<mask id="mask0_2332_4985" style="mask-type:alpha" maskUnits="userSpaceOnUse" x="8" y="8" width="35" height="35">
<rect x="8" y="8.33337" width="34.0067" height="34.0067" fill="#D9D9D9"/>
</mask>
<g mask="url(#mask0_2332_4985)">
<path d="M29.419 40.5489C29.8062 40.5477 30.1894 40.4698 30.5464 40.3199C31.0783 40.1048 31.5326 39.7337 31.8495 39.2555C32.1664 38.7773 32.3311 38.2143 32.3219 37.6406L32.3121 35.8652C32.3121 35.7474 32.3589 35.6345 32.4421 35.5513C32.5254 35.4681 32.6383 35.4213 32.756 35.4213H35.4556C36.3974 35.4213 37.3006 35.0472 37.9665 34.3812C38.6325 33.7153 39.0066 32.8121 39.0066 31.8703V15.8847C39.0066 14.9429 38.6325 14.0397 37.9665 13.3738C37.3006 12.7079 36.3974 12.3337 35.4556 12.3337H14.1498C13.208 12.3337 12.3048 12.7079 11.6389 13.3738C10.9729 14.0397 10.5988 14.9429 10.5988 15.8847V31.8641C10.5988 32.8059 10.9729 33.7091 11.6389 34.375C12.3048 35.041 13.208 35.4151 14.1498 35.4151H22.9473C23.0648 35.4151 23.1775 35.4617 23.2607 35.5447L27.3931 39.6922C27.6569 39.9625 27.9719 40.1775 28.3198 40.3246C28.6676 40.4717 29.0413 40.5479 29.419 40.5489ZM35.4556 14.1092C35.9265 14.1092 36.3781 14.2963 36.7111 14.6293C37.044 14.9622 37.2311 15.4138 37.2311 15.8847V31.8641C37.2311 32.335 37.044 32.7866 36.7111 33.1196C36.3781 33.4525 35.9265 33.6396 35.4556 33.6396H32.756C32.4635 33.6396 32.1739 33.6974 31.9038 33.8097C31.6337 33.922 31.3885 34.0866 31.1823 34.294C30.976 34.5014 30.8128 34.7475 30.702 35.0182C30.5912 35.2889 30.535 35.5789 30.5366 35.8714L30.5464 37.6469C30.5475 37.8669 30.4831 38.0823 30.3615 38.2657C30.2399 38.4491 30.0664 38.5922 29.8633 38.6768C29.6601 38.7614 29.4364 38.7837 29.2206 38.7408C29.0047 38.698 28.8065 38.5919 28.6511 38.4361L24.5195 34.2885C24.1013 33.8737 23.5364 33.6406 22.9473 33.6396H14.1498C13.6789 33.6396 13.2273 33.4525 12.8943 33.1196C12.5613 32.7866 12.3743 32.335 12.3743 31.8641V15.8847C12.3743 15.4138 12.5613 14.9622 12.8943 14.6293C13.2273 14.2963 13.6789 14.1092 14.1498 14.1092H35.4556Z" fill="white"/>
<path d="M26.9079 26.4012C26.8303 26.7859 26.7528 27.0167 26.5977 27.1706C26.5201 27.3245 26.2874 27.4014 26.0547 27.4784C25.7445 27.5553 25.4893 27.6427 24.6383 27.6468C23.7873 27.651 23.4512 27.5437 23.2185 27.4667C22.9858 27.3898 22.8748 27.3245 22.7197 27.1706C22.5646 27.0167 22.487 26.7089 22.4095 26.4012L22.2544 24.5546H19.0745C19.0745 25.5548 19.152 26.4012 19.3071 27.0937C19.4623 27.8631 19.6949 28.4786 20.1603 28.9403C20.5481 29.4019 21.1685 29.7097 21.8666 29.9405C22.5646 30.1713 23.5729 30.2483 24.6587 30.2483C25.8221 30.2483 26.7528 30.1713 27.4508 29.9405C28.1488 29.7097 28.7693 29.4019 29.1571 28.9403C29.5449 28.4786 29.8551 27.8631 30.0103 27.0937C30.1654 26.4012 30.2429 25.5548 30.2429 24.5546C29.0314 24.5546 27.1406 24.5546 27.1406 24.5546L26.9079 26.4012Z" fill="white"/>
<path d="M22.8334 20.8443C22.8334 21.8658 21.9879 22.7171 20.9732 22.7171C19.9586 22.7171 19.113 21.8658 19.113 20.8443C19.113 19.8227 19.9586 18.9714 20.9732 18.9714C21.9879 18.9714 22.8334 19.8227 22.8334 20.8443Z" fill="white"/>
<path d="M30.2611 20.8096C30.2611 21.8312 29.4156 22.6825 28.401 22.6825C27.3863 22.6825 26.5408 21.8312 26.5408 20.8096C26.5408 19.7881 27.3863 18.9368 28.401 18.9368C29.4156 18.9368 30.2611 19.7881 30.2611 20.8096Z" fill="white"/>
</g>
</svg>
