<svg version="1.1" xmlns="http://www.w3.org/2000/svg" width="77" height="54" viewBox="0 0 77 54">
<path d="M0 0 C0.99 0.495 0.99 0.495 2 1 C2.76227854 5.60563839 2.97700848 9.41264141 0.47024536 13.4854126 C-1.79744574 16.10275061 -4.17031177 18.53008791 -6.65234375 20.9453125 C-7.98538292 22.28914505 -7.98538292 22.28914505 -9.34535217 23.66012573 C-11.22683911 25.54403134 -13.11498244 27.41480422 -15.02270508 29.27148438 C-17.45655667 31.64270757 -19.84538391 34.05405209 -22.22360897 36.48091316 C-24.51100262 38.80395552 -26.83294044 41.09179666 -29.15234375 43.3828125 C-30.00271713 44.24826691 -30.85309052 45.11372131 -31.72923279 46.00540161 C-38.50713138 52.52218127 -38.50713138 52.52218127 -43.71875 52.86499023 C-48.34750829 52.36240112 -51.21054289 50.06800598 -54.34765625 46.77734375 C-54.88982285 46.23904434 -55.43198944 45.70074493 -55.99058533 45.14613342 C-57.12471832 44.00937457 -58.2478127 42.86150506 -59.36010742 41.70336914 C-61.06200354 39.93801498 -62.80275485 38.21951197 -64.55273438 36.50195312 C-65.65360759 35.38794651 -66.75200555 34.27148723 -67.84765625 33.15234375 C-68.36626724 32.64162827 -68.88487823 32.13091278 -69.41920471 31.60472107 C-72.1128468 28.74813307 -72.98028267 27.1891367 -73.39233398 23.23657227 C-73 20 -73 20 -71.875 18.0625 C-69.10135548 16.4907681 -67.14878507 16.67694848 -64 17 C-61.57470703 18.74414062 -61.57470703 18.74414062 -59.2578125 21.15625 C-58.41992188 22.01347656 -57.58203125 22.87070312 -56.71875 23.75390625 C-55.8628125 24.66011719 -55.006875 25.56632812 -54.125 26.5 C-53.24585937 27.40621094 -52.36671875 28.31242187 -51.4609375 29.24609375 C-49.29319755 31.48452087 -47.14066925 33.73572089 -45 36 C-41.91091571 34.63040368 -39.8670455 33.08679422 -37.53588867 30.65185547 C-36.87807907 29.97130096 -36.22026947 29.29074646 -35.54252625 28.58956909 C-34.84142227 27.85618317 -34.1403183 27.12279724 -33.41796875 26.3671875 C-31.9141642 24.8234851 -30.40958272 23.28053924 -28.90429688 21.73828125 C-26.53951192 19.30538302 -24.18052593 16.86771258 -21.8347168 14.41650391 C-19.56578834 12.0507672 -17.2753166 9.70775283 -14.98046875 7.3671875 C-14.28543747 6.62975311 -13.59040619 5.89231873 -12.87431335 5.13253784 C-8.68245076 0.89680012 -6.27288778 -1.04931868 0 0 Z " fill="#FF7B5B" transform="translate(75,2)"/>
</svg>
