<svg width="50" height="50" viewBox="0 0 50 50" fill="none" xmlns="http://www.w3.org/2000/svg">
<circle cx="25" cy="25" r="25" fill="currentColor"/>
<path d="M32.3664 22.6664C29.7033 22.6664 27.5332 20.4963 27.5332 17.8332C27.5332 15.1701 29.7033 13 32.3664 13C35.0295 13 37.1996 15.1701 37.1996 17.8332C37.1996 20.4963 35.0295 22.6664 32.3664 22.6664ZM32.3664 13.9666C30.235 13.9666 28.4998 15.7018 28.4998 17.8332C28.4998 19.9646 30.235 21.6997 32.3664 21.6997C34.4978 21.6997 36.233 19.9646 36.233 17.8332C36.233 15.7018 34.4978 13.9666 32.3664 13.9666Z" fill="white" stroke="white" stroke-width="0.2"/>
<path d="M31.6634 19.5357C31.5329 19.5357 31.412 19.4825 31.3202 19.3955L30.2859 18.3612C30.0974 18.1727 30.0974 17.8682 30.2859 17.6797C30.4744 17.4912 30.7789 17.4912 30.9674 17.6797L31.6585 18.3757L33.7561 16.2781C33.9446 16.0896 34.2491 16.0896 34.4376 16.2781C34.6261 16.4666 34.6261 16.7711 34.4376 16.9596L31.9969 19.4003C31.9147 19.4873 31.789 19.5357 31.6634 19.5357Z" fill="white" stroke="white" stroke-width="0.2"/>
<path d="M31.8828 36.2001H14.4833C14.2175 36.2001 14 35.9826 14 35.7168V23.6145C14 23.5613 14.0097 23.5033 14.029 23.4502L15.9188 18.153C15.9864 17.9596 16.1701 17.834 16.3731 17.834H28.0453C28.3111 17.834 28.5286 18.0515 28.5286 18.3173C28.5286 18.5831 28.3111 18.8006 28.0453 18.8006H16.7163L14.9666 23.6966V35.2335H31.3995V23.6966L30.8727 22.2177C30.7809 21.9664 30.9113 21.6909 31.1627 21.599C31.414 21.5072 31.6895 21.6425 31.7813 21.8939L32.3371 23.4502C32.3565 23.5033 32.3661 23.5565 32.3661 23.6145V35.7168C32.3661 35.9826 32.1486 36.2001 31.8828 36.2001Z" fill="white" stroke="white" stroke-width="0.2"/>
<path d="M31.8811 24.0975H25.4482C25.1823 24.0975 24.9648 23.88 24.9648 23.6142C24.9648 23.3484 25.1823 23.1309 25.4482 23.1309H31.8811C32.147 23.1309 32.3645 23.3484 32.3645 23.6142C32.3645 23.88 32.147 24.0975 31.8811 24.0975Z" fill="white" stroke="white" stroke-width="0.2"/>
<path d="M20.9163 24.0975H14.4833C14.2175 24.0975 14 23.88 14 23.6142C14 23.3484 14.2175 23.1309 14.4833 23.1309H20.9163C21.1821 23.1309 21.3996 23.3484 21.3996 23.6142C21.3996 23.88 21.187 24.0975 20.9163 24.0975Z" fill="white" stroke="white" stroke-width="0.2"/>
<path d="M25.4543 27.1245H20.9111C20.6452 27.1245 20.4277 26.907 20.4277 26.6412V23.6446C20.4277 23.6205 20.4277 23.5963 20.4326 23.5721L21.2349 18.2508C21.2735 17.9849 21.52 17.8061 21.7859 17.8448C22.0517 17.8835 22.2305 18.1299 22.1919 18.3958L21.3944 23.6785V26.1579H24.9661V23.6736L24.2315 18.3861C24.1928 18.1203 24.3813 17.8786 24.6423 17.84C24.9033 17.8061 25.1498 17.9898 25.1884 18.2508L25.9279 23.5721C25.9327 23.5963 25.9327 23.6156 25.9327 23.6398V26.6364C25.9376 26.907 25.7201 27.1245 25.4543 27.1245Z" fill="white" stroke="white" stroke-width="0.2"/>
</svg>
