<svg width="50" height="50" viewBox="0 0 50 50" fill="none" xmlns="http://www.w3.org/2000/svg">
<circle cx="25" cy="25" r="25" fill="currentColor"/>
<path d="M13.5825 13.8056L17.8101 14.9223V32.4803C17.8101 32.7735 18.0476 33.0112 18.341 33.0112H36.6567C36.9501 33.0112 37.1875 32.7735 37.1875 32.4803C37.1875 32.1872 36.9501 31.9495 36.6567 31.9495H18.8718V14.5135C18.8718 14.2725 18.7096 14.0617 18.4768 14.0003L13.8542 12.7792C13.5711 12.7051 13.2803 12.8733 13.2052 13.1569C13.1305 13.4404 13.2995 13.7307 13.5825 13.8056Z" fill="white" stroke="white" stroke-width="0.242043"/>
<path d="M18.5391 35.9495C18.5391 37.2129 19.5671 38.2409 20.8304 38.2409C22.0938 38.2409 23.1217 37.2129 23.1217 35.9495C23.1217 34.6862 22.0938 33.6582 20.8304 33.6582C19.5671 33.6582 18.5391 34.6862 18.5391 35.9495ZM22.0601 35.9495C22.0601 36.6276 21.5085 37.1792 20.8304 37.1792C20.1523 37.1792 19.6008 36.6276 19.6008 35.9495C19.6008 35.2715 20.1523 34.7199 20.8304 34.7199C21.5085 34.7199 22.0601 35.2715 22.0601 35.9495Z" fill="white" stroke="white" stroke-width="0.242043"/>
<path d="M31.1875 35.9495C31.1875 37.2129 32.2155 38.2409 33.4788 38.2409C34.7422 38.2409 35.7697 37.2129 35.7697 35.9495C35.7697 34.6862 34.7422 33.6582 33.4788 33.6582C32.2155 33.6582 31.1875 34.6862 31.1875 35.9495ZM34.708 35.9495C34.708 36.6276 34.1564 37.1792 33.4788 37.1792C32.8008 37.1792 32.2492 36.6276 32.2492 35.9495C32.2492 35.2715 32.8008 34.7199 33.4788 34.7199C34.1564 34.7199 34.708 35.2715 34.708 35.9495Z" fill="white" stroke="white" stroke-width="0.242043"/>
<path d="M22.2475 30.8861H33.8857C34.1791 30.8861 34.4165 30.6485 34.4165 30.3553V22.3486H34.993C35.2864 22.3486 35.5238 22.1109 35.5238 21.8177V19.79C35.5238 19.4968 35.2864 19.2591 34.993 19.2591H31.8851C31.9322 19.2224 31.9789 19.1854 32.0179 19.1464C32.4595 18.7047 32.7027 18.1179 32.7027 17.4937C32.7027 16.8696 32.4595 16.2825 32.0179 15.8411C31.5762 15.3994 30.9888 15.1562 30.3636 15.1562C30.3621 15.1562 30.361 15.1562 30.3595 15.1562C29.7348 15.1573 29.1495 15.4009 28.7125 15.8411C28.4464 16.1073 28.2342 16.574 28.0661 17.0949C27.8986 16.574 27.6869 16.1074 27.4207 15.8411C26.979 15.3994 26.3922 15.1562 25.768 15.1562C25.1438 15.1562 24.5565 15.3994 24.1153 15.8411C23.6737 16.2825 23.4305 16.8696 23.4305 17.4937C23.4305 18.1179 23.6737 18.705 24.1153 19.1464C24.1543 19.1854 24.2009 19.2224 24.248 19.2591H21.1402C20.8468 19.2591 20.6094 19.4968 20.6094 19.79V21.8177C20.6094 22.1109 20.8468 22.3486 21.1402 22.3486H21.7167V30.3553C21.7167 30.6485 21.9541 30.8861 22.2475 30.8861ZM33.3548 29.8245H22.7784V22.3486H33.3548V29.8245ZM29.4647 16.5904C29.7027 16.3506 30.021 16.2185 30.361 16.2179H30.3636C30.7053 16.2179 31.0262 16.3506 31.2672 16.5917C31.5083 16.833 31.641 17.1531 31.641 17.4937C31.641 17.8343 31.5083 18.1544 31.2672 18.3957C30.9505 18.7122 29.7177 19.0069 28.6845 19.1705C28.8499 18.1394 29.1464 16.9087 29.4647 16.5904ZM24.866 16.5917C25.107 16.3506 25.4274 16.2179 25.768 16.2179C26.1086 16.2179 26.429 16.3506 26.67 16.5917C26.9862 16.9082 27.2812 18.1391 27.4445 19.1705C26.4134 19.0069 25.1822 18.7122 24.866 18.3957C24.6249 18.1544 24.4922 17.8343 24.4922 17.4937C24.4922 17.1531 24.6249 16.833 24.866 16.5917ZM21.6711 20.3208H34.4621V21.2869H33.8857H22.2475H21.6711V20.3208Z" fill="white" stroke="white" stroke-width="0.242043"/>
</svg>
