<svg width="50" height="50" viewBox="0 0 50 50" fill="none" xmlns="http://www.w3.org/2000/svg">
<circle cx="25" cy="25" r="25" fill="currentColor"/>
<path d="M38.2676 25.3175C38.2676 25.2526 38.2351 25.2526 38.2351 25.2201L35.0188 18.6576C34.9214 18.4952 34.7589 18.3977 34.5965 18.3977H28.2939V16.5459C28.2939 16.286 28.0665 16.0586 27.8066 16.0586H13.2197C12.9598 16.0586 12.7324 16.286 12.7324 16.5459V20.0546V21.0292V23.0109V23.9855V25.9673V26.9419V31.5876C12.7324 31.8475 12.9598 32.0749 13.2197 32.0749H15.8187C15.8187 33.6993 17.1507 34.9988 18.7426 34.9988C20.367 34.9988 21.6665 33.6668 21.6665 32.0749H29.8533C29.8533 33.6993 31.1853 34.9988 32.7772 34.9988C34.4016 34.9988 35.7011 33.6668 35.7011 32.0749H37.7478C38.0077 32.0749 38.2351 31.8475 38.2351 31.5876V25.415C38.2676 25.3825 38.2676 25.35 38.2676 25.3175ZM37.0006 24.9277H32.3549V22.0038H35.5711L37.0006 24.9277ZM18.97 17.0332H22.0563V21.0942L20.7243 20.4119C20.6594 20.3794 20.5619 20.3469 20.4969 20.3469C20.432 20.3469 20.3345 20.3794 20.2695 20.4119L18.9375 21.0942V17.0332H18.97ZM18.7426 34.0567C17.6705 34.0567 16.7934 33.1795 16.7934 32.1074C16.7934 31.0353 17.6705 30.1582 18.7426 30.1582C19.8147 30.1582 20.6919 31.0353 20.6919 32.1074C20.6919 33.1795 19.8147 34.0567 18.7426 34.0567ZM18.7426 29.1511C17.4756 29.1511 16.371 29.9632 15.9812 31.1328H13.707V17.0332H17.9954V21.9063C17.9954 22.0688 18.0929 22.2312 18.2228 22.3287C18.3528 22.4261 18.5477 22.4261 18.7101 22.3287L20.5294 21.3865L22.3487 22.3287C22.4137 22.3612 22.5112 22.3937 22.5761 22.3937C22.6736 22.3937 22.7386 22.3612 22.836 22.3287C22.966 22.2312 23.0634 22.0688 23.0634 21.9063V17.0332H27.3518V18.885V31.1328H21.504C21.1142 29.9632 20.0096 29.1511 18.7426 29.1511ZM32.7772 34.0567C31.7051 34.0567 30.828 33.1795 30.828 32.1074C30.828 31.0353 31.7051 30.1582 32.7772 30.1582C33.8493 30.1582 34.7265 31.0353 34.7265 32.1074C34.7589 33.1795 33.8818 34.0567 32.7772 34.0567ZM35.5711 31.1328C35.1813 29.9957 34.0767 29.1511 32.8097 29.1511C31.5427 29.1511 30.4381 29.9632 30.0483 31.1328H28.3264V19.3723H34.3366L35.1488 21.0617H31.9C31.6401 21.0617 31.4127 21.2891 31.4127 21.549V25.4475C31.4127 25.7074 31.6401 25.9348 31.9 25.9348H37.293V31.1328H35.5711Z" fill="white" stroke="white" stroke-width="0.222045"/>
</svg>
