<svg width="34" height="31" viewBox="0 0 34 31" fill="none" xmlns="http://www.w3.org/2000/svg">
<path d="M4 6.7002L3.5 3.2002H23L23.5 6.7002H4Z" fill="var(--main-color)"/>
<path d="M8.5 2.7002H6L6.5 4.2002H8.5V2.7002Z" fill="white"/>
<path d="M14.5 2.7002H12L12.5 4.2002H14.5V2.7002Z" fill="white"/>
<path d="M20.5 2.7002H18L18.5 4.2002H20.5V2.7002Z" fill="white"/>
<path d="M19.5 28.7002L16 23.7002L14 26.2002L16.5 29.7002L19.5 28.7002Z" fill="var(--main-color)"/>
<path d="M26.5 27.2002L20.5 18.7002L18.5 21.2002L23 27.7002L26.5 27.2002Z" fill="var(--main-color)"/>
<circle cx="27" cy="10.2002" r="1" fill="var(--main-color)"/>
<circle cx="32" cy="26.2002" r="1" fill="var(--main-color)"/>
<path d="M21.1858 18.3209L26.6967 26.5662L28.0348 26.261C28.1763 26.2295 28.251 26.0699 28.1763 25.9396L22.9043 16.786C22.8317 16.6594 22.6551 16.6323 22.5511 16.7509L21.1858 18.3209ZM25.6297 26.8085L20.4925 19.1194L19.0049 20.8314L23.3462 27.3274L25.6297 26.8085ZM14.6424 25.8525L16.6466 28.8506L18.9294 28.3316L16.1293 24.1405L14.6424 25.8525ZM15.5796 29.0928L13.9491 26.6511L12.0708 28.811C11.703 29.2341 12.0855 29.8877 12.6425 29.7611L15.5796 29.0928ZM16.824 23.342L19.9979 28.0893L22.2806 27.5704L18.3109 21.63L16.824 23.342ZM32.0134 24.7715C33.3596 24.8813 33.9165 26.572 32.8774 27.4518C31.8448 28.3272 30.2597 27.5162 30.3704 26.1695C30.4363 25.3314 31.1735 24.7049 32.0134 24.7715ZM32.2706 25.9667C31.9863 25.633 31.4271 25.805 31.3919 26.2493C31.3546 26.6994 31.88 26.9585 32.2164 26.6723C32.4267 26.493 32.4494 26.1739 32.2706 25.9667ZM27.2661 8.67904C28.6145 8.78883 29.1693 10.4781 28.1301 11.3594C27.0997 12.2348 25.5124 11.4238 25.6231 10.077C25.692 9.23971 26.427 8.61097 27.2661 8.67904ZM27.5263 9.8721C27.2419 9.53834 26.6806 9.71034 26.6454 10.1561C26.608 10.6062 27.1335 10.8653 27.4698 10.5792C27.6794 10.4013 27.7029 10.0814 27.5263 9.8721ZM28.2092 20.3871C28.1719 20.6675 27.9125 20.8622 27.6318 20.8226C27.3533 20.7853 27.1584 20.5262 27.1957 20.2481C27.3518 19.1275 28.6372 18.5573 29.5723 19.2021C30.1938 18.7542 31.0328 18.831 31.5751 19.391C32.4707 18.8266 33.6043 19.2958 33.8726 20.2664C33.9451 20.5379 33.7854 20.8205 33.5135 20.8929C33.2416 20.9676 32.9609 20.808 32.8862 20.5357C32.7594 20.0731 32.1174 20.0505 31.943 20.4633C31.7356 20.9551 31.0438 20.8578 30.9625 20.3557C30.8877 19.8909 30.2582 19.7811 30.0296 20.1917C29.8427 20.5255 29.3503 20.5592 29.1341 20.1917C28.9098 19.8082 28.2759 19.9077 28.2092 20.3871ZM29.2315 23.402C28.9575 23.4723 28.679 23.3083 28.6086 23.0346C28.5383 22.763 28.7024 22.4827 28.9765 22.4124C30.5785 21.9952 32.2691 22.1943 33.7319 22.9789C33.9788 23.1136 34.0726 23.4232 33.9393 23.6721C33.8044 23.9209 33.4944 24.0146 33.2453 23.8792C32.017 23.219 30.5756 23.0492 29.2315 23.402ZM28.8556 17.5384C28.698 17.7705 28.38 17.8334 28.1455 17.6731C27.9132 17.5157 27.8524 17.1981 28.0107 16.9653C28.9289 15.6127 29.1971 13.9278 28.7457 12.3534C28.6687 12.0818 28.827 11.7993 29.0989 11.7202C29.3708 11.6434 29.6537 11.8015 29.7328 12.073C30.2619 13.9329 29.9417 15.9348 28.8556 17.5384ZM26.3295 17.5802C26.1947 17.9037 25.7814 17.993 25.5212 17.7668L25.8202 19.8023L29.0608 25.4309C29.4807 26.157 29.0777 27.072 28.2591 27.2586L12.8667 30.7573C11.3607 31.0998 10.2783 29.3153 11.2984 28.1428L16.0985 22.6174H0.510445C0.192397 22.6174 -0.0589642 22.337 0.0121204 21.9842L3.13032 2.88427C3.17209 2.61053 3.37508 2.42608 3.6411 2.42608V2.42388H5.5296L5.42994 1.57337C5.42994 0.353226 7.13743 -0.235985 8.31143 0.571344C8.67931 0.824595 8.93287 1.18764 8.98417 1.60045L9.08823 2.42388H11.4457L11.3461 1.57337C11.3461 0.353226 13.0514 -0.235985 14.2276 0.571344C14.5933 0.824595 14.849 1.18764 14.9003 1.60045L15.0044 2.42388H17.3597L17.26 1.57337C17.26 0.353226 18.9675 -0.235985 20.1415 0.571344C20.5094 0.824595 20.763 1.18764 20.8143 1.60045L20.9205 2.42388H22.8339C23.0684 2.42608 23.193 2.57539 23.1952 2.57539C23.2905 2.68958 23.3117 2.73496 23.3425 2.88866L25.4238 17.0971C25.9221 15.8645 25.958 14.4994 25.5234 13.2361C25.4318 12.9682 25.5733 12.6776 25.8415 12.5869C26.1097 12.4954 26.4021 12.6366 26.4937 12.9045C27.0169 14.4284 26.959 16.0987 26.3295 17.5802ZM16.9881 21.5927L21.7765 16.0819C22.3356 15.4407 23.3616 15.53 23.7917 16.2766L24.4315 17.3884L22.9549 7.30519H4.79824L6.88974 21.5919L16.9881 21.5927ZM13.3423 15.5154H17.123C17.3802 15.5154 17.5942 15.7042 17.6301 15.9509L18.1511 18.5712C18.2134 18.8889 17.9665 19.1809 17.6484 19.1809H13.8678C13.6105 19.1809 13.3965 18.9921 13.3606 18.7454L12.8396 16.1251C12.7773 15.8081 13.0243 15.5154 13.3423 15.5154ZM16.7031 16.5386H13.9674L14.2877 18.1569H17.0233L16.7031 16.5386ZM7.54635 15.5154H11.327C11.5842 15.5154 11.7968 15.7042 11.8341 15.9509L12.3537 18.5712C12.416 18.8889 12.1712 19.1809 11.851 19.1809H8.07033C7.81457 19.1809 7.60058 18.9921 7.56321 18.7454L7.04363 16.1251C6.98134 15.8081 7.22684 15.5154 7.54635 15.5154ZM10.9056 16.5386H8.16926L8.49097 18.1569H11.2266L10.9056 16.5386ZM18.2801 9.49076H22.0608C22.3202 9.49076 22.5364 9.68546 22.5694 9.93505L23.0281 12.5598C23.0824 12.8709 22.8369 13.1592 22.5232 13.1592H18.7425C18.4831 13.1592 18.2669 12.966 18.234 12.715L17.7752 10.0924C17.721 9.77915 17.9665 9.49222 18.2801 9.49076ZM21.6306 10.5155H18.8906L19.1734 12.1338H21.9135L21.6306 10.5155ZM12.4842 9.49076H16.2648C16.5243 9.49076 16.7382 9.68546 16.772 9.93505L17.2307 12.5598C17.2871 12.8709 17.0394 13.1592 16.7258 13.1592H12.9451C12.6857 13.1592 12.4717 12.966 12.438 12.715L11.9792 10.0924C11.9257 9.77915 12.1705 9.49222 12.4842 9.49076ZM15.8325 10.5155H13.0946L13.3775 12.1338H16.1175L15.8325 10.5155ZM6.68674 9.49076H10.4674C10.729 9.49076 10.943 9.68546 10.976 9.93505L11.4348 12.5598C11.489 12.8709 11.2435 13.1592 10.9298 13.1592H7.14916C6.88974 13.1592 6.67355 12.966 6.64057 12.715L6.18182 10.0924C6.12759 9.77915 6.37309 9.49222 6.68674 9.49076ZM10.0372 10.5155H7.29719L7.58006 12.1338H10.3201L10.0372 10.5155ZM17.6543 4.92199C17.0438 4.92199 16.9522 4.03635 17.548 3.90972L17.4909 3.4486H15.1333L15.1912 3.90094C15.4485 3.92802 15.65 4.14541 15.65 4.4089C15.65 4.6929 15.4192 4.92126 15.137 4.92126H11.8151C11.2435 4.92126 11.105 4.12637 11.6341 3.92948L11.574 3.44787H9.21867L9.2751 3.89581H9.40994C9.69428 3.89581 9.92292 4.12638 9.92292 4.40817C9.92292 4.69216 9.69428 4.92053 9.40994 4.92053H5.5274C5.24307 4.92053 5.01442 4.69216 5.01442 4.40817C5.01442 4.12638 5.24307 3.89581 5.5274 3.89581H5.71648L5.65858 3.44787H4.23322L4.64874 6.27974H22.8046L22.3891 3.44787H21.0495L21.1059 3.89801C21.3697 3.9185 21.5771 4.14101 21.5771 4.40817C21.5771 4.69216 21.3485 4.92053 21.0641 4.92053H17.6543V4.92199ZM19.5618 1.41307C19.0511 1.06248 18.2655 1.24473 18.2867 1.59972L18.4428 2.82791C18.4494 2.85719 18.4531 2.88574 18.4531 2.91721L18.5777 3.89655H20.0756L19.8015 1.72854C19.7883 1.61875 19.6967 1.50457 19.5618 1.41307ZM13.6457 1.41307C13.1371 1.06248 12.3493 1.24473 12.3706 1.59972L12.5267 2.82791C12.5333 2.85719 12.5369 2.88574 12.5391 2.91721L12.6615 3.89655H14.1616L13.8875 1.72854C13.8721 1.61875 13.7805 1.50457 13.6457 1.41307ZM7.72956 1.41307C7.22098 1.06248 6.43538 1.24473 6.4559 1.59972L6.6098 2.82791C6.61639 2.85719 6.62006 2.88574 6.62225 2.91721L6.74683 3.89655H8.24474L7.97066 1.72854C7.95601 1.61875 7.8644 1.50457 7.72956 1.41307ZM3.70119 6.89311L3.61179 6.2834L1.11283 21.5934H5.85498L3.70119 6.89311ZM3.14864 2.79058C3.15083 2.78473 3.15303 2.77595 3.15523 2.77009L3.14864 2.79058Z" fill="#8B8B8B"/>
</svg>
