<svg width="60" height="60" viewBox="0 0 60 60" fill="none" xmlns="http://www.w3.org/2000/svg">
<circle cx="30" cy="30.0039" r="30" fill="var(--icon-main-color)"/>
<circle cx="32.3735" cy="14.5668" r="3.80511" fill="var(--icon-main-empty-color)"/>
<path d="M33.6299 23.757C32.3948 21.3764 27.6941 22.2188 24.1775 23.265C23.8826 23.3527 23.9614 23.8327 24.2677 23.8612C26.3535 24.055 26.9935 24.8123 27.0382 25.2702C27.0402 25.2916 27.0381 25.3127 27.0338 25.3337L22.6805 46.4506C22.6751 46.4766 22.6738 46.5048 22.6765 46.5313C23.1095 50.6777 28.2283 49.2184 32.0854 47.7143C32.3507 47.6108 32.2832 47.2065 32.0004 47.1733C29.3202 46.8583 29.4499 46.0118 29.5941 45.5119L33.6527 23.9202C33.6631 23.865 33.6557 23.8068 33.6299 23.757Z" fill="var(--icon-main-empty-color)"/>
</svg>
