<svg width="70" height="70" viewBox="0 0 70 70" fill="none" xmlns="http://www.w3.org/2000/svg">
<mask id="mask0_1799_5687" style="mask-type:alpha" maskUnits="userSpaceOnUse" x="0" y="0" width="70" height="70">
<rect width="70" height="70" fill="#D9D9D9"/>
</mask>
<g mask="url(#mask0_1799_5687)">
<path d="M61.3187 27.3891L61.319 27.3886L54.9972 22.1934V7.24527C54.9972 6.46589 54.3381 5.83398 53.5251 5.83398H21.8736C21.4832 5.83398 21.1088 5.98264 20.8328 6.24737L13.1033 13.6579C12.8273 13.9226 12.6721 14.2816 12.6721 14.6558V22.1964L6.35381 27.3887L6.35417 27.3892C5.28082 28.3018 4.66797 29.5704 4.66797 30.9004V59.3525C4.66797 62.0075 7.05192 64.1673 9.98211 64.1673H57.6906C60.619 64.1673 63.0013 62.0073 63.0013 59.3525V30.9004C63.0013 29.5688 62.3897 28.3002 61.3187 27.3892V27.3891ZM7.61214 59.3525V30.9004C7.61214 30.7958 7.6249 30.6932 7.64404 30.5918L25.3357 45.1267L7.64477 59.6605C7.62515 59.5596 7.61202 59.4571 7.61202 59.3525H7.61214ZM27.598 46.9853L31.6513 50.3154C32.2739 50.8283 33.0546 51.0847 33.8353 51.0847C34.616 51.0847 35.3952 50.8286 36.0164 50.3168L40.0734 46.9842L57.5536 61.3449H10.1193L27.598 46.9855V46.9853ZM42.3359 45.1256L60.0262 30.5938C60.0449 30.6945 60.0574 30.7964 60.0574 30.9003V59.3524C60.0574 59.4562 60.0445 59.5578 60.0252 59.6579L42.336 45.1255L42.3359 45.1256ZM58.0988 28.4599L54.9972 31.0079V25.911L58.0988 28.4599ZM52.0531 33.4262L34.0992 48.1746C33.9585 48.2905 33.711 48.2907 33.5686 48.1733L15.6162 33.4241V16.9939H22.5725C23.3854 16.9939 24.0445 16.362 24.0445 15.5826V8.65657H52.0531V33.4262ZM21.1004 9.98235V14.1712H16.7313L21.1004 9.98235ZM12.6721 31.0055L9.57386 28.4601L12.6721 25.9141V31.0056V31.0055ZM36.7554 25.5832C36.7554 24.8065 37.416 24.1731 38.2297 24.1731C39.0433 24.1731 39.7005 24.8064 39.7005 25.5832C39.7005 26.36 39.0399 26.9933 38.2297 26.9933C37.4195 26.9933 36.7554 26.36 36.7554 25.5832ZM32.3639 25.5832C32.3639 24.8065 33.0245 24.1731 33.8347 24.1731C34.6449 24.1731 35.3089 24.8064 35.3089 25.5832C35.3089 26.36 34.6484 26.9933 33.8347 26.9933C33.021 26.9933 32.3639 26.36 32.3639 25.5832ZM27.9724 25.5832C27.9724 24.8065 28.633 24.1731 29.4432 24.1731C30.2533 24.1731 30.914 24.8064 30.914 25.5832C30.914 26.36 30.2534 26.9933 29.4432 26.9933C28.6329 26.9933 27.9724 26.36 27.9724 25.5832ZM22.0889 24.4087C21.8347 26.7564 22.3569 29.1376 23.5628 31.1755L22.9828 34.354C22.9001 34.807 23.0527 35.27 23.3918 35.595C23.731 35.9202 24.2143 36.0667 24.6862 35.9874L28.0052 35.4312C29.7798 36.3965 31.8032 36.9047 33.8481 36.9047C34.2523 36.9047 34.6577 36.8848 35.0619 36.8447C37.7453 36.5781 40.2758 35.423 42.1875 33.5921C42.1877 33.5918 42.1881 33.5915 42.1885 33.5911C46.7911 29.1746 46.791 21.9911 42.1885 17.5785C39.958 15.4382 36.992 14.2595 33.8365 14.2595C30.6811 14.2595 27.7152 15.4382 25.4857 17.5776C23.5741 19.4086 22.3679 21.8345 22.0892 24.4086L22.0889 24.4087ZM33.8363 17.0822C36.2048 17.0822 38.4312 17.967 40.1059 19.5741C43.5612 22.8868 43.5611 28.2797 40.1059 31.5958C37.1896 34.3886 32.5539 34.8782 29.0825 32.76C28.8448 32.615 28.5704 32.5392 28.2922 32.5392C28.2078 32.5392 28.1229 32.5462 28.0388 32.5603L26.2438 32.861L26.5572 31.1435C26.6207 30.7965 26.5463 30.4396 26.3491 30.1424C24.1381 26.8122 24.6499 22.3677 27.5673 19.5735C29.2415 17.9668 31.4681 17.0822 33.8363 17.0822Z" fill="var(--main-color)"/>
<path d="M54.6452 7.24382C54.6447 6.67183 54.1552 6.18424 53.5218 6.18424H21.8714C21.5691 6.18424 21.2809 6.29794 21.0716 6.4987L13.3424 13.9089C13.1336 14.1091 13.0189 14.3798 13.0189 14.6562V22.3604L6.57943 27.6559C5.57821 28.5072 5.01628 29.6811 5.01628 30.9007V59.3519C5.01632 61.7817 7.20916 63.8156 9.97917 63.8158H57.6872C60.4553 63.8158 62.6477 61.7819 62.6478 59.3519V30.9007C62.6478 29.6793 62.0876 28.5053 61.0892 27.6559L61.0277 27.6035L54.6452 22.3581V7.24382ZM31.8701 50.0436C32.4254 50.5011 33.1271 50.7339 33.832 50.734C34.5373 50.734 35.2375 50.5025 35.7917 50.0459L39.8477 46.7122L40.071 46.5299L40.292 46.7122L58.528 61.6943H9.13835L9.89486 61.0745L27.2445 46.8193V46.2451L31.8701 50.0436ZM36.236 50.5859C35.5478 51.153 34.6881 51.4336 33.832 51.4336C32.9763 51.4334 32.1151 51.1537 31.4258 50.5859L27.5931 47.4368L11.0934 60.9948H56.5752L40.0687 47.4368L36.236 50.5859ZM7.86458 30.3197L25.556 44.8551L25.8841 45.1263L25.556 45.3975L7.86458 59.9307L7.41113 60.3021L7.29948 59.7256C7.27713 59.6105 7.25847 59.4852 7.25846 59.3519V30.9007C7.25846 30.7683 7.2755 30.6422 7.2972 30.527L7.40658 29.946L7.86458 30.3197ZM60.3669 30.5293C60.388 30.6435 60.4056 30.7691 60.4056 30.9007V59.3519C60.4056 59.4843 60.3888 59.609 60.3669 59.7233L60.2552 60.3021L42.1104 45.3952L42.3223 45.1331L42.0921 44.8734L42.3154 44.6569L42.3314 44.6706L60.2598 29.946L60.3669 30.5293ZM7.96029 58.944L24.7812 45.124L7.96029 31.304V58.944ZM42.8828 45.124L59.7038 58.9417V31.3086L42.8828 45.124ZM52.4007 8.30566V33.5918L34.3197 48.444C34.1743 48.5638 33.993 48.6105 33.832 48.6104C33.6708 48.6101 33.4901 48.5618 33.3444 48.4417L15.2633 33.5895V16.6432H22.571C23.2041 16.6427 23.6921 16.1534 23.6921 15.5814V8.30566H52.4007ZM33.8343 13.9089C37.0774 13.9089 40.1301 15.1209 42.4271 17.3245C47.1734 21.875 47.1732 29.2882 42.4271 33.8424C42.4251 33.8443 42.4292 33.8404 42.4271 33.8424C40.4579 35.7284 37.8538 36.9178 35.0944 37.1921C34.6787 37.2333 34.2613 37.2536 33.8457 37.2536C31.7845 37.2536 29.7448 36.7493 27.944 35.793L24.7425 36.333C24.1642 36.4301 23.5682 36.2507 23.1475 35.8477C22.7259 35.4435 22.5309 34.8624 22.6348 34.2913L23.1908 31.2357C21.9956 29.1596 21.4817 26.7488 21.7393 24.3701L21.7598 24.1764L21.7643 24.1742C22.0909 21.5896 23.3204 19.1646 25.2415 17.3245C27.5377 15.1213 30.5908 13.9089 33.8343 13.9089ZM33.8343 14.6084C30.7671 14.6084 27.8874 15.755 25.7246 17.8304C23.8715 19.6057 22.7039 21.9555 22.4342 24.4453C22.1883 26.7169 22.6931 29.023 23.8607 30.9964L23.929 31.1081L23.904 31.238L23.3252 34.4167C23.2643 34.7509 23.3746 35.0962 23.6305 35.3418C23.8881 35.5888 24.261 35.7039 24.6263 35.6426L27.944 35.0843L28.0648 35.0661L28.1696 35.123C29.8918 36.0599 31.8581 36.554 33.8457 36.554C34.2381 36.554 34.6315 36.5337 35.0238 36.4948C37.6305 36.2358 40.0878 35.1142 41.9417 33.3389C46.2615 29.1938 46.3989 22.5366 42.3496 18.2383L41.944 17.8304C39.7803 15.7541 36.9013 14.6085 33.8343 14.6084ZM33.8343 16.7321C36.2908 16.7323 38.6055 17.6497 40.3467 19.3206C43.9458 22.7712 43.9453 28.3949 40.3467 31.8486C37.3145 34.7516 32.5017 35.2585 28.8965 33.0586C28.7152 32.9484 28.5045 32.8878 28.2904 32.8877C28.2251 32.8877 28.159 32.8951 28.0944 32.9059L26.2988 33.2044L25.8066 33.2887L25.8978 32.7965L26.21 31.0807C26.2568 30.8242 26.2027 30.5583 26.055 30.3356C23.749 26.8624 24.2846 22.2303 27.3219 19.3206C29.0628 17.65 31.3778 16.7321 33.8343 16.7321ZM33.8343 17.4316C31.5543 17.4316 29.4148 18.2838 27.8073 19.8265C25.0105 22.5054 24.5226 26.7615 26.6383 29.9482C26.8849 30.3198 26.978 30.7688 26.8981 31.2061L26.6748 32.432L27.9782 32.2155C28.0817 32.1981 28.1868 32.1882 28.2904 32.1882C28.6315 32.1883 28.97 32.2827 29.2633 32.4616C32.6004 34.497 37.0612 34.0242 39.8613 31.3428C43.1728 28.1645 43.1725 23.0014 39.8613 19.8265C38.2535 18.2835 36.1143 17.4318 33.8343 17.4316ZM58.3184 28.1891L58.6465 28.4603L58.3184 28.7292L55.2171 31.2767L54.6452 31.7484V25.1699L58.3184 28.1891ZM13.0189 31.0055H12.6702L12.4469 31.2744L9.34798 28.7292L9.01986 28.4603L9.34798 28.1891L12.4469 25.6439L13.0189 25.1722V31.0055ZM55.3447 30.265L57.5436 28.458L55.3447 26.651V30.265ZM10.1204 28.458L12.3193 30.2627V26.6533L10.1204 28.458ZM30.5622 25.5824C30.562 25.0129 30.0716 24.5231 29.4411 24.5228C28.8103 24.5228 28.3201 25.0128 28.32 25.5824C28.32 26.1521 28.8101 26.6419 29.4411 26.6419C30.0718 26.6417 30.5622 26.1519 30.5622 25.5824ZM34.9554 25.5824C34.9553 25.0137 34.464 24.5228 33.832 24.5228C33.2012 24.5228 32.7111 25.0128 32.7109 25.5824C32.7109 26.1526 33.1982 26.6419 33.832 26.6419C34.467 26.6419 34.9554 26.1516 34.9554 25.5824ZM39.3486 25.5824C39.3485 25.0123 38.8611 24.523 38.2275 24.5228C37.5927 24.5228 37.102 25.0133 37.1019 25.5824C37.1019 26.1511 37.5955 26.6419 38.2275 26.6419C38.8583 26.6417 39.3486 26.152 39.3486 25.5824ZM21.4476 14.5195H15.8581L16.487 13.918L20.8551 9.72982L21.4476 9.16016V14.5195ZM17.599 13.82H20.748V10.8008L17.599 13.82ZM31.2617 25.5824C31.2617 26.566 30.4303 27.3435 29.4411 27.3438C28.4516 27.3438 27.6204 26.5662 27.6204 25.5824C27.6206 24.5987 28.4518 23.8232 29.4411 23.8232C30.4301 23.8235 31.2616 24.5988 31.2617 25.5824ZM35.6572 25.5824C35.6572 26.5667 34.8244 27.3438 33.832 27.3438C32.8386 27.3437 32.0114 26.5657 32.0114 25.5824C32.0115 24.5988 32.8426 23.8233 33.832 23.8232C34.8204 23.8232 35.6571 24.5976 35.6572 25.5824ZM40.0482 25.5824C40.0482 26.5661 39.2168 27.3435 38.2275 27.3438C37.2391 27.3438 36.4023 26.5672 36.4023 25.5824C36.4025 24.5982 37.2352 23.8232 38.2275 23.8232C39.2207 23.8235 40.0481 24.5993 40.0482 25.5824ZM24.3916 15.5814C24.3916 16.5675 23.5627 17.3422 22.571 17.3428H15.9629V33.2568L33.7887 47.9017L33.7978 47.9062C33.8066 47.9089 33.8185 47.9107 33.832 47.9108C33.8463 47.9108 33.8599 47.909 33.8685 47.9062L33.873 47.904L51.7012 33.2591V9.00521H24.3916V15.5814ZM55.3447 22.0277L61.5381 27.1182L61.8047 27.3346L61.7887 27.3529C62.778 28.305 63.3496 29.5678 63.3496 30.9007V59.3519C63.3496 62.2315 60.7757 64.5176 57.6872 64.5176H9.97917C6.88915 64.5174 4.3145 62.2317 4.31445 59.3519V30.9007C4.31445 29.5685 4.88826 28.3062 5.87988 27.3529L5.86621 27.3346L6.12826 27.1182L12.3193 22.0299V14.6562C12.3193 14.1843 12.5162 13.7343 12.8594 13.4053L20.5885 5.99512C20.9312 5.66641 21.3928 5.48242 21.8714 5.48242H53.5218C54.5137 5.48242 55.3443 6.25776 55.3447 7.24382V22.0277Z" fill="var(--main-color)"/>
</g>
</svg>
