<svg width="70" height="70" viewBox="0 0 70 70" fill="none" xmlns="http://www.w3.org/2000/svg">
<circle cx="35" cy="35" r="35" fill="#FFE5EB"/>
<path fill-rule="evenodd" clip-rule="evenodd" d="M13.3549 62.5056C13.3253 62.1432 13.3099 61.8626 13.3099 61.6892C13.3099 52.1107 21.1249 44.3506 30.7711 44.3506H39.722C49.3683 44.3506 57.1832 52.1107 57.1832 61.6892C57.1832 61.7881 57.1782 61.9218 57.1684 62.0857C51.1323 67.0317 43.4129 69.9997 35.0004 69.9997C26.8286 69.9997 19.311 67.1992 13.3549 62.5056ZM44.1103 36.0372C41.7595 38.3715 38.5711 39.6829 35.2466 39.6829C31.922 39.6829 28.7336 38.3715 26.3828 36.0372C24.032 33.7029 22.7113 30.537 22.7113 27.2358C22.7113 23.9346 24.032 20.7686 26.3828 18.4343C28.7336 16.1 31.922 14.7886 35.2466 14.7886C38.5711 14.7886 41.7595 16.1 44.1103 18.4343C46.4611 20.7686 47.7818 23.9346 47.7818 27.2358C47.7818 30.537 46.4611 33.7029 44.1103 36.0372Z" fill="var(--main-color)"/>
</svg>
