<svg width="17" height="18" viewBox="0 0 17 18" fill="none" xmlns="http://www.w3.org/2000/svg">
<path d="M14.7217 11.6666H14.2774C14.0316 11.6666 13.8329 11.4674 13.8329 11.2221C13.8329 10.9769 14.0316 10.7776 14.2774 10.7776H14.7217C15.212 10.7776 15.6107 10.379 15.6107 9.8888V8.99996C15.6107 8.50972 15.212 8.11096 14.7217 8.11096H14.2774C14.0316 8.11096 13.8329 7.9119 13.8329 7.66662V6.77762C13.8329 3.83685 11.4405 1.44426 8.49954 1.44426C5.55861 1.44426 3.16618 3.83685 3.16618 6.77762V7.66662C3.16618 7.9119 2.96713 8.11096 2.72168 8.11096C2.4764 8.11096 2.27734 7.9119 2.27734 7.66662V6.77762C2.27734 3.34661 5.06837 0.55542 8.49954 0.55542C11.9307 0.55542 14.7217 3.34661 14.7217 6.77762V7.22212C15.7022 7.22212 16.4996 8.01949 16.4996 8.99996V9.8888C16.4996 10.8693 15.7022 11.6666 14.7217 11.6666Z" fill="var(--main-color)" stroke="var(--main-color)" stroke-width="0.4"/>
<path d="M2.72218 11.6667H2.27784C1.29737 11.6667 0.5 10.8693 0.5 9.88885V9.00001C0.5 8.01954 1.29737 7.22217 2.27784 7.22217H2.72218C2.96762 7.22217 3.16668 7.42122 3.16668 7.66667V11.2222C3.16668 11.4675 2.96762 11.6667 2.72218 11.6667ZM2.27784 8.11101C1.7876 8.11101 1.38884 8.50977 1.38884 9.00001V9.88885C1.38884 10.3791 1.7876 10.7777 2.27784 10.7777V8.11101Z" fill="var(--main-color)" stroke="var(--main-color)" stroke-width="0.4"/>
<path d="M8.50131 17.4444C7.76612 17.4444 7.16797 16.8462 7.16797 16.111C7.16797 15.376 7.76612 14.7777 8.50131 14.7777C9.0809 14.7777 9.57504 15.1493 9.75864 15.6667H9.83465C12.0404 15.6667 13.8347 13.8724 13.8347 11.6667V9.44434C13.8347 9.19906 14.0334 9 14.2792 9C14.5249 9 14.7235 9.19906 14.7235 9.44434V11.6667C14.7235 14.3622 12.5301 16.5555 9.83465 16.5555H9.39015C9.14438 16.5555 8.94581 16.3568 8.94581 16.111C8.94581 15.8658 8.74626 15.6667 8.50131 15.6667C8.25635 15.6667 8.05681 15.8658 8.05681 16.111C8.05681 16.3565 8.25635 16.5555 8.50131 16.5555C8.74659 16.5555 8.94581 16.7543 8.94581 17C8.94581 17.2458 8.74659 17.4444 8.50131 17.4444Z" fill="var(--main-color)" stroke="var(--main-color)" stroke-width="0.4"/>
<path d="M12.5012 7.22235C12.2554 7.22235 12.0567 7.0233 12.0567 6.77785C12.0567 4.8174 10.4616 3.22234 8.50116 3.22234C6.5407 3.22234 4.94564 4.8174 4.94564 6.77785C4.94564 7.0233 4.74642 7.22235 4.50114 7.22235C4.25586 7.22235 4.05664 7.0233 4.05664 6.77785C4.05664 4.32716 6.05047 2.3335 8.50116 2.3335C10.9519 2.3335 12.9457 4.32716 12.9457 6.77785C12.9457 7.0233 12.7469 7.22235 12.5012 7.22235Z" fill="var(--main-color)" stroke="var(--main-color)" stroke-width="0.4"/>
<path d="M6.27734 12.1111H7.16618V13.0001H6.27734V12.1111Z" fill="var(--main-color)" stroke="var(--main-color)" stroke-width="0.4"/>
<path d="M8.05664 12.1111H8.94564V13.0001H8.05664V12.1111Z" fill="var(--main-color)" stroke="var(--main-color)" stroke-width="0.4"/>
<path d="M9.83398 12.1111H10.7228V13.0001H9.83398V12.1111Z" fill="var(--main-color)" stroke="var(--main-color)" stroke-width="0.4"/>
</svg>
