<svg width="52" height="52" viewBox="0 0 52 52" fill="none" xmlns="http://www.w3.org/2000/svg">
<g clip-path="url(#clip0_351_4270)">
<path d="M35.8636 34.1701C35.5085 35.9314 35.1535 36.9882 34.4433 37.6928C34.0883 38.3973 33.023 38.7495 31.9577 39.1018C30.5373 39.4541 29.369 39.8539 25.4729 39.873C21.5767 39.8919 20.0377 39.4008 18.9725 39.0485C17.9072 38.6963 17.3992 38.3973 16.6891 37.6928C15.9788 36.9882 15.6237 35.5791 15.2687 34.1701L14.5585 25.7158H0C-5.46092e-08 30.2952 0.355087 34.1701 1.06526 37.3405C1.77543 40.8631 2.84068 43.6812 4.9712 45.7948C6.74663 47.9083 9.58729 49.3174 12.7831 50.3742C15.9788 51.431 20.5949 51.7833 25.5661 51.7833C30.8924 51.7833 35.1535 51.431 38.3492 50.3742C41.5451 49.3174 44.3857 47.9083 46.1612 45.7948C47.9366 43.6812 49.3569 40.8631 50.0671 37.3405C50.7772 34.1701 51.1324 30.2952 51.1324 25.7158C45.5855 25.7158 36.9289 25.7158 36.9289 25.7158L35.8636 34.1701Z" fill="var(--main-color)"/>
<path d="M17.2087 8.7353C17.2087 13.4123 13.3376 17.3098 8.69223 17.3098C4.04689 17.3098 0.175781 13.4123 0.175781 8.7353C0.175781 4.05836 4.04689 0.160889 8.69223 0.160889C13.3376 0.160889 17.2087 4.05836 17.2087 8.7353Z" fill="var(--main-color)"/>
<path d="M51.2184 8.5744C51.2184 13.2514 47.3473 17.1489 42.702 17.1489C38.0567 17.1489 34.1855 13.2514 34.1855 8.5744C34.1855 3.89747 38.0567 2.03052e-07 42.702 0C47.3473 -2.03052e-07 51.2184 3.89747 51.2184 8.5744Z" fill="var(--main-color)"/>
</g>
<defs>
<clipPath id="clip0_351_4270">
<rect width="52" height="52" fill="white"/>
</clipPath>
</defs>
</svg>
