<svg width="32" height="32" viewBox="0 0 32 32" fill="none" xmlns="http://www.w3.org/2000/svg">
<circle cx="16" cy="16" r="16" fill="#FF7C5C"/>
<path d="M19.203 18.6741C19.0921 19.2243 18.9812 19.5544 18.7593 19.7745C18.6484 19.9946 18.3157 20.1047 17.9829 20.2147C17.5392 20.3247 17.1742 20.4496 15.9572 20.4556C14.7401 20.4615 14.2593 20.3081 13.9266 20.1981C13.5938 20.088 13.4351 19.9946 13.2133 19.7745C12.9914 19.5544 12.8805 19.1143 12.7696 18.6741L12.5478 16.0332H8C8 17.4637 8.11092 18.6741 8.33276 19.6645C8.55461 20.7649 8.88737 21.6452 9.5529 22.3054C10.1075 22.9657 10.9949 23.4058 11.9932 23.736C12.9914 24.0661 14.4334 24.1761 15.9863 24.1761C17.6501 24.1761 18.9812 24.0661 19.9795 23.736C20.9778 23.4058 21.8651 22.9657 22.4198 22.3054C22.9744 21.6452 23.418 20.7649 23.6399 19.6645C23.8617 18.6741 23.9726 17.4637 23.9726 16.0332C22.2399 16.0332 19.5358 16.0332 19.5358 16.0332L19.203 18.6741Z" fill="white"/>
<path d="M13.3754 10.7288C13.3754 12.1897 12.1662 13.4072 10.715 13.4072C9.26394 13.4072 8.05469 12.1897 8.05469 10.7288C8.05469 9.26778 9.26394 8.05029 10.715 8.05029C12.1662 8.05029 13.3754 9.26778 13.3754 10.7288Z" fill="white"/>
<path d="M23.9994 10.6785C23.9994 12.1394 22.7902 13.3569 21.3391 13.3569C19.888 13.3569 18.6787 12.1394 18.6787 10.6785C18.6787 9.21748 19.888 8 21.3391 8C22.7902 8 23.9994 9.21748 23.9994 10.6785Z" fill="white"/>
</svg>
